<svg height="512" viewBox="0 0 64 64" width="512" xmlns="http://www.w3.org/2000/svg"><g id="flat"><path d="m22 34h20a0 0 0 0 1 0 0v2a2 2 0 0 1 -2 2h-16a2 2 0 0 1 -2-2v-2a0 0 0 0 1 0 0z" fill="#f98c96"/><path d="m44 30h-24l-1.411-.706a1.789 1.789 0 0 0 -2.589 1.6 1.789 1.789 0 0 0 .989 1.6l3.011 1.506h24l3.011-1.506a1.789 1.789 0 0 0 .989-1.6 1.789 1.789 0 0 0 -2.589-1.6z" fill="#db527d"/><path d="m37 38v5a7.5 7.5 0 0 1 3 6 8 8 0 0 1 -16 0 7.5 7.5 0 0 1 3-6v-5a12.131 12.131 0 0 0 -7 11 12 12 0 0 0 24 0 12.131 12.131 0 0 0 -7-11z" fill="#fcf05a"/><path d="m27 38h10v5h-10z" fill="#db527d"/><path d="m43.07 13c0-6.075-5.547-10-11.07-10s-11.07 3.925-11.07 10c0 3.567 2.677 7.286 5.07 9 1.256.9 1.233 2.473 1 4l-1.07 4h12.14l-1.07-4c-.233-1.527-.256-3.1 1-4 2.393-1.714 5.07-5.433 5.07-9z" fill="#ffd782"/><g fill="#f4f4e6"><path d="m39.98 16.2-1.96-.4c.563-2.819.249-4.907-.936-6.206-1.751-1.92-4.945-1.608-4.976-1.6l-.218-1.988c.17-.02 4.216-.434 6.661 2.232 1.649 1.796 2.127 4.473 1.429 7.962z"/><path d="m35 17h2v2h-2z"/></g></g></svg>