<svg height="511pt" viewBox="0 -28 511.99996 511" width="511pt" xmlns="http://www.w3.org/2000/svg"><path d="m235.253906 178.722656c-2.421875-15.574218-17.015625-26.28125-32.585937-23.847656-15.574219 2.421875-26.242188 16.972656-23.820313 32.546875.117188.769531 9.070313 63.519531-17.890625 103.0625-3.566406 5.234375-9.984375 7.773437-16.128906 6.238281-10.046875-2.507812-20.609375-3.714844-31.496094-3.425781-63.527343 1.6875-114.339843 54.832031-113.316406 118.367187.160156 9.894532 1.550781 19.484376 4.03125 28.628907 2.324219 8.574219 10.214844 14.449219 19.101563 14.449219h186.6875c8.980468 0 16.847656-6.023438 19.175781-14.695313 2.597656-9.660156 3.980469-19.816406 3.980469-30.292969 0-30.441406-11.679688-58.148437-30.796876-78.902344 46.808594-58.730468 33.761719-147.617187 33.058594-152.128906zm0 0" fill="#f8eedb"/><path d="m235.253906 178.722656c-2.421875-15.574218-17.015625-26.28125-32.585937-23.847656-4.148438.644531-7.941407 2.15625-11.238281 4.308594 6.542968 4.28125 11.316406 11.214844 12.613281 19.539062.660156 4.25 12.257812 83.269532-25.429688 141.511719-4.144531 6.40625-3.734375 14.679687.769531 20.835937 14.082032 19.257813 22.398438 43 22.398438 68.683594 0 10.476563-1.386719 20.632813-3.980469 30.292969-2.332031 8.671875-10.195312 14.695313-19.175781 14.695313h31.210938c8.980468 0 16.847656-6.023438 19.175781-14.695313 2.597656-9.660156 3.980469-19.816406 3.980469-30.292969 0-27.585937-9.589844-52.929687-25.617188-72.886718-2.902344-3.613282-2.976562-8.726563-.316406-12.519532 41.015625-58.566406 28.871094-141.277344 28.195312-145.625zm0 0" fill="#f8e4bf"/><path d="m231.597656 36.40625c-9.175781-14.707031-26.976562-32.035156-60.714844-35.855469-5.929687-.671875-10.191406 5.5625-7.441406 10.859375 4.234375 8.160156 9.597656 20.015625 13.324219 33.644532-38.117187 16.855468-64.691406 55.054687-64.542969 99.449218.179688 53.597656 39.871094 98.285156 91.160156 106.550782 5.921876.953124 18.726563-.574219 18.726563-.574219s8.167969 1.59375 12.414063 1.042969c53.183593-6.871094 94.273437-52.332032 94.273437-107.390626.003906-56.0625-42.601563-102.171874-97.199219-107.726562zm0 0" fill="#f8eedb"/><path d="m231.597656 36.40625c-9.175781-14.707031-26.976562-32.035156-60.714844-35.855469-3.914062-.445312-7.082031 2.125-8.007812 5.441407 19.199219 7.21875 30.71875 19.53125 37.507812 30.414062 54.601563 5.554688 97.203126 51.664062 97.203126 107.730469 0 54.488281-40.25 99.570312-92.636719 107.15625 5.425781.792969 10.976562 1.179687 16.625 1.125 59.316406-.570313 107.226562-48.832031 107.226562-108.28125 0-56.066407-42.605469-102.175781-97.203125-107.730469zm0 0" fill="#f8e4bf"/><path d="m394.167969 76.300781c33.503906-25.777343 31.441406 69.898438 31.441406 69.898438-.671875-.027344-64.945313-44.125-31.441406-69.898438" fill="#ff9ab6"/><path d="m471.796875 80.09375c-29.589844-30.1875-40.871094 64.839844-40.871094 64.839844.667969.070312 70.460938-34.648438 40.871094-64.839844" fill="#ff9ab6"/><path d="m512 332.304688c0 46.59375-37.769531 84.363281-84.359375 84.363281-46.59375 0-84.363281-37.769531-84.363281-84.363281 0-46.589844 84.363281-179.84375 84.363281-179.84375s84.359375 133.253906 84.359375 179.84375zm0 0" fill="#ffadc6"/><path d="m427.640625 152.457031s-6.375 10.070313-15.609375 25.621094c24.382812 41.066406 68.753906 120.433594 68.753906 154.226563 0 41.257812-29.621094 75.574218-68.753906 82.894531 5.0625.949219 10.273438 1.464843 15.609375 1.464843 46.589844 0 84.359375-37.769531 84.359375-84.359374 0-46.589844-84.359375-179.847657-84.359375-179.847657zm0 0" fill="#ff9ab6"/><path d="m229.585938 108.226562c0-8.082031-4.242188-14.632812-9.476563-14.632812-5.230469 0-9.472656 6.550781-9.472656 14.632812 0 8.085938 4.242187 14.636719 9.472656 14.636719 5.234375 0 9.476563-6.550781 9.476563-14.636719zm0 0" fill="#f1c59a"/><path d="m149.21875 375.203125c-3.609375-2.371094-8.441406-1.371094-10.808594 2.230469-.164062.246094-6.570312 9.820312-16.976562 20.25-3.367188-4.863282-2.734375-11.183594-2.6875-11.617188.539062-4.253906-2.453125-8.148437-6.707032-8.714844-4.269531-.574218-8.195312 2.425782-8.765624 6.699219-.09375.679688-1.722657 13.882813 6.4375 24.089844-5.230469 4.101563-11 7.871094-17.160157 10.742187-12.003906-8.476562-10.320312-29.554687-10.289062-29.933593.398437-4.28125-2.738281-8.082031-7.027344-8.492188-4.289063-.410156-8.097656 2.730469-8.507813 7.023438-.105468 1.09375-1.894531 21.746093 8.976563 36.464843-8.304687 1.078126-17 .035157-25.804687-4.234374-3.875-1.878907-8.542969-.257813-10.425782 3.617187-1.878906 3.878906-.257812 8.546875 3.617188 10.425781 24.222656 11.742188 50.863281 6.921875 77.042968-13.941406 18.84375-15.015625 30.8125-33.039062 31.3125-33.796875 2.367188-3.601563 1.371094-8.441406-2.226562-10.8125zm0 0" fill="#f8e4bf"/><path d="m493.222656 151.339844-206.492187 44.890625c-8.648438 1.878906-17.613281-1.496094-22.796875-8.667969-6.339844-8.777344-13.132813-22.855469-13.132813-42.898438 0-16.234374 3.714844-27.449218 7.933594-34.953124 4.753906-8.457032 14.507813-12.773438 24-10.773438l210.464844 44.359375c4.339843.910156 4.359375 7.097656.023437 8.042969zm0 0" fill="#faa130"/><path d="m495.828125 145.101562c-.535156-.863281-1.402344-1.550781-2.628906-1.808593l-210.464844-44.359375c-9.492187-2-19.246094 2.320312-24.003906 10.777344-4.214844 7.5-7.929688 18.714843-7.929688 34.949218 0 .152344.007813.292969.011719.441406zm0 0" fill="#ff8a00"/></svg>