<?xml version="1.0" encoding="iso-8859-1"?>
<!-- Generator: Adobe Illustrator 19.0.0, SVG Export Plug-In . SVG Version: 6.00 Build 0)  -->
<svg version="1.1" id="Capa_1" xmlns="http://www.w3.org/2000/svg" xmlns:xlink="http://www.w3.org/1999/xlink" x="0px" y="0px"
	 viewBox="0 0 512 512" style="enable-background:new 0 0 512 512;" xml:space="preserve">
<g>
	<path style="fill:#E683A7;" d="M493.548,272.389h-21.745l-20.427,66.887l20.427,66.887h21.745c10.191,0,18.452-8.261,18.452-18.451
		v-96.87C512,280.649,503.739,272.389,493.548,272.389z"/>
	<path style="fill:#E683A7;" d="M18.452,272.389h21.745l20.427,66.887l-20.427,66.887H18.452C8.261,406.161,0,397.9,0,387.71v-96.87
		C0,280.649,8.261,272.389,18.452,272.389z"/>
</g>
<path style="fill:#FAB3CE;" d="M414.147,200.731h-39.536v-88.897c0-15.566-12.664-28.23-28.23-28.23H165.62
	c-15.566,0-28.23,12.664-28.23,28.23v88.897H97.853v-88.897c0-37.367,30.4-67.766,67.766-67.766H346.38
	c37.367,0,67.766,30.4,67.766,67.766v88.897H414.147z"/>
<g>
	<rect x="97.857" y="137.869" style="fill:#E683A7;" width="39.538" height="62.862"/>
	<rect x="374.605" y="137.869" style="fill:#E683A7;" width="39.538" height="62.862"/>
</g>
<path style="fill:#80C9FF;" d="M419.06,168.772H92.94c-29.129,0-52.744,23.614-52.744,52.744v184.645
	c0,34.115,27.656,61.772,61.772,61.772h308.065c34.115,0,61.772-27.656,61.772-61.772V221.516
	C471.804,192.386,448.191,168.772,419.06,168.772z"/>
<path style="fill:#6DAAD9;" d="M71.101,406.161V221.516c0-29.129,23.614-52.743,52.744-52.743H92.94
	c-29.129,0-52.744,23.614-52.744,52.743V406.16c0,34.115,27.656,61.772,61.772,61.772h30.905
	C98.757,467.933,71.101,440.277,71.101,406.161z"/>
<path style="fill:#E683A7;" d="M403.274,275.001v106.472c0,19.858-16.091,35.949-35.949,35.949h-222.65
	c-19.858,0-35.949-16.091-35.949-35.949V275.001H403.274z"/>
<g>
	<path style="fill:#38484A;" d="M177.197,369.734c-4.268,0-7.726-3.459-7.726-7.726v-14.262c0-4.267,3.458-7.726,7.726-7.726
		c4.268,0,7.726,3.459,7.726,7.726v14.262C184.924,366.275,181.465,369.734,177.197,369.734z"/>
	<path style="fill:#38484A;" d="M334.803,369.734c-4.268,0-7.726-3.459-7.726-7.726v-14.262c0-4.267,3.458-7.726,7.726-7.726
		s7.726,3.459,7.726,7.726v14.262C342.529,366.275,339.07,369.734,334.803,369.734z"/>
	<path style="fill:#38484A;" d="M256,377.346c-9.808,0-19.019-4.099-25.266-11.246c-2.809-3.212-2.481-8.093,0.731-10.902
		c3.214-2.807,8.094-2.482,10.902,0.731c3.314,3.79,8.283,5.964,13.632,5.964c5.351,0,10.32-2.174,13.632-5.964
		c2.808-3.213,7.689-3.541,10.901-0.732c3.213,2.808,3.542,7.689,0.732,10.902C275.02,373.247,265.809,377.346,256,377.346z"/>
</g>
<path style="fill:#FAB3CE;" d="M367.325,239.051H144.675c-19.858,0-35.949,16.091-35.949,35.949l11.675,11.675
	c14.472,14.473,34.101,22.603,54.569,22.603H337.03c20.468,0,40.096-8.13,54.569-22.603l11.675-11.675
	C403.274,255.143,387.182,239.051,367.325,239.051z"/>
<path style="fill:#F5F5F5;" d="M267.227,282.727h-22.454c-4.268,0-7.726-3.459-7.726-7.726c0-4.267,3.458-7.726,7.726-7.726h22.454
	c4.268,0,7.726,3.459,7.726,7.726C274.953,279.268,271.495,282.727,267.227,282.727z"/>
<g>
</g>
<g>
</g>
<g>
</g>
<g>
</g>
<g>
</g>
<g>
</g>
<g>
</g>
<g>
</g>
<g>
</g>
<g>
</g>
<g>
</g>
<g>
</g>
<g>
</g>
<g>
</g>
<g>
</g>
</svg>
