<?xml version="1.0" encoding="iso-8859-1"?>
<!-- Generator: Adobe Illustrator 19.0.0, SVG Export Plug-In . SVG Version: 6.00 Build 0)  -->
<svg version="1.1" id="Capa_1" xmlns="http://www.w3.org/2000/svg" xmlns:xlink="http://www.w3.org/1999/xlink" x="0px" y="0px"
	 viewBox="0 0 512 512" style="enable-background:new 0 0 512 512;" xml:space="preserve">
<path style="fill:#80C9FF;" d="M463.017,160.054l28.158-44.92l-28.951-47.921c-9.629-15.935-24.296-28.205-41.679-34.862
	L364.89,11.037h-23.146l-27.693,33.36L256,63.57l-58.051-19.173l-27.694-33.36h-23.146L91.455,32.35
	c-17.383,6.657-32.051,18.928-41.679,34.862l-28.951,47.921l28.158,44.92l42.494,32.762l19.3-10.289
	c-0.501,1.544-44.353,136.66-12.015,292.193l54.808,18.64l54.808-18.64l15.833-49.082c2.442-7.568,9.486-12.697,17.438-12.697
	h28.705c7.952,0,14.996,5.129,17.438,12.697l15.833,49.082l54.808,18.64l54.808-18.64c32.338-155.534-11.514-290.648-12.015-292.193
	l19.3,10.289L463.017,160.054z"/>
<g>
	<path style="fill:#6DAAD9;" d="M208.377,474.719l-6.679,20.717C198.514,505.311,189.321,512,178.946,512h-52.619
		c-11.014,0-20.589-7.52-23.231-18.203c-1.576-6.391-3.014-12.75-4.335-19.077L208.377,474.719L208.377,474.719z"/>
	<path style="fill:#6DAAD9;" d="M91.476,192.816l-17.511,9.342c-9.661,5.155-21.58,3.088-28.94-5.007l-32.317-35.534
		c-7.115-7.829-8.245-19.396-2.769-28.451l10.886-18.033L91.476,192.816z"/>
	<path style="fill:#6DAAD9;" d="M413.237,474.719c-0.735,3.537-1.512,7.072-2.322,10.63c-0.65,2.812-1.321,5.624-2.013,8.446
		C406.261,504.479,396.685,512,385.672,512h-52.619c-10.375,0-19.567-6.689-22.752-16.563l-6.679-20.717H413.237z"/>
	<path style="fill:#6DAAD9;" d="M499.291,161.618l-32.317,35.534c-7.361,8.095-19.28,10.162-28.94,5.007l-17.511-9.342
		l70.652-77.682l10.886,18.033C507.536,142.22,506.407,153.788,499.291,161.618z"/>
	<path style="fill:#6DAAD9;" d="M337.574,0.576c-4.08-1.562-8.709,0.146-10.732,4.018c-13.343,25.535-40.084,43-70.842,43
		c-30.748,0-57.499-17.465-70.842-43c-2.023-3.871-6.653-5.579-10.732-4.017l-27.316,10.46
		c17.224,43.256,59.489,73.836,108.891,73.836s91.668-30.581,108.891-73.836L337.574,0.576z"/>
</g>
<g>
	<circle style="fill:#D98F2D;" cx="191.562" cy="175.944" r="31.423"/>
	<circle style="fill:#D98F2D;" cx="320.438" cy="175.944" r="31.423"/>
</g>
<ellipse style="fill:#FFB641;" cx="256" cy="224.136" rx="84.681" ry="74.297"/>
<g>
	<path style="fill:#38484A;" d="M211.397,226.575c-4.268,0-7.726-3.459-7.726-7.726v-6.905c0-4.267,3.458-7.726,7.726-7.726
		c4.268,0,7.726,3.459,7.726,7.726v6.905C219.123,223.115,215.665,226.575,211.397,226.575z"/>
	<path style="fill:#38484A;" d="M300.602,226.575c-4.268,0-7.726-3.459-7.726-7.726v-6.905c0-4.267,3.458-7.726,7.726-7.726
		c4.268,0,7.726,3.459,7.726,7.726v6.905C308.329,223.115,304.87,226.575,300.602,226.575z"/>
	<path style="fill:#38484A;" d="M256,256.267c-9.562,0-18.54-3.997-24.632-10.966c-2.808-3.213-2.48-8.094,0.733-10.902
		s8.093-2.481,10.902,0.732c3.155,3.611,7.893,5.682,12.996,5.682s9.84-2.071,12.997-5.682c2.808-3.213,7.689-3.541,10.901-0.732
		c3.213,2.808,3.542,7.689,0.732,10.902C274.54,252.27,265.562,256.267,256,256.267z"/>
	<path style="fill:#38484A;" d="M267.362,216.148c0,4.855-5.087,8.792-11.362,8.792c-6.275,0-11.362-3.936-11.362-8.792
		C244.638,211.293,267.362,211.293,267.362,216.148z"/>
</g>
<g>
</g>
<g>
</g>
<g>
</g>
<g>
</g>
<g>
</g>
<g>
</g>
<g>
</g>
<g>
</g>
<g>
</g>
<g>
</g>
<g>
</g>
<g>
</g>
<g>
</g>
<g>
</g>
<g>
</g>
</svg>
