<?xml version="1.0" encoding="iso-8859-1"?>
<!-- Generator: Adobe Illustrator 19.0.0, SVG Export Plug-In . SVG Version: 6.00 Build 0)  -->
<svg version="1.1" id="Capa_1" xmlns="http://www.w3.org/2000/svg" xmlns:xlink="http://www.w3.org/1999/xlink" x="0px" y="0px"
	 viewBox="0 0 512 512" style="enable-background:new 0 0 512 512;" xml:space="preserve">
<g>
	<path style="fill:#FFB641;" d="M173.899,409.9c-3.647-0.58-36.583-6.397-69.525-31.595c-12.661-9.684-15.075-27.798-5.391-40.459
		c9.684-12.661,27.799-15.076,40.46-5.39c21.471,16.422,43.524,20.435,43.745,20.473l-0.215-0.036L173.899,409.9z"/>
	<path style="fill:#FFB641;" d="M338.101,409.9c3.647-0.58,36.583-6.397,69.525-31.595c12.661-9.684,15.075-27.798,5.391-40.459
		c-9.684-12.661-27.799-15.076-40.46-5.39c-21.471,16.422-43.524,20.435-43.745,20.473l0.215-0.036L338.101,409.9z"/>
</g>
<g>
	<path style="fill:#FA9E25;" d="M357.614,345.858c-9.066-17.349-18.392-27.468-18.392-27.468H173.026
		c0,0-10.458,11.347-19.991,30.611c-36.12,72.999,14.897,159.617,96.279,162.864c2.228,0.089,4.498,0.135,6.811,0.135
		c0.866,0,1.726-0.006,2.58-0.02C343.516,510.722,396.896,421.035,357.614,345.858z"/>
	<circle style="fill:#FA9E25;" cx="125.383" cy="61.182" r="56.625"/>
</g>
<circle style="fill:#FFDE76;" cx="125.383" cy="61.182" r="29.319"/>
<circle style="fill:#FA9E25;" cx="386.617" cy="61.182" r="56.625"/>
<circle style="fill:#FFDE76;" cx="386.617" cy="61.182" r="29.319"/>
<circle style="fill:#FFB641;" cx="256" cy="170.021" r="170.021"/>
<g>
	<path style="fill:#38484A;" d="M170.463,153.429c-4.267,0-7.726-3.459-7.726-7.726v-15.83c0-4.267,3.459-7.726,7.726-7.726
		s7.726,3.459,7.726,7.726v15.83C178.189,149.97,174.73,153.429,170.463,153.429z"/>
	<path style="fill:#38484A;" d="M341.538,153.429c-4.267,0-7.726-3.459-7.726-7.726v-15.83c0-4.267,3.459-7.726,7.726-7.726
		c4.267,0,7.726,3.459,7.726,7.726v15.83C349.264,149.97,345.805,153.429,341.538,153.429z"/>
</g>
<path style="fill:#FFDE76;" d="M281.199,141.24c31.319,10.516,53.862,40.113,53.862,74.968c0,43.661-35.391,79.062-79.062,79.062
	s-79.062-35.401-79.062-79.062c0-34.855,22.544-64.452,53.862-74.968L281.199,141.24L281.199,141.24z"/>
<g>
	<path style="fill:#38484A;" d="M281.199,141.24c-1.952,12.154-12.49,21.442-25.199,21.442c-12.71,0-23.247-9.288-25.199-21.442
		c7.914-2.666,16.393-4.104,25.199-4.104S273.285,138.574,281.199,141.24z"/>
	<path style="fill:#38484A;" d="M256,200.087c-11.795,0-22.86-4.92-30.358-13.499c-2.808-3.213-2.481-8.094,0.732-10.902
		c3.212-2.808,8.093-2.481,10.902,0.732c4.564,5.222,11.389,8.217,18.724,8.217c7.335,0,14.16-2.995,18.724-8.217
		c2.809-3.213,7.689-3.541,10.902-0.732c3.213,2.808,3.541,7.689,0.732,10.902C278.86,195.167,267.795,200.087,256,200.087z"/>
</g>
<g>
	<path style="fill:#FFB641;" d="M194.961,435.994c15.677,15.677,20.131,45.548,4.452,61.226
		c-15.677,15.677-45.548,11.225-61.226-4.452s-15.677-41.096,0-56.773S179.283,420.317,194.961,435.994z"/>
	<path style="fill:#FFB641;" d="M317.039,435.994c-15.677,15.677-20.131,45.548-4.452,61.226
		c15.677,15.677,45.548,11.225,61.226-4.452c15.677-15.677,15.677-41.096,0-56.773C358.135,420.317,332.717,420.317,317.039,435.994
		z"/>
</g>
<g>
	<path style="fill:#6DAAD9;" d="M237.519,353.585c0,0-48.952,36.931-48.952-13.535s48.952-13.535,48.952-13.535V353.585z"/>
	<path style="fill:#6DAAD9;" d="M274.481,353.585c0,0,48.952,36.931,48.952-13.535s-48.952-13.535-48.952-13.535V353.585z"/>
</g>
<path style="fill:#80C9FF;" d="M259.998,318.71h-7.996c-9.578,0-17.343,7.764-17.343,17.343v7.996
	c0,9.579,7.764,17.343,17.343,17.343h7.996c9.578,0,17.343-7.764,17.343-17.343v-7.996
	C277.34,326.475,269.576,318.71,259.998,318.71z"/>
<g>
</g>
<g>
</g>
<g>
</g>
<g>
</g>
<g>
</g>
<g>
</g>
<g>
</g>
<g>
</g>
<g>
</g>
<g>
</g>
<g>
</g>
<g>
</g>
<g>
</g>
<g>
</g>
<g>
</g>
</svg>
