<?xml version="1.0" encoding="iso-8859-1"?>
<!-- Generator: Adobe Illustrator 19.0.0, SVG Export Plug-In . SVG Version: 6.00 Build 0)  -->
<svg version="1.1" id="Capa_1" xmlns="http://www.w3.org/2000/svg" xmlns:xlink="http://www.w3.org/1999/xlink" x="0px" y="0px"
	 viewBox="0 0 512 512" style="enable-background:new 0 0 512 512;" xml:space="preserve">
<path style="fill:#FFB641;" d="M165.627,303.37c0,0,26.555-37.709,12.616-74.407c-2.511-6.61-6.477-12.543-11.208-17.796
	C106.523,143.981,124.087,0,256,0s149.477,143.981,88.965,211.168c-4.732,5.254-8.698,11.187-11.208,17.796
	c-13.94,36.698,12.616,74.407,12.616,74.407H165.627V303.37z"/>
<path style="fill:#FA9E25;" d="M209.148,228.964c-2.511-6.61-6.477-12.542-11.208-17.796
	c-58.06-64.464-44.223-199.603,73.513-210.45C266.481,0.261,261.344,0,256,0c-131.913,0-149.477,143.981-88.965,211.167
	c4.732,5.254,8.698,11.187,11.208,17.796c13.94,36.698-12.616,74.407-12.616,74.407h30.905
	C196.533,303.37,223.088,265.661,209.148,228.964z"/>
<path style="fill:#9AD48D;" d="M366.324,331.526c-0.002,0.001-0.004,0.002-0.006,0.002l0.004-0.006l-27.34-22.104l-37.157,34.73l0,0
	l0,0c10.932,11.411,17.671,26.87,17.671,43.884c0,35.012-28.484,63.496-63.496,63.496s-63.496-28.484-63.496-63.496
	c0-17.013,6.738-32.472,17.671-43.884l-37.157-34.73l-27.34,22.104c-8.72,16.955-13.647,36.168-13.647,56.511
	C132.031,456.388,187.643,512,256,512s123.969-55.612,123.969-123.969C379.968,367.691,375.042,348.479,366.324,331.526z"/>
<g>
	<path style="fill:#87BA7D;" d="M135.107,360.588c18.857,7.325,38.683,11.951,58.915,13.706c2.56-11.533,8.253-21.899,16.152-30.145
		l-37.157-34.73l-27.34,22.105C141,340.617,137.426,350.367,135.107,360.588z"/>
	<path style="fill:#87BA7D;" d="M366.324,331.526c-0.002,0-0.004,0.001-0.006,0.002l0.004-0.006l-27.34-22.105l-37.157,34.73l0,0
		l0,0c7.9,8.246,13.592,18.612,16.152,30.145c20.232-1.753,40.058-6.38,58.915-13.706
		C374.574,350.369,371.001,340.62,366.324,331.526z"/>
</g>
<path style="fill:#9AD48D;" d="M422.054,283.114l-13.62-21.977c-4.302-6.942-13.418-9.083-20.361-4.78l-21.402,13.264
	c-20.201,12.518-43.44,19.135-67.204,19.135h-86.935c-23.764,0-47.002-6.617-67.203-19.135l-21.403-13.265
	c-6.942-4.302-16.058-2.162-20.36,4.78l-13.62,21.978c-4.302,6.942-2.162,16.059,4.78,20.361l21.405,13.265
	c28.953,17.943,62.339,27.449,96.401,27.449h86.935c34.09,0,67.425-9.492,96.403-27.45l21.403-13.264
	C424.216,299.173,426.357,290.057,422.054,283.114z"/>
<g>
	<path style="fill:#38484A;" d="M193.227,124.066c-4.267,0-7.726-3.459-7.726-7.726v-11.361c0-4.267,3.459-7.726,7.726-7.726
		c4.267,0,7.726,3.459,7.726,7.726v11.361C200.953,120.606,197.494,124.066,193.227,124.066z"/>
	<path style="fill:#38484A;" d="M318.773,124.066c-4.268,0-7.726-3.459-7.726-7.726v-11.361c0-4.267,3.458-7.726,7.726-7.726
		c4.268,0,7.726,3.459,7.726,7.726v11.361C326.499,120.606,323.041,124.066,318.773,124.066z"/>
	<path style="fill:#38484A;" d="M256,130.13c-8.267,0-16.035-3.461-21.311-9.496c-2.809-3.213-2.481-8.094,0.731-10.902
		c3.21-2.808,8.092-2.482,10.902,0.731c2.341,2.677,5.868,4.213,9.678,4.213c3.808,0,7.335-1.536,9.676-4.213
		c2.808-3.213,7.688-3.54,10.902-0.731c3.212,2.808,3.541,7.689,0.731,10.902C272.035,126.669,264.267,130.13,256,130.13z"/>
</g>
<g>
</g>
<g>
</g>
<g>
</g>
<g>
</g>
<g>
</g>
<g>
</g>
<g>
</g>
<g>
</g>
<g>
</g>
<g>
</g>
<g>
</g>
<g>
</g>
<g>
</g>
<g>
</g>
<g>
</g>
</svg>
