<?xml version="1.0" encoding="UTF-8"?>
<svg width="168px" height="114px" viewBox="0 0 168 114" version="1.1" xmlns="http://www.w3.org/2000/svg" xmlns:xlink="http://www.w3.org/1999/xlink">
    <title>Group Copy</title>
    <g id="Page-1" stroke="none" stroke-width="1" fill="none" fill-rule="evenodd">
        <g id="Group-Copy" fill-rule="nonzero">
            <path d="M19.82,103.56 C21.2066667,103.56 22.56,103.426667 23.88,103.16 C25.2,102.893333 26.2866667,102.453333 27.14,101.84 L27.14,101.84 L26.02,97.36 C25.4066667,97.7333333 24.6866667,98.04 23.86,98.28 C23.0333333,98.52 22.02,98.64 20.82,98.64 C19.54,98.64 18.4133333,98.4066667 17.44,97.94 C16.4666667,97.4733333 15.6533333,96.82 15,95.98 C14.3466667,95.14 13.86,94.1266667 13.54,92.94 C13.22,91.7533333 13.06,90.44 13.06,89 C13.06,85.6933333 13.7333333,83.2533333 15.08,81.68 C16.4266667,80.1066667 18.2066667,79.32 20.42,79.32 C21.62,79.32 22.64,79.3866667 23.48,79.52 C24.32,79.6533333 25.0466667,79.8666667 25.66,80.16 L25.66,80.16 L26.74,75.52 C26.02,75.2266667 25.1066667,74.9733333 24,74.76 C22.8933333,74.5466667 21.54,74.44 19.94,74.44 C18.4466667,74.44 16.9533333,74.6866667 15.46,75.18 C13.9666667,75.6733333 12.6133333,76.4866667 11.4,77.62 C10.1866667,78.7533333 9.2,80.2466667 8.44,82.1 C7.68,83.9533333 7.3,86.2533333 7.3,89 C7.3,91.64 7.64,93.8866667 8.32,95.74 C9,97.5933333 9.91333333,99.1 11.06,100.26 C12.2066667,101.42 13.5333333,102.26 15.04,102.78 C16.5466667,103.3 18.14,103.56 19.82,103.56 Z M36.58,103 L36.58,75 L31.1,75 L31.1,103 L36.58,103 Z M53.62,103.56 C55.14,103.56 56.68,103.346667 58.24,102.92 C59.8,102.493333 61.14,101.813333 62.26,100.88 L62.26,100.88 L62.26,88.4 L51.82,88.4 L51.82,91.72 L57.86,92.36 L57.86,97.64 C57.4066667,97.9866667 56.8466667,98.2466667 56.18,98.42 C55.5133333,98.5933333 54.8333333,98.68 54.14,98.68 C53.1266667,98.68 52.1733333,98.4933333 51.28,98.12 C50.3866667,97.7466667 49.6066667,97.1666667 48.94,96.38 C48.2733333,95.5933333 47.7533333,94.5933333 47.38,93.38 C47.0066667,92.1666667 46.82,90.72 46.82,89.04 C46.82,87.28 47.0133333,85.7866667 47.4,84.56 C47.7866667,83.3333333 48.3333333,82.3266667 49.04,81.54 C49.7466667,80.7533333 50.58,80.1866667 51.54,79.84 C52.5,79.4933333 53.5533333,79.32 54.7,79.32 C55.98,79.32 57.0333333,79.3933333 57.86,79.54 C58.6866667,79.6866667 59.4333333,79.8933333 60.1,80.16 L60.1,80.16 L61.22,75.56 C60.5,75.2933333 59.5333333,75.04 58.32,74.8 C57.1066667,74.56 55.7,74.44 54.1,74.44 C52.5,74.44 50.9266667,74.7 49.38,75.22 C47.8333333,75.74 46.44,76.58 45.2,77.74 C43.96,78.9 42.96,80.4066667 42.2,82.26 C41.44,84.1133333 41.06,86.36 41.06,89 C41.06,91.5333333 41.38,93.72 42.02,95.56 C42.66,97.4 43.54,98.9133333 44.66,100.1 C45.78,101.286667 47.1066667,102.16 48.64,102.72 C50.1733333,103.28 51.8333333,103.56 53.62,103.56 Z M77.3,103.56 C81.0866667,103.56 84.0133333,102.3 86.08,99.78 C88.1466667,97.26 89.18,93.6666667 89.18,89 C89.18,86.8133333 88.94,84.8266667 88.46,83.04 C87.98,81.2533333 87.2466667,79.72 86.26,78.44 C85.2733333,77.16 84.0333333,76.1733333 82.54,75.48 C81.0466667,74.7866667 79.3,74.44 77.3,74.44 C73.4866667,74.44 70.5533333,75.7 68.5,78.22 C66.4466667,80.74 65.42,84.3333333 65.42,89 C65.42,91.1866667 65.66,93.1733333 66.14,94.96 C66.62,96.7466667 67.3466667,98.28 68.32,99.56 C69.2933333,100.84 70.5266667,101.826667 72.02,102.52 C73.5133333,103.213333 75.2733333,103.56 77.3,103.56 Z M77.3,98.68 C76.2333333,98.68 75.3133333,98.44 74.54,97.96 C73.7666667,97.48 73.1333333,96.8133333 72.64,95.96 C72.1466667,95.1066667 71.78,94.0866667 71.54,92.9 C71.3,91.7133333 71.18,90.4133333 71.18,89 C71.18,85.6666667 71.7133333,83.22 72.78,81.66 C73.8466667,80.1 75.3533333,79.32 77.3,79.32 C78.42,79.32 79.3666667,79.5666667 80.14,80.06 C80.9133333,80.5533333 81.54,81.24 82.02,82.12 C82.5,83 82.8533333,84.0266667 83.08,85.2 C83.3066667,86.3733333 83.42,87.64 83.42,89 C83.42,92.4133333 82.8866667,94.88 81.82,96.4 C80.7533333,97.92 79.2466667,98.68 77.3,98.68 Z M104.78,103.56 C106.3,103.56 107.84,103.346667 109.4,102.92 C110.96,102.493333 112.3,101.813333 113.42,100.88 L113.42,100.88 L113.42,88.4 L102.98,88.4 L102.98,91.72 L109.02,92.36 L109.02,97.64 C108.566667,97.9866667 108.006667,98.2466667 107.34,98.42 C106.673333,98.5933333 105.993333,98.68 105.3,98.68 C104.286667,98.68 103.333333,98.4933333 102.44,98.12 C101.546667,97.7466667 100.766667,97.1666667 100.1,96.38 C99.4333333,95.5933333 98.9133333,94.5933333 98.54,93.38 C98.1666667,92.1666667 97.98,90.72 97.98,89.04 C97.98,87.28 98.1733333,85.7866667 98.56,84.56 C98.9466667,83.3333333 99.4933333,82.3266667 100.2,81.54 C100.906667,80.7533333 101.74,80.1866667 102.7,79.84 C103.66,79.4933333 104.713333,79.32 105.86,79.32 C107.14,79.32 108.193333,79.3933333 109.02,79.54 C109.846667,79.6866667 110.593333,79.8933333 111.26,80.16 L111.26,80.16 L112.38,75.56 C111.66,75.2933333 110.693333,75.04 109.48,74.8 C108.266667,74.56 106.86,74.44 105.26,74.44 C103.66,74.44 102.086667,74.7 100.54,75.22 C98.9933333,75.74 97.6,76.58 96.36,77.74 C95.12,78.9 94.12,80.4066667 93.36,82.26 C92.6,84.1133333 92.22,86.36 92.22,89 C92.22,91.5333333 92.54,93.72 93.18,95.56 C93.82,97.4 94.7,98.9133333 95.82,100.1 C96.94,101.286667 98.2666667,102.16 99.8,102.72 C101.333333,103.28 102.993333,103.56 104.78,103.56 Z M138.94,103.2 L138.94,75 L133.74,75 L133.74,89.72 L134.38,94 L134.18,94 L132.06,89.72 L121.46,74.8 L117.46,74.8 L117.46,103 L122.66,103 L122.66,88.4 L122.02,84 L122.22,84 L124.42,88.4 L134.94,103.2 L138.94,103.2 Z M160.54,103 L160.54,98.12 L149.22,98.12 L149.22,91.28 L159.34,91.28 L159.34,86.4 L149.22,86.4 L149.22,79.88 L160.34,79.88 L160.34,75 L143.74,75 L143.74,103 L160.54,103 Z" id="CIGOGNE" fill="#363949"></path>
            <path d="M27.461,67 L27.461,61.904 L27.181,59.972 L27.251,59.972 L27.867,61.526 L30.065,65.194 L30.681,65.194 L32.767,61.54 L33.369,59.972 L33.453,59.972 L33.243,61.918 L33.243,67 L35.161,67 L35.161,57.2 L33.425,57.2 L30.947,61.652 L30.527,62.8 L30.471,62.8 L30.009,61.68 L27.391,57.2 L25.641,57.2 L25.641,67 L27.461,67 Z M44.919,67 L45.661,64.83 L48.671,64.83 L49.455,67 L51.471,67 L47.943,57.13 L46.529,57.13 L43.001,67 L44.919,67 Z M48.251,63.29 L46.151,63.29 L46.865,61.12 L47.159,59.566 L47.229,59.566 L47.523,61.106 L48.251,63.29 Z M73.129,67.196 C73.6143333,67.196 74.088,67.1493333 74.55,67.056 C75.012,66.9626667 75.3923333,66.8086667 75.691,66.594 L75.691,66.594 L75.299,65.026 C75.0843333,65.1566667 74.8323333,65.264 74.543,65.348 C74.2536667,65.432 73.899,65.474 73.479,65.474 C73.031,65.474 72.6366667,65.3923333 72.296,65.229 C71.9553333,65.0656667 71.6706667,64.837 71.442,64.543 C71.2133333,64.249 71.043,63.8943333 70.931,63.479 C70.819,63.0636667 70.763,62.604 70.763,62.1 C70.763,60.9426667 70.9986667,60.0886667 71.47,59.538 C71.9413333,58.9873333 72.5643333,58.712 73.339,58.712 C73.759,58.712 74.116,58.7353333 74.41,58.782 C74.704,58.8286667 74.9583333,58.9033333 75.173,59.006 L75.173,59.006 L75.551,57.382 C75.299,57.2793333 74.9793333,57.1906667 74.592,57.116 C74.2046667,57.0413333 73.731,57.004 73.171,57.004 C72.6483333,57.004 72.1256667,57.0903333 71.603,57.263 C71.0803333,57.4356667 70.6066667,57.7203333 70.182,58.117 C69.7573333,58.5136667 69.412,59.0363333 69.146,59.685 C68.88,60.3336667 68.747,61.1386667 68.747,62.1 C68.747,63.024 68.866,63.8103333 69.104,64.459 C69.342,65.1076667 69.6616667,65.635 70.063,66.041 C70.4643333,66.447 70.9286667,66.741 71.456,66.923 C71.9833333,67.105 72.541,67.196 73.129,67.196 Z M85.799,67 L85.799,62.898 L89.383,62.898 L89.383,67 L91.301,67 L91.301,57.2 L89.383,57.2 L89.383,61.19 L85.799,61.19 L85.799,57.2 L83.881,57.2 L83.881,67 L85.799,67 Z M104.083,56.472 L102.627,54.82 L100.401,54.82 L100.401,55.24 L102.613,56.472 L104.083,56.472 Z M105.875,67 L105.875,65.292 L101.913,65.292 L101.913,62.898 L105.455,62.898 L105.455,61.19 L101.913,61.19 L101.913,58.908 L105.805,58.908 L105.805,57.2 L99.995,57.2 L99.995,67 L105.875,67 Z M116.221,67 L116.221,62.982 L117.229,63.164 L119.455,67 L121.667,67 L119.427,63.262 L118.741,62.828 C119.366333,62.632 119.865667,62.282 120.239,61.778 C120.612333,61.274 120.799,60.6206667 120.799,59.818 C120.799,59.2766667 120.694,58.8263333 120.484,58.467 C120.274,58.1076667 119.994,57.8253333 119.644,57.62 C119.294,57.4146667 118.897333,57.27 118.454,57.186 C118.010667,57.102 117.560333,57.06 117.103,57.06 C116.907,57.06 116.692333,57.0646667 116.459,57.074 C116.225667,57.0833333 115.985333,57.0973333 115.738,57.116 C115.490667,57.1346667 115.243333,57.1603333 114.996,57.193 C114.748667,57.2256667 114.517667,57.2606667 114.303,57.298 L114.303,57.298 L114.303,67 L116.221,67 Z M117.033,61.68 L116.221,61.68 L116.221,58.838 C116.323667,58.81 116.470667,58.7913333 116.662,58.782 C116.853333,58.7726667 117.047,58.768 117.243,58.768 C117.747,58.768 118.129667,58.887 118.391,59.125 C118.652333,59.363 118.783,59.692 118.783,60.112 C118.783,60.672 118.624333,61.0733333 118.307,61.316 C117.989667,61.5586667 117.565,61.68 117.033,61.68 L117.033,61.68 Z M135.611,67 L135.611,65.292 L131.649,65.292 L131.649,62.898 L135.191,62.898 L135.191,61.19 L131.649,61.19 L131.649,58.908 L135.541,58.908 L135.541,57.2 L129.731,57.2 L129.731,67 L135.611,67 Z" id="MACHÈRE" fill="#747890"></path>
            <g id="stork-(1)" transform="translate(90.000000, 0.000000)">
                <path d="M1.98896203,51 C0.889596416,51 0,50.1054358 0,48.999931 C0,47.8944262 0.889596416,46.999862 1.98896203,46.999862 C7.05458312,46.999862 12.1926024,46.1834339 16.9960783,44.574045 L21.3818722,43.1033276 C22.4327071,42.7537156 23.5495756,43.3201351 23.8972462,44.3671046 C24.2449167,45.4159407 23.6816427,46.5469131 22.6404874,46.8965251 L18.2546935,48.3672425 C13.0433478,50.1151695 7.48393372,51 1.98896203,51 L1.98896203,51 Z" id="Path" fill="#FABE2C"></path>
                <path d="M66.2305333,55.4585021 L60.8066667,44.044277 C60.4765333,43.3481367 59.7382667,43 59,43 C58.2617333,43 57.5234667,43.3481367 57.1933333,44.044277 L51.7694667,55.4585021 C51.2597333,56.5311359 51,57.6836482 51,58.8790286 C51,63.2844559 54.5878667,67 59,67 C63.4121333,67 67,63.2844559 67,58.8790286 C67,57.6836482 66.7402667,56.5311359 66.2305333,55.4585021 L66.2305333,55.4585021 Z" id="Path" fill="#FCCED3"></path>
                <path d="M67,58.8789405 C67,57.6835668 66.7402667,56.5309277 66.2305333,55.4584329 L60.8066667,44.0442713 C60.4765333,43.3481348 59.7382667,43 59,43 L59,67 C63.4121333,67 67,63.2842102 67,58.8789405 L67,58.8789405 Z" id="Path" fill="#FF9AC9"></path>
                <path d="M65.0909091,42 L59.3636364,42 L47.9090909,42 C46.8547636,42 46,42.8954667 46,44 C46,45.1045333 46.8547636,46 47.9090909,46 L59.3636364,46 L65.0909091,46 C66.1452364,46 67,45.1045333 67,44 C67,42.8954667 66.1452364,42 65.0909091,42 L65.0909091,42 Z" id="Path" fill="#FFE470"></path>
                <path d="M67,44 C67,42.8954667 66.1045333,42 65,42 L59,42 L59,46 L65,46 C66.1045333,46 67,45.1044 67,44 Z" id="Path" fill="#FABE2C"></path>
                <path d="M47.1810481,30.7091413 C44.6589148,30.7091413 42.1758764,32.0054238 41.0302696,33.4995956 C40.6782864,33.8819945 40.0138058,34.531856 39.1535908,34.531856 C37.0426041,34.531856 35.3224347,32.8498615 35.3224347,30.785723 L35.3224347,21.1523546 C35.3224347,14.6455845 32.2743466,8.68762881 27.5034828,4.82643213 C23.7815314,1.81400554 19.0115798,0 13.820317,0 C13.0384218,0 12.3347161,0.458725762 12.0218277,1.18504155 C11.7092,1.91135734 11.865579,2.71425485 12.4520004,3.24918006 C13.9369497,5.14065928 19.6844006,8.54019945 19.6844006,16.2847645 C19.6844006,24.1595568 12.9861651,30.7091413 4.93264466,30.7091413 L1.96144294,30.7091413 C1.25773726,30.7091413 0.593256668,31.0912853 0.241273517,31.7030471 C-0.110709635,32.3527812 -0.071614875,33.0792244 0.319593352,33.6909861 C5.59725557,41.4127424 14.5238923,46 24.0239189,46 L27.5033525,46 L47.1810481,46 C51.6025351,46 55,42.4458947 55,38.3545706 C55,34.1495845 51.4814716,30.7091413 47.1810481,30.7091413 L47.1810481,30.7091413 Z" id="Path" fill="#E7FAFF"></path>
                <path d="M55,40.0154245 C55,35.624041 51.4169119,32.0308489 47.037877,32.0308489 C44.4695615,32.0308489 41.9410566,33.3846337 40.7744729,34.9450859 C40.4160446,35.3444478 39.7393969,36.0231367 38.8634306,36.0231367 C36.7137901,36.0231367 34.962123,34.2665301 34.962123,32.1108278 L34.962123,22.0501295 C34.962123,15.2547234 31.8582221,9.0324768 27,5 L27,48 L47.0380097,48 C51.5404575,48 55,44.2881039 55,40.0154245 Z" id="Path" fill="#D5E8FE"></path>
            </g>
        </g>
    </g>
</svg>