<svg width="944" height="943" viewBox="0 0 944 943" fill="none" xmlns="http://www.w3.org/2000/svg">
<path d="M593.004 17.403C545.692 64.0883 485.709 127.987 291.344 191.94C177.537 210.917 133.18 179.39 74.998 251.657C-27.2998 379.562 -27.0582 732.338 177.537 773.268C382.133 814.197 412.822 809.081 564.99 901.812C717.158 994.543 882.753 913.963 919.836 797.57C963.952 659.432 900.015 646.002 926.869 349.263C953.722 51.8837 876.11 41.8466 785.136 17.4029C694.162 -7.04079 641.208 -2.28809 593.004 17.403Z" fill="#FEE2CD"/>
<path d="M589.5 833.875V846.478L458.434 852.149C458.434 852.149 475.448 833.245 493.721 830.095C512.625 826.944 589.5 833.875 589.5 833.875Z" fill="#F39684"/>
<path d="M455.914 859.712H592.021C592.021 859.712 593.911 856.561 593.911 854.671C593.911 852.781 590.131 847.109 590.131 847.109L460.325 851.52C460.325 851.52 455.914 852.781 455.284 854.041C452.763 858.452 455.914 859.712 455.914 859.712Z" fill="#FFAE9E"/>
<path d="M799.962 811.821C799.962 811.821 794.291 834.506 793.661 840.807C793.03 846.478 780.428 838.917 774.127 846.478C767.825 854.04 767.195 859.711 767.195 859.711L806.893 856.56L868.645 758.261C868.645 758.261 861.084 750.699 854.783 750.699C848.481 750.699 799.962 811.821 799.962 811.821Z" fill="#F39684"/>
<path d="M874.317 763.931L815.085 860.97L757.744 865.381C757.744 865.381 759.004 860.97 760.894 859.71C763.415 858.449 768.456 856.559 768.456 856.559L806.263 855.299L868.015 758.89L874.317 763.931Z" fill="#FFAE9E"/>
<path d="M431.969 661.849C429.449 716.039 463.475 780.942 482.379 811.818C484.27 814.969 478.598 816.229 481.749 823.791C484.9 830.722 488.05 831.982 488.05 831.982L589.5 844.585C589.5 844.585 602.103 844.585 590.13 791.024C584.459 764.559 599.582 707.848 599.582 707.848C599.582 707.848 606.514 731.162 634.239 755.737C654.403 773.381 730.018 804.257 769.716 820.01C774.757 821.9 776.017 830.722 779.168 833.243C787.989 841.434 793.661 838.284 793.661 838.284L855.413 751.326C855.413 751.326 811.934 713.519 779.168 668.78C767.195 652.397 760.264 618.37 757.113 582.453L432.599 601.357C432.599 603.877 431.969 659.328 431.969 661.849Z" fill="#9AF4DC"/>
<path d="M875.577 389.007C872.427 389.007 883.769 375.145 883.139 366.323C882.509 358.131 874.947 366.953 873.057 365.063C871.797 363.172 876.838 357.501 873.687 349.94C870.536 342.378 861.715 356.871 852.263 360.652C849.112 361.912 839.66 365.693 822.647 366.953L849.742 428.705C868.646 418.623 880.618 406.021 883.139 399.72C886.92 390.898 878.728 389.007 875.577 389.007Z" fill="#E897A3"/>
<path d="M706.073 348.05C685.909 341.749 668.896 336.078 654.403 331.667C644.321 342.379 604.623 382.707 591.391 361.283C583.199 348.05 594.541 325.996 600.212 315.914C581.939 310.873 570.597 308.983 556.104 307.722C518.926 304.572 496.872 285.668 496.872 285.668L426.928 320.325C426.928 320.325 429.449 327.886 433.86 341.119C445.832 376.406 473.557 399.72 473.557 399.72C473.557 399.72 432.599 535.827 432.599 601.36L757.113 581.826C751.442 520.074 754.593 452.021 754.593 452.021C754.593 452.021 786.729 446.35 822.646 438.788C832.728 436.268 842.18 433.117 849.742 428.706L822.646 366.954C798.071 368.214 758.374 365.064 706.073 348.05Z" fill="#E2603D"/>
<path d="M636.13 278.737C636.13 278.737 618.486 278.107 614.706 291.969C610.925 305.832 615.336 312.763 623.527 318.435C632.349 323.476 646.842 320.325 653.143 307.722C659.444 295.12 649.362 279.997 636.13 278.737Z" fill="#E897A3"/>
<path d="M620.377 310.24C620.377 310.24 613.445 325.363 617.226 332.925C621.007 340.486 633.609 343.007 639.28 337.336C644.951 331.664 639.28 314.651 639.28 314.651L620.377 310.24Z" fill="#E897A3"/>
<path d="M423.778 235.255C428.189 233.365 429.449 243.447 432.599 238.406C435.75 232.735 442.051 224.543 445.832 228.954C448.983 233.365 447.722 235.885 450.873 235.255C459.695 233.995 460.325 223.913 465.366 224.543C474.188 225.803 470.407 241.556 477.338 259.83C485.53 280.624 493.721 287.555 493.721 287.555L431.969 318.431C431.969 318.431 419.997 284.405 419.997 247.227C419.997 239.666 419.997 237.145 423.778 235.255Z" fill="#E897A3"/>
<path d="M591.391 361.282C603.993 382.706 644.321 341.748 654.403 331.666C634.239 325.365 618.486 320.324 604.623 316.543C603.363 315.913 602.103 315.913 600.213 315.283C594.541 325.995 583.199 348.68 591.391 361.282Z" fill="#E897A3"/>
<path d="M655.033 298.27C654.403 289.448 649.362 273.695 639.28 266.763C630.458 260.462 619.116 259.202 616.596 265.503C614.075 271.804 606.514 256.051 603.363 264.243C600.212 271.804 608.404 273.695 612.185 278.106C615.335 283.147 602.733 285.667 614.075 286.297C625.417 286.927 633.609 281.256 641.801 286.297C649.362 290.708 643.691 297.639 648.102 298.27C652.513 298.9 649.992 303.941 649.992 306.461C649.992 308.982 653.143 310.242 653.143 310.242C653.143 310.242 655.663 305.831 655.033 298.27Z" fill="#3844E5"/>
<mask id="mask0" mask-type="alpha" maskUnits="userSpaceOnUse" x="426" y="285" width="424" height="317">
<path d="M706.073 348.05C685.909 341.749 668.896 336.078 654.403 331.667C644.321 342.379 604.623 382.707 591.391 361.283C583.199 348.05 594.541 325.996 600.212 315.914C581.939 310.873 570.597 308.983 556.104 307.722C518.926 304.572 496.872 285.668 496.872 285.668L426.928 320.325C426.928 320.325 429.449 327.886 433.86 341.119C445.832 376.406 473.557 399.72 473.557 399.72C473.557 399.72 432.599 535.827 432.599 601.36L757.113 581.826C751.442 520.074 754.593 452.021 754.593 452.021C754.593 452.021 786.729 446.35 822.646 438.788C832.728 436.268 842.18 433.117 849.742 428.706L822.646 366.954C798.071 368.214 758.374 365.064 706.073 348.05Z" fill="#E2603D"/>
</mask>
<g mask="url(#mask0)">
<path d="M855.101 412.407L838.552 416.354L842.499 432.903L859.048 428.956L855.101 412.407Z" stroke="white" stroke-width="1.57531" stroke-miterlimit="10"/>
<path d="M829.857 453.35L813.308 457.297L817.255 473.846L833.804 469.899L829.857 453.35Z" stroke="white" stroke-width="1.57531" stroke-miterlimit="10"/>
<path d="M804 494.442L787.451 498.389L791.398 514.938L807.947 510.99L804 494.442Z" stroke="white" stroke-width="1.57531" stroke-miterlimit="10"/>
<path d="M778.902 535.998L762.353 539.945L766.3 556.494L782.849 552.547L778.902 535.998Z" stroke="white" stroke-width="1.57531" stroke-miterlimit="10"/>
<path d="M753.659 576.941L737.11 580.888L741.057 597.437L757.606 593.49L753.659 576.941Z" stroke="white" stroke-width="1.57531" stroke-miterlimit="10"/>
<path d="M832.397 369.646L815.848 373.593L819.795 390.142L836.344 386.195L832.397 369.646Z" stroke="white" stroke-width="1.57531" stroke-miterlimit="10"/>
<path d="M807.153 410.591L790.604 414.538L794.551 431.087L811.1 427.14L807.153 410.591Z" stroke="white" stroke-width="1.57531" stroke-miterlimit="10"/>
<path d="M782.055 452.149L765.506 456.096L769.453 472.645L786.002 468.698L782.055 452.149Z" stroke="white" stroke-width="1.57531" stroke-miterlimit="10"/>
<path d="M756.811 493.09L740.262 497.037L744.209 513.586L760.758 509.639L756.811 493.09Z" stroke="white" stroke-width="1.57531" stroke-miterlimit="10"/>
<path d="M731.567 534.035L715.018 537.982L718.966 554.531L735.514 550.584L731.567 534.035Z" stroke="white" stroke-width="1.57531" stroke-miterlimit="10"/>
<path d="M706.324 574.982L689.775 578.929L693.722 595.478L710.271 591.53L706.324 574.982Z" stroke="white" stroke-width="1.57531" stroke-miterlimit="10"/>
<path d="M806.606 326.11L790.057 330.057L794.004 346.606L810.553 342.658L806.606 326.11Z" stroke="white" stroke-width="1.57531" stroke-miterlimit="10"/>
<path d="M781.362 367.051L764.813 370.998L768.76 387.547L785.309 383.6L781.362 367.051Z" stroke="white" stroke-width="1.57531" stroke-miterlimit="10"/>
<path d="M756.119 407.996L739.57 411.943L743.517 428.492L760.066 424.545L756.119 407.996Z" stroke="white" stroke-width="1.57531" stroke-miterlimit="10"/>
<path d="M730.262 449.088L713.713 453.035L717.66 469.584L734.209 465.637L730.262 449.088Z" stroke="white" stroke-width="1.57531" stroke-miterlimit="10"/>
<path d="M705.164 490.642L688.616 494.589L692.563 511.138L709.112 507.191L705.164 490.642Z" stroke="white" stroke-width="1.57531" stroke-miterlimit="10"/>
<path d="M679.92 531.587L663.371 535.534L667.318 552.083L683.867 548.136L679.92 531.587Z" stroke="white" stroke-width="1.57531" stroke-miterlimit="10"/>
<path d="M654.676 572.533L638.127 576.48L642.074 593.029L658.623 589.082L654.676 572.533Z" stroke="white" stroke-width="1.57531" stroke-miterlimit="10"/>
<path d="M758.658 324.292L742.109 328.239L746.056 344.788L762.605 340.841L758.658 324.292Z" stroke="white" stroke-width="1.57531" stroke-miterlimit="10"/>
<path d="M733.414 365.238L716.865 369.186L720.812 385.734L737.361 381.787L733.414 365.238Z" stroke="white" stroke-width="1.57531" stroke-miterlimit="10"/>
<path d="M708.316 406.791L691.768 410.738L695.715 427.287L712.264 423.34L708.316 406.791Z" stroke="white" stroke-width="1.57531" stroke-miterlimit="10"/>
<path d="M683.072 447.737L666.523 451.685L670.47 468.233L687.019 464.286L683.072 447.737Z" stroke="white" stroke-width="1.57531" stroke-miterlimit="10"/>
<path d="M657.829 488.683L641.28 492.63L645.227 509.179L661.776 505.232L657.829 488.683Z" stroke="white" stroke-width="1.57531" stroke-miterlimit="10"/>
<path d="M632.585 529.626L616.036 533.573L619.983 550.122L636.532 546.175L632.585 529.626Z" stroke="white" stroke-width="1.57531" stroke-miterlimit="10"/>
<path d="M607.487 571.182L590.938 575.129L594.885 591.678L611.434 587.731L607.487 571.182Z" stroke="white" stroke-width="1.57531" stroke-miterlimit="10"/>
<path d="M732.867 280.752L716.319 284.699L720.266 301.248L736.815 297.301L732.867 280.752Z" stroke="white" stroke-width="1.57531" stroke-miterlimit="10"/>
<path d="M707.624 321.698L691.075 325.646L695.023 342.194L711.571 338.247L707.624 321.698Z" stroke="white" stroke-width="1.57531" stroke-miterlimit="10"/>
<path d="M682.38 362.642L665.831 366.589L669.778 383.138L686.327 379.191L682.38 362.642Z" stroke="white" stroke-width="1.57531" stroke-miterlimit="10"/>
<path d="M657.282 404.201L640.733 408.148L644.68 424.697L661.229 420.75L657.282 404.201Z" stroke="white" stroke-width="1.57531" stroke-miterlimit="10"/>
<path d="M631.425 445.289L614.876 449.236L618.823 465.785L635.372 461.838L631.425 445.289Z" stroke="white" stroke-width="1.57531" stroke-miterlimit="10"/>
<path d="M606.182 486.235L589.633 490.182L593.58 506.731L610.129 502.783L606.182 486.235Z" stroke="white" stroke-width="1.57531" stroke-miterlimit="10"/>
<path d="M580.938 527.178L564.389 531.125L568.336 547.674L584.885 543.727L580.938 527.178Z" stroke="white" stroke-width="1.57531" stroke-miterlimit="10"/>
<path d="M555.84 568.734L539.291 572.681L543.238 589.23L559.787 585.282L555.84 568.734Z" stroke="white" stroke-width="1.57531" stroke-miterlimit="10"/>
<path d="M684.92 278.94L668.371 282.887L672.318 299.436L688.867 295.489L684.92 278.94Z" stroke="white" stroke-width="1.57531" stroke-miterlimit="10"/>
<path d="M659.822 320.493L643.273 324.44L647.22 340.989L663.769 337.042L659.822 320.493Z" stroke="white" stroke-width="1.57531" stroke-miterlimit="10"/>
<path d="M634.578 361.439L618.029 365.386L621.976 381.935L638.525 377.988L634.578 361.439Z" stroke="white" stroke-width="1.57531" stroke-miterlimit="10"/>
<path d="M609.334 402.384L592.785 406.331L596.732 422.88L613.281 418.933L609.334 402.384Z" stroke="white" stroke-width="1.57531" stroke-miterlimit="10"/>
<path d="M584.091 443.328L567.542 447.275L571.489 463.824L588.038 459.877L584.091 443.328Z" stroke="white" stroke-width="1.57531" stroke-miterlimit="10"/>
<path d="M558.993 484.883L542.444 488.83L546.391 505.379L562.94 501.432L558.993 484.883Z" stroke="white" stroke-width="1.57531" stroke-miterlimit="10"/>
<path d="M533.749 525.826L517.2 529.773L521.147 546.322L537.696 542.375L533.749 525.826Z" stroke="white" stroke-width="1.57531" stroke-miterlimit="10"/>
<path d="M508.505 566.773L491.956 570.72L495.903 587.269L512.452 583.321L508.505 566.773Z" stroke="white" stroke-width="1.57531" stroke-miterlimit="10"/>
<path d="M633.886 276.343L617.337 280.29L621.284 296.839L637.833 292.892L633.886 276.343Z" stroke="white" stroke-width="1.57531" stroke-miterlimit="10"/>
<path d="M608.642 317.284L592.093 321.231L596.04 337.78L612.589 333.833L608.642 317.284Z" stroke="white" stroke-width="1.57531" stroke-miterlimit="10"/>
<path d="M583.544 358.844L566.995 362.791L570.942 379.34L587.491 375.393L583.544 358.844Z" stroke="white" stroke-width="1.57531" stroke-miterlimit="10"/>
<path d="M558.3 399.787L541.751 403.734L545.698 420.283L562.247 416.336L558.3 399.787Z" stroke="white" stroke-width="1.57531" stroke-miterlimit="10"/>
<path d="M532.444 440.88L515.895 444.827L519.842 461.376L536.391 457.429L532.444 440.88Z" stroke="white" stroke-width="1.57531" stroke-miterlimit="10"/>
<path d="M507.199 481.821L490.65 485.769L494.598 502.317L511.146 498.37L507.199 481.821Z" stroke="white" stroke-width="1.57531" stroke-miterlimit="10"/>
<path d="M482.102 523.381L465.553 527.328L469.5 543.877L486.049 539.93L482.102 523.381Z" stroke="white" stroke-width="1.57531" stroke-miterlimit="10"/>
<path d="M456.857 564.324L440.308 568.271L444.256 584.82L460.804 580.873L456.857 564.324Z" stroke="white" stroke-width="1.57531" stroke-miterlimit="10"/>
<path d="M586.084 275.14L569.535 279.087L573.482 295.636L590.031 291.689L586.084 275.14Z" stroke="white" stroke-width="1.57531" stroke-miterlimit="10"/>
<path d="M560.84 316.086L544.291 320.033L548.238 336.582L564.787 332.635L560.84 316.086Z" stroke="white" stroke-width="1.57531" stroke-miterlimit="10"/>
<path d="M535.596 357.026L519.047 360.973L522.994 377.522L539.543 373.574L535.596 357.026Z" stroke="white" stroke-width="1.57531" stroke-miterlimit="10"/>
<path d="M510.352 397.971L493.803 401.918L497.75 418.467L514.299 414.52L510.352 397.971Z" stroke="white" stroke-width="1.57531" stroke-miterlimit="10"/>
<path d="M485.255 439.528L468.706 443.476L472.653 460.024L489.202 456.077L485.255 439.528Z" stroke="white" stroke-width="1.57531" stroke-miterlimit="10"/>
<path d="M460.011 480.474L443.462 484.421L447.409 500.97L463.958 497.023L460.011 480.474Z" stroke="white" stroke-width="1.57531" stroke-miterlimit="10"/>
<path d="M434.766 521.415L418.217 525.362L422.164 541.911L438.713 537.964L434.766 521.415Z" stroke="white" stroke-width="1.57531" stroke-miterlimit="10"/>
<path d="M535.05 272.545L518.501 276.492L522.448 293.041L538.997 289.094L535.05 272.545Z" stroke="white" stroke-width="1.57531" stroke-miterlimit="10"/>
<path d="M509.805 313.489L493.256 317.437L497.203 333.985L513.752 330.038L509.805 313.489Z" stroke="white" stroke-width="1.57531" stroke-miterlimit="10"/>
<path d="M484.562 354.435L468.013 358.382L471.96 374.931L488.509 370.984L484.562 354.435Z" stroke="white" stroke-width="1.57531" stroke-miterlimit="10"/>
<path d="M458.705 395.523L442.156 399.47L446.103 416.019L462.652 412.072L458.705 395.523Z" stroke="white" stroke-width="1.57531" stroke-miterlimit="10"/>
<path d="M433.607 437.082L417.059 441.029L421.006 457.578L437.554 453.631L433.607 437.082Z" stroke="white" stroke-width="1.57531" stroke-miterlimit="10"/>
<path d="M487.101 270.727L470.552 274.674L474.5 291.223L491.048 287.276L487.101 270.727Z" stroke="white" stroke-width="1.57531" stroke-miterlimit="10"/>
<path d="M461.857 311.673L445.308 315.62L449.256 332.169L465.804 328.222L461.857 311.673Z" stroke="white" stroke-width="1.57531" stroke-miterlimit="10"/>
<path d="M436.76 353.23L420.211 357.177L424.158 373.726L440.707 369.779L436.76 353.23Z" stroke="white" stroke-width="1.57531" stroke-miterlimit="10"/>
</g>
<path d="M621.007 317.172C621.007 317.172 626.048 322.213 635.5 319.692" stroke="white" stroke-width="1.57531" stroke-miterlimit="10"/>
<path d="M581.308 642.946C585.089 658.699 590.13 678.233 596.431 695.877" stroke="white" stroke-width="1.57531" stroke-miterlimit="10"/>
<path d="M575.007 610.811C575.007 610.811 576.898 621.523 580.048 636.646" stroke="white" stroke-width="1.57531" stroke-miterlimit="10"/>
<path d="M455.915 680.124C452.764 664.371 447.093 647.988 447.093 647.988C440.161 618.372 431.34 593.167 427.559 579.935C408.025 591.907 373.368 608.29 327.369 623.413C316.027 627.194 302.794 631.605 290.822 634.755C297.123 638.536 309.096 648.618 328.629 670.042C346.903 690.206 356.355 727.384 361.396 762.671H450.243C450.874 758.26 452.134 753.219 452.764 748.178C453.394 743.767 454.024 738.726 454.654 734.315C454.654 734.315 459.695 702.179 455.915 680.124Z" fill="#E897A3"/>
<path d="M164.167 650.508L155.975 649.878C155.975 649.878 150.934 663.741 141.482 680.754C138.962 685.795 135.181 690.206 132.03 694.617L182.44 772.753C190.002 768.972 197.563 764.561 204.494 760.15C286.411 712.261 320.437 639.166 326.739 623.413C297.123 632.865 263.726 643.577 235.371 646.098C202.604 649.878 195.673 651.139 164.167 650.508Z" fill="#E897A3"/>
<path d="M64.6066 741.875C64.6066 741.875 58.3054 741.245 49.4836 745.656C40.6619 750.067 55.7849 877.352 74.0585 878.612C92.3321 879.872 93.5923 815.6 93.5923 815.6C93.5923 815.6 94.2225 815.6 94.8526 814.97L67.1271 741.245C65.8669 741.875 64.6066 741.875 64.6066 741.875Z" fill="#F39684"/>
<path d="M67.1274 741.248L95.483 815.603C103.044 812.452 142.112 794.179 181.81 772.755L131.4 694.619C109.346 723.605 75.9491 738.098 67.1274 741.248Z" fill="#9ECBE3"/>
<path d="M363.286 867.9C362.656 880.502 363.916 879.242 371.478 881.762C379.039 884.283 492.461 885.543 492.461 885.543C492.461 885.543 497.502 877.352 487.42 867.9C477.338 858.448 429.449 841.435 429.449 841.435H366.437L363.286 867.9Z" fill="#F39684"/>
<path d="M23.0188 490.459C-2.8163 495.5 -1.55605 506.842 3.48494 508.732C8.52594 510.623 21.7585 514.403 16.0874 520.705C10.4163 527.006 15.4573 528.266 22.3887 532.677C29.32 537.088 23.0188 537.088 28.0598 543.389C32.4707 549.69 77.8396 534.567 106.195 521.335L75.3191 468.404C58.3057 478.486 39.402 487.308 23.0188 490.459Z" fill="#E897A3"/>
<path d="M358.245 338.599L429.449 402.241C431.339 400.351 436.38 395.31 437.01 394.05C452.133 371.995 453.393 364.434 447.092 350.571C440.791 336.709 431.339 326.627 421.887 319.065C416.216 314.654 410.545 310.873 407.394 309.613C396.052 302.052 380.929 290.709 374.628 285.038C364.546 274.326 340.601 273.696 324.218 286.929C324.218 286.929 300.903 299.531 307.835 305.202C314.766 310.873 317.287 316.545 328.629 319.065C339.341 321.586 346.902 325.366 351.313 332.928L358.245 338.599Z" fill="#E897A3"/>
<path d="M408.025 428.705C428.189 419.883 438.901 410.432 438.901 410.432L429.449 402.24L358.245 338.597L351.944 332.926L347.533 329.146C347.533 329.146 280.74 314.023 205.125 366.323C186.851 378.925 138.962 409.802 102.415 429.335C84.1409 438.787 62.0866 446.979 62.0866 446.979L74.6891 469.033L105.565 521.964L109.346 528.265C109.346 528.265 126.989 525.114 144.633 519.443C167.317 512.512 173.619 500.539 176.769 505.58C188.742 523.224 131.4 583.716 141.482 586.866C145.263 588.127 149.044 589.387 153.455 590.647C191.892 600.099 253.014 595.688 283.89 587.497C356.985 568.593 392.902 539.607 406.134 525.114C411.175 520.073 413.066 516.923 413.066 516.923C413.066 516.923 400.463 489.827 385.34 450.76C381.56 438.787 392.272 435.637 408.025 428.705Z" fill="#3844E5"/>
<path d="M225.919 303.938C227.179 303.938 227.809 303.938 229.069 304.569C228.439 303.938 227.179 303.938 225.919 303.938Z" fill="#E897A3"/>
<path d="M249.863 322.215C247.343 314.653 241.672 307.722 233.48 305.201C236.001 306.461 229.069 319.694 223.398 325.365C218.357 331.666 218.987 332.927 217.097 332.927C215.207 332.927 211.426 332.927 212.686 336.077C213.946 339.228 217.097 339.858 220.878 344.269C222.768 346.789 224.028 349.31 224.028 351.2C224.659 351.83 225.919 351.83 226.549 351.83H224.659C224.659 351.83 230.33 354.351 227.809 360.022C225.289 365.693 226.549 370.734 239.151 371.364C250.494 371.994 246.713 353.091 246.083 349.94C255.535 344.899 252.384 331.666 249.863 322.215Z" fill="#E897A3"/>
<path d="M233.48 305.199C232.22 304.569 230.96 304.569 229.7 303.938C230.96 304.569 232.22 304.569 233.48 305.199Z" fill="#D63C30"/>
<path d="M226.549 352.458C225.919 352.458 224.658 351.828 224.028 351.828C224.028 349.938 222.768 347.417 220.878 344.897C217.097 339.856 213.946 339.856 212.686 336.705C211.426 333.554 215.207 333.554 217.097 333.554C218.987 333.554 218.357 332.294 223.398 325.993C228.439 319.692 236.001 307.089 233.48 305.829C232.22 305.199 230.96 305.199 229.069 304.569C227.809 304.569 226.549 304.569 225.919 303.938C224.658 303.938 224.028 303.938 222.768 303.938C220.248 303.938 199.454 305.199 176.139 324.733C155.975 341.746 133.29 305.829 110.606 324.733C87.2914 343.636 112.496 349.938 76.5793 353.718C41.2923 357.499 27.4296 395.306 39.402 405.388C43.8128 409.169 46.9634 414.21 53.2647 409.799C66.4973 400.347 53.2647 421.142 70.9082 424.292C88.5516 428.073 91.0721 412.95 106.825 420.511C121.948 428.073 140.222 429.963 149.674 419.251C167.317 399.087 214.576 363.17 225.289 357.499C229.069 356.239 228.439 354.348 226.549 352.458Z" fill="#E2603D"/>
<path d="M354.464 260.461L322.328 232.735L283.891 310.241L280.74 307.72L277.589 311.501L281.37 315.282L284.521 317.802L288.932 321.583L292.082 317.802L288.301 314.651L290.822 312.761C292.082 314.651 295.863 318.432 301.534 318.432C308.465 317.802 346.273 286.926 349.423 281.885C352.574 276.844 348.793 269.913 346.903 267.392L354.464 260.461ZM348.163 279.995C345.013 284.406 307.835 315.282 301.534 315.912C296.493 316.542 293.342 312.761 292.082 310.871L346.273 267.392C347.533 269.913 351.314 275.584 348.163 279.995Z" fill="#E2603D"/>
<path d="M229.07 693.356C218.358 695.877 213.317 702.808 196.303 723.602C179.29 745.026 195.043 757.629 220.248 740.615C245.453 723.602 282 680.123 229.07 693.356Z" fill="#FFBFB2"/>
<path d="M79.1002 814.34L98.634 820.641L79.1002 824.422L96.7437 830.093" stroke="white" stroke-width="1.57531" stroke-miterlimit="10"/>
<path d="M421.257 853.407L439.531 840.805L437.01 856.558L450.243 846.476" stroke="white" stroke-width="1.57531" stroke-miterlimit="10"/>
<path d="M55.7854 743.138C55.7854 743.138 62.0866 823.794 67.1276 846.478C72.1686 869.163 79.1 877.984 79.1 877.984" stroke="white" stroke-width="1.57531" stroke-miterlimit="10"/>
<path d="M364.546 872.312L491.831 877.354" stroke="white" stroke-width="1.57531" stroke-miterlimit="10"/>
<path d="M350.683 281.256C350.683 281.256 348.793 276.215 341.861 278.106C326.738 282.517 308.465 298.9 308.465 298.9C308.465 298.9 317.286 307.091 324.848 305.831C331.779 304.571 332.409 297.64 332.409 297.64C332.409 297.64 334.93 300.79 338.711 298.9C342.491 296.379 345.012 290.078 345.012 290.078C345.012 290.078 344.382 290.078 349.423 289.448C353.834 288.818 350.683 281.256 350.683 281.256Z" fill="#E897A3"/>
<path d="M283.26 632.864L283.891 632.233C283.891 632.233 283.26 632.864 283.26 632.864Z" fill="#E897A3"/>
<path d="M447.093 647.986C447.093 647.986 433.86 644.205 433.86 673.191C433.86 696.506 435.75 712.259 442.051 722.971C448.353 733.683 455.284 733.683 455.284 733.683C455.284 733.683 460.325 701.547 456.544 680.122C452.764 664.369 447.093 647.986 447.093 647.986Z" fill="#FFBFB2"/>
<path d="M366.437 841.436H429.449C429.449 841.436 437.641 828.834 449.613 762.671H360.765C363.916 783.465 365.176 802.999 365.806 817.492C366.437 831.985 366.437 841.436 366.437 841.436Z" fill="#9ECBE3"/>
<path d="M283.89 587.499C253.014 595.69 191.892 600.101 153.455 590.649L150.304 591.279L109.976 645.47C109.976 645.47 189.372 658.072 264.987 641.689C367.697 619.635 437.01 573.636 437.01 573.636L406.134 525.116C392.272 539.609 356.985 568.595 283.89 587.499Z" fill="white"/>
<mask id="mask1" mask-type="alpha" maskUnits="userSpaceOnUse" x="111" y="524" width="328" height="126">
<path d="M285.152 586.867C254.276 595.058 193.154 599.469 154.716 590.017L151.566 590.647L111.238 644.838C111.238 644.838 190.633 657.441 266.248 641.057C368.958 619.003 438.272 573.004 438.272 573.004L407.396 524.484C393.533 538.977 358.246 567.963 285.152 586.867Z" fill="white"/>
</mask>
<g mask="url(#mask1)">
<path d="M-39.994 603.879L514.515 423.663" stroke="#45A0D4" stroke-width="1.57531" stroke-miterlimit="10"/>
<path d="M-37.4728 611.442L517.036 431.227" stroke="#45A0D4" stroke-width="1.57531" stroke-miterlimit="10"/>
<path d="M-34.9525 619.63L519.557 438.784" stroke="#45A0D4" stroke-width="1.57531" stroke-miterlimit="10"/>
<path d="M-32.4323 627.194L522.077 446.979" stroke="#45A0D4" stroke-width="1.57531" stroke-miterlimit="10"/>
<path d="M-29.9115 634.756L524.598 454.54" stroke="#45A0D4" stroke-width="1.57531" stroke-miterlimit="10"/>
<path d="M-27.3906 642.315L527.119 462.1" stroke="#45A0D4" stroke-width="1.57531" stroke-miterlimit="10"/>
<path d="M-24.8705 650.508L529.639 469.662" stroke="#45A0D4" stroke-width="1.57531" stroke-miterlimit="10"/>
<path d="M-22.3503 658.071L532.159 477.855" stroke="#45A0D4" stroke-width="1.57531" stroke-miterlimit="10"/>
<path d="M-19.8294 665.63L534.68 485.414" stroke="#45A0D4" stroke-width="1.57531" stroke-miterlimit="10"/>
<path d="M-17.3091 673.193L537.2 492.978" stroke="#45A0D4" stroke-width="1.57531" stroke-miterlimit="10"/>
<path d="M-15.4188 681.386L539.09 500.54" stroke="#45A0D4" stroke-width="1.57531" stroke-miterlimit="10"/>
<path d="M-12.8984 688.945L541.611 508.729" stroke="#45A0D4" stroke-width="1.57531" stroke-miterlimit="10"/>
<path d="M-10.3778 696.508L544.131 516.292" stroke="#45A0D4" stroke-width="1.57531" stroke-miterlimit="10"/>
<path d="M-7.85764 704.069L546.652 523.854" stroke="#45A0D4" stroke-width="1.57531" stroke-miterlimit="10"/>
<path d="M-5.33676 712.259L549.172 531.413" stroke="#45A0D4" stroke-width="1.57531" stroke-miterlimit="10"/>
<path d="M-2.81613 719.823L551.693 539.607" stroke="#45A0D4" stroke-width="1.57531" stroke-miterlimit="10"/>
<path d="M-0.29599 727.384L554.213 547.169" stroke="#45A0D4" stroke-width="1.57531" stroke-miterlimit="10"/>
<path d="M2.22488 734.943L556.734 554.728" stroke="#45A0D4" stroke-width="1.57531" stroke-miterlimit="10"/>
<path d="M4.74527 743.137L559.254 562.291" stroke="#45A0D4" stroke-width="1.57531" stroke-miterlimit="10"/>
<path d="M7.26541 750.699L561.775 570.483" stroke="#45A0D4" stroke-width="1.57531" stroke-miterlimit="10"/>
</g>
<path d="M232.22 348.68C232.22 348.68 234.74 352.46 244.822 350.57" stroke="white" stroke-width="1.57531" stroke-miterlimit="10"/>
<path d="M218.357 418.623C218.357 418.623 223.398 426.815 232.85 421.143C239.781 417.363 237.261 411.062 237.261 411.062" stroke="white" stroke-width="1.57531" stroke-miterlimit="10"/>
<path d="M289.561 389.64C289.561 389.64 295.862 394.05 301.533 389.64C307.835 385.229 304.054 379.558 304.054 379.558" stroke="white" stroke-width="1.57531" stroke-miterlimit="10"/>
<path d="M129.51 808.038C123.209 810.559 119.428 811.819 119.428 811.819" stroke="#660000" stroke-width="1.57531" stroke-miterlimit="10" stroke-linejoin="round"/>
<path d="M256.165 731.164C248.603 738.095 240.412 744.397 231.59 751.328C198.193 777.163 159.126 795.437 137.071 804.889" stroke="#660000" stroke-width="1.57531" stroke-miterlimit="10" stroke-linejoin="round"/>
<path d="M331.149 622.151C331.149 622.151 323.588 663.74 272.548 715.41" stroke="#660000" stroke-width="1.57531" stroke-miterlimit="10" stroke-linejoin="round"/>
<path d="M215.207 719.823C215.207 719.823 207.645 727.385 212.686 736.837C218.357 745.658 229.07 737.467 229.07 737.467" stroke="white" stroke-width="1.57531" stroke-miterlimit="10"/>
<path d="M446.462 690.838C446.462 690.838 446.462 700.92 454.024 700.29C461.585 699.66 460.955 690.838 460.955 690.838" stroke="white" stroke-width="1.57531" stroke-miterlimit="10"/>
<path d="M314.766 302.681C314.766 302.681 320.437 307.722 326.739 305.831C333.04 303.941 332.41 298.27 332.41 298.27C332.41 298.27 333.67 301.421 339.341 298.9C345.012 296.38 345.012 290.078 345.012 290.078C345.012 290.078 348.793 291.339 350.683 288.818C354.464 284.407 348.793 279.366 348.793 279.366" stroke="white" stroke-width="1.57531" stroke-miterlimit="10"/>
<path d="M151.564 649.878C173.619 651.138 205.125 651.138 242.302 645.467" stroke="#660000" stroke-width="1.57531" stroke-miterlimit="10" stroke-linejoin="round"/>
<path d="M120.058 646.097C120.058 646.097 127.62 647.357 140.852 648.617" stroke="#660000" stroke-width="1.57531" stroke-miterlimit="10" stroke-linejoin="round"/>
<path d="M406.764 525.116L437.01 573.006C437.01 573.006 403.614 600.731 298.383 632.237C289.561 634.758 281.369 637.278 272.548 639.169" stroke="#660000" stroke-width="1.57531" stroke-miterlimit="10" stroke-linejoin="round"/>
<path d="M849.742 253.53L892.59 249.119" stroke="#660000" stroke-width="1.57531" stroke-miterlimit="10" stroke-linejoin="round"/>
<path d="M481.119 135.696L493.722 166.572" stroke="#660000" stroke-width="1.57531" stroke-miterlimit="10" stroke-linejoin="round"/>
<path d="M575.007 88.4365L539.09 116.162" stroke="#660000" stroke-width="1.57531" stroke-miterlimit="10" stroke-linejoin="round"/>
<path d="M741.36 199.971L750.812 166.574" stroke="#660000" stroke-width="1.57531" stroke-miterlimit="10" stroke-linejoin="round"/>
<path d="M864.234 285.665L884.398 261.721" stroke="#660000" stroke-width="1.57531" stroke-miterlimit="10" stroke-linejoin="round"/>
<path d="M897.001 300.16L943 291.338" stroke="#660000" stroke-width="1.57531" stroke-miterlimit="10" stroke-linejoin="round"/>
<path d="M442.681 151.45L419.997 116.163" stroke="#660000" stroke-width="1.57531" stroke-miterlimit="10" stroke-linejoin="round"/>
<path d="M790.51 173.507C796.774 173.507 801.852 168.429 801.852 162.165C801.852 155.9 796.774 150.822 790.51 150.822C784.246 150.822 779.168 155.9 779.168 162.165C779.168 168.429 784.246 173.507 790.51 173.507Z" fill="#D63C30"/>
<path d="M496.872 200.601C499.656 200.601 501.913 198.344 501.913 195.56C501.913 192.775 499.656 190.519 496.872 190.519C494.088 190.519 491.831 192.775 491.831 195.56C491.831 198.344 494.088 200.601 496.872 200.601Z" fill="#D63C30"/>
<path d="M518.296 69.5327C521.429 69.5327 523.968 66.9936 523.968 63.8615C523.968 60.7295 521.429 58.1904 518.296 58.1904C515.164 58.1904 512.625 60.7295 512.625 63.8615C512.625 66.9936 515.164 69.5327 518.296 69.5327Z" fill="#45A0D4"/>
<path d="M889.439 205.01C892.223 205.01 894.48 202.753 894.48 199.969C894.48 197.185 892.223 194.928 889.439 194.928C886.655 194.928 884.398 197.185 884.398 199.969C884.398 202.753 886.655 205.01 889.439 205.01Z" fill="#45A0D4"/>
<path d="M913.384 332.295C917.212 332.295 920.315 329.192 920.315 325.364C920.315 321.536 917.212 318.433 913.384 318.433C909.556 318.433 906.453 321.536 906.453 325.364C906.453 329.192 909.556 332.295 913.384 332.295Z" stroke="#660000" stroke-width="1.57531" stroke-miterlimit="10" stroke-linejoin="round"/>
<path d="M372.738 230.218L414.956 220.136" stroke="#660000" stroke-width="1.57531" stroke-miterlimit="10" stroke-linejoin="round"/>
<path d="M838.399 286.296C841.879 286.296 844.701 283.475 844.701 279.995C844.701 276.515 841.879 273.693 838.399 273.693C834.919 273.693 832.098 276.515 832.098 279.995C832.098 283.475 834.919 286.296 838.399 286.296Z" fill="#45A0D4"/>
<path d="M453.394 190.516C455.134 190.516 456.544 189.106 456.544 187.365C456.544 185.625 455.134 184.215 453.394 184.215C451.654 184.215 450.243 185.625 450.243 187.365C450.243 189.106 451.654 190.516 453.394 190.516Z" fill="#45A0D4"/>
<path d="M380.299 183.588C382.039 183.588 383.45 182.178 383.45 180.438C383.45 178.698 382.039 177.287 380.299 177.287C378.559 177.287 377.149 178.698 377.149 180.438C377.149 182.178 378.559 183.588 380.299 183.588Z" fill="#45A0D4"/>
<path d="M449.613 102.3C453.093 102.3 455.914 99.4786 455.914 95.9985C455.914 92.5184 453.093 89.6973 449.613 89.6973C446.133 89.6973 443.312 92.5184 443.312 95.9985C443.312 99.4786 446.133 102.3 449.613 102.3Z" fill="#D63C30"/>
<path d="M853.523 733.685C853.523 733.685 798.702 678.864 788.62 661.221C770.976 630.975 770.976 577.414 770.976 577.414" stroke="#660000" stroke-width="1.57531" stroke-miterlimit="10" stroke-linejoin="round"/>
<path d="M913.384 351.829L889.439 385.226L920.316 396.568L913.384 351.829Z" fill="#D63C30"/>
<path d="M841.55 443.827C841.55 443.827 865.495 436.895 879.358 423.663C902.042 402.239 907.083 380.814 907.083 380.814" stroke="#660000" stroke-width="1.57531" stroke-miterlimit="10" stroke-linejoin="round"/>
<path d="M345.642 205.01L358.875 162.161" stroke="#660000" stroke-width="1.57531" stroke-miterlimit="10" stroke-linejoin="round"/>
<path d="M358.875 211.943L396.052 183.588" stroke="#660000" stroke-width="1.57531" stroke-miterlimit="10" stroke-linejoin="round"/>
</svg>
