<svg width="1000" height="1070" viewBox="0 0 1000 1070" fill="none" xmlns="http://www.w3.org/2000/svg">
<path d="M394.735 103.914C352.926 129.642 371.418 165.822 311.118 182.706C250.817 199.591 200.969 189.138 183.28 238.987C155.14 316.976 210.617 291.248 205.793 357.98C196.145 496.27 523.376 305.72 592.521 372.453C686.59 464.11 807.995 366.02 806.387 318.584C800.759 196.375 687.394 232.555 635.133 154.566C582.873 76.5772 480.764 50.8489 394.735 103.914Z" fill="#D6DCF5"/>
<path d="M200.969 230.946H307.098C307.098 230.946 281.37 222.906 268.505 219.69C255.641 216.474 254.033 206.825 239.561 207.629C225.089 208.433 221.069 221.298 216.245 219.69" fill="white"/>
<path d="M545.888 172.256H630.309C630.309 172.256 625.485 159.392 613.425 159.392C601.365 159.392 600.561 140.899 587.696 148.939C574.832 156.98 574.832 162.608 566.792 164.216C559.556 167.432 545.888 172.256 545.888 172.256Z" fill="white"/>
<path d="M706.69 255.874H775.031C775.031 255.874 762.971 243.01 754.931 243.01C746.891 243.01 744.479 251.854 734.83 249.442C725.182 247.03 717.142 243.01 706.69 249.442C696.238 255.874 680.158 255.874 680.158 255.874H706.69Z" fill="white"/>
<path d="M744.479 482.598L820.056 318.581L619.857 238.18L566.793 399.785L744.479 482.598Z" fill="#98A2F4"/>
<path d="M467.899 544.508L331.218 304.109L102.879 431.143L244.385 640.185L323.178 624.105L467.899 544.508Z" fill="#98A2F4"/>
<mask id="mask0" mask-type="alpha" maskUnits="userSpaceOnUse" x="102" y="304" width="366" height="337">
<path d="M467.899 544.508L331.218 304.109L102.879 431.143L244.385 640.185L323.178 624.105L467.899 544.508Z" fill="#98A2F4"/>
</mask>
<g mask="url(#mask0)">
<path d="M-179.328 413.456L-125.459 423.908L-108.575 372.452L-55.5104 382.904L-38.6262 330.643L15.2424 341.9L32.1266 289.639L85.1912 300.895L102.075 248.635L155.944 259.891L172.828 207.63L225.893 218.886L242.777 166.626L296.645 177.882L313.53 125.621L367.398 136.073L384.282 84.6167L437.347 95.0688L454.231 43.6123L508.1 54.0644L524.984 2.60784L578.049 13.06L594.933 -38.3966L648.801 -27.9445L665.686 -80.2051" stroke="white" stroke-width="2.01002" stroke-miterlimit="10"/>
<path d="M-160.031 446.42L-106.162 456.872L-89.2783 405.415L-36.2137 415.868L-19.3295 364.411L34.5391 374.863L51.4233 323.407L104.488 333.859L121.372 282.402L175.241 292.854L192.125 241.398L245.993 251.85L262.878 199.589L315.942 210.845L332.826 158.585L386.695 169.841L403.579 117.58L456.644 128.836L473.528 76.5759L527.396 87.832L544.281 35.5714L597.345 46.8275L614.229 -5.43304L668.098 5.01907L684.982 -46.4375" stroke="white" stroke-width="2.01002" stroke-miterlimit="10"/>
<path d="M-139.931 479.387L-86.8663 490.643L-69.9821 438.382L-16.1136 449.638L0.770628 397.378L53.8352 408.634L70.7194 356.373L124.588 367.63L141.472 315.369L194.537 325.821L211.421 274.364L265.29 284.817L282.174 233.36L335.238 243.812L352.122 192.356L405.991 202.808L422.875 151.351L475.94 161.803L492.824 109.543L546.693 120.799L563.577 68.5382L617.445 79.7943L634.33 27.5337L687.394 38.7899L704.278 -13.4707" stroke="white" stroke-width="2.01002" stroke-miterlimit="10"/>
<path d="M-120.635 513.154L-67.57 523.606L-50.6858 472.149L3.1828 482.601L20.067 431.145L73.1316 441.597L90.0158 389.336L143.884 400.592L160.769 348.332L213.833 359.588L230.717 307.327L284.586 318.583L301.47 266.323L354.535 277.579L371.419 225.318L425.287 236.575L442.172 184.314L496.04 194.766L512.924 143.31L565.989 153.762L582.873 102.305L636.742 112.757L653.626 61.3007L706.691 71.7528L723.575 19.4922" stroke="white" stroke-width="2.01002" stroke-miterlimit="10"/>
<path d="M-101.339 546.117L-48.2745 557.373L-31.3903 505.113L22.4783 515.565L39.3625 464.108L92.4271 474.56L109.311 423.104L163.18 433.556L180.064 382.099L233.129 392.551L250.013 341.095L303.881 351.547L320.766 300.09L374.634 310.543L391.518 258.282L444.583 269.538L461.467 217.278L515.336 228.534L532.22 176.273L585.285 187.529L602.169 135.269L656.037 146.525L672.922 94.2642L725.986 104.716L742.87 53.2598" fill="#98A2F4"/>
<path d="M-82.0427 579.084L-28.9781 590.34L-12.0939 538.08L41.7747 549.336L58.6589 497.075L112.527 508.331L128.608 456.071L182.476 467.327L199.36 415.066L253.229 426.322L270.113 374.062L323.178 384.514L340.062 333.057L393.931 343.509L410.815 292.053L463.879 302.505L480.764 251.048L534.632 261.5L551.516 210.044L604.581 220.496L621.465 168.235L675.334 179.492L692.218 127.231L746.086 138.487L762.971 86.2266" stroke="white" stroke-width="2.01002" stroke-miterlimit="10"/>
<path d="M-62.7463 612.852L-8.87772 623.304L8.00645 571.847L61.071 582.299L77.9552 530.843L131.824 541.295L148.708 489.838L201.773 500.29L218.657 448.03L272.525 459.286L289.41 407.025L342.474 418.281L359.358 366.021L413.227 377.277L430.111 325.016L483.176 336.273L500.06 284.012L553.928 295.268L570.813 243.008L624.681 253.46L641.565 202.003L694.63 212.455L711.514 160.999L765.383 171.451L782.267 119.994" stroke="white" stroke-width="2.01002" stroke-miterlimit="10"/>
<path d="M-43.4495 645.813L10.4191 657.069L27.3033 604.808L80.3678 616.064L97.252 563.804L151.121 574.256L168.005 522.799L221.069 533.251L237.954 481.795L291.822 492.247L308.706 440.79L361.771 451.242L378.655 399.786L432.524 410.238L449.408 357.977L503.276 369.233L520.161 316.973L573.225 328.229L590.109 275.968L643.978 287.225L660.862 234.964L713.927 246.22L730.811 193.96L784.68 205.216L801.564 152.955" stroke="white" stroke-width="2.01002" stroke-miterlimit="10"/>
<path d="M-24.1532 678.781L29.7154 690.037L46.5996 637.777L99.6642 649.033L116.548 596.772L170.417 608.028L187.301 555.768L240.366 567.024L257.25 514.763L311.119 526.02L328.003 473.759L381.871 485.015L398.756 432.755L451.82 443.207L468.704 391.75L522.573 402.202L539.457 350.746L592.522 361.198L609.406 309.741L663.274 320.193L680.159 268.737L733.223 279.189L750.107 226.928L803.976 238.184L820.86 185.924" stroke="white" stroke-width="2.01002" stroke-miterlimit="10"/>
<path d="M-4.85809 712.549L49.0105 723.001L65.8947 671.544L119.763 681.997L136.647 630.54L189.712 640.992L206.596 589.536L260.465 599.988L277.349 547.727L330.414 558.983L347.298 506.723L401.166 517.979L418.051 465.718L471.115 476.974L487.999 424.714L541.868 435.97L558.752 383.709L611.817 394.965L628.701 342.705L682.569 353.157L699.454 301.7L752.518 312.152L769.402 260.696L823.271 271.148L840.155 219.691" stroke="white" stroke-width="2.01002" stroke-miterlimit="10"/>
<path d="M15.2425 745.51L68.3071 756.766L85.1913 704.505L139.06 715.761L155.944 663.501L209.009 674.757L225.893 622.496L279.761 632.949L296.646 581.492L349.71 591.944L366.594 540.487L420.463 550.94L437.347 499.483L490.412 509.935L507.296 458.479L561.164 468.931L578.049 416.67L631.113 427.926L647.997 375.666L701.866 386.922L718.75 334.661L772.619 345.917L789.503 293.657L842.568 304.913L859.452 252.652" stroke="white" stroke-width="2.01002" stroke-miterlimit="10"/>
<path d="M34.5389 779.283L87.6035 789.735L104.488 737.474L158.356 748.73L175.24 696.47L228.305 707.726L245.189 655.465L299.058 666.721L315.942 614.461L369.007 625.717L385.891 573.456L439.759 584.712L456.644 532.452L510.512 542.904L527.396 491.447L580.461 501.899L597.345 450.443L651.214 460.895L668.098 409.438L721.162 419.891L738.047 368.434L791.915 378.886L808.799 326.626L861.864 337.882L878.748 285.621" stroke="white" stroke-width="2.01002" stroke-miterlimit="10"/>
<path d="M53.8352 812.246L106.9 822.698L123.784 771.242L177.653 781.694L194.537 730.237L247.601 740.689L264.486 689.233L318.354 699.685L335.238 648.228L389.107 658.68L405.991 606.42L459.056 617.676L475.94 565.415L529.808 576.671L546.693 524.411L599.757 535.667L616.641 483.406L670.51 494.663L687.394 442.402L740.459 453.658L757.343 401.398L811.212 411.85L828.096 360.393L881.964 370.845L898.849 319.389" stroke="white" stroke-width="2.01002" stroke-miterlimit="10"/>
<path d="M73.1316 845.207L127 856.463L143.884 804.203L196.949 815.459L213.833 763.198L267.702 774.454L284.586 722.194L337.651 733.45L354.535 681.189L408.403 691.641L425.287 640.185L478.352 650.637L495.236 599.18L549.105 609.632L565.989 558.176L619.054 568.628L635.938 517.171L689.806 527.624L706.691 475.363L759.755 486.619L776.639 434.359L830.508 445.615L847.392 393.354L901.261 404.61L918.145 352.35" stroke="white" stroke-width="2.01002" stroke-miterlimit="10"/>
<path d="M92.428 878.98L146.297 889.432L163.181 837.975L216.245 848.427L233.13 796.167L286.998 807.423L303.882 755.162L356.947 766.419L373.831 714.158L427.7 725.414L444.584 673.153L497.648 684.41L514.533 632.149L568.401 643.405L585.285 591.145L639.154 601.597L655.234 550.14L709.103 560.592L725.987 509.136L779.856 519.588L796.74 468.131L849.804 478.583L866.689 427.127L920.557 437.579L937.441 385.318" stroke="white" stroke-width="2.01002" stroke-miterlimit="10"/>
<path d="M111.723 911.943L165.592 922.395L182.476 870.939L235.541 881.391L252.425 829.934L306.294 840.387L323.178 788.93L376.242 799.382L393.127 747.926L446.995 758.378L463.879 706.921L517.748 717.373L534.632 665.113L587.697 676.369L604.581 624.108L658.45 635.364L675.334 583.104L728.398 594.36L745.282 542.099L799.151 553.355L816.035 501.095L869.1 512.351L885.984 460.09L939.853 470.543L956.737 419.086" stroke="white" stroke-width="2.01002" stroke-miterlimit="10"/>
<path d="M131.02 944.904L184.888 956.16L201.773 903.9L254.837 915.156L271.721 862.895L325.59 874.152L342.474 821.891L396.343 833.147L413.227 780.887L466.292 791.339L483.176 739.882L537.044 750.334L553.928 698.878L606.993 709.33L623.877 657.873L677.746 668.325L694.63 616.869L747.695 627.321L764.579 575.864L818.447 586.316L835.332 534.056L888.396 545.312L905.28 493.051L959.149 504.307L976.033 452.047" stroke="white" stroke-width="2.01002" stroke-miterlimit="10"/>
<path d="M151.12 978.677L204.185 989.129L221.069 937.673L274.937 948.125L291.822 896.668L344.886 907.12L361.77 854.86L415.639 866.116L432.523 813.855L485.588 825.111L502.472 772.851L556.34 784.107L573.225 731.846L626.289 743.102L643.173 690.842L697.042 702.098L713.926 649.837L766.991 660.29L783.875 608.833L837.744 619.285L854.628 567.829L908.496 578.281L925.38 526.824L978.445 537.276L995.329 485.016" stroke="white" stroke-width="2.01002" stroke-miterlimit="10"/>
<path d="M170.416 1011.64L223.481 1022.9L240.365 970.636L294.234 981.088L311.118 929.632L364.183 940.084L381.067 888.627L434.935 899.079L451.819 847.623L504.884 858.075L521.768 806.618L575.637 817.07L592.521 765.614L645.586 776.066L662.47 723.805L716.338 735.062L733.223 682.801L787.091 694.057L803.975 641.797L857.04 653.053L873.924 600.792L927.793 612.048L944.677 559.788L997.741 570.24L1014.63 518.783" stroke="white" stroke-width="2.01002" stroke-miterlimit="10"/>
<path d="M189.713 1044.6L242.777 1055.86L259.661 1003.6L313.53 1014.85L330.414 962.593L383.479 973.849L400.363 921.588L454.232 932.844L471.116 880.584L524.984 891.84L541.869 839.579L594.933 850.031L611.817 798.575L665.686 809.027L682.57 757.57L735.635 768.023L752.519 716.566L806.388 727.018L823.272 675.562L876.336 686.014L893.22 633.753L947.089 645.009L963.973 592.749L1017.04 604.005L1034.73 551.744" stroke="white" stroke-width="2.01002" stroke-miterlimit="10"/>
<path d="M209.009 1078.37L262.878 1088.82L279.762 1037.36L332.826 1047.82L349.711 996.36L403.579 1006.81L420.463 955.356L473.528 965.808L490.412 913.547L544.281 924.803L561.165 872.543L614.23 883.799L631.114 831.538L684.982 842.795L701.867 790.534L754.931 801.79L771.815 749.529L825.684 760.786L842.568 708.525L895.633 718.977L912.517 667.521L966.385 677.973L983.27 626.516L1037.14 636.968L1054.02 585.512" stroke="white" stroke-width="2.01002" stroke-miterlimit="10"/>
<path d="M228.305 1111.34L282.173 1122.59L299.057 1070.33L352.122 1081.59L369.006 1029.33L422.875 1039.78L439.759 988.324L492.824 998.777L509.708 947.32L563.576 957.772L580.461 906.316L633.525 916.768L650.409 865.311L704.278 875.763L721.162 823.503L774.227 834.759L791.111 782.498L844.979 793.754L861.864 741.494L915.732 752.75L932.616 700.489L985.681 711.745L1002.57 659.485L1056.43 670.741L1073.32 618.48" stroke="white" stroke-width="2.01002" stroke-miterlimit="10"/>
</g>
<path d="M239.561 255.869L350.514 600.789L598.148 544.508L586.892 206.824L239.561 255.869Z" fill="#F39684"/>
<mask id="mask1" mask-type="alpha" maskUnits="userSpaceOnUse" x="239" y="206" width="360" height="395">
<path d="M239.561 255.869L350.514 600.789L598.148 544.508L586.892 206.824L239.561 255.869Z" fill="#F39684"/>
</mask>
<g mask="url(#mask1)">
<path d="M585.285 232.559L594.129 238.991L603.778 241.403L604.582 251.855L608.602 261.503L600.562 268.739L595.737 278.387L585.285 275.975L574.833 278.387L570.009 268.739L561.969 261.503L565.989 251.855L566.793 241.403L576.441 238.991L585.285 232.559Z" stroke="white" stroke-width="2.01002" stroke-miterlimit="10"/>
<path d="M585.285 318.582L594.129 324.21L603.778 327.426L604.582 337.878L608.602 347.526L600.562 354.762L595.737 363.607L585.285 361.999L574.833 363.607L570.009 354.762L561.969 347.526L565.989 337.878L566.793 327.426L576.441 324.21L585.285 318.582Z" stroke="white" stroke-width="2.01002" stroke-miterlimit="10"/>
<path d="M585.285 403.807L594.129 410.239L603.778 413.455L604.582 423.907L608.602 433.555L600.562 440.791L595.737 449.635L585.285 448.027L574.833 449.635L570.009 440.791L561.969 433.555L565.989 423.907L566.793 413.455L576.441 410.239L585.285 403.807Z" stroke="white" stroke-width="2.01002" stroke-miterlimit="10"/>
<path d="M585.285 489.838L594.129 496.27L603.778 499.486L604.582 509.938L608.602 519.586L600.562 526.018L595.737 535.666L585.285 534.058L574.833 535.666L570.009 526.018L561.969 519.586L565.989 509.938L566.793 499.486L576.441 496.27L585.285 489.838Z" stroke="white" stroke-width="2.01002" stroke-miterlimit="10"/>
<path d="M585.285 575.867L594.129 582.299L603.778 584.711L604.582 595.163L608.602 605.616L600.562 612.048L595.737 621.696L585.285 619.284L574.833 621.696L570.009 612.048L561.969 605.616L565.989 595.163L566.793 584.711L576.441 582.299L585.285 575.867Z" stroke="white" stroke-width="2.01002" stroke-miterlimit="10"/>
<path d="M491.216 206.025L500.06 212.457L510.512 214.87V225.322L514.532 235.774L507.296 242.206L501.668 251.854L491.216 249.442L480.764 251.854L475.94 242.206L467.9 235.774L471.92 225.322L472.724 214.87L483.176 212.457L491.216 206.025Z" stroke="white" stroke-width="2.01002" stroke-miterlimit="10"/>
<path d="M491.216 292.049L500.06 298.481L510.512 300.893V311.345L514.532 320.993L507.296 328.229L501.668 337.877L491.216 335.465L480.764 337.877L475.94 328.229L467.9 320.993L471.92 311.345L472.724 300.893L483.176 298.481L491.216 292.049Z" stroke="white" stroke-width="2.01002" stroke-miterlimit="10"/>
<path d="M491.216 378.078L500.06 383.706L510.512 386.922V397.374L514.532 407.022L507.296 414.259L501.668 423.103L491.216 421.495L480.764 423.103L475.94 414.259L467.9 407.022L471.92 397.374L472.724 386.922L483.176 383.706L491.216 378.078Z" stroke="white" stroke-width="2.01002" stroke-miterlimit="10"/>
<path d="M491.216 463.303L500.06 469.735L510.512 472.951V483.403L514.532 493.051L507.296 500.287L501.668 509.131L491.216 507.523L480.764 509.131L475.94 500.287L467.9 493.051L471.92 483.403L472.724 472.951L483.176 469.735L491.216 463.303Z" stroke="white" stroke-width="2.01002" stroke-miterlimit="10"/>
<path d="M491.216 549.334L500.06 555.766L510.512 558.982V569.434L514.532 579.082L507.296 585.514L501.668 595.162L491.216 593.554L480.764 595.162L475.94 585.514L467.9 579.082L471.92 569.434L472.724 558.982L483.176 555.766L491.216 549.334Z" stroke="white" stroke-width="2.01002" stroke-miterlimit="10"/>
<path d="M397.951 179.49L405.991 185.922L416.443 188.334V199.59L421.267 209.239L413.227 215.671L408.403 225.319L397.951 223.711L387.499 225.319L381.871 215.671L373.831 209.239L378.655 199.59V188.334L389.107 185.922L397.951 179.49Z" stroke="white" stroke-width="2.01002" stroke-miterlimit="10"/>
<path d="M397.951 265.521L405.991 271.954L416.443 274.366V284.818L421.267 295.27L413.227 301.702L408.403 311.35L397.951 308.938L387.499 311.35L381.871 301.702L373.831 295.27L378.655 284.818V274.366L389.107 271.954L397.951 265.521Z" stroke="white" stroke-width="2.01002" stroke-miterlimit="10"/>
<path d="M397.951 351.545L405.991 357.977L416.443 360.389V370.841L421.267 380.489L413.227 387.725L408.403 397.373L397.951 394.961L387.499 397.373L381.871 387.725L373.831 380.489L378.655 370.841V360.389L389.107 357.977L397.951 351.545Z" stroke="white" stroke-width="2.01002" stroke-miterlimit="10"/>
<path d="M397.951 437.574L405.991 443.202L416.443 446.418V456.87L421.267 466.519L413.227 473.755L408.403 482.599L397.951 480.991L387.499 482.599L381.871 473.755L373.831 466.519L378.655 456.87V446.418L389.107 443.202L397.951 437.574Z" stroke="white" stroke-width="2.01002" stroke-miterlimit="10"/>
<path d="M397.951 522.799L405.991 529.231L416.443 532.447V542.899L421.267 552.547L413.227 559.783L408.403 568.627L397.951 567.019L387.499 568.627L381.871 559.783L373.831 552.547L378.655 542.899V532.447L389.107 529.231L397.951 522.799Z" stroke="white" stroke-width="2.01002" stroke-miterlimit="10"/>
<path d="M303.882 238.986L311.922 245.418L322.374 247.83L323.178 259.087L327.198 268.735L319.158 275.167L314.334 284.815L303.882 283.207L293.43 284.815L288.606 275.167L280.566 268.735L284.586 259.087V247.83L295.038 245.418L303.882 238.986Z" stroke="white" stroke-width="2.01002" stroke-miterlimit="10"/>
<path d="M303.882 325.016L311.922 331.448L322.374 333.86L323.178 344.312L327.198 354.764L319.158 361.196L314.334 370.844L303.882 368.432L293.43 370.844L288.606 361.196L280.566 354.764L284.586 344.312V333.86L295.038 331.448L303.882 325.016Z" stroke="white" stroke-width="2.01002" stroke-miterlimit="10"/>
<path d="M303.882 411.039L311.922 417.471L322.374 419.883L323.178 430.335L327.198 439.983L319.158 447.219L314.334 456.868L303.882 454.456L293.43 456.868L288.606 447.219L280.566 439.983L284.586 430.335V419.883L295.038 417.471L303.882 411.039Z" stroke="white" stroke-width="2.01002" stroke-miterlimit="10"/>
<path d="M303.882 497.07L311.922 502.698L322.374 505.914L323.178 516.366L327.198 526.015L319.158 533.251L314.334 542.095L303.882 540.487L293.43 542.095L288.606 533.251L280.566 526.015L284.586 516.366V505.914L295.038 502.698L303.882 497.07Z" stroke="white" stroke-width="2.01002" stroke-miterlimit="10"/>
<path d="M303.882 582.295L311.922 588.727L322.374 591.943L323.178 602.395L327.198 612.043L319.158 619.279L314.334 628.123L303.882 626.515L293.43 628.123L288.606 619.279L280.566 612.043L284.586 602.395V591.943L295.038 588.727L303.882 582.295Z" stroke="white" stroke-width="2.01002" stroke-miterlimit="10"/>
</g>
<path d="M535.437 777.67C602.487 777.67 656.842 764.711 656.842 748.726C656.842 732.74 602.487 719.781 535.437 719.781C468.386 719.781 414.031 732.74 414.031 748.726C414.031 764.711 468.386 777.67 535.437 777.67Z" fill="#98A2F4"/>
<path d="M825.683 396.57C761.363 394.158 746.086 444.81 746.086 444.81C746.086 444.81 740.458 465.715 715.534 510.739C695.434 546.919 676.138 620.084 668.902 649.029L778.247 681.189L814.427 692.445C814.427 692.445 828.095 694.857 890.004 595.16C950.305 494.659 914.124 400.59 825.683 396.57Z" fill="#E2603D"/>
<path d="M598.149 594.358C606.993 581.493 610.209 571.041 612.621 559.785C618.249 530.841 414.031 585.514 414.031 585.514C414.031 585.514 415.639 594.358 423.679 611.242L397.951 624.106C395.539 606.418 394.735 594.358 394.735 594.358C394.735 594.358 213.833 563.001 196.948 692.447C188.908 757.571 221.069 793.752 230.717 814.656C243.581 842.796 282.173 884.605 282.173 884.605L311.118 870.937L408.403 825.108L414.835 821.892C414.835 821.892 401.167 788.124 406.795 777.672C415.639 762.395 454.231 759.983 475.939 757.571C504.884 757.571 537.044 754.355 557.948 750.335C595.737 743.099 645.585 745.511 659.253 731.039C666.49 723.803 666.49 669.13 664.882 614.458L598.149 594.358Z" fill="#E2603D"/>
<mask id="mask2" mask-type="alpha" maskUnits="userSpaceOnUse" x="190" y="554" width="471" height="335">
<path d="M592.994 597.987C601.838 585.122 605.054 574.67 607.466 563.414C613.094 534.47 408.876 589.142 408.876 589.142C408.876 589.142 410.484 597.987 418.524 614.871L392.796 627.735C390.384 610.047 389.58 597.987 389.58 597.987C389.58 597.987 208.678 566.63 191.794 696.076C183.754 761.2 215.914 797.381 225.562 818.285C238.426 846.425 277.019 888.234 277.019 888.234L305.963 874.566L403.248 828.737L409.68 825.521C409.68 825.521 396.012 791.753 401.64 781.301C410.484 766.024 449.077 763.612 470.785 761.2C499.729 761.2 531.889 757.984 552.794 753.964C590.582 746.728 640.431 749.14 654.099 734.668C661.335 727.432 661.335 672.759 659.727 618.087L592.994 597.987Z" fill="#E2603D"/>
</mask>
<g mask="url(#mask2)">
<path d="M182.476 585.513C187.805 585.513 192.125 581.193 192.125 575.865C192.125 570.536 187.805 566.217 182.476 566.217C177.148 566.217 172.828 570.536 172.828 575.865C172.828 581.193 177.148 585.513 182.476 585.513Z" stroke="white" stroke-width="2.01002" stroke-miterlimit="10"/>
<path d="M190.517 605.611H173.633V631.34H190.517V605.611Z" stroke="white" stroke-width="2.01002" stroke-miterlimit="10"/>
<path d="M182.476 669.132C187.805 669.132 192.125 664.813 192.125 659.484C192.125 654.156 187.805 649.836 182.476 649.836C177.148 649.836 172.828 654.156 172.828 659.484C172.828 664.813 177.148 669.132 182.476 669.132Z" stroke="white" stroke-width="2.01002" stroke-miterlimit="10"/>
<path d="M190.517 690.037H173.633V715.765H190.517V690.037Z" stroke="white" stroke-width="2.01002" stroke-miterlimit="10"/>
<path d="M182.476 753.55C187.805 753.55 192.125 749.23 192.125 743.902C192.125 738.573 187.805 734.254 182.476 734.254C177.148 734.254 172.828 738.573 172.828 743.902C172.828 749.23 177.148 753.55 182.476 753.55Z" stroke="white" stroke-width="2.01002" stroke-miterlimit="10"/>
<path d="M190.517 773.65H173.633V799.379H190.517V773.65Z" stroke="white" stroke-width="2.01002" stroke-miterlimit="10"/>
<path d="M182.476 837.169C187.805 837.169 192.125 832.85 192.125 827.521C192.125 822.193 187.805 817.873 182.476 817.873C177.148 817.873 172.828 822.193 172.828 827.521C172.828 832.85 177.148 837.169 182.476 837.169Z" stroke="white" stroke-width="2.01002" stroke-miterlimit="10"/>
<path d="M190.517 858.074H173.633V883.803H190.517V858.074Z" stroke="white" stroke-width="2.01002" stroke-miterlimit="10"/>
<path d="M228.304 563.807H211.42V589.535H228.304V563.807Z" stroke="white" stroke-width="2.01002" stroke-miterlimit="10"/>
<path d="M219.461 627.326C224.789 627.326 229.109 623.006 229.109 617.677C229.109 612.349 224.789 608.029 219.461 608.029C214.132 608.029 209.813 612.349 209.813 617.677C209.813 623.006 214.132 627.326 219.461 627.326Z" stroke="white" stroke-width="2.01002" stroke-miterlimit="10"/>
<path d="M228.304 648.23H211.42V673.959H228.304V648.23Z" stroke="white" stroke-width="2.01002" stroke-miterlimit="10"/>
<path d="M219.461 711.745C224.789 711.745 229.109 707.426 229.109 702.097C229.109 696.769 224.789 692.449 219.461 692.449C214.132 692.449 209.813 696.769 209.813 702.097C209.813 707.426 214.132 711.745 219.461 711.745Z" stroke="white" stroke-width="2.01002" stroke-miterlimit="10"/>
<path d="M228.304 731.844H211.42V757.572H228.304V731.844Z" stroke="white" stroke-width="2.01002" stroke-miterlimit="10"/>
<path d="M219.461 795.365C224.789 795.365 229.109 791.045 229.109 785.716C229.109 780.388 224.789 776.068 219.461 776.068C214.132 776.068 209.813 780.388 209.813 785.716C209.813 791.045 214.132 795.365 219.461 795.365Z" stroke="white" stroke-width="2.01002" stroke-miterlimit="10"/>
<path d="M228.304 815.463H211.42V841.191H228.304V815.463Z" stroke="white" stroke-width="2.01002" stroke-miterlimit="10"/>
<path d="M219.461 878.976C224.789 878.976 229.109 874.656 229.109 869.328C229.109 863.999 224.789 859.68 219.461 859.68C214.132 859.68 209.813 863.999 209.813 869.328C209.813 874.656 214.132 878.976 219.461 878.976Z" stroke="white" stroke-width="2.01002" stroke-miterlimit="10"/>
<path d="M258.054 585.513C263.383 585.513 267.702 581.193 267.702 575.865C267.702 570.536 263.383 566.217 258.054 566.217C252.726 566.217 248.406 570.536 248.406 575.865C248.406 581.193 252.726 585.513 258.054 585.513Z" stroke="white" stroke-width="2.01002" stroke-miterlimit="10"/>
<path d="M266.898 605.611H250.014V631.34H266.898V605.611Z" stroke="white" stroke-width="2.01002" stroke-miterlimit="10"/>
<path d="M258.054 669.132C263.383 669.132 267.702 664.813 267.702 659.484C267.702 654.156 263.383 649.836 258.054 649.836C252.726 649.836 248.406 654.156 248.406 659.484C248.406 664.813 252.726 669.132 258.054 669.132Z" stroke="white" stroke-width="2.01002" stroke-miterlimit="10"/>
<path d="M266.898 690.037H250.014V715.765H266.898V690.037Z" stroke="white" stroke-width="2.01002" stroke-miterlimit="10"/>
<path d="M258.054 753.55C263.383 753.55 267.702 749.23 267.702 743.902C267.702 738.573 263.383 734.254 258.054 734.254C252.726 734.254 248.406 738.573 248.406 743.902C248.406 749.23 252.726 753.55 258.054 753.55Z" stroke="white" stroke-width="2.01002" stroke-miterlimit="10"/>
<path d="M266.898 773.65H250.014V799.379H266.898V773.65Z" stroke="white" stroke-width="2.01002" stroke-miterlimit="10"/>
<path d="M258.054 837.169C263.383 837.169 267.702 832.85 267.702 827.521C267.702 822.193 263.383 817.873 258.054 817.873C252.726 817.873 248.406 822.193 248.406 827.521C248.406 832.85 252.726 837.169 258.054 837.169Z" stroke="white" stroke-width="2.01002" stroke-miterlimit="10"/>
<path d="M266.898 858.074H250.014V883.803H266.898V858.074Z" stroke="white" stroke-width="2.01002" stroke-miterlimit="10"/>
<path d="M303.881 563.807H286.997V589.535H303.881V563.807Z" stroke="white" stroke-width="2.01002" stroke-miterlimit="10"/>
<path d="M295.038 627.326C300.366 627.326 304.686 623.006 304.686 617.677C304.686 612.349 300.366 608.029 295.038 608.029C289.709 608.029 285.39 612.349 285.39 617.677C285.39 623.006 289.709 627.326 295.038 627.326Z" stroke="white" stroke-width="2.01002" stroke-miterlimit="10"/>
<path d="M303.881 648.23H286.997V673.959H303.881V648.23Z" stroke="white" stroke-width="2.01002" stroke-miterlimit="10"/>
<path d="M295.038 711.745C300.366 711.745 304.686 707.426 304.686 702.097C304.686 696.769 300.366 692.449 295.038 692.449C289.709 692.449 285.39 696.769 285.39 702.097C285.39 707.426 289.709 711.745 295.038 711.745Z" stroke="white" stroke-width="2.01002" stroke-miterlimit="10"/>
<path d="M303.881 731.844H286.997V757.572H303.881V731.844Z" stroke="white" stroke-width="2.01002" stroke-miterlimit="10"/>
<path d="M295.038 795.365C300.366 795.365 304.686 791.045 304.686 785.716C304.686 780.388 300.366 776.068 295.038 776.068C289.709 776.068 285.39 780.388 285.39 785.716C285.39 791.045 289.709 795.365 295.038 795.365Z" stroke="white" stroke-width="2.01002" stroke-miterlimit="10"/>
<path d="M303.881 815.463H286.997V841.191H303.881V815.463Z" stroke="white" stroke-width="2.01002" stroke-miterlimit="10"/>
<path d="M295.038 878.976C300.366 878.976 304.686 874.656 304.686 869.328C304.686 863.999 300.366 859.68 295.038 859.68C289.709 859.68 285.39 863.999 285.39 869.328C285.39 874.656 289.709 878.976 295.038 878.976Z" stroke="white" stroke-width="2.01002" stroke-miterlimit="10"/>
<path d="M333.631 585.513C338.96 585.513 343.279 581.193 343.279 575.865C343.279 570.536 338.96 566.217 333.631 566.217C328.303 566.217 323.983 570.536 323.983 575.865C323.983 581.193 328.303 585.513 333.631 585.513Z" stroke="white" stroke-width="2.01002" stroke-miterlimit="10"/>
<path d="M342.475 605.611H325.591V631.34H342.475V605.611Z" stroke="white" stroke-width="2.01002" stroke-miterlimit="10"/>
<path d="M333.631 669.132C338.96 669.132 343.279 664.813 343.279 659.484C343.279 654.156 338.96 649.836 333.631 649.836C328.303 649.836 323.983 654.156 323.983 659.484C323.983 664.813 328.303 669.132 333.631 669.132Z" stroke="white" stroke-width="2.01002" stroke-miterlimit="10"/>
<path d="M342.475 690.037H325.591V715.765H342.475V690.037Z" stroke="white" stroke-width="2.01002" stroke-miterlimit="10"/>
<path d="M333.631 753.55C338.96 753.55 343.279 749.23 343.279 743.902C343.279 738.573 338.96 734.254 333.631 734.254C328.303 734.254 323.983 738.573 323.983 743.902C323.983 749.23 328.303 753.55 333.631 753.55Z" stroke="white" stroke-width="2.01002" stroke-miterlimit="10"/>
<path d="M342.475 773.65H325.591V799.379H342.475V773.65Z" stroke="white" stroke-width="2.01002" stroke-miterlimit="10"/>
<path d="M333.631 837.169C338.96 837.169 343.279 832.85 343.279 827.521C343.279 822.193 338.96 817.873 333.631 817.873C328.303 817.873 323.983 822.193 323.983 827.521C323.983 832.85 328.303 837.169 333.631 837.169Z" stroke="white" stroke-width="2.01002" stroke-miterlimit="10"/>
<path d="M342.475 858.074H325.591V883.803H342.475V858.074Z" stroke="white" stroke-width="2.01002" stroke-miterlimit="10"/>
<path d="M379.459 563.807H362.575V589.535H379.459V563.807Z" stroke="white" stroke-width="2.01002" stroke-miterlimit="10"/>
<path d="M370.615 627.326C375.943 627.326 380.263 623.006 380.263 617.677C380.263 612.349 375.943 608.029 370.615 608.029C365.286 608.029 360.967 612.349 360.967 617.677C360.967 623.006 365.286 627.326 370.615 627.326Z" stroke="white" stroke-width="2.01002" stroke-miterlimit="10"/>
<path d="M379.459 648.23H362.575V673.959H379.459V648.23Z" stroke="white" stroke-width="2.01002" stroke-miterlimit="10"/>
<path d="M370.615 711.745C375.943 711.745 380.263 707.426 380.263 702.097C380.263 696.769 375.943 692.449 370.615 692.449C365.286 692.449 360.967 696.769 360.967 702.097C360.967 707.426 365.286 711.745 370.615 711.745Z" stroke="white" stroke-width="2.01002" stroke-miterlimit="10"/>
<path d="M379.459 731.844H362.575V757.572H379.459V731.844Z" stroke="white" stroke-width="2.01002" stroke-miterlimit="10"/>
<path d="M370.615 795.365C375.943 795.365 380.263 791.045 380.263 785.716C380.263 780.388 375.943 776.068 370.615 776.068C365.286 776.068 360.967 780.388 360.967 785.716C360.967 791.045 365.286 795.365 370.615 795.365Z" stroke="white" stroke-width="2.01002" stroke-miterlimit="10"/>
<path d="M379.459 815.463H362.575V841.191H379.459V815.463Z" stroke="white" stroke-width="2.01002" stroke-miterlimit="10"/>
<path d="M370.615 878.976C375.943 878.976 380.263 874.656 380.263 869.328C380.263 863.999 375.943 859.68 370.615 859.68C365.286 859.68 360.967 863.999 360.967 869.328C360.967 874.656 365.286 878.976 370.615 878.976Z" stroke="white" stroke-width="2.01002" stroke-miterlimit="10"/>
<path d="M409.207 585.513C414.535 585.513 418.855 581.193 418.855 575.865C418.855 570.536 414.535 566.217 409.207 566.217C403.878 566.217 399.559 570.536 399.559 575.865C399.559 581.193 403.878 585.513 409.207 585.513Z" stroke="white" stroke-width="2.01002" stroke-miterlimit="10"/>
<path d="M418.05 605.611H401.166V631.34H418.05V605.611Z" stroke="white" stroke-width="2.01002" stroke-miterlimit="10"/>
<path d="M409.207 669.132C414.535 669.132 418.855 664.813 418.855 659.484C418.855 654.156 414.535 649.836 409.207 649.836C403.878 649.836 399.559 654.156 399.559 659.484C399.559 664.813 403.878 669.132 409.207 669.132Z" stroke="white" stroke-width="2.01002" stroke-miterlimit="10"/>
<path d="M418.05 690.037H401.166V715.765H418.05V690.037Z" stroke="white" stroke-width="2.01002" stroke-miterlimit="10"/>
<path d="M409.207 753.55C414.535 753.55 418.855 749.23 418.855 743.902C418.855 738.573 414.535 734.254 409.207 734.254C403.878 734.254 399.559 738.573 399.559 743.902C399.559 749.23 403.878 753.55 409.207 753.55Z" stroke="white" stroke-width="2.01002" stroke-miterlimit="10"/>
<path d="M418.05 773.65H401.166V799.379H418.05V773.65Z" stroke="white" stroke-width="2.01002" stroke-miterlimit="10"/>
<path d="M409.207 837.169C414.535 837.169 418.855 832.85 418.855 827.521C418.855 822.193 414.535 817.873 409.207 817.873C403.878 817.873 399.559 822.193 399.559 827.521C399.559 832.85 403.878 837.169 409.207 837.169Z" stroke="white" stroke-width="2.01002" stroke-miterlimit="10"/>
<path d="M418.05 858.074H401.166V883.803H418.05V858.074Z" stroke="white" stroke-width="2.01002" stroke-miterlimit="10"/>
<path d="M455.037 563.807H438.153V589.535H455.037V563.807Z" stroke="white" stroke-width="2.01002" stroke-miterlimit="10"/>
<path d="M446.193 627.326C451.521 627.326 455.841 623.006 455.841 617.677C455.841 612.349 451.521 608.029 446.193 608.029C440.864 608.029 436.545 612.349 436.545 617.677C436.545 623.006 440.864 627.326 446.193 627.326Z" stroke="white" stroke-width="2.01002" stroke-miterlimit="10"/>
<path d="M455.037 648.23H438.153V673.959H455.037V648.23Z" stroke="white" stroke-width="2.01002" stroke-miterlimit="10"/>
<path d="M446.193 711.745C451.521 711.745 455.841 707.426 455.841 702.097C455.841 696.769 451.521 692.449 446.193 692.449C440.864 692.449 436.545 696.769 436.545 702.097C436.545 707.426 440.864 711.745 446.193 711.745Z" stroke="white" stroke-width="2.01002" stroke-miterlimit="10"/>
<path d="M455.037 731.844H438.153V757.572H455.037V731.844Z" stroke="white" stroke-width="2.01002" stroke-miterlimit="10"/>
<path d="M446.193 795.365C451.521 795.365 455.841 791.045 455.841 785.716C455.841 780.388 451.521 776.068 446.193 776.068C440.864 776.068 436.545 780.388 436.545 785.716C436.545 791.045 440.864 795.365 446.193 795.365Z" stroke="white" stroke-width="2.01002" stroke-miterlimit="10"/>
<path d="M455.037 815.463H438.153V841.191H455.037V815.463Z" stroke="white" stroke-width="2.01002" stroke-miterlimit="10"/>
<path d="M446.193 878.976C451.521 878.976 455.841 874.656 455.841 869.328C455.841 863.999 451.521 859.68 446.193 859.68C440.864 859.68 436.545 863.999 436.545 869.328C436.545 874.656 440.864 878.976 446.193 878.976Z" stroke="white" stroke-width="2.01002" stroke-miterlimit="10"/>
<path d="M484.784 585.513C490.112 585.513 494.432 581.193 494.432 575.865C494.432 570.536 490.112 566.217 484.784 566.217C479.455 566.217 475.135 570.536 475.135 575.865C475.135 581.193 479.455 585.513 484.784 585.513Z" stroke="white" stroke-width="2.01002" stroke-miterlimit="10"/>
<path d="M493.628 605.611H476.744V631.34H493.628V605.611Z" stroke="white" stroke-width="2.01002" stroke-miterlimit="10"/>
<path d="M484.784 669.132C490.112 669.132 494.432 664.813 494.432 659.484C494.432 654.156 490.112 649.836 484.784 649.836C479.455 649.836 475.135 654.156 475.135 659.484C475.135 664.813 479.455 669.132 484.784 669.132Z" stroke="white" stroke-width="2.01002" stroke-miterlimit="10"/>
<path d="M493.628 690.037H476.744V715.765H493.628V690.037Z" stroke="white" stroke-width="2.01002" stroke-miterlimit="10"/>
<path d="M484.784 753.55C490.112 753.55 494.432 749.23 494.432 743.902C494.432 738.573 490.112 734.254 484.784 734.254C479.455 734.254 475.135 738.573 475.135 743.902C475.135 749.23 479.455 753.55 484.784 753.55Z" stroke="white" stroke-width="2.01002" stroke-miterlimit="10"/>
<path d="M493.628 773.65H476.744V799.379H493.628V773.65Z" stroke="white" stroke-width="2.01002" stroke-miterlimit="10"/>
<path d="M484.784 837.169C490.112 837.169 494.432 832.85 494.432 827.521C494.432 822.193 490.112 817.873 484.784 817.873C479.455 817.873 475.135 822.193 475.135 827.521C475.135 832.85 479.455 837.169 484.784 837.169Z" stroke="white" stroke-width="2.01002" stroke-miterlimit="10"/>
<path d="M493.628 858.074H476.744V883.803H493.628V858.074Z" stroke="white" stroke-width="2.01002" stroke-miterlimit="10"/>
<path d="M530.612 563.807H513.727V589.535H530.612V563.807Z" stroke="white" stroke-width="2.01002" stroke-miterlimit="10"/>
<path d="M521.768 627.326C527.096 627.326 531.416 623.006 531.416 617.677C531.416 612.349 527.096 608.029 521.768 608.029C516.439 608.029 512.12 612.349 512.12 617.677C512.12 623.006 516.439 627.326 521.768 627.326Z" stroke="white" stroke-width="2.01002" stroke-miterlimit="10"/>
<path d="M530.612 648.23H513.727V673.959H530.612V648.23Z" stroke="white" stroke-width="2.01002" stroke-miterlimit="10"/>
<path d="M521.768 711.745C527.096 711.745 531.416 707.426 531.416 702.097C531.416 696.769 527.096 692.449 521.768 692.449C516.439 692.449 512.12 696.769 512.12 702.097C512.12 707.426 516.439 711.745 521.768 711.745Z" stroke="white" stroke-width="2.01002" stroke-miterlimit="10"/>
<path d="M530.612 731.844H513.727V757.572H530.612V731.844Z" stroke="white" stroke-width="2.01002" stroke-miterlimit="10"/>
<path d="M521.768 795.365C527.096 795.365 531.416 791.045 531.416 785.716C531.416 780.388 527.096 776.068 521.768 776.068C516.439 776.068 512.12 780.388 512.12 785.716C512.12 791.045 516.439 795.365 521.768 795.365Z" stroke="white" stroke-width="2.01002" stroke-miterlimit="10"/>
<path d="M530.612 815.463H513.727V841.191H530.612V815.463Z" stroke="white" stroke-width="2.01002" stroke-miterlimit="10"/>
<path d="M521.768 878.976C527.096 878.976 531.416 874.656 531.416 869.328C531.416 863.999 527.096 859.68 521.768 859.68C516.439 859.68 512.12 863.999 512.12 869.328C512.12 874.656 516.439 878.976 521.768 878.976Z" stroke="white" stroke-width="2.01002" stroke-miterlimit="10"/>
<path d="M560.361 585.513C565.69 585.513 570.009 581.193 570.009 575.865C570.009 570.536 565.69 566.217 560.361 566.217C555.033 566.217 550.713 570.536 550.713 575.865C550.713 581.193 555.033 585.513 560.361 585.513Z" stroke="white" stroke-width="2.01002" stroke-miterlimit="10"/>
<path d="M569.206 605.611H552.321V631.34H569.206V605.611Z" stroke="white" stroke-width="2.01002" stroke-miterlimit="10"/>
<path d="M560.361 669.132C565.69 669.132 570.009 664.813 570.009 659.484C570.009 654.156 565.69 649.836 560.361 649.836C555.033 649.836 550.713 654.156 550.713 659.484C550.713 664.813 555.033 669.132 560.361 669.132Z" stroke="white" stroke-width="2.01002" stroke-miterlimit="10"/>
<path d="M569.206 690.037H552.321V715.765H569.206V690.037Z" stroke="white" stroke-width="2.01002" stroke-miterlimit="10"/>
<path d="M560.361 753.55C565.69 753.55 570.009 749.23 570.009 743.902C570.009 738.573 565.69 734.254 560.361 734.254C555.033 734.254 550.713 738.573 550.713 743.902C550.713 749.23 555.033 753.55 560.361 753.55Z" stroke="white" stroke-width="2.01002" stroke-miterlimit="10"/>
<path d="M569.206 773.65H552.321V799.379H569.206V773.65Z" stroke="white" stroke-width="2.01002" stroke-miterlimit="10"/>
<path d="M560.361 837.169C565.69 837.169 570.009 832.85 570.009 827.521C570.009 822.193 565.69 817.873 560.361 817.873C555.033 817.873 550.713 822.193 550.713 827.521C550.713 832.85 555.033 837.169 560.361 837.169Z" stroke="white" stroke-width="2.01002" stroke-miterlimit="10"/>
<path d="M569.206 858.074H552.321V883.803H569.206V858.074Z" stroke="white" stroke-width="2.01002" stroke-miterlimit="10"/>
<path d="M606.188 563.807H589.304V589.535H606.188V563.807Z" stroke="white" stroke-width="2.01002" stroke-miterlimit="10"/>
<path d="M597.345 627.326C602.673 627.326 606.993 623.006 606.993 617.677C606.993 612.349 602.673 608.029 597.345 608.029C592.016 608.029 587.697 612.349 587.697 617.677C587.697 623.006 592.016 627.326 597.345 627.326Z" stroke="white" stroke-width="2.01002" stroke-miterlimit="10"/>
<path d="M606.188 648.23H589.304V673.959H606.188V648.23Z" stroke="white" stroke-width="2.01002" stroke-miterlimit="10"/>
<path d="M597.345 711.745C602.673 711.745 606.993 707.426 606.993 702.097C606.993 696.769 602.673 692.449 597.345 692.449C592.016 692.449 587.697 696.769 587.697 702.097C587.697 707.426 592.016 711.745 597.345 711.745Z" stroke="white" stroke-width="2.01002" stroke-miterlimit="10"/>
<path d="M606.188 731.844H589.304V757.572H606.188V731.844Z" stroke="white" stroke-width="2.01002" stroke-miterlimit="10"/>
<path d="M597.345 795.365C602.673 795.365 606.993 791.045 606.993 785.716C606.993 780.388 602.673 776.068 597.345 776.068C592.016 776.068 587.697 780.388 587.697 785.716C587.697 791.045 592.016 795.365 597.345 795.365Z" stroke="white" stroke-width="2.01002" stroke-miterlimit="10"/>
<path d="M606.188 815.463H589.304V841.191H606.188V815.463Z" stroke="white" stroke-width="2.01002" stroke-miterlimit="10"/>
<path d="M597.345 878.976C602.673 878.976 606.993 874.656 606.993 869.328C606.993 863.999 602.673 859.68 597.345 859.68C592.016 859.68 587.697 863.999 587.697 869.328C587.697 874.656 592.016 878.976 597.345 878.976Z" stroke="white" stroke-width="2.01002" stroke-miterlimit="10"/>
<path d="M635.938 585.513C641.267 585.513 645.587 581.193 645.587 575.865C645.587 570.536 641.267 566.217 635.938 566.217C630.61 566.217 626.29 570.536 626.29 575.865C626.29 581.193 630.61 585.513 635.938 585.513Z" stroke="white" stroke-width="2.01002" stroke-miterlimit="10"/>
<path d="M644.782 605.611H627.898V631.34H644.782V605.611Z" stroke="white" stroke-width="2.01002" stroke-miterlimit="10"/>
<path d="M635.938 669.132C641.267 669.132 645.587 664.813 645.587 659.484C645.587 654.156 641.267 649.836 635.938 649.836C630.61 649.836 626.29 654.156 626.29 659.484C626.29 664.813 630.61 669.132 635.938 669.132Z" stroke="white" stroke-width="2.01002" stroke-miterlimit="10"/>
<path d="M644.782 690.037H627.898V715.765H644.782V690.037Z" stroke="white" stroke-width="2.01002" stroke-miterlimit="10"/>
<path d="M635.938 753.55C641.267 753.55 645.587 749.23 645.587 743.902C645.587 738.573 641.267 734.254 635.938 734.254C630.61 734.254 626.29 738.573 626.29 743.902C626.29 749.23 630.61 753.55 635.938 753.55Z" stroke="white" stroke-width="2.01002" stroke-miterlimit="10"/>
<path d="M644.782 773.65H627.898V799.379H644.782V773.65Z" stroke="white" stroke-width="2.01002" stroke-miterlimit="10"/>
<path d="M635.938 837.169C641.267 837.169 645.587 832.85 645.587 827.521C645.587 822.193 641.267 817.873 635.938 817.873C630.61 817.873 626.29 822.193 626.29 827.521C626.29 832.85 630.61 837.169 635.938 837.169Z" stroke="white" stroke-width="2.01002" stroke-miterlimit="10"/>
<path d="M644.782 858.074H627.898V883.803H644.782V858.074Z" stroke="white" stroke-width="2.01002" stroke-miterlimit="10"/>
</g>
<mask id="mask3" mask-type="alpha" maskUnits="userSpaceOnUse" x="672" y="394" width="252" height="297">
<path d="M829.703 394.248C765.383 391.836 750.106 442.488 750.106 442.488C750.106 442.488 744.478 463.392 719.554 508.417C699.454 544.597 680.158 617.762 672.922 646.706L782.267 678.867L818.447 690.123C818.447 690.123 832.115 692.535 894.024 592.838C954.325 492.337 918.144 398.268 829.703 394.248Z" fill="#E2603D"/>
</mask>
<g mask="url(#mask3)">
<path d="M681.765 395.768H664.881V421.496H681.765V395.768Z" stroke="white" stroke-width="2.01002" stroke-miterlimit="10"/>
<path d="M673.726 459.288C679.054 459.288 683.374 454.969 683.374 449.64C683.374 444.312 679.054 439.992 673.726 439.992C668.397 439.992 664.077 444.312 664.077 449.64C664.077 454.969 668.397 459.288 673.726 459.288Z" stroke="white" stroke-width="2.01002" stroke-miterlimit="10"/>
<path d="M681.765 480.193H664.881V505.922H681.765V480.193Z" stroke="white" stroke-width="2.01002" stroke-miterlimit="10"/>
<path d="M673.726 543.706C679.054 543.706 683.374 539.387 683.374 534.058C683.374 528.73 679.054 524.41 673.726 524.41C668.397 524.41 664.077 528.73 664.077 534.058C664.077 539.387 668.397 543.706 673.726 543.706Z" stroke="white" stroke-width="2.01002" stroke-miterlimit="10"/>
<path d="M681.765 563.807H664.881V589.535H681.765V563.807Z" stroke="white" stroke-width="2.01002" stroke-miterlimit="10"/>
<path d="M673.726 627.326C679.054 627.326 683.374 623.006 683.374 617.677C683.374 612.349 679.054 608.029 673.726 608.029C668.397 608.029 664.077 612.349 664.077 617.677C664.077 623.006 668.397 627.326 673.726 627.326Z" stroke="white" stroke-width="2.01002" stroke-miterlimit="10"/>
<path d="M681.765 648.23H664.881V673.959H681.765V648.23Z" stroke="white" stroke-width="2.01002" stroke-miterlimit="10"/>
<path d="M711.515 417.474C716.844 417.474 721.163 413.154 721.163 407.826C721.163 402.497 716.844 398.178 711.515 398.178C706.187 398.178 701.867 402.497 701.867 407.826C701.867 413.154 706.187 417.474 711.515 417.474Z" stroke="white" stroke-width="2.01002" stroke-miterlimit="10"/>
<path d="M720.359 438.379H703.475V464.107H720.359V438.379Z" stroke="white" stroke-width="2.01002" stroke-miterlimit="10"/>
<path d="M711.515 501.894C716.844 501.894 721.163 497.574 721.163 492.246C721.163 486.917 716.844 482.598 711.515 482.598C706.187 482.598 701.867 486.917 701.867 492.246C701.867 497.574 706.187 501.894 711.515 501.894Z" stroke="white" stroke-width="2.01002" stroke-miterlimit="10"/>
<path d="M720.359 521.992H703.475V547.72H720.359V521.992Z" stroke="white" stroke-width="2.01002" stroke-miterlimit="10"/>
<path d="M711.515 585.513C716.844 585.513 721.163 581.193 721.163 575.865C721.163 570.536 716.844 566.217 711.515 566.217C706.187 566.217 701.867 570.536 701.867 575.865C701.867 581.193 706.187 585.513 711.515 585.513Z" stroke="white" stroke-width="2.01002" stroke-miterlimit="10"/>
<path d="M720.359 605.611H703.475V631.34H720.359V605.611Z" stroke="white" stroke-width="2.01002" stroke-miterlimit="10"/>
<path d="M711.515 669.132C716.844 669.132 721.163 664.813 721.163 659.484C721.163 654.156 716.844 649.836 711.515 649.836C706.187 649.836 701.867 654.156 701.867 659.484C701.867 664.813 706.187 669.132 711.515 669.132Z" stroke="white" stroke-width="2.01002" stroke-miterlimit="10"/>
<path d="M720.359 690.037H703.475V715.765H720.359V690.037Z" stroke="white" stroke-width="2.01002" stroke-miterlimit="10"/>
<path d="M757.343 395.768H740.459V421.496H757.343V395.768Z" stroke="white" stroke-width="2.01002" stroke-miterlimit="10"/>
<path d="M749.303 459.288C754.631 459.288 758.951 454.969 758.951 449.64C758.951 444.312 754.631 439.992 749.303 439.992C743.974 439.992 739.655 444.312 739.655 449.64C739.655 454.969 743.974 459.288 749.303 459.288Z" stroke="white" stroke-width="2.01002" stroke-miterlimit="10"/>
<path d="M757.343 480.193H740.459V505.922H757.343V480.193Z" stroke="white" stroke-width="2.01002" stroke-miterlimit="10"/>
<path d="M749.303 543.706C754.631 543.706 758.951 539.387 758.951 534.058C758.951 528.73 754.631 524.41 749.303 524.41C743.974 524.41 739.655 528.73 739.655 534.058C739.655 539.387 743.974 543.706 749.303 543.706Z" stroke="white" stroke-width="2.01002" stroke-miterlimit="10"/>
<path d="M757.343 563.807H740.459V589.535H757.343V563.807Z" stroke="white" stroke-width="2.01002" stroke-miterlimit="10"/>
<path d="M749.303 627.326C754.631 627.326 758.951 623.006 758.951 617.677C758.951 612.349 754.631 608.029 749.303 608.029C743.974 608.029 739.655 612.349 739.655 617.677C739.655 623.006 743.974 627.326 749.303 627.326Z" stroke="white" stroke-width="2.01002" stroke-miterlimit="10"/>
<path d="M757.343 648.23H740.459V673.959H757.343V648.23Z" stroke="white" stroke-width="2.01002" stroke-miterlimit="10"/>
<path d="M787.091 417.474C792.419 417.474 796.739 413.154 796.739 407.826C796.739 402.497 792.419 398.178 787.091 398.178C781.762 398.178 777.443 402.497 777.443 407.826C777.443 413.154 781.762 417.474 787.091 417.474Z" stroke="white" stroke-width="2.01002" stroke-miterlimit="10"/>
<path d="M795.934 438.379H779.05V464.107H795.934V438.379Z" stroke="white" stroke-width="2.01002" stroke-miterlimit="10"/>
<path d="M787.091 501.894C792.419 501.894 796.739 497.574 796.739 492.246C796.739 486.917 792.419 482.598 787.091 482.598C781.762 482.598 777.443 486.917 777.443 492.246C777.443 497.574 781.762 501.894 787.091 501.894Z" stroke="white" stroke-width="2.01002" stroke-miterlimit="10"/>
<path d="M795.934 521.992H779.05V547.72H795.934V521.992Z" stroke="white" stroke-width="2.01002" stroke-miterlimit="10"/>
<path d="M787.091 585.513C792.419 585.513 796.739 581.193 796.739 575.865C796.739 570.536 792.419 566.217 787.091 566.217C781.762 566.217 777.443 570.536 777.443 575.865C777.443 581.193 781.762 585.513 787.091 585.513Z" stroke="white" stroke-width="2.01002" stroke-miterlimit="10"/>
<path d="M795.934 605.611H779.05V631.34H795.934V605.611Z" stroke="white" stroke-width="2.01002" stroke-miterlimit="10"/>
<path d="M787.091 669.132C792.419 669.132 796.739 664.813 796.739 659.484C796.739 654.156 792.419 649.836 787.091 649.836C781.762 649.836 777.443 654.156 777.443 659.484C777.443 664.813 781.762 669.132 787.091 669.132Z" stroke="white" stroke-width="2.01002" stroke-miterlimit="10"/>
<path d="M795.934 690.037H779.05V715.765H795.934V690.037Z" stroke="white" stroke-width="2.01002" stroke-miterlimit="10"/>
<path d="M832.92 395.768H816.036V421.496H832.92V395.768Z" stroke="white" stroke-width="2.01002" stroke-miterlimit="10"/>
<path d="M824.88 459.288C830.209 459.288 834.528 454.969 834.528 449.64C834.528 444.312 830.209 439.992 824.88 439.992C819.552 439.992 815.232 444.312 815.232 449.64C815.232 454.969 819.552 459.288 824.88 459.288Z" stroke="white" stroke-width="2.01002" stroke-miterlimit="10"/>
<path d="M832.92 480.193H816.036V505.922H832.92V480.193Z" stroke="white" stroke-width="2.01002" stroke-miterlimit="10"/>
<path d="M824.88 543.706C830.209 543.706 834.528 539.387 834.528 534.058C834.528 528.73 830.209 524.41 824.88 524.41C819.552 524.41 815.232 528.73 815.232 534.058C815.232 539.387 819.552 543.706 824.88 543.706Z" stroke="white" stroke-width="2.01002" stroke-miterlimit="10"/>
<path d="M832.92 563.807H816.036V589.535H832.92V563.807Z" stroke="white" stroke-width="2.01002" stroke-miterlimit="10"/>
<path d="M824.88 627.326C830.209 627.326 834.528 623.006 834.528 617.677C834.528 612.349 830.209 608.029 824.88 608.029C819.552 608.029 815.232 612.349 815.232 617.677C815.232 623.006 819.552 627.326 824.88 627.326Z" stroke="white" stroke-width="2.01002" stroke-miterlimit="10"/>
<path d="M832.92 648.23H816.036V673.959H832.92V648.23Z" stroke="white" stroke-width="2.01002" stroke-miterlimit="10"/>
<path d="M862.668 417.474C867.997 417.474 872.316 413.154 872.316 407.826C872.316 402.497 867.997 398.178 862.668 398.178C857.34 398.178 853.02 402.497 853.02 407.826C853.02 413.154 857.34 417.474 862.668 417.474Z" stroke="white" stroke-width="2.01002" stroke-miterlimit="10"/>
<path d="M871.513 438.379H854.629V464.107H871.513V438.379Z" stroke="white" stroke-width="2.01002" stroke-miterlimit="10"/>
<path d="M862.668 501.894C867.997 501.894 872.316 497.574 872.316 492.246C872.316 486.917 867.997 482.598 862.668 482.598C857.34 482.598 853.02 486.917 853.02 492.246C853.02 497.574 857.34 501.894 862.668 501.894Z" stroke="white" stroke-width="2.01002" stroke-miterlimit="10"/>
<path d="M871.513 521.992H854.629V547.72H871.513V521.992Z" stroke="white" stroke-width="2.01002" stroke-miterlimit="10"/>
<path d="M862.668 585.513C867.997 585.513 872.316 581.193 872.316 575.865C872.316 570.536 867.997 566.217 862.668 566.217C857.34 566.217 853.02 570.536 853.02 575.865C853.02 581.193 857.34 585.513 862.668 585.513Z" stroke="white" stroke-width="2.01002" stroke-miterlimit="10"/>
<path d="M871.513 605.611H854.629V631.34H871.513V605.611Z" stroke="white" stroke-width="2.01002" stroke-miterlimit="10"/>
<path d="M862.668 669.132C867.997 669.132 872.316 664.813 872.316 659.484C872.316 654.156 867.997 649.836 862.668 649.836C857.34 649.836 853.02 654.156 853.02 659.484C853.02 664.813 857.34 669.132 862.668 669.132Z" stroke="white" stroke-width="2.01002" stroke-miterlimit="10"/>
<path d="M871.513 690.037H854.629V715.765H871.513V690.037Z" stroke="white" stroke-width="2.01002" stroke-miterlimit="10"/>
<path d="M908.497 395.768H891.613V421.496H908.497V395.768Z" stroke="white" stroke-width="2.01002" stroke-miterlimit="10"/>
<path d="M900.457 459.288C905.786 459.288 910.105 454.969 910.105 449.64C910.105 444.312 905.786 439.992 900.457 439.992C895.129 439.992 890.809 444.312 890.809 449.64C890.809 454.969 895.129 459.288 900.457 459.288Z" stroke="white" stroke-width="2.01002" stroke-miterlimit="10"/>
<path d="M908.497 480.193H891.613V505.922H908.497V480.193Z" stroke="white" stroke-width="2.01002" stroke-miterlimit="10"/>
<path d="M900.457 543.706C905.786 543.706 910.105 539.387 910.105 534.058C910.105 528.73 905.786 524.41 900.457 524.41C895.129 524.41 890.809 528.73 890.809 534.058C890.809 539.387 895.129 543.706 900.457 543.706Z" stroke="white" stroke-width="2.01002" stroke-miterlimit="10"/>
<path d="M908.497 563.807H891.613V589.535H908.497V563.807Z" stroke="white" stroke-width="2.01002" stroke-miterlimit="10"/>
<path d="M900.457 627.326C905.786 627.326 910.105 623.006 910.105 617.677C910.105 612.349 905.786 608.029 900.457 608.029C895.129 608.029 890.809 612.349 890.809 617.677C890.809 623.006 895.129 627.326 900.457 627.326Z" stroke="white" stroke-width="2.01002" stroke-miterlimit="10"/>
<path d="M908.497 648.23H891.613V673.959H908.497V648.23Z" stroke="white" stroke-width="2.01002" stroke-miterlimit="10"/>
</g>
<mask id="mask4" mask-type="alpha" maskUnits="userSpaceOnUse" x="566" y="238" width="255" height="245">
<path d="M744.479 482.598L820.056 318.581L619.857 238.18L566.793 399.785L744.479 482.598Z" fill="#98A2F4"/>
</mask>
<g mask="url(#mask4)">
<path d="M560.361 249.431C565.69 249.431 570.009 245.111 570.009 239.783C570.009 234.454 565.69 230.135 560.361 230.135C555.033 230.135 550.713 234.454 550.713 239.783C550.713 245.111 555.033 249.431 560.361 249.431Z" stroke="white" stroke-width="2.01002" stroke-miterlimit="10"/>
<path d="M569.206 270.336H552.321V296.064H569.206V270.336Z" stroke="white" stroke-width="2.01002" stroke-miterlimit="10"/>
<path d="M560.362 333.849C565.69 333.849 570.01 329.529 570.01 324.201C570.01 318.872 565.69 314.553 560.362 314.553C555.033 314.553 550.714 318.872 550.714 324.201C550.714 329.529 555.033 333.849 560.362 333.849Z" stroke="white" stroke-width="2.01002" stroke-miterlimit="10"/>
<path d="M569.206 353.949H552.322V379.678H569.206V353.949Z" stroke="white" stroke-width="2.01002" stroke-miterlimit="10"/>
<path d="M560.362 417.468C565.69 417.468 570.01 413.148 570.01 407.82C570.01 402.491 565.69 398.172 560.362 398.172C555.033 398.172 550.714 402.491 550.714 407.82C550.714 413.148 555.033 417.468 560.362 417.468Z" stroke="white" stroke-width="2.01002" stroke-miterlimit="10"/>
<path d="M569.206 438.373H552.322V464.101H569.206V438.373Z" stroke="white" stroke-width="2.01002" stroke-miterlimit="10"/>
<path d="M560.362 501.886C565.69 501.886 570.01 497.566 570.01 492.238C570.01 486.909 565.69 482.59 560.362 482.59C555.033 482.59 550.714 486.909 550.714 492.238C550.714 497.566 555.033 501.886 560.362 501.886Z" stroke="white" stroke-width="2.01002" stroke-miterlimit="10"/>
<path d="M606.189 228.529H589.305V254.258H606.189V228.529Z" stroke="white" stroke-width="2.01002" stroke-miterlimit="10"/>
<path d="M597.345 292.042C602.674 292.042 606.993 287.723 606.993 282.394C606.993 277.066 602.674 272.746 597.345 272.746C592.017 272.746 587.697 277.066 587.697 282.394C587.697 287.723 592.017 292.042 597.345 292.042Z" stroke="white" stroke-width="2.01002" stroke-miterlimit="10"/>
<path d="M606.189 312.143H589.305V337.871H606.189V312.143Z" stroke="white" stroke-width="2.01002" stroke-miterlimit="10"/>
<path d="M597.345 375.661C602.674 375.661 606.993 371.342 606.993 366.013C606.993 360.685 602.674 356.365 597.345 356.365C592.017 356.365 587.697 360.685 587.697 366.013C587.697 371.342 592.017 375.661 597.345 375.661Z" stroke="white" stroke-width="2.01002" stroke-miterlimit="10"/>
<path d="M606.189 395.762H589.305V421.49H606.189V395.762Z" stroke="white" stroke-width="2.01002" stroke-miterlimit="10"/>
<path d="M597.345 459.283C602.674 459.283 606.993 454.963 606.993 449.634C606.993 444.306 602.674 439.986 597.345 439.986C592.017 439.986 587.697 444.306 587.697 449.634C587.697 454.963 592.017 459.283 597.345 459.283Z" stroke="white" stroke-width="2.01002" stroke-miterlimit="10"/>
<path d="M606.189 480.188H589.305V505.916H606.189V480.188Z" stroke="white" stroke-width="2.01002" stroke-miterlimit="10"/>
<path d="M635.938 249.431C641.267 249.431 645.587 245.111 645.587 239.783C645.587 234.454 641.267 230.135 635.938 230.135C630.61 230.135 626.29 234.454 626.29 239.783C626.29 245.111 630.61 249.431 635.938 249.431Z" stroke="white" stroke-width="2.01002" stroke-miterlimit="10"/>
<path d="M644.783 270.336H627.899V296.064H644.783V270.336Z" stroke="white" stroke-width="2.01002" stroke-miterlimit="10"/>
<path d="M635.939 333.849C641.267 333.849 645.587 329.529 645.587 324.201C645.587 318.872 641.267 314.553 635.939 314.553C630.61 314.553 626.291 318.872 626.291 324.201C626.291 329.529 630.61 333.849 635.939 333.849Z" stroke="white" stroke-width="2.01002" stroke-miterlimit="10"/>
<path d="M644.783 353.949H627.899V379.678H644.783V353.949Z" stroke="white" stroke-width="2.01002" stroke-miterlimit="10"/>
<path d="M635.939 417.468C641.267 417.468 645.587 413.148 645.587 407.82C645.587 402.491 641.267 398.172 635.939 398.172C630.61 398.172 626.291 402.491 626.291 407.82C626.291 413.148 630.61 417.468 635.939 417.468Z" stroke="white" stroke-width="2.01002" stroke-miterlimit="10"/>
<path d="M644.783 438.373H627.899V464.101H644.783V438.373Z" stroke="white" stroke-width="2.01002" stroke-miterlimit="10"/>
<path d="M635.939 501.886C641.267 501.886 645.587 497.566 645.587 492.238C645.587 486.909 641.267 482.59 635.939 482.59C630.61 482.59 626.291 486.909 626.291 492.238C626.291 497.566 630.61 501.886 635.939 501.886Z" stroke="white" stroke-width="2.01002" stroke-miterlimit="10"/>
<path d="M681.766 228.529H664.882V254.258H681.766V228.529Z" stroke="white" stroke-width="2.01002" stroke-miterlimit="10"/>
<path d="M673.726 292.042C679.054 292.042 683.374 287.723 683.374 282.394C683.374 277.066 679.054 272.746 673.726 272.746C668.397 272.746 664.077 277.066 664.077 282.394C664.077 287.723 668.397 292.042 673.726 292.042Z" stroke="white" stroke-width="2.01002" stroke-miterlimit="10"/>
<path d="M681.765 312.143H664.881V337.871H681.765V312.143Z" stroke="white" stroke-width="2.01002" stroke-miterlimit="10"/>
<path d="M673.726 375.661C679.054 375.661 683.374 371.342 683.374 366.013C683.374 360.685 679.054 356.365 673.726 356.365C668.397 356.365 664.077 360.685 664.077 366.013C664.077 371.342 668.397 375.661 673.726 375.661Z" stroke="white" stroke-width="2.01002" stroke-miterlimit="10"/>
<path d="M681.765 395.762H664.881V421.49H681.765V395.762Z" stroke="white" stroke-width="2.01002" stroke-miterlimit="10"/>
<path d="M673.726 459.283C679.054 459.283 683.374 454.963 683.374 449.634C683.374 444.306 679.054 439.986 673.726 439.986C668.397 439.986 664.077 444.306 664.077 449.634C664.077 454.963 668.397 459.283 673.726 459.283Z" stroke="white" stroke-width="2.01002" stroke-miterlimit="10"/>
<path d="M681.765 480.188H664.881V505.916H681.765V480.188Z" stroke="white" stroke-width="2.01002" stroke-miterlimit="10"/>
<path d="M711.515 249.431C716.844 249.431 721.163 245.111 721.163 239.783C721.163 234.454 716.844 230.135 711.515 230.135C706.187 230.135 701.867 234.454 701.867 239.783C701.867 245.111 706.187 249.431 711.515 249.431Z" stroke="white" stroke-width="2.01002" stroke-miterlimit="10"/>
<path d="M720.359 270.336H703.475V296.064H720.359V270.336Z" stroke="white" stroke-width="2.01002" stroke-miterlimit="10"/>
<path d="M711.516 333.849C716.844 333.849 721.164 329.529 721.164 324.201C721.164 318.872 716.844 314.553 711.516 314.553C706.187 314.553 701.868 318.872 701.868 324.201C701.868 329.529 706.187 333.849 711.516 333.849Z" stroke="white" stroke-width="2.01002" stroke-miterlimit="10"/>
<path d="M720.36 353.949H703.476V379.678H720.36V353.949Z" stroke="white" stroke-width="2.01002" stroke-miterlimit="10"/>
<path d="M711.516 417.468C716.844 417.468 721.164 413.148 721.164 407.82C721.164 402.491 716.844 398.172 711.516 398.172C706.187 398.172 701.868 402.491 701.868 407.82C701.868 413.148 706.187 417.468 711.516 417.468Z" stroke="white" stroke-width="2.01002" stroke-miterlimit="10"/>
<path d="M720.36 438.373H703.476V464.101H720.36V438.373Z" stroke="white" stroke-width="2.01002" stroke-miterlimit="10"/>
<path d="M711.516 501.886C716.844 501.886 721.164 497.566 721.164 492.238C721.164 486.909 716.844 482.59 711.516 482.59C706.187 482.59 701.868 486.909 701.868 492.238C701.868 497.566 706.187 501.886 711.516 501.886Z" stroke="white" stroke-width="2.01002" stroke-miterlimit="10"/>
<path d="M757.344 228.529H740.459V254.258H757.344V228.529Z" stroke="white" stroke-width="2.01002" stroke-miterlimit="10"/>
<path d="M749.303 292.042C754.632 292.042 758.951 287.723 758.951 282.394C758.951 277.066 754.632 272.746 749.303 272.746C743.975 272.746 739.655 277.066 739.655 282.394C739.655 287.723 743.975 292.042 749.303 292.042Z" stroke="white" stroke-width="2.01002" stroke-miterlimit="10"/>
<path d="M757.343 312.143H740.459V337.871H757.343V312.143Z" stroke="white" stroke-width="2.01002" stroke-miterlimit="10"/>
<path d="M749.303 375.661C754.632 375.661 758.951 371.342 758.951 366.013C758.951 360.685 754.632 356.365 749.303 356.365C743.975 356.365 739.655 360.685 739.655 366.013C739.655 371.342 743.975 375.661 749.303 375.661Z" stroke="white" stroke-width="2.01002" stroke-miterlimit="10"/>
<path d="M757.343 395.762H740.459V421.49H757.343V395.762Z" stroke="white" stroke-width="2.01002" stroke-miterlimit="10"/>
<path d="M749.303 459.283C754.632 459.283 758.951 454.963 758.951 449.634C758.951 444.306 754.632 439.986 749.303 439.986C743.975 439.986 739.655 444.306 739.655 449.634C739.655 454.963 743.975 459.283 749.303 459.283Z" stroke="white" stroke-width="2.01002" stroke-miterlimit="10"/>
<path d="M757.343 480.188H740.459V505.916H757.343V480.188Z" stroke="white" stroke-width="2.01002" stroke-miterlimit="10"/>
<path d="M787.091 249.431C792.419 249.431 796.739 245.111 796.739 239.783C796.739 234.454 792.419 230.135 787.091 230.135C781.762 230.135 777.443 234.454 777.443 239.783C777.443 245.111 781.762 249.431 787.091 249.431Z" stroke="white" stroke-width="2.01002" stroke-miterlimit="10"/>
<path d="M795.934 270.336H779.05V296.064H795.934V270.336Z" stroke="white" stroke-width="2.01002" stroke-miterlimit="10"/>
<path d="M787.091 333.849C792.419 333.849 796.739 329.529 796.739 324.201C796.739 318.872 792.419 314.553 787.091 314.553C781.762 314.553 777.443 318.872 777.443 324.201C777.443 329.529 781.762 333.849 787.091 333.849Z" stroke="white" stroke-width="2.01002" stroke-miterlimit="10"/>
<path d="M795.934 353.949H779.05V379.678H795.934V353.949Z" stroke="white" stroke-width="2.01002" stroke-miterlimit="10"/>
<path d="M787.091 417.468C792.419 417.468 796.739 413.148 796.739 407.82C796.739 402.491 792.419 398.172 787.091 398.172C781.762 398.172 777.443 402.491 777.443 407.82C777.443 413.148 781.762 417.468 787.091 417.468Z" stroke="white" stroke-width="2.01002" stroke-miterlimit="10"/>
<path d="M795.934 438.373H779.05V464.101H795.934V438.373Z" stroke="white" stroke-width="2.01002" stroke-miterlimit="10"/>
<path d="M787.091 501.886C792.419 501.886 796.739 497.566 796.739 492.238C796.739 486.909 792.419 482.59 787.091 482.59C781.762 482.59 777.443 486.909 777.443 492.238C777.443 497.566 781.762 501.886 787.091 501.886Z" stroke="white" stroke-width="2.01002" stroke-miterlimit="10"/>
<path d="M832.918 228.529H816.034V254.258H832.918V228.529Z" stroke="white" stroke-width="2.01002" stroke-miterlimit="10"/>
<path d="M824.878 292.042C830.207 292.042 834.526 287.723 834.526 282.394C834.526 277.066 830.207 272.746 824.878 272.746C819.55 272.746 815.23 277.066 815.23 282.394C815.23 287.723 819.55 292.042 824.878 292.042Z" stroke="white" stroke-width="2.01002" stroke-miterlimit="10"/>
<path d="M832.918 312.143H816.034V337.871H832.918V312.143Z" stroke="white" stroke-width="2.01002" stroke-miterlimit="10"/>
<path d="M824.878 375.661C830.207 375.661 834.526 371.342 834.526 366.013C834.526 360.685 830.207 356.365 824.878 356.365C819.55 356.365 815.23 360.685 815.23 366.013C815.23 371.342 819.55 375.661 824.878 375.661Z" stroke="white" stroke-width="2.01002" stroke-miterlimit="10"/>
<path d="M832.918 395.762H816.034V421.49H832.918V395.762Z" stroke="white" stroke-width="2.01002" stroke-miterlimit="10"/>
<path d="M824.878 459.283C830.207 459.283 834.526 454.963 834.526 449.634C834.526 444.306 830.207 439.986 824.878 439.986C819.55 439.986 815.23 444.306 815.23 449.634C815.23 454.963 819.55 459.283 824.878 459.283Z" stroke="white" stroke-width="2.01002" stroke-miterlimit="10"/>
<path d="M832.918 480.188H816.034V505.916H832.918V480.188Z" stroke="white" stroke-width="2.01002" stroke-miterlimit="10"/>
</g>
<path d="M332.502 1016.77C346.158 1015.05 353.799 986.508 349.567 953.027C345.335 919.547 330.833 893.805 317.177 895.531C303.52 897.257 295.88 925.798 300.112 959.278C304.344 992.759 318.845 1018.5 332.502 1016.77Z" stroke="#98A2F4" stroke-width="16.0802" stroke-miterlimit="10"/>
<path d="M324.785 972.244C377.85 942.495 455.839 923.199 542.672 923.199C604.58 923.199 662.469 932.847 709.906 949.732" stroke="#45A0D4" stroke-width="8.04009" stroke-miterlimit="10"/>
<path d="M541.868 1036.56C559.63 1036.56 574.028 982.926 574.028 916.764C574.028 850.602 559.63 796.967 541.868 796.967C524.106 796.967 509.708 850.602 509.708 916.764C509.708 982.926 524.106 1036.56 541.868 1036.56Z" fill="white" stroke="#98A2F4" stroke-width="16.0802" stroke-miterlimit="10"/>
<path d="M668.901 649.836L630.309 731.041L706.69 741.493L774.226 684.408L777.442 681.192L668.901 649.836Z" fill="#E897A3"/>
<path d="M334.434 906.317H422.071C422.071 906.317 422.071 887.021 414.031 854.057C411.619 844.409 410.011 833.153 408.403 824.309L311.118 870.137L334.434 906.317Z" fill="#E897A3"/>
<path d="M732.973 940.08C737.204 906.6 729.564 878.059 715.908 876.333C702.251 874.607 687.75 900.349 683.518 933.829C679.286 967.31 686.926 995.851 700.583 997.577C714.239 999.303 728.741 973.561 732.973 940.08Z" stroke="#98A2F4" stroke-width="16.0802" stroke-miterlimit="10"/>
<path d="M536.24 707.721V797.77" stroke="#45A0D4" stroke-width="8.04009" stroke-miterlimit="10"/>
<path d="M539.456 776.867C553.665 776.867 565.184 765.348 565.184 751.138C565.184 736.929 553.665 725.41 539.456 725.41C525.246 725.41 513.727 736.929 513.727 751.138C513.727 765.348 525.246 776.867 539.456 776.867Z" fill="white" stroke="#98A2F4" stroke-width="8.04009" stroke-miterlimit="10"/>
<path d="M536.24 731.037V707.721" stroke="#45A0D4" stroke-width="8.04009" stroke-miterlimit="10"/>
<path d="M674.53 669.131H567.597" stroke="#45A0D4" stroke-width="16.0802" stroke-miterlimit="10"/>
<path d="M504.884 669.131H397.951" stroke="#45A0D4" stroke-width="16.0802" stroke-miterlimit="10"/>
<path d="M504.883 667.525H516.944V686.822C516.944 698.882 525.788 707.726 536.24 707.726C546.692 707.726 555.536 698.078 555.536 686.822V667.525H567.596" stroke="#45A0D4" stroke-width="8.04009" stroke-miterlimit="10"/>
<path d="M532.22 906.314H434.131L429.307 947.319H319.158" stroke="#45A0D4" stroke-width="8.04009" stroke-miterlimit="10"/>
<path d="M665.686 777.672H734.83H638.349L632.721 887.821H581.265" stroke="#45A0D4" stroke-width="8.04009" stroke-miterlimit="10"/>
<path d="M646.389 777.672H725.986" stroke="#45A0D4" stroke-width="16.0802" stroke-miterlimit="10"/>
<path d="M348.102 902.29C348.102 902.29 319.157 908.722 308.705 922.39C298.253 936.059 308.705 947.315 308.705 947.315L428.503 942.491C428.503 942.491 440.563 905.506 422.071 900.682C386.694 890.23 348.102 902.29 348.102 902.29Z" fill="#9AF4DC"/>
<path d="M321.57 947.314H400.363" stroke="#45A0D4" stroke-width="16.0802" stroke-miterlimit="10"/>
<path d="M631.113 727.82C631.113 727.82 623.877 725.408 614.229 741.488C604.581 757.568 615.837 775.256 615.837 775.256H734.83C734.83 775.256 738.85 733.448 709.906 731.036C689.806 728.624 631.113 727.82 631.113 727.82Z" fill="#9AF4DC"/>
<path d="M526.593 894.251C528.201 851.639 534.633 819.479 541.869 819.479C545.889 819.479 549.105 828.323 552.321 842.795" stroke="#660000" stroke-width="2.01002" stroke-miterlimit="10" stroke-linejoin="round"/>
<path d="M528.201 962.596C527.397 955.36 526.593 946.516 526.593 937.672" stroke="#660000" stroke-width="2.01002" stroke-miterlimit="10" stroke-linejoin="round"/>
<path d="M557.949 895.059C557.949 901.491 557.949 908.727 557.949 915.963C557.949 969.027 550.713 1012.44 541.868 1012.44C537.848 1012.44 534.632 1004.4 532.22 991.54" stroke="#660000" stroke-width="2.01002" stroke-miterlimit="10" stroke-linejoin="round"/>
<path d="M371.418 695.664C411.619 703.704 400.363 690.036 402.775 686.016C405.187 681.996 418.855 696.468 429.307 692.448C439.759 689.232 434.935 681.996 440.563 677.976C446.191 673.956 460.663 682.8 463.076 665.916C465.488 649.031 446.191 646.619 434.935 629.735C432.523 625.715 424.483 616.871 423.679 612.047L327.198 659.483C352.122 686.016 356.946 692.448 371.418 695.664Z" fill="#E897A3"/>
<path d="M566.793 648.229C565.185 657.073 573.225 687.626 586.089 689.234C598.953 691.646 597.345 681.194 601.365 677.174C605.385 673.153 608.601 685.214 621.465 686.822C634.329 689.234 631.113 674.762 635.937 669.937C640.761 665.113 640.761 681.194 653.626 680.39C666.49 679.586 667.294 654.661 679.354 637.777C682.57 633.757 687.394 628.129 693.826 621.697L598.953 593.557C582.873 616.069 571.617 627.325 566.793 648.229Z" fill="#E897A3"/>
<path d="M372.222 714.154C372.222 714.154 391.518 744.707 401.166 780.083" stroke="white" stroke-width="2.01002" stroke-miterlimit="10"/>
<path d="M541.868 848.424C545.084 848.424 547.496 859.68 549.104 877.368C549.908 887.016 550.712 898.272 550.712 910.332C550.712 915.961 550.712 921.589 550.712 927.217" stroke="#660000" stroke-width="2.01002" stroke-miterlimit="10" stroke-linejoin="round"/>
<path d="M345.69 903.096L386.695 896.664" stroke="white" stroke-width="2.01002" stroke-miterlimit="10"/>
<path d="M345.69 908.726L386.695 903.098" stroke="white" stroke-width="2.01002" stroke-miterlimit="10"/>
<path d="M652.018 728.627H685.786" stroke="white" stroke-width="2.01002" stroke-miterlimit="10"/>
<path d="M652.018 735.867H685.786" stroke="white" stroke-width="2.01002" stroke-miterlimit="10"/>
<path d="M611.817 764.805H733.222" stroke="white" stroke-width="2.01002" stroke-miterlimit="10"/>
<path d="M305.49 938.47L430.916 932.842" stroke="white" stroke-width="2.01002" stroke-miterlimit="10"/>
<path d="M612.621 321.799C484.784 304.915 351.318 357.176 295.038 485.013C265.289 551.746 293.43 614.459 327.198 659.483L389.911 628.931L424.483 612.046C416.443 594.358 414.835 586.318 414.835 586.318C414.835 586.318 619.857 531.646 613.425 560.59C611.013 571.846 607.797 582.298 598.953 595.162L665.686 614.459L694.63 623.303C715.534 600.79 738.851 563.002 749.303 522.802C770.207 435.969 739.655 338.683 612.621 321.799Z" fill="#3844E5"/>
<path d="M467.899 390.942C467.899 390.942 463.075 410.239 483.979 434.359C485.587 436.771 487.999 438.379 489.607 440.791C507.296 458.479 520.964 456.871 535.436 446.419C551.516 434.359 557.948 391.746 545.084 375.666C533.024 358.782 472.723 358.782 467.899 390.942Z" fill="#E897A3"/>
<path d="M509.708 509.935C541.064 519.583 535.436 445.614 535.436 445.614L489.608 439.986C489.608 440.79 475.939 499.483 509.708 509.935Z" fill="#E897A3"/>
<path d="M477.547 299.285C467.095 304.913 452.623 297.677 455.035 320.19C458.251 342.702 463.879 367.626 462.271 369.234C460.663 370.842 535.436 351.546 535.436 351.546C535.436 351.546 527.396 324.21 515.336 312.953C504.08 302.501 492.824 291.245 477.547 299.285Z" fill="#9ECBE3"/>
<path d="M457.448 370.846C448.603 378.082 448.603 386.122 457.448 397.378C466.292 408.634 520.16 370.846 537.848 373.258C555.537 375.67 557.949 369.238 550.713 360.394C543.477 351.55 545.889 341.902 533.024 345.922C520.16 349.942 469.508 361.198 457.448 370.846Z" fill="#9ECBE3"/>
<path d="M528.2 374.861C528.2 374.861 512.12 393.354 502.471 399.786C492.823 406.218 478.351 409.434 478.351 409.434L473.527 398.178L528.2 374.861Z" fill="#052E45"/>
<path d="M500.864 447.225C500.864 447.225 511.316 456.873 528.2 451.245" stroke="white" stroke-width="2.01002" stroke-miterlimit="10"/>
<path d="M642.369 510.744C635.133 527.628 626.289 543.708 626.289 543.708" stroke="white" stroke-width="2.01002" stroke-miterlimit="10"/>
<path d="M653.625 467.326C653.625 467.326 658.449 467.326 648.801 493.858C647.997 497.075 647.193 499.487 645.585 501.899" stroke="white" stroke-width="2.01002" stroke-miterlimit="10"/>
<path d="M432.522 505.916C432.522 505.916 424.482 511.544 418.854 527.624C411.618 548.528 414.03 563.001 414.03 563.001" stroke="white" stroke-width="2.01002" stroke-miterlimit="10"/>
<path d="M467.9 366.02C467.9 366.02 483.98 355.567 498.452 352.351C512.924 348.331 528.2 347.527 528.2 347.527" stroke="white" stroke-width="2.01002" stroke-miterlimit="10"/>
<path d="M44.991 788.122L97.2516 771.238L73.1313 734.254L44.991 788.122Z" fill="#E2603D"/>
<path d="M74.739 752.752L155.14 687.627" stroke="#660000" stroke-width="2.01002" stroke-miterlimit="10" stroke-linejoin="round"/>
<path d="M81.9753 764.805L127.804 731.037" stroke="#660000" stroke-width="2.01002" stroke-miterlimit="10" stroke-linejoin="round"/>
<path d="M794.327 714.154L874.728 777.671" stroke="#660000" stroke-width="2.01002" stroke-miterlimit="10" stroke-linejoin="round"/>
<path d="M777.443 764.805L906.084 896.662" stroke="#660000" stroke-width="2.01002" stroke-miterlimit="10" stroke-linejoin="round"/>
<path d="M195.341 824.309L145.492 884.609" stroke="#660000" stroke-width="2.01002" stroke-miterlimit="10" stroke-linejoin="round"/>
<path d="M183.281 796.967L61.0713 921.588" stroke="#660000" stroke-width="2.01002" stroke-miterlimit="10" stroke-linejoin="round"/>
<path d="M886.788 769.633L871.511 791.341L908.496 806.617L886.788 769.633Z" fill="#E2603D"/>
<path d="M886.788 391.746C886.788 391.746 937.44 404.61 939.852 475.363" stroke="#660000" stroke-width="2.01002" stroke-miterlimit="10" stroke-linejoin="round"/>
<path d="M939.852 423.102C939.852 423.102 952.717 435.162 952.717 475.362" stroke="#660000" stroke-width="2.01002" stroke-miterlimit="10" stroke-linejoin="round"/>
<path d="M155.14 622.496L81.9753 667.521" stroke="#660000" stroke-width="2.01002" stroke-miterlimit="10" stroke-linejoin="round"/>
</svg>
