<svg width="876" height="1111" viewBox="0 0 876 1111" fill="none" xmlns="http://www.w3.org/2000/svg">
<g clip-path="url(#clip0)">
<path d="M438.86 44.6249C344.407 75.0686 336.601 196.843 239.806 260.072C143.01 323.302 159.403 402.143 198.433 580.121C237.464 758.1 110.225 825.232 179.699 922.027C278.055 1058.63 630.89 1021.16 715.195 880.655C799.501 740.146 758.129 298.322 715.195 161.716C672.262 25.1097 526.288 17.3037 438.86 44.6249Z" fill="#F8F9FF"/>
<path d="M629.328 536.402C629.328 542.647 629.328 549.672 629.328 549.672L370.167 628.514C370.167 628.514 352.213 615.243 370.167 606.657C388.121 598.07 469.304 578.555 478.671 576.213C488.038 573.871 501.309 570.749 495.064 566.065C481.013 555.917 499.748 541.086 499.748 541.086L629.328 505.178C629.328 505.958 630.109 511.423 629.328 536.402Z" fill="#3844E5"/>
<path d="M568.441 444.291C570.783 437.266 601.227 432.582 608.252 431.021C609.813 430.24 616.058 428.679 621.522 426.337C619.18 395.894 609.813 377.94 613.716 367.011C617.619 356.083 665.236 371.695 665.236 371.695L693.338 247.578C693.338 247.578 616.058 228.063 523.946 236.65C481.013 240.553 388.121 256.165 337.381 285.828C266.346 327.981 228.877 335.787 228.877 335.787L256.979 445.072C256.979 445.072 308.499 440.388 325.672 448.975C337.381 455.22 328.014 481.76 341.284 484.102C356.116 486.444 355.335 485.663 356.116 489.567C357.677 494.25 347.529 495.811 348.31 500.495C350.652 514.546 498.186 471.613 570.783 451.317C571.563 450.536 568.441 445.072 568.441 444.291Z" fill="#3844E5"/>
<mask id="mask0" mask-type="alpha" maskUnits="userSpaceOnUse" x="228" y="234" width="466" height="270">
<path d="M568.441 444.291C570.783 437.266 601.227 432.582 608.252 431.021C609.813 430.24 616.058 428.679 621.522 426.337C619.18 395.894 609.813 377.94 613.716 367.011C617.619 356.083 665.236 371.695 665.236 371.695L693.338 247.578C693.338 247.578 616.058 228.063 523.946 236.65C481.013 240.553 388.121 256.165 337.381 285.828C266.346 327.981 228.877 335.787 228.877 335.787L256.979 445.072C256.979 445.072 308.499 440.388 325.672 448.975C337.381 455.22 328.014 481.76 341.284 484.102C356.116 486.444 355.335 485.663 356.116 489.567C357.677 494.25 347.529 495.811 348.31 500.495C350.652 514.546 498.186 471.613 570.783 451.317C571.563 450.536 568.441 445.072 568.441 444.291Z" fill="#3844E5"/>
</mask>
<g mask="url(#mask0)">
<path d="M573.125 -84.9551L289.764 992.283" stroke="white" stroke-width="1.95152" stroke-miterlimit="10"/>
<path d="M542.681 -72.4707L259.321 1005.55" stroke="white" stroke-width="1.95152" stroke-miterlimit="10"/>
<path d="M513.018 -59.2031L229.658 1018.03" stroke="white" stroke-width="1.95152" stroke-miterlimit="10"/>
<path d="M482.574 -45.9316L199.214 1031.31" stroke="white" stroke-width="1.95152" stroke-miterlimit="10"/>
<path d="M452.131 -32.6582L168.77 1044.58" stroke="white" stroke-width="1.95152" stroke-miterlimit="10"/>
<path d="M421.687 -20.1699L139.107 1057.85" stroke="white" stroke-width="1.95152" stroke-miterlimit="10"/>
<path d="M392.024 -6.90234L108.663 1070.34" stroke="white" stroke-width="1.95152" stroke-miterlimit="10"/>
<path d="M361.58 6.375L78.2198 1083.61" stroke="white" stroke-width="1.95152" stroke-miterlimit="10"/>
<path d="M331.137 18.8613L48.5568 1096.88" stroke="white" stroke-width="1.95152" stroke-miterlimit="10"/>
<path d="M301.474 32.1309L18.1132 1110.15" stroke="white" stroke-width="1.95152" stroke-miterlimit="10"/>
<path d="M875.22 -216.102L591.859 861.917" stroke="white" stroke-width="1.95152" stroke-miterlimit="10"/>
<path d="M844.776 -202.834L561.416 874.404" stroke="white" stroke-width="1.95152" stroke-miterlimit="10"/>
<path d="M814.332 -189.564L530.972 887.673" stroke="white" stroke-width="1.95152" stroke-miterlimit="10"/>
<path d="M783.889 -177.07L501.309 900.948" stroke="white" stroke-width="1.95152" stroke-miterlimit="10"/>
<path d="M754.225 -163.801L470.865 914.218" stroke="white" stroke-width="1.95152" stroke-miterlimit="10"/>
<path d="M723.782 -150.533L440.422 926.704" stroke="white" stroke-width="1.95152" stroke-miterlimit="10"/>
<path d="M693.338 -137.256L410.759 939.982" stroke="white" stroke-width="1.95152" stroke-miterlimit="10"/>
<path d="M663.675 -124.771L380.315 953.247" stroke="white" stroke-width="1.95152" stroke-miterlimit="10"/>
<path d="M633.231 -111.5L349.871 965.738" stroke="white" stroke-width="1.95152" stroke-miterlimit="10"/>
<path d="M602.788 -98.2324L319.427 979.005" stroke="white" stroke-width="1.95152" stroke-miterlimit="10"/>
<path d="M573.125 -84.9551L289.764 992.283" stroke="white" stroke-width="1.95152" stroke-miterlimit="10"/>
<path d="M542.681 -72.4707L259.321 1005.55" stroke="white" stroke-width="1.95152" stroke-miterlimit="10"/>
<path d="M513.018 -59.2031L229.658 1018.03" stroke="white" stroke-width="1.95152" stroke-miterlimit="10"/>
<path d="M482.574 -45.9316L199.214 1031.31" stroke="white" stroke-width="1.95152" stroke-miterlimit="10"/>
<path d="M452.131 -32.6582L168.77 1044.58" stroke="white" stroke-width="1.95152" stroke-miterlimit="10"/>
<path d="M421.687 -20.1699L139.107 1057.85" stroke="white" stroke-width="1.95152" stroke-miterlimit="10"/>
<path d="M392.024 -6.90234L108.663 1070.34" stroke="white" stroke-width="1.95152" stroke-miterlimit="10"/>
<path d="M361.58 6.375L78.2198 1083.61" stroke="white" stroke-width="1.95152" stroke-miterlimit="10"/>
<path d="M331.137 18.8613L48.5568 1096.88" stroke="white" stroke-width="1.95152" stroke-miterlimit="10"/>
<path d="M301.474 32.1309L18.1132 1110.15" stroke="white" stroke-width="1.95152" stroke-miterlimit="10"/>
<path d="M875.22 -216.102L591.859 861.917" stroke="white" stroke-width="1.95152" stroke-miterlimit="10"/>
<path d="M844.776 -202.834L561.416 874.404" stroke="white" stroke-width="1.95152" stroke-miterlimit="10"/>
<path d="M814.332 -189.564L530.972 887.673" stroke="white" stroke-width="1.95152" stroke-miterlimit="10"/>
<path d="M783.889 -177.07L501.309 900.948" stroke="white" stroke-width="1.95152" stroke-miterlimit="10"/>
<path d="M754.225 -163.801L470.865 914.218" stroke="white" stroke-width="1.95152" stroke-miterlimit="10"/>
<path d="M723.782 -150.533L440.422 926.704" stroke="white" stroke-width="1.95152" stroke-miterlimit="10"/>
<path d="M693.338 -137.256L410.759 939.982" stroke="white" stroke-width="1.95152" stroke-miterlimit="10"/>
<path d="M663.675 -124.771L380.315 953.247" stroke="white" stroke-width="1.95152" stroke-miterlimit="10"/>
<path d="M633.231 -111.5L349.871 965.738" stroke="white" stroke-width="1.95152" stroke-miterlimit="10"/>
<path d="M602.788 -98.2324L319.427 979.005" stroke="white" stroke-width="1.95152" stroke-miterlimit="10"/>
</g>
<path d="M651.185 1066.43C649.624 1068.77 647.282 1071.12 644.16 1070.34C619.18 1069.56 473.207 1071.12 470.865 1067.99C470.084 1067.21 470.084 1065.65 469.304 1062.53C469.304 1068.77 469.304 1074.24 470.865 1075.8C473.987 1078.92 619.18 1077.36 644.16 1078.14C646.502 1078.14 649.624 1075.8 651.185 1074.24C652.747 1071.9 653.527 1065.65 652.746 1060.97C651.966 1064.09 651.966 1065.65 651.185 1066.43Z" fill="#9ECBE3"/>
<path d="M414.662 267.875C414.662 267.875 421.687 288.951 433.396 308.467C442.763 325.64 438.86 348.278 417.784 349.839C395.927 351.4 382.657 335.007 381.876 318.614C381.096 302.222 381.876 280.365 381.876 280.365L414.662 267.875Z" fill="#E897A3"/>
<path d="M639.476 674.572C637.915 676.133 630.109 682.378 626.987 686.281C612.155 701.894 513.018 726.092 507.554 720.628C502.87 715.944 501.309 700.332 498.186 700.332L496.625 701.894C491.942 708.919 503.651 722.189 495.064 727.654C488.039 733.118 395.146 763.562 369.386 765.903C374.85 790.102 384.218 818.204 382.657 882.214C381.876 911.096 375.631 940.759 373.289 945.443L501.309 950.127C501.309 950.127 503.651 940.759 505.992 924.367C505.992 925.147 505.992 925.147 505.992 925.147L611.374 918.122C611.374 918.122 624.645 886.897 634.793 814.301C642.599 755.755 644.941 694.868 639.476 674.572Z" fill="#E897A3"/>
<path d="M651.966 644.125C645.721 625.39 641.818 622.268 639.477 599.63C637.135 576.992 629.329 548.891 629.329 548.891L370.167 627.732C370.167 627.732 382.657 633.977 389.682 642.563C396.708 651.15 377.193 653.492 357.677 662.859C338.162 673.007 361.58 699.548 354.555 729.211C346.749 761.216 354.555 761.216 363.922 765.119C364.703 765.899 367.045 765.899 370.167 765.119C395.927 762.777 488.039 731.553 495.845 726.869C503.651 721.405 491.942 708.134 497.406 701.109C498.187 700.328 498.967 699.548 498.967 699.548C502.87 699.548 504.431 714.379 508.334 719.844C513.018 725.308 607.472 708.134 640.257 676.91C657.43 661.298 644.941 662.079 645.721 657.395C644.941 653.492 655.089 654.273 651.966 644.125Z" fill="#9AF4DC"/>
<path d="M229.658 335.786C229.658 335.786 224.974 337.348 221.071 338.128C210.923 339.689 189.847 342.812 168.77 336.567C128.179 325.639 120.373 306.904 114.908 292.072C111.786 282.705 111.005 267.874 114.908 257.726C120.373 244.455 128.179 238.211 128.959 230.404C129.74 221.818 128.179 216.354 120.373 219.476C118.031 220.257 112.567 224.94 111.005 221.818C107.102 210.889 101.638 201.522 96.9545 199.961C88.3679 197.619 93.8321 209.328 86.026 210.109C80.5618 210.889 75.0975 196.058 61.0466 196.838C46.2151 197.619 59.4854 210.109 53.2405 215.573C46.9957 221.037 32.1641 203.864 19.6744 206.206C7.18472 208.547 19.6744 224.16 19.6744 226.501C19.6744 228.843 11.0878 224.16 5.6235 226.501C-9.98864 232.746 14.9908 258.506 18.1132 270.996C20.455 284.266 15.7714 344.373 68.8527 404.48C114.909 456 218.729 449.755 249.173 446.633C253.857 445.852 259.321 445.071 259.321 445.071L229.658 335.786Z" fill="#E897A3"/>
<path d="M552.829 528.594L463.84 551.231C456.034 553.573 448.228 548.89 446.666 541.084L437.299 505.176C434.957 497.37 439.641 489.563 447.447 488.002L536.436 465.365C544.242 463.023 552.048 467.706 553.61 475.513L562.977 510.64C564.538 518.446 559.855 526.252 552.829 528.594Z" fill="#D63C30"/>
<path d="M576.247 454.434L541.901 463.02L558.293 526.249L592.64 517.663C598.104 516.102 602.007 509.076 599.665 502.831L589.518 464.582C587.956 457.556 581.711 452.872 576.247 454.434Z" fill="#44A1DB"/>
<mask id="mask1" mask-type="alpha" maskUnits="userSpaceOnUse" x="541" y="454" width="60" height="73">
<path d="M576.247 454.434L541.901 463.02L558.293 526.249L592.64 517.663C598.104 516.102 602.007 509.076 599.665 502.831L589.518 464.582C587.956 457.556 581.711 452.872 576.247 454.434Z" fill="#44A1DB"/>
</mask>
<g mask="url(#mask1)">
<path d="M505.993 594.947L584.834 352.959" stroke="#45A0D4" stroke-width="1.95152" stroke-miterlimit="10"/>
<path d="M513.799 601.189L591.859 359.201" stroke="#45A0D4" stroke-width="1.95152" stroke-miterlimit="10"/>
<path d="M520.824 607.435L599.666 365.447" stroke="#45A0D4" stroke-width="1.95152" stroke-miterlimit="10"/>
<path d="M528.63 613.682L607.472 371.693" stroke="white" stroke-width="1.95152" stroke-miterlimit="10"/>
<path d="M536.436 619.928L615.278 377.939" stroke="white" stroke-width="1.95152" stroke-miterlimit="10"/>
<path d="M544.243 626.168L622.303 384.18" stroke="white" stroke-width="1.95152" stroke-miterlimit="10"/>
<path d="M551.268 632.411L630.109 389.643" stroke="white" stroke-width="1.95152" stroke-miterlimit="10"/>
<path d="M559.074 638.657L637.915 395.889" stroke="white" stroke-width="1.95152" stroke-miterlimit="10"/>
<path d="M566.88 644.906L645.721 402.137" stroke="#45A0D4" stroke-width="1.95152" stroke-miterlimit="10"/>
<path d="M574.686 651.152L652.747 408.383" stroke="#45A0D4" stroke-width="1.95152" stroke-miterlimit="10"/>
<path d="M467.743 564.501L546.585 321.732" stroke="#45A0D4" stroke-width="1.95152" stroke-miterlimit="10"/>
<path d="M475.549 570.749L554.39 327.98" stroke="#45A0D4" stroke-width="1.95152" stroke-miterlimit="10"/>
<path d="M483.355 576.989L562.196 334.221" stroke="#45A0D4" stroke-width="1.95152" stroke-miterlimit="10"/>
<path d="M491.161 583.236L569.222 340.467" stroke="#45A0D4" stroke-width="1.95152" stroke-miterlimit="10"/>
<path d="M498.187 589.482L577.028 346.713" stroke="#45A0D4" stroke-width="1.95152" stroke-miterlimit="10"/>
</g>
<path d="M555.951 520.79L466.962 543.427C459.156 545.769 451.35 541.086 449.789 533.28L440.422 498.152C438.08 490.346 442.763 482.54 450.57 480.979L539.559 458.341C547.365 455.999 555.171 460.683 556.732 468.489L566.099 503.616C567.661 511.422 562.977 519.229 555.951 520.79Z" fill="#E2603D"/>
<path d="M579.37 447.412L541.901 457.56L558.293 520.789L595.763 510.641C601.227 509.08 605.13 502.055 602.788 495.81L592.64 457.56C591.079 450.535 584.834 445.851 579.37 447.412Z" fill="#44A1DB"/>
<path d="M594.981 508.3L560.635 516.887C559.854 516.887 559.854 517.668 559.074 517.668L463.059 542.647C457.595 544.208 452.13 540.305 449.789 533.28L450.569 537.183C452.13 543.428 458.375 547.331 463.839 546.55L559.854 521.571C560.635 521.571 560.635 521.571 561.415 520.79L595.762 512.203C601.226 510.642 605.129 503.617 602.787 497.372L602.007 493.469C604.349 499.714 601.226 506.739 594.981 508.3Z" fill="white"/>
<path d="M379.534 210.109C379.534 210.109 357.677 210.889 354.555 231.966C350.652 253.042 351.432 272.557 370.948 281.144C390.463 289.731 402.952 285.828 414.662 274.119C426.371 263.19 422.468 228.063 414.662 220.257C407.636 212.451 386.56 208.548 379.534 210.109Z" fill="#E897A3"/>
<path d="M353.774 235.087C353.774 235.087 370.167 230.403 378.754 222.597C387.34 214.791 391.243 210.888 391.243 210.888C391.243 210.888 377.192 206.985 363.141 217.133C352.994 224.159 353.774 235.087 353.774 235.087Z" fill="#D63C30"/>
<path d="M391.243 210.889C391.243 210.889 399.049 224.159 408.417 231.966C417.784 240.552 421.687 242.113 421.687 242.113C421.687 242.113 421.687 224.94 413.1 217.134C405.294 209.328 391.243 210.889 391.243 210.889Z" fill="#D63C30"/>
<path d="M399.83 221.82C399.83 221.82 388.901 177.325 368.606 178.106C348.31 178.887 340.504 196.06 322.55 189.815C304.596 183.57 304.596 163.275 281.958 160.152C259.321 157.03 256.979 167.958 251.515 166.397C246.05 164.836 241.367 144.54 210.923 146.101C180.479 146.882 176.576 165.616 171.112 166.397C165.648 167.178 160.184 161.713 149.255 167.958C138.327 174.203 125.056 238.993 158.622 241.335C192.188 243.677 179.699 236.652 190.627 241.335C201.556 246.019 203.898 270.998 221.071 270.998C238.244 270.998 246.05 247.58 255.418 251.483C264.785 255.386 264.004 274.121 278.055 270.998C292.106 267.876 298.351 226.504 315.524 225.723C332.698 224.942 337.381 231.187 345.968 219.478C354.555 208.55 355.335 196.841 370.167 196.06C382.657 196.06 399.83 221.82 399.83 221.82Z" fill="#E2603D"/>
<path d="M502.87 946.225C502.87 946.225 495.845 989.939 485.697 1011.8C474.768 1033.65 473.988 1040.68 473.988 1040.68L354.555 1032.87L374.07 947.005L502.87 946.225Z" fill="#9ECBE3"/>
<path d="M580.15 1034.43C583.273 1023.51 589.517 1001.65 594.982 982.134C602.788 953.251 612.155 918.904 612.155 918.904L506.773 925.93C506.773 925.93 503.651 938.419 497.406 960.276C492.722 975.889 479.452 1023.51 477.891 1029.75C477.891 1028.97 478.671 1028.97 478.671 1028.97L580.15 1034.43Z" fill="#9ECBE3"/>
<path d="M651.185 1052.39C644.16 1044.58 641.037 1047.71 622.303 1046.14C594.201 1043.8 579.369 1034.44 579.369 1034.44L477.11 1027.41C477.11 1027.41 477.11 1027.41 476.329 1028.19C475.549 1029.75 473.207 1035.22 473.207 1039.12C472.426 1042.24 467.743 1052.39 468.523 1061.76C468.523 1064.1 469.304 1066.44 470.084 1067.22C473.207 1070.34 618.4 1068.78 643.379 1069.56C645.721 1069.56 648.843 1067.22 650.405 1065.66C651.185 1064.88 651.966 1062.54 651.966 1060.98C652.746 1058.63 653.527 1054.73 651.185 1052.39Z" fill="#E2603D"/>
<path d="M470.865 1068C460.717 1074.25 286.642 1072.68 281.958 1070.34C281.177 1070.34 280.397 1069.56 280.397 1068.78C278.836 1073.47 279.616 1077.37 281.958 1078.15C286.642 1079.71 460.717 1081.27 470.865 1075.81C478.671 1071.12 478.671 1060.19 477.89 1054.73C477.11 1060.19 475.549 1065.66 470.865 1068Z" fill="#9ECBE3"/>
<path d="M477.11 1043.8L473.988 1039.9L354.555 1032.09C354.555 1032.09 350.652 1033.65 342.846 1039.9C335.04 1046.14 295.229 1046.92 286.642 1052.39C279.617 1057.07 277.275 1065.66 279.617 1068.78C280.397 1069.56 280.397 1070.34 281.178 1070.34C285.861 1071.9 459.937 1073.46 470.085 1068C474.768 1064.88 476.33 1059.41 477.11 1054.73C478.671 1049.27 477.11 1043.8 477.11 1043.8Z" fill="#E2603D"/>
<path d="M306.157 600.412L340.504 591.045" stroke="#660000" stroke-width="1.95152" stroke-miterlimit="10" stroke-linejoin="round"/>
<path d="M360.019 384.967C360.019 384.967 346.748 395.115 350.651 406.824C355.335 421.655 379.534 410.727 379.534 410.727" stroke="#660000" stroke-width="1.95152" stroke-miterlimit="10" stroke-linejoin="round"/>
<path d="M554.39 338.908C554.39 338.908 573.905 342.811 573.125 355.301C571.564 372.474 548.926 367.01 548.926 367.01" stroke="#660000" stroke-width="1.95152" stroke-miterlimit="10" stroke-linejoin="round"/>
<path d="M406.075 850.99C403.733 861.919 410.759 865.822 403.733 899.388C399.83 918.122 429.493 924.367 438.86 886.117C450.57 835.378 411.539 823.669 406.075 850.99Z" fill="#F9A48E"/>
<path d="M601.226 799.47C590.298 806.496 595.762 829.133 590.298 852.552C581.711 886.898 613.716 886.118 619.961 859.577C626.206 833.036 630.109 780.736 601.226 799.47Z" fill="#F9A48E"/>
<path d="M602.788 836.938C602.788 836.938 614.497 857.234 626.986 835.377" stroke="white" stroke-width="1.95152" stroke-miterlimit="10"/>
<path d="M402.952 875.189C402.952 875.189 410.758 900.949 431.835 875.189" stroke="white" stroke-width="1.95152" stroke-miterlimit="10"/>
<path d="M694.119 247.578L666.017 371.695C666.017 371.695 692.558 381.062 676.945 395.113C658.992 410.725 636.354 421.653 621.522 427.118C616.058 429.46 609.813 431.021 608.252 431.801C601.227 433.363 570.783 438.046 568.441 445.072C567.661 446.633 568.441 447.413 568.441 448.194C570.002 452.878 577.028 455.22 578.589 457.561C580.15 460.684 569.222 464.587 567.66 469.271C566.099 474.735 574.686 478.638 575.467 478.638C576.247 479.418 574.686 480.98 572.344 486.444C570.783 490.347 576.247 495.031 583.273 495.031C588.737 495.031 585.614 499.714 583.273 502.837C579.37 509.081 585.614 511.423 593.421 513.765C601.227 515.326 635.573 505.178 646.502 502.837C657.43 500.495 763.593 485.663 826.822 403.7C904.883 303.782 694.119 247.578 694.119 247.578Z" fill="#E897A3"/>
<path d="M384.998 285.828C384.998 285.828 399.049 288.951 409.978 278.803" stroke="white" stroke-width="1.95152" stroke-miterlimit="10"/>
<path d="M37.6282 285.83C37.6282 285.83 57.1433 266.314 70.4137 274.901C83.684 283.488 99.2961 270.998 99.2961 270.998" stroke="white" stroke-width="1.95152" stroke-miterlimit="10"/>
<mask id="mask2" mask-type="alpha" maskUnits="userSpaceOnUse" x="279" y="1054" width="200" height="26">
<path d="M470.865 1068C460.717 1074.25 286.642 1072.68 281.958 1070.34C281.177 1070.34 280.397 1069.56 280.397 1068.78C278.836 1073.47 279.616 1077.37 281.958 1078.15C286.642 1079.71 460.717 1081.27 470.865 1075.81C478.671 1071.12 478.671 1060.19 477.89 1054.73C477.11 1060.19 475.549 1065.66 470.865 1068Z" fill="#9ECBE3"/>
</mask>
<g mask="url(#mask2)">
<path d="M384.218 793.229L395.146 1150.75" stroke="#45A0D4" stroke-width="1.95152" stroke-miterlimit="10"/>
<path d="M370.947 798.693L381.095 1156.21" stroke="#45A0D4" stroke-width="1.95152" stroke-miterlimit="10"/>
<path d="M356.896 804.934L367.044 1162.45" stroke="#45A0D4" stroke-width="1.95152" stroke-miterlimit="10"/>
<path d="M342.845 811.18L352.993 1168.7" stroke="#45A0D4" stroke-width="1.95152" stroke-miterlimit="10"/>
<path d="M329.575 817.426L339.723 1174.94" stroke="#45A0D4" stroke-width="1.95152" stroke-miterlimit="10"/>
<path d="M315.524 823.674L325.672 1181.19" stroke="#45A0D4" stroke-width="1.95152" stroke-miterlimit="10"/>
<path d="M301.473 829.914L311.621 1187.43" stroke="#45A0D4" stroke-width="1.95152" stroke-miterlimit="10"/>
<path d="M287.422 836.16L298.351 1193.68" stroke="#45A0D4" stroke-width="1.95152" stroke-miterlimit="10"/>
<path d="M274.152 841.623L284.3 1199.92" stroke="#45A0D4" stroke-width="1.95152" stroke-miterlimit="10"/>
<path d="M467.743 755.756L477.891 1113.27" stroke="#45A0D4" stroke-width="1.95152" stroke-miterlimit="10"/>
<path d="M453.692 762.004L463.84 1119.52" stroke="#45A0D4" stroke-width="1.95152" stroke-miterlimit="10"/>
<path d="M439.641 768.25L449.789 1125.77" stroke="#45A0D4" stroke-width="1.95152" stroke-miterlimit="10"/>
<path d="M425.59 774.488L436.518 1132.01" stroke="#45A0D4" stroke-width="1.95152" stroke-miterlimit="10"/>
<path d="M412.32 780.734L422.468 1138.25" stroke="#45A0D4" stroke-width="1.95152" stroke-miterlimit="10"/>
<path d="M398.269 786.98L408.417 1144.5" stroke="#45A0D4" stroke-width="1.95152" stroke-miterlimit="10"/>
</g>
<mask id="mask3" mask-type="alpha" maskUnits="userSpaceOnUse" x="469" y="1060" width="185" height="19">
<path d="M651.185 1066.43C649.624 1068.77 647.282 1071.12 644.16 1070.34C619.18 1069.56 473.207 1071.12 470.865 1067.99C470.084 1067.21 470.084 1065.65 469.304 1062.53C469.304 1068.77 469.304 1074.24 470.865 1075.8C473.987 1078.92 619.18 1077.36 644.16 1078.14C646.502 1078.14 649.624 1075.8 651.185 1074.24C652.747 1071.9 653.527 1065.65 652.746 1060.97C651.966 1064.09 651.966 1065.65 651.185 1066.43Z" fill="#9ECBE3"/>
</mask>
<g mask="url(#mask3)">
<path d="M537.217 975.885L547.365 1333.4" stroke="#45A0D4" stroke-width="1.95152" stroke-miterlimit="10"/>
<path d="M523.166 982.133L533.314 1339.65" stroke="#45A0D4" stroke-width="1.95152" stroke-miterlimit="10"/>
<path d="M509.115 988.373L520.044 1345.89" stroke="#45A0D4" stroke-width="1.95152" stroke-miterlimit="10"/>
<path d="M495.845 994.619L505.993 1352.14" stroke="#45A0D4" stroke-width="1.95152" stroke-miterlimit="10"/>
<path d="M481.794 1000.87L491.942 1358.38" stroke="#45A0D4" stroke-width="1.95152" stroke-miterlimit="10"/>
<path d="M467.743 1007.11L478.672 1364.63" stroke="#45A0D4" stroke-width="1.95152" stroke-miterlimit="10"/>
<path d="M648.063 926.709L658.211 1285.01" stroke="#45A0D4" stroke-width="1.95152" stroke-miterlimit="10"/>
<path d="M634.012 932.955L644.16 1290.47" stroke="#45A0D4" stroke-width="1.95152" stroke-miterlimit="10"/>
<path d="M619.961 939.195L630.109 1296.71" stroke="#45A0D4" stroke-width="1.95152" stroke-miterlimit="10"/>
<path d="M605.91 945.443L616.839 1302.96" stroke="#45A0D4" stroke-width="1.95152" stroke-miterlimit="10"/>
<path d="M592.64 951.689L602.788 1309.21" stroke="#45A0D4" stroke-width="1.95152" stroke-miterlimit="10"/>
<path d="M578.589 957.928L588.737 1315.45" stroke="#45A0D4" stroke-width="1.95152" stroke-miterlimit="10"/>
<path d="M564.538 964.174L574.686 1321.69" stroke="#45A0D4" stroke-width="1.95152" stroke-miterlimit="10"/>
<path d="M550.487 969.639L561.416 1327.94" stroke="#45A0D4" stroke-width="1.95152" stroke-miterlimit="10"/>
</g>
<path d="M590.298 1033.65L570.783 1044.58" stroke="white" stroke-width="1.95152" stroke-miterlimit="10"/>
<path d="M596.543 1039.11L578.589 1049.26" stroke="white" stroke-width="1.95152" stroke-miterlimit="10"/>
<path d="M323.331 1040.68L333.478 1057.85" stroke="white" stroke-width="1.95152" stroke-miterlimit="10"/>
<path d="M334.259 1037.55L345.188 1053.17" stroke="white" stroke-width="1.95152" stroke-miterlimit="10"/>
<mask id="mask4" mask-type="alpha" maskUnits="userSpaceOnUse" x="354" y="946" width="149" height="95">
<path d="M502.87 946.225C502.87 946.225 495.845 989.939 485.697 1011.8C474.768 1033.65 473.988 1040.68 473.988 1040.68L354.555 1032.87L374.07 947.005L502.87 946.225Z" fill="#9ECBE3"/>
</mask>
<g mask="url(#mask4)">
<path d="M456.034 877.531L375.631 1225.68" stroke="white" stroke-width="1.95152" stroke-miterlimit="10"/>
<path d="M447.447 881.432L367.044 1230.36" stroke="white" stroke-width="1.95152" stroke-miterlimit="10"/>
<path d="M438.86 886.119L358.458 1234.27" stroke="white" stroke-width="1.95152" stroke-miterlimit="10"/>
<path d="M430.274 890.018L349.871 1238.95" stroke="white" stroke-width="1.95152" stroke-miterlimit="10"/>
<path d="M421.687 894.705L341.284 1242.86" stroke="white" stroke-width="1.95152" stroke-miterlimit="10"/>
<path d="M413.1 898.605L332.698 1246.76" stroke="white" stroke-width="1.95152" stroke-miterlimit="10"/>
<path d="M404.513 902.512L324.111 1251.44" stroke="white" stroke-width="1.95152" stroke-miterlimit="10"/>
<path d="M395.927 907.191L315.524 1255.34" stroke="white" stroke-width="1.95152" stroke-miterlimit="10"/>
<path d="M387.34 911.098L306.938 1260.03" stroke="white" stroke-width="1.95152" stroke-miterlimit="10"/>
<path d="M378.753 915.779L298.351 1263.93" stroke="white" stroke-width="1.95152" stroke-miterlimit="10"/>
<path d="M541.12 835.377L460.717 1183.53" stroke="white" stroke-width="1.95152" stroke-miterlimit="10"/>
<path d="M532.533 839.283L452.131 1188.21" stroke="white" stroke-width="1.95152" stroke-miterlimit="10"/>
<path d="M523.946 843.965L443.544 1192.12" stroke="white" stroke-width="1.95152" stroke-miterlimit="10"/>
<path d="M515.36 847.869L435.738 1196.02" stroke="white" stroke-width="1.95152" stroke-miterlimit="10"/>
<path d="M506.773 851.77L427.151 1200.7" stroke="white" stroke-width="1.95152" stroke-miterlimit="10"/>
<path d="M498.186 856.451L418.565 1204.6" stroke="white" stroke-width="1.95152" stroke-miterlimit="10"/>
<path d="M489.6 860.357L409.978 1209.29" stroke="white" stroke-width="1.95152" stroke-miterlimit="10"/>
<path d="M481.013 865.039L401.391 1213.19" stroke="white" stroke-width="1.95152" stroke-miterlimit="10"/>
<path d="M472.426 868.943L392.805 1217.87" stroke="white" stroke-width="1.95152" stroke-miterlimit="10"/>
<path d="M463.84 872.844L384.218 1221.78" stroke="white" stroke-width="1.95152" stroke-miterlimit="10"/>
</g>
<mask id="mask5" mask-type="alpha" maskUnits="userSpaceOnUse" x="477" y="918" width="136" height="117">
<path d="M580.15 1034.43C583.273 1023.51 589.517 1001.65 594.982 982.134C602.788 953.251 612.155 918.904 612.155 918.904L506.773 925.93C506.773 925.93 503.651 938.419 497.406 960.276C492.722 975.889 479.452 1023.51 477.891 1029.75C477.891 1028.97 478.671 1028.97 478.671 1028.97L580.15 1034.43Z" fill="#9ECBE3"/>
</mask>
<g mask="url(#mask5)">
<path d="M552.829 832.26L473.207 1180.41" stroke="white" stroke-width="1.95152" stroke-miterlimit="10"/>
<path d="M544.242 836.16L464.62 1185.09" stroke="white" stroke-width="1.95152" stroke-miterlimit="10"/>
<path d="M536.436 840.848L456.034 1189" stroke="white" stroke-width="1.95152" stroke-miterlimit="10"/>
<path d="M527.85 844.746L447.447 1193.68" stroke="white" stroke-width="1.95152" stroke-miterlimit="10"/>
<path d="M519.263 849.434L438.86 1197.58" stroke="white" stroke-width="1.95152" stroke-miterlimit="10"/>
<path d="M510.676 853.334L430.273 1201.48" stroke="white" stroke-width="1.95152" stroke-miterlimit="10"/>
<path d="M502.089 857.24L421.687 1206.17" stroke="white" stroke-width="1.95152" stroke-miterlimit="10"/>
<path d="M493.503 861.92L413.1 1210.07" stroke="white" stroke-width="1.95152" stroke-miterlimit="10"/>
<path d="M484.916 865.826L404.513 1214.76" stroke="white" stroke-width="1.95152" stroke-miterlimit="10"/>
<path d="M638.696 790.105L558.293 1138.26" stroke="white" stroke-width="1.95152" stroke-miterlimit="10"/>
<path d="M630.109 794.012L549.707 1142.94" stroke="white" stroke-width="1.95152" stroke-miterlimit="10"/>
<path d="M621.523 798.693L541.12 1146.84" stroke="white" stroke-width="1.95152" stroke-miterlimit="10"/>
<path d="M612.936 802.592L532.533 1151.52" stroke="white" stroke-width="1.95152" stroke-miterlimit="10"/>
<path d="M604.349 806.498L523.947 1155.43" stroke="white" stroke-width="1.95152" stroke-miterlimit="10"/>
<path d="M595.763 811.18L515.36 1159.33" stroke="white" stroke-width="1.95152" stroke-miterlimit="10"/>
<path d="M587.176 815.086L506.773 1164.02" stroke="white" stroke-width="1.95152" stroke-miterlimit="10"/>
<path d="M578.589 819.768L498.967 1167.92" stroke="white" stroke-width="1.95152" stroke-miterlimit="10"/>
<path d="M570.002 823.672L490.381 1172.6" stroke="white" stroke-width="1.95152" stroke-miterlimit="10"/>
<path d="M561.416 827.572L481.794 1176.5" stroke="white" stroke-width="1.95152" stroke-miterlimit="10"/>
</g>
<path d="M495.064 704.232C495.064 704.232 548.145 818.982 480.232 1022.72" stroke="#660000" stroke-width="1.95152" stroke-miterlimit="10" stroke-linejoin="round"/>
<path d="M359.238 748.728C359.238 748.728 356.896 756.534 369.386 756.534C381.876 757.315 475.549 727.652 481.013 725.31C491.941 720.626 489.6 712.82 489.6 712.82" stroke="white" stroke-width="1.95152" stroke-miterlimit="10"/>
<path d="M510.676 706.579C510.676 706.579 512.237 715.165 522.385 714.385C539.559 712.043 592.64 697.211 609.033 688.625C640.257 672.232 638.696 664.426 638.696 664.426" stroke="white" stroke-width="1.95152" stroke-miterlimit="10"/>
<path d="M585.615 586.363C585.615 586.363 594.982 613.684 633.232 600.414" stroke="white" stroke-width="1.95152" stroke-miterlimit="10"/>
<path d="M402.952 637.881C402.952 637.881 412.32 653.493 396.708 666.763C381.876 679.253 363.922 675.35 363.922 675.35" stroke="white" stroke-width="1.95152" stroke-miterlimit="10"/>
<path d="M87.5869 231.969C87.5869 231.969 61.8269 242.117 61.8269 255.387" stroke="#660000" stroke-width="1.95152" stroke-miterlimit="10" stroke-linejoin="round"/>
<path d="M37.6282 242.115C39.97 240.554 56.3627 238.993 67.2912 245.238" stroke="#660000" stroke-width="1.95152" stroke-miterlimit="10" stroke-linejoin="round"/>
<path d="M327.233 521.571L399.83 502.836" stroke="#660000" stroke-width="1.95152" stroke-miterlimit="10" stroke-linejoin="round"/>
<path d="M355.335 587.923L446.666 561.383" stroke="#660000" stroke-width="1.95152" stroke-miterlimit="10" stroke-linejoin="round"/>
<path d="M478.671 574.654L554.39 552.797" stroke="#660000" stroke-width="1.95152" stroke-miterlimit="10" stroke-linejoin="round"/>
<path d="M391.243 591.046L424.029 580.898" stroke="#660000" stroke-width="1.95152" stroke-miterlimit="10" stroke-linejoin="round"/>
<path d="M313.182 539.53L371.728 523.918" stroke="#660000" stroke-width="1.95152" stroke-miterlimit="10" stroke-linejoin="round"/>
<path d="M746.42 490.348C746.42 490.348 840.093 449.757 861.169 384.186" stroke="#660000" stroke-width="1.95152" stroke-miterlimit="10" stroke-linejoin="round"/>
<path d="M814.332 466.929C814.332 466.929 840.092 451.317 853.363 427.898" stroke="#660000" stroke-width="1.95152" stroke-miterlimit="10" stroke-linejoin="round"/>
<path d="M286.512 539.336C294.54 537.708 300.423 533.305 299.652 529.502C298.881 525.699 291.747 523.937 283.719 525.565C275.691 527.194 269.808 531.596 270.579 535.399C271.351 539.202 278.484 540.965 286.512 539.336Z" stroke="#660000" stroke-width="1.95152" stroke-miterlimit="10" stroke-linejoin="round"/>
<path d="M345.968 590.268L285.861 580.9L292.106 629.298L345.968 590.268Z" fill="#E2603D"/>
<path d="M264.785 605.096L308.499 594.168" stroke="#660000" stroke-width="1.95152" stroke-miterlimit="10" stroke-linejoin="round"/>
<path d="M251.515 623.833L303.035 609.002" stroke="#660000" stroke-width="1.95152" stroke-miterlimit="10" stroke-linejoin="round"/>
<path d="M836.189 406.825L868.194 413.851L867.414 363.111L836.189 406.825Z" fill="#98A2F4"/>
</g>
<defs>
<clipPath id="clip0">
<rect width="875.841" height="1111" fill="white" transform="translate(0.15918)"/>
</clipPath>
</defs>
</svg>
