<svg width="861" height="916" viewBox="0 0 861 916" fill="none" xmlns="http://www.w3.org/2000/svg">
<g clip-path="url(#clip0)">
<path d="M525.174 113.979C525.174 113.979 466.741 72.8592 414.08 101.715C387.388 116.143 346.99 142.113 300.099 160.869C209.204 197.66 134.901 197.66 126.244 225.073C118.308 251.043 111.816 230.844 108.209 280.62C106.766 298.655 111.095 365.745 109.652 441.491C108.209 504.974 111.095 551.864 111.816 598.755C112.537 651.416 111.816 702.635 111.816 729.327C111.816 819.501 170.249 822.386 228.682 769.003C295.771 708.406 273.408 698.307 330.398 650.695C438.607 561.242 653.582 675.222 742.313 736.541C792.089 771.168 780.547 658.63 780.547 597.312C780.547 560.521 777.662 528.78 772.612 499.924C768.283 476.118 760.348 458.804 760.348 429.227C760.348 401.814 771.169 373.68 772.612 329.675C774.055 305.148 770.448 280.62 765.398 266.914C736.542 190.446 649.254 235.173 551.144 142.834C538.159 131.292 525.174 113.979 525.174 113.979Z" fill="#FEE2CD"/>
<path d="M229.403 631.938H111.816" stroke="#45A0D4" stroke-width="1.80348" stroke-miterlimit="10"/>
<path d="M291.443 169.526H365.746" stroke="#45A0D4" stroke-width="1.80348" stroke-miterlimit="10"/>
<path d="M277.736 204.153H380.174" stroke="#45A0D4" stroke-width="1.80348" stroke-miterlimit="10"/>
<path d="M351.318 169.526V204.153" stroke="#45A0D4" stroke-width="1.80348" stroke-miterlimit="10"/>
<path d="M297.935 169.526V204.153" stroke="#45A0D4" stroke-width="1.80348" stroke-miterlimit="10"/>
<path d="M581.443 429.948H669.453" stroke="#45A0D4" stroke-width="1.80348" stroke-miterlimit="10"/>
<path d="M617.513 405.421H676.667" stroke="#45A0D4" stroke-width="1.80348" stroke-miterlimit="10"/>
<path d="M588.657 460.249H640.597" stroke="#45A0D4" stroke-width="1.80348" stroke-miterlimit="10"/>
<path d="M629.055 432.835V457.362" stroke="#45A0D4" stroke-width="1.80348" stroke-miterlimit="10"/>
<path d="M651.418 408.307V429.948" stroke="#45A0D4" stroke-width="1.80348" stroke-miterlimit="10"/>
<path d="M117.587 391.715H208.483" stroke="#45A0D4" stroke-width="1.80348" stroke-miterlimit="10"/>
<path d="M108.931 423.456H203.433" stroke="#45A0D4" stroke-width="1.80348" stroke-miterlimit="10"/>
<path d="M117.587 456.64H181.791" stroke="#45A0D4" stroke-width="1.80348" stroke-miterlimit="10"/>
<path d="M150.05 423.456V453.755" stroke="#45A0D4" stroke-width="1.80348" stroke-miterlimit="10"/>
<path d="M168.806 393.878V423.455" stroke="#45A0D4" stroke-width="1.80348" stroke-miterlimit="10"/>
<path d="M168.806 503.532H299.378" stroke="#45A0D4" stroke-width="1.80348" stroke-miterlimit="10"/>
<path d="M125.522 537.437H290.721" stroke="#45A0D4" stroke-width="1.80348" stroke-miterlimit="10"/>
<path d="M176.02 503.532V537.438" stroke="#45A0D4" stroke-width="1.80348" stroke-miterlimit="10"/>
<path d="M252.487 503.532V537.438" stroke="#45A0D4" stroke-width="1.80348" stroke-miterlimit="10"/>
<path d="M134.179 537.437V576.392H216.418V537.437" stroke="#45A0D4" stroke-width="1.80348" stroke-miterlimit="10"/>
<path d="M180.348 631.938V670.172" stroke="#45A0D4" stroke-width="1.80348" stroke-miterlimit="10"/>
<path d="M124.08 670.172H204.154" stroke="#45A0D4" stroke-width="1.80348" stroke-miterlimit="10"/>
<path d="M490.547 148.607C490.547 148.607 460.97 155.1 454.478 169.528C447.985 183.956 440.771 208.483 463.134 209.926C485.498 211.369 505.697 211.369 514.353 194.777C523.01 178.185 501.368 152.214 490.547 148.607Z" fill="#E897A3"/>
<path d="M725 224.352C725 224.352 735.1 214.253 743.035 211.367C753.856 207.76 761.07 211.367 758.905 217.138C758.184 221.467 765.398 220.024 768.284 227.959C771.169 235.894 767.562 238.059 769.005 240.944C769.726 243.108 772.612 243.108 774.776 247.437C776.94 251.765 775.498 262.586 771.169 267.636C769.005 270.521 767.562 273.407 761.07 276.292C754.577 279.178 742.313 280.621 742.313 280.621L725 224.352Z" fill="#E897A3"/>
<path d="M481.89 151.492C481.89 151.492 491.268 147.164 512.91 150.05C530.945 152.214 533.83 151.492 545.373 154.378C557.636 157.985 544.651 163.756 544.651 167.363C544.651 177.462 573.507 168.806 578.557 180.348C583.607 191.89 553.308 183.234 548.98 189.726C544.651 196.219 558.358 196.219 544.651 202.711C530.945 209.204 497.761 208.482 497.761 208.482C497.761 208.482 489.826 205.597 489.104 196.219C487.661 186.841 486.94 177.462 482.612 177.462C478.283 178.184 473.955 183.234 474.676 177.462C476.119 172.413 472.512 153.657 481.89 151.492Z" fill="#44A1DB"/>
<path d="M738.706 675.944C736.542 674.501 728.607 675.944 724.279 675.944C723.557 675.944 722.836 675.944 722.836 676.665V771.889C722.836 771.889 723.557 781.267 719.229 782.71C719.229 784.874 722.836 790.645 724.279 792.81C732.214 807.238 737.264 818.058 743.035 818.058C748.806 818.058 745.199 680.272 738.706 675.944Z" fill="#9ECBE3"/>
<path d="M723.557 773.331V677.386V675.943C723.557 675.943 719.95 670.894 712.736 670.894C706.244 670.894 709.851 675.222 696.866 675.222C674.502 675.222 644.204 673.058 611.02 651.416C577.836 629.774 580 555.471 580 555.471H323.905C323.905 555.471 356.368 579.998 378.01 608.854C399.652 637.71 502.811 743.754 533.831 770.446C553.308 787.038 581.443 781.267 585.05 781.267C666.567 783.431 701.194 775.496 701.194 775.496C701.194 775.496 701.915 780.545 714.179 784.874C717.065 785.595 718.507 785.595 719.95 784.874C724.279 782.71 723.557 773.331 723.557 773.331Z" fill="#9AF4DC"/>
<path d="M499.204 222.91C499.204 216.417 497.761 208.482 497.761 208.482L469.627 201.989C469.627 201.989 471.791 216.417 465.298 222.91C474.677 222.91 486.219 222.91 499.204 222.91Z" fill="#E897A3"/>
<path d="M460.249 906.068C437.886 905.347 416.965 899.576 410.473 893.083C407.587 894.526 400.373 896.69 386.667 901.018C362.139 908.232 361.418 907.511 359.975 911.118C359.254 914.725 374.403 916.889 389.552 916.168C403.98 915.446 527.338 917.61 532.388 912.561C532.388 912.561 533.831 910.396 533.831 906.068C533.831 903.182 532.388 901.018 530.945 898.854C518.682 903.182 484.055 906.789 460.249 906.068Z" fill="#9ECBE3"/>
<path d="M559.079 572.064C559.079 569.9 559.079 567.736 559.079 565.572C553.308 567.015 546.816 567.736 538.88 568.457C463.134 579.278 349.876 561.244 314.527 555.472C314.527 555.472 314.527 555.472 313.806 555.472C313.084 555.472 311.642 554.751 310.92 554.751L313.084 572.064C313.084 572.064 343.383 735.821 368.632 761.069C373.681 766.119 385.945 774.054 389.552 781.268C406.144 808.681 410.473 856.293 416.244 868.557C423.458 882.985 416.244 882.263 416.244 882.263C416.244 882.263 409.751 880.821 407.587 888.035C406.866 889.477 408.308 891.642 409.751 893.084C416.244 898.855 437.164 904.627 459.527 906.069C483.333 907.512 518.681 903.184 530.224 898.855H530.945C533.109 898.134 534.552 897.413 534.552 896.691C535.995 891.642 534.552 885.149 534.552 885.149C534.552 885.149 543.93 855.572 535.273 812.288C526.617 769.005 514.353 739.428 521.567 704.079C528.781 668.731 558.358 597.313 559.079 572.064Z" fill="#9AF4DC"/>
<path d="M725 224.354C725 224.354 675.945 252.488 587.935 233.011C561.965 227.24 527.338 224.354 499.204 222.911C486.219 222.19 474.677 222.19 465.299 222.911C463.134 222.911 371.517 227.24 322.463 233.011C214.254 245.996 157.264 222.911 157.264 222.911L134.901 292.886C134.901 292.886 163.756 317.414 253.209 346.269C271.244 352.041 290.721 380.175 290.721 416.966C290.721 442.936 285.672 487.662 300.1 550.424C301.542 555.473 316.692 566.294 321.02 567.737C321.741 567.737 372.96 587.936 559.801 565.573C628.333 557.638 608.856 538.16 608.856 538.16C608.856 538.16 599.478 529.503 590.821 501.369C587.935 491.991 585.05 478.284 585.05 435.001C585.05 393.881 593.707 367.19 647.811 352.762C701.915 338.334 742.313 281.344 742.313 281.344L725 224.354Z" fill="#3844E5"/>
<path d="M571.343 155.098C560.522 157.262 558.358 162.312 563.408 164.476C568.457 166.64 581.443 168.083 581.443 161.591C581.443 155.82 574.95 154.377 571.343 155.098Z" fill="#44A1DB"/>
<path d="M544.652 645.646C537.438 668.01 530.945 691.094 530.224 706.244C527.338 742.313 544.652 777.661 548.98 820.945C553.308 864.229 544.652 893.084 544.652 893.084" stroke="#660000" stroke-width="1.80348" stroke-miterlimit="10" stroke-linejoin="round"/>
<path d="M564.851 587.215C564.851 587.215 556.915 607.414 548.98 631.941" stroke="#660000" stroke-width="1.80348" stroke-miterlimit="10" stroke-linejoin="round"/>
<path d="M372.96 775.498C372.96 775.498 387.388 800.746 406.866 764.677" stroke="#660000" stroke-width="1.80348" stroke-miterlimit="10" stroke-linejoin="round"/>
<path d="M427.065 882.264C427.065 882.264 445.821 892.363 466.742 893.085" stroke="#660000" stroke-width="1.80348" stroke-miterlimit="10" stroke-linejoin="round"/>
<path d="M483.333 893.084C483.333 893.084 494.875 894.527 510.746 888.034" stroke="#660000" stroke-width="1.80348" stroke-miterlimit="10" stroke-linejoin="round"/>
<path d="M704.08 771.889C704.08 771.889 707.687 776.939 709.851 769.725C711.294 762.511 706.965 692.536 706.965 692.536" stroke="#660000" stroke-width="1.80348" stroke-miterlimit="10" stroke-linejoin="round"/>
<path d="M157.264 223.632C157.264 223.632 139.95 218.582 134.179 211.368C128.408 204.154 124.08 203.433 120.473 207.761C116.866 212.09 120.473 223.632 120.473 223.632C120.473 223.632 113.98 219.304 112.537 227.96C111.095 236.617 113.259 246.716 113.259 246.716C113.259 246.716 106.766 247.438 107.488 255.373C108.209 263.309 111.095 266.194 111.095 266.194C111.095 266.194 103.159 267.637 111.816 279.179C116.144 285.672 134.179 292.886 134.179 292.886L157.264 223.632Z" fill="#E897A3"/>
<mask id="mask0" mask-type="alpha" maskUnits="userSpaceOnUse" x="134" y="222" width="609" height="355">
<path d="M725 224.354C725 224.354 675.945 252.488 587.935 233.011C561.965 227.24 527.338 224.354 499.204 222.911C486.219 222.19 474.677 222.19 465.299 222.911C463.134 222.911 371.517 227.24 322.463 233.011C214.254 245.996 157.264 222.911 157.264 222.911L134.901 292.886C134.901 292.886 163.756 317.414 253.209 346.269C271.244 352.041 290.721 380.175 290.721 416.966C290.721 442.936 285.672 487.662 300.1 550.424C301.542 555.473 316.692 566.294 321.02 567.737C321.741 567.737 372.96 587.936 559.801 565.573C628.333 557.638 608.856 538.16 608.856 538.16C608.856 538.16 599.478 529.503 590.821 501.369C587.935 491.991 585.05 478.284 585.05 435.001C585.05 393.881 593.707 367.19 647.811 352.762C701.915 338.334 742.313 281.344 742.313 281.344L725 224.354Z" fill="#3844E5"/>
</mask>
<g mask="url(#mask0)">
<path d="M137.786 381.618C144.161 381.618 149.328 376.45 149.328 370.075C149.328 363.701 144.161 358.533 137.786 358.533C131.411 358.533 126.244 363.701 126.244 370.075C126.244 376.45 131.411 381.618 137.786 381.618Z" stroke="white" stroke-width="1.80348" stroke-miterlimit="10" stroke-linejoin="round"/>
<path d="M159.428 451.592C165.803 451.592 170.97 446.425 170.97 440.05C170.97 433.675 165.803 428.508 159.428 428.508C153.053 428.508 147.886 433.675 147.886 440.05C147.886 446.425 153.053 451.592 159.428 451.592Z" stroke="white" stroke-width="1.80348" stroke-miterlimit="10" stroke-linejoin="round"/>
<path d="M181.07 521.57C187.444 521.57 192.612 516.402 192.612 510.028C192.612 503.653 187.444 498.485 181.07 498.485C174.695 498.485 169.527 503.653 169.527 510.028C169.527 516.402 174.695 521.57 181.07 521.57Z" stroke="white" stroke-width="1.80348" stroke-miterlimit="10" stroke-linejoin="round"/>
<path d="M202.711 591.545C209.086 591.545 214.254 586.377 214.254 580.002C214.254 573.628 209.086 568.46 202.711 568.46C196.337 568.46 191.169 573.628 191.169 580.002C191.169 586.377 196.337 591.545 202.711 591.545Z" stroke="white" stroke-width="1.80348" stroke-miterlimit="10" stroke-linejoin="round"/>
<path d="M164.478 263.311C170.852 263.311 176.02 258.143 176.02 251.769C176.02 245.394 170.852 240.227 164.478 240.227C158.103 240.227 152.935 245.394 152.935 251.769C152.935 258.143 158.103 263.311 164.478 263.311Z" stroke="white" stroke-width="1.80348" stroke-miterlimit="10" stroke-linejoin="round"/>
<path d="M186.12 334.006C192.494 334.006 197.662 328.839 197.662 322.464C197.662 316.09 192.494 310.922 186.12 310.922C179.745 310.922 174.577 316.09 174.577 322.464C174.577 328.839 179.745 334.006 186.12 334.006Z" stroke="white" stroke-width="1.80348" stroke-miterlimit="10" stroke-linejoin="round"/>
<path d="M207.761 403.984C214.136 403.984 219.303 398.816 219.303 392.442C219.303 386.067 214.136 380.899 207.761 380.899C201.386 380.899 196.219 386.067 196.219 392.442C196.219 398.816 201.386 403.984 207.761 403.984Z" stroke="white" stroke-width="1.80348" stroke-miterlimit="10" stroke-linejoin="round"/>
<path d="M229.403 473.958C235.778 473.958 240.945 468.79 240.945 462.415C240.945 456.041 235.778 450.873 229.403 450.873C223.028 450.873 217.861 456.041 217.861 462.415C217.861 468.79 223.028 473.958 229.403 473.958Z" stroke="white" stroke-width="1.80348" stroke-miterlimit="10" stroke-linejoin="round"/>
<path d="M251.045 543.932C257.419 543.932 262.587 538.765 262.587 532.39C262.587 526.015 257.419 520.848 251.045 520.848C244.67 520.848 239.502 526.015 239.502 532.39C239.502 538.765 244.67 543.932 251.045 543.932Z" stroke="white" stroke-width="1.80348" stroke-miterlimit="10" stroke-linejoin="round"/>
<path d="M235.895 274.854C242.27 274.854 247.438 269.686 247.438 263.312C247.438 256.937 242.27 251.77 235.895 251.77C229.521 251.77 224.353 256.937 224.353 263.312C224.353 269.686 229.521 274.854 235.895 274.854Z" stroke="white" stroke-width="1.80348" stroke-miterlimit="10" stroke-linejoin="round"/>
<path d="M257.537 344.828C263.912 344.828 269.08 339.66 269.08 333.285C269.08 326.911 263.912 321.743 257.537 321.743C251.163 321.743 245.995 326.911 245.995 333.285C245.995 339.66 251.163 344.828 257.537 344.828Z" stroke="white" stroke-width="1.80348" stroke-miterlimit="10" stroke-linejoin="round"/>
<path d="M279.179 414.802C285.554 414.802 290.721 409.635 290.721 403.26C290.721 396.885 285.554 391.718 279.179 391.718C272.804 391.718 267.637 396.885 267.637 403.26C267.637 409.635 272.804 414.802 279.179 414.802Z" stroke="white" stroke-width="1.80348" stroke-miterlimit="10" stroke-linejoin="round"/>
<path d="M300.821 484.777C307.195 484.777 312.363 479.609 312.363 473.235C312.363 466.86 307.195 461.692 300.821 461.692C294.446 461.692 289.279 466.86 289.279 473.235C289.279 479.609 294.446 484.777 300.821 484.777Z" stroke="white" stroke-width="1.80348" stroke-miterlimit="10" stroke-linejoin="round"/>
<path d="M322.463 554.755C328.837 554.755 334.005 549.587 334.005 543.212C334.005 536.838 328.837 531.67 322.463 531.67C316.088 531.67 310.92 536.838 310.92 543.212C310.92 549.587 316.088 554.755 322.463 554.755Z" stroke="white" stroke-width="1.80348" stroke-miterlimit="10" stroke-linejoin="round"/>
<path d="M283.507 226.517C289.882 226.517 295.05 221.35 295.05 214.975C295.05 208.6 289.882 203.433 283.507 203.433C277.133 203.433 271.965 208.6 271.965 214.975C271.965 221.35 277.133 226.517 283.507 226.517Z" stroke="white" stroke-width="1.80348" stroke-miterlimit="10" stroke-linejoin="round"/>
<path d="M305.149 296.495C311.524 296.495 316.692 291.327 316.692 284.952C316.692 278.578 311.524 273.41 305.149 273.41C298.775 273.41 293.607 278.578 293.607 284.952C293.607 291.327 298.775 296.495 305.149 296.495Z" stroke="white" stroke-width="1.80348" stroke-miterlimit="10" stroke-linejoin="round"/>
<path d="M326.791 366.469C333.166 366.469 338.333 361.302 338.333 354.927C338.333 348.552 333.166 343.385 326.791 343.385C320.416 343.385 315.249 348.552 315.249 354.927C315.249 361.302 320.416 366.469 326.791 366.469Z" stroke="white" stroke-width="1.80348" stroke-miterlimit="10" stroke-linejoin="round"/>
<path d="M348.433 436.444C354.808 436.444 359.975 431.276 359.975 424.902C359.975 418.527 354.808 413.359 348.433 413.359C342.058 413.359 336.891 418.527 336.891 424.902C336.891 431.276 342.058 436.444 348.433 436.444Z" stroke="white" stroke-width="1.80348" stroke-miterlimit="10" stroke-linejoin="round"/>
<path d="M370.075 507.141C376.449 507.141 381.617 501.974 381.617 495.599C381.617 489.224 376.449 484.057 370.075 484.057C363.7 484.057 358.533 489.224 358.533 495.599C358.533 501.974 363.7 507.141 370.075 507.141Z" stroke="white" stroke-width="1.80348" stroke-miterlimit="10" stroke-linejoin="round"/>
<path d="M391.716 577.116C398.091 577.116 403.259 571.948 403.259 565.574C403.259 559.199 398.091 554.031 391.716 554.031C385.342 554.031 380.174 559.199 380.174 565.574C380.174 571.948 385.342 577.116 391.716 577.116Z" stroke="white" stroke-width="1.80348" stroke-miterlimit="10" stroke-linejoin="round"/>
<path d="M354.925 238.06C361.3 238.06 366.468 232.893 366.468 226.518C366.468 220.143 361.3 214.976 354.925 214.976C348.551 214.976 343.383 220.143 343.383 226.518C343.383 232.893 348.551 238.06 354.925 238.06Z" stroke="white" stroke-width="1.80348" stroke-miterlimit="10" stroke-linejoin="round"/>
<path d="M376.567 308.037C382.942 308.037 388.11 302.869 388.11 296.494C388.11 290.12 382.942 284.952 376.567 284.952C370.193 284.952 365.025 290.12 365.025 296.494C365.025 302.869 370.193 308.037 376.567 308.037Z" stroke="white" stroke-width="1.80348" stroke-miterlimit="10" stroke-linejoin="round"/>
<path d="M398.209 378.011C404.583 378.011 409.751 372.844 409.751 366.469C409.751 360.094 404.583 354.927 398.209 354.927C391.834 354.927 386.666 360.094 386.666 366.469C386.666 372.844 391.834 378.011 398.209 378.011Z" stroke="white" stroke-width="1.80348" stroke-miterlimit="10" stroke-linejoin="round"/>
<path d="M419.851 447.986C426.225 447.986 431.393 442.818 431.393 436.444C431.393 430.069 426.225 424.901 419.851 424.901C413.476 424.901 408.308 430.069 408.308 436.444C408.308 442.818 413.476 447.986 419.851 447.986Z" stroke="white" stroke-width="1.80348" stroke-miterlimit="10" stroke-linejoin="round"/>
<path d="M441.492 517.96C447.867 517.96 453.035 512.792 453.035 506.417C453.035 500.043 447.867 494.875 441.492 494.875C435.118 494.875 429.95 500.043 429.95 506.417C429.95 512.792 435.118 517.96 441.492 517.96Z" stroke="white" stroke-width="1.80348" stroke-miterlimit="10" stroke-linejoin="round"/>
<path d="M463.134 587.938C469.509 587.938 474.677 582.77 474.677 576.396C474.677 570.021 469.509 564.854 463.134 564.854C456.76 564.854 451.592 570.021 451.592 576.396C451.592 582.77 456.76 587.938 463.134 587.938Z" stroke="white" stroke-width="1.80348" stroke-miterlimit="10" stroke-linejoin="round"/>
<path d="M424.9 259.702C431.275 259.702 436.443 254.534 436.443 248.159C436.443 241.785 431.275 236.617 424.9 236.617C418.526 236.617 413.358 241.785 413.358 248.159C413.358 254.534 418.526 259.702 424.9 259.702Z" stroke="white" stroke-width="1.80348" stroke-miterlimit="10" stroke-linejoin="round"/>
<path d="M446.542 329.679C452.917 329.679 458.085 324.512 458.085 318.137C458.085 311.762 452.917 306.595 446.542 306.595C440.168 306.595 435 311.762 435 318.137C435 324.512 440.168 329.679 446.542 329.679Z" stroke="white" stroke-width="1.80348" stroke-miterlimit="10" stroke-linejoin="round"/>
<path d="M468.184 399.654C474.559 399.654 479.726 394.486 479.726 388.112C479.726 381.737 474.559 376.569 468.184 376.569C461.809 376.569 456.642 381.737 456.642 388.112C456.642 394.486 461.809 399.654 468.184 399.654Z" stroke="white" stroke-width="1.80348" stroke-miterlimit="10" stroke-linejoin="round"/>
<path d="M489.826 469.628C496.2 469.628 501.368 464.46 501.368 458.085C501.368 451.711 496.2 446.543 489.826 446.543C483.451 446.543 478.283 451.711 478.283 458.085C478.283 464.46 483.451 469.628 489.826 469.628Z" stroke="white" stroke-width="1.80348" stroke-miterlimit="10" stroke-linejoin="round"/>
<path d="M511.467 539.602C517.842 539.602 523.01 534.434 523.01 528.06C523.01 521.685 517.842 516.518 511.467 516.518C505.093 516.518 499.925 521.685 499.925 528.06C499.925 534.434 505.093 539.602 511.467 539.602Z" stroke="white" stroke-width="1.80348" stroke-miterlimit="10" stroke-linejoin="round"/>
<path d="M496.318 270.524C502.693 270.524 507.861 265.356 507.861 258.982C507.861 252.607 502.693 247.439 496.318 247.439C489.944 247.439 484.776 252.607 484.776 258.982C484.776 265.356 489.944 270.524 496.318 270.524Z" stroke="white" stroke-width="1.80348" stroke-miterlimit="10" stroke-linejoin="round"/>
<path d="M517.96 340.499C524.335 340.499 529.502 335.331 529.502 328.956C529.502 322.582 524.335 317.414 517.96 317.414C511.586 317.414 506.418 322.582 506.418 328.956C506.418 335.331 511.586 340.499 517.96 340.499Z" stroke="white" stroke-width="1.80348" stroke-miterlimit="10" stroke-linejoin="round"/>
<path d="M539.602 411.196C545.977 411.196 551.145 406.028 551.145 399.654C551.145 393.279 545.977 388.111 539.602 388.111C533.228 388.111 528.06 393.279 528.06 399.654C528.06 406.028 533.228 411.196 539.602 411.196Z" stroke="white" stroke-width="1.80348" stroke-miterlimit="10" stroke-linejoin="round"/>
<path d="M561.244 481.17C567.618 481.17 572.786 476.003 572.786 469.628C572.786 463.254 567.618 458.086 561.244 458.086C554.869 458.086 549.701 463.254 549.701 469.628C549.701 476.003 554.869 481.17 561.244 481.17Z" stroke="white" stroke-width="1.80348" stroke-miterlimit="10" stroke-linejoin="round"/>
<path d="M582.886 551.144C589.26 551.144 594.428 545.977 594.428 539.602C594.428 533.227 589.26 528.06 582.886 528.06C576.511 528.06 571.343 533.227 571.343 539.602C571.343 545.977 576.511 551.144 582.886 551.144Z" stroke="white" stroke-width="1.80348" stroke-miterlimit="10" stroke-linejoin="round"/>
<path d="M543.93 222.912C550.305 222.912 555.472 217.744 555.472 211.369C555.472 204.995 550.305 199.827 543.93 199.827C537.555 199.827 532.388 204.995 532.388 211.369C532.388 217.744 537.555 222.912 543.93 222.912Z" stroke="white" stroke-width="1.80348" stroke-miterlimit="10" stroke-linejoin="round"/>
<path d="M565.572 292.889C571.947 292.889 577.114 287.722 577.114 281.347C577.114 274.972 571.947 269.805 565.572 269.805C559.197 269.805 554.03 274.972 554.03 281.347C554.03 287.722 559.197 292.889 565.572 292.889Z" stroke="white" stroke-width="1.80348" stroke-miterlimit="10" stroke-linejoin="round"/>
<path d="M587.214 362.864C593.588 362.864 598.756 357.696 598.756 351.322C598.756 344.947 593.588 339.779 587.214 339.779C580.839 339.779 575.671 344.947 575.671 351.322C575.671 357.696 580.839 362.864 587.214 362.864Z" stroke="white" stroke-width="1.80348" stroke-miterlimit="10" stroke-linejoin="round"/>
<path d="M609.577 432.838C615.952 432.838 621.119 427.67 621.119 421.295C621.119 414.921 615.952 409.753 609.577 409.753C603.202 409.753 598.035 414.921 598.035 421.295C598.035 427.67 603.202 432.838 609.577 432.838Z" stroke="white" stroke-width="1.80348" stroke-miterlimit="10" stroke-linejoin="round"/>
<path d="M631.219 502.812C637.593 502.812 642.761 497.644 642.761 491.27C642.761 484.895 637.593 479.728 631.219 479.728C624.844 479.728 619.677 484.895 619.677 491.27C619.677 497.644 624.844 502.812 631.219 502.812Z" stroke="white" stroke-width="1.80348" stroke-miterlimit="10" stroke-linejoin="round"/>
<path d="M652.86 572.789C659.235 572.789 664.403 567.621 664.403 561.246C664.403 554.872 659.235 549.704 652.86 549.704C646.486 549.704 641.318 554.872 641.318 561.246C641.318 567.621 646.486 572.789 652.86 572.789Z" stroke="white" stroke-width="1.80348" stroke-miterlimit="10" stroke-linejoin="round"/>
<path d="M615.348 233.734C621.723 233.734 626.891 228.566 626.891 222.192C626.891 215.817 621.723 210.649 615.348 210.649C608.974 210.649 603.806 215.817 603.806 222.192C603.806 228.566 608.974 233.734 615.348 233.734Z" stroke="white" stroke-width="1.80348" stroke-miterlimit="10" stroke-linejoin="round"/>
<path d="M636.99 303.709C643.365 303.709 648.532 298.541 648.532 292.166C648.532 285.792 643.365 280.624 636.99 280.624C630.615 280.624 625.448 285.792 625.448 292.166C625.448 298.541 630.615 303.709 636.99 303.709Z" stroke="white" stroke-width="1.80348" stroke-miterlimit="10" stroke-linejoin="round"/>
<path d="M658.632 373.682C665.007 373.682 670.174 368.515 670.174 362.14C670.174 355.765 665.007 350.598 658.632 350.598C652.257 350.598 647.09 355.765 647.09 362.14C647.09 368.515 652.257 373.682 658.632 373.682Z" stroke="white" stroke-width="1.80348" stroke-miterlimit="10" stroke-linejoin="round"/>
<path d="M680.995 443.66C687.369 443.66 692.537 438.492 692.537 432.118C692.537 425.743 687.369 420.575 680.995 420.575C674.62 420.575 669.453 425.743 669.453 432.118C669.453 438.492 674.62 443.66 680.995 443.66Z" stroke="white" stroke-width="1.80348" stroke-miterlimit="10" stroke-linejoin="round"/>
<path d="M702.637 513.634C709.011 513.634 714.179 508.467 714.179 502.092C714.179 495.717 709.011 490.55 702.637 490.55C696.262 490.55 691.094 495.717 691.094 502.092C691.094 508.467 696.262 513.634 702.637 513.634Z" stroke="white" stroke-width="1.80348" stroke-miterlimit="10" stroke-linejoin="round"/>
<path d="M724.278 584.332C730.653 584.332 735.821 579.164 735.821 572.789C735.821 566.415 730.653 561.247 724.278 561.247C717.904 561.247 712.736 566.415 712.736 572.789C712.736 579.164 717.904 584.332 724.278 584.332Z" stroke="white" stroke-width="1.80348" stroke-miterlimit="10" stroke-linejoin="round"/>
<path d="M685.323 256.095C691.698 256.095 696.865 250.928 696.865 244.553C696.865 238.178 691.698 233.011 685.323 233.011C678.948 233.011 673.781 238.178 673.781 244.553C673.781 250.928 678.948 256.095 685.323 256.095Z" stroke="white" stroke-width="1.80348" stroke-miterlimit="10" stroke-linejoin="round"/>
<path d="M706.965 326.073C713.34 326.073 718.507 320.905 718.507 314.531C718.507 308.156 713.34 302.988 706.965 302.988C700.59 302.988 695.423 308.156 695.423 314.531C695.423 320.905 700.59 326.073 706.965 326.073Z" stroke="white" stroke-width="1.80348" stroke-miterlimit="10" stroke-linejoin="round"/>
<path d="M728.607 396.046C734.981 396.046 740.149 390.879 740.149 384.504C740.149 378.13 734.981 372.962 728.607 372.962C722.232 372.962 717.064 378.13 717.064 384.504C717.064 390.879 722.232 396.046 728.607 396.046Z" stroke="white" stroke-width="1.80348" stroke-miterlimit="10" stroke-linejoin="round"/>
<path d="M750.249 466.021C756.623 466.021 761.791 460.853 761.791 454.479C761.791 448.104 756.623 442.937 750.249 442.937C743.874 442.937 738.706 448.104 738.706 454.479C738.706 460.853 743.874 466.021 750.249 466.021Z" stroke="white" stroke-width="1.80348" stroke-miterlimit="10" stroke-linejoin="round"/>
</g>
<path d="M710.572 297.213C721.393 287.113 727.886 279.899 727.886 279.899" stroke="#660000" stroke-width="1.80348" stroke-miterlimit="10" stroke-linejoin="round"/>
<path d="M831.045 665.125L799.304 667.289L813.731 712.737L831.045 665.125Z" fill="#45A0D4"/>
<path d="M769.005 282.062C769.005 282.062 778.383 308.033 769.005 364.301C759.627 420.57 756.02 440.048 769.005 484.774C781.99 529.5 780.547 585.048 780.547 585.048" stroke="#660000" stroke-width="1.80348" stroke-miterlimit="10" stroke-linejoin="round"/>
<path d="M481.891 44.7256C481.891 44.7256 402.537 147.163 151.493 204.875" stroke="#660000" stroke-width="1.80348" stroke-miterlimit="10" stroke-linejoin="round"/>
<path d="M111.816 598.758C111.816 598.758 107.487 363.584 107.487 285.673C107.487 272.688 109.652 262.589 109.652 262.589" stroke="#660000" stroke-width="1.80348" stroke-miterlimit="10" stroke-linejoin="round"/>
<path d="M111.816 661.516C111.816 661.516 111.816 714.899 113.98 755.297C116.144 795.695 113.98 887.312 0 893.083" stroke="#660000" stroke-width="1.80348" stroke-miterlimit="10" stroke-linejoin="round"/>
<path d="M252.488 142.114C252.488 142.114 209.925 160.149 129.851 173.856C87.2886 181.069 69.9751 222.189 69.9751 279.9C69.9751 315.97 72.1393 393.88 72.1393 399.652" stroke="#660000" stroke-width="1.80348" stroke-miterlimit="10" stroke-linejoin="round"/>
<path d="M481.89 44.7256C481.89 44.7256 535.273 169.527 647.089 201.989C678.109 210.646 697.587 215.696 710.572 219.303" stroke="#660000" stroke-width="1.80348" stroke-miterlimit="10" stroke-linejoin="round"/>
<path d="M780.547 609.576C780.547 609.576 784.875 768.283 784.154 828.88C782.711 899.576 854.851 898.133 861.343 898.133" stroke="#660000" stroke-width="1.80348" stroke-miterlimit="10" stroke-linejoin="round"/>
<path d="M591.542 570.622C591.542 570.622 592.985 618.955 612.463 637.712C633.383 657.911 660.075 662.96 683.881 665.125C701.915 666.567 699.03 656.468 710.572 656.468C722.114 656.468 724.279 662.96 724.279 662.96" stroke="#660000" stroke-width="1.80348" stroke-miterlimit="10" stroke-linejoin="round"/>
<path d="M77.189 678.111C77.9104 712.017 77.189 745.922 75.7462 757.465" stroke="#660000" stroke-width="1.80348" stroke-miterlimit="10" stroke-linejoin="round"/>
<path d="M76.4679 614.626C76.4679 614.626 76.4679 626.89 77.1893 658.631" stroke="#660000" stroke-width="1.80348" stroke-miterlimit="10" stroke-linejoin="round"/>
<path d="M625.448 155.1C625.448 155.1 660.075 178.906 711.294 186.841" stroke="#660000" stroke-width="1.80348" stroke-miterlimit="10" stroke-linejoin="round"/>
<path d="M791.368 261.146C791.368 261.146 804.353 278.459 801.468 343.384C798.582 408.31 784.154 427.066 793.533 456.643C805.796 494.155 805.796 525.897 805.796 525.897" stroke="#660000" stroke-width="1.80348" stroke-miterlimit="10" stroke-linejoin="round"/>
<path d="M813.01 636.991V668.011" stroke="#660000" stroke-width="1.80348" stroke-miterlimit="10" stroke-linejoin="round"/>
<path d="M816.617 794.254C817.338 813.01 819.503 831.766 822.388 841.144C828.881 861.343 853.408 859.901 853.408 859.901" stroke="#660000" stroke-width="1.80348" stroke-miterlimit="10" stroke-linejoin="round"/>
<path d="M597.314 480.448C596.592 471.07 596.592 459.528 596.592 444.378C596.592 403.259 605.249 376.567 659.353 362.14C684.602 355.647 706.965 341.219 724.279 327.513" stroke="#660000" stroke-width="1.80348" stroke-miterlimit="10" stroke-linejoin="round"/>
<path d="M26.6916 853.408C35.3483 851.965 44.7264 849.079 52.6618 844.03C72.1394 831.045 72.1394 818.06 72.1394 818.06" stroke="#660000" stroke-width="1.80348" stroke-miterlimit="10" stroke-linejoin="round"/>
<path d="M290.721 126.966C290.721 126.966 336.169 109.652 359.253 92.3389" stroke="#660000" stroke-width="1.80348" stroke-miterlimit="10" stroke-linejoin="round"/>
<path d="M78.6319 546.096L96.6668 502.091L59.1543 497.763L78.6319 546.096Z" fill="#D63C30"/>
<path d="M82.9601 481.891L82.2387 516.517" stroke="#660000" stroke-width="1.80348" stroke-miterlimit="10" stroke-linejoin="round"/>
<path d="M71.4179 468.185L72.1393 509.304" stroke="#660000" stroke-width="1.80348" stroke-miterlimit="10" stroke-linejoin="round"/>
</g>
<defs>
<clipPath id="clip0">
<rect width="860.622" height="915.448" fill="white"/>
</clipPath>
</defs>
</svg>
