<svg width="151" height="162" viewBox="0 0 151 162" fill="none" xmlns="http://www.w3.org/2000/svg">
<path d="M96.214 25.3149C57.0157 19.3757 63.1132 52.2389 39.8318 74.7285C22.5688 91.3581 9.8986 94.3672 4.11784 108.384C-10.6904 144.573 16.788 157.639 54.7193 157.164C92.6505 156.689 132.482 140.376 118.07 102.365C102.628 61.6624 115.774 82.7265 119.495 51.0511C121.95 29.3535 105.479 26.7403 96.214 25.3149Z" fill="#D6DCF5"/>
<g clip-path="url(#clip0)">
<path d="M76.2897 73.8493C76.1076 72.9387 75.7434 71.846 75.5612 70.7533C75.3791 69.4785 75.197 65.4719 75.1059 64.106V63.9238C75.1059 63.9238 64.9073 66.2914 61.1738 66.2914C57.4404 66.2914 56.1655 66.5646 55.0728 65.654C53.9801 64.7434 54.1622 64.7434 53.798 63.8328C53.6159 63.3775 53.4338 63.1043 53.5248 62.4669C53.5248 61.3742 54.1622 60.7368 53.5248 60.7368C52.8874 60.7368 52.6142 60.7368 52.0679 61.5563C51.5215 62.3758 51.9768 63.3775 51.0662 63.0132C50.1556 62.649 48.5165 62.4669 47.3328 61.8295C46.2401 61.101 45.3295 60.8278 45.1473 61.3742C44.9652 61.9205 45.5116 62.1937 45.6026 62.5579C45.7848 63.1043 45.8758 63.4685 45.1473 63.7417C44.8742 63.8328 43.5993 63.4685 43.3261 64.106C43.053 64.7434 43.6904 65.2897 43.9636 65.4719C44.2367 65.654 44.3278 66.2914 44.0546 66.4735C43.7814 66.6556 43.053 66.3825 43.144 67.202C43.144 67.7483 43.9636 67.8394 44.0546 68.2036C44.3278 68.9321 43.8725 68.5679 43.6904 69.0232C43.5083 69.4785 43.9636 70.207 44.601 70.1159C45.3295 70.0248 46.4222 69.6606 47.697 70.7533C48.8808 71.846 51.2483 72.3924 52.7963 72.4834C54.3444 72.5745 60.1722 74.7599 64.2698 75.3063C68.3675 75.8526 76.5629 76.308 76.5629 76.308C76.5629 76.308 76.4718 75.9437 76.3808 75.0331L76.2897 73.8493Z" fill="#E897A3"/>
<path d="M114.717 53.9983C114.353 53.9072 113.897 53.634 113.442 53.3608C111.53 52.1771 109.253 49.9916 109.253 49.9916C109.253 49.9916 105.065 53.0877 103.061 53.9072C101.513 54.5446 97.6887 56.639 96.3228 57.4585C96.3228 57.4585 97.0513 57.3675 97.4155 57.7317C98.7814 59.2797 98.0529 62.74 97.0513 63.6506C96.8692 63.8327 96.6871 64.0148 96.4139 64.1059C95.4122 64.7433 93.8642 65.1075 92.2251 64.288C92.2251 64.288 92.1341 64.288 92.1341 64.1969C91.6788 64.0148 91.3145 63.6506 91.0414 63.2863C90.0397 62.1026 90.1308 60.7367 90.2218 60.3724C90.495 59.644 90.9503 59.2797 91.4056 58.9155C89.6755 59.4618 84.4851 61.4651 80.4785 62.4668C78.5662 62.9221 75.1059 63.5595 75.1059 63.5595C75.1059 63.5595 75.1059 63.7416 75.1059 64.0148C75.197 65.3807 75.3791 69.3873 75.5612 70.6622C75.7434 71.7549 76.1076 72.8476 76.2897 73.7582C76.3808 74.1224 76.3808 74.4867 76.3808 74.7598C76.3808 74.8509 76.3808 74.8509 76.3808 74.942L76.5629 76.2168C76.5629 76.2168 81.298 76.3079 82.2086 77.7648C83.0281 79.2218 82.6639 83.0463 81.5712 84.9585C80.4784 86.9618 79.2036 88.8741 79.2036 88.8741C79.2036 88.8741 95.8675 91.788 99.5099 92.1522C110.164 93.2449 113.351 90.5132 113.351 90.5132C113.351 90.5132 115.354 84.23 115.719 79.9502C116.083 75.6704 116.356 66.5645 116.356 66.5645C116.356 66.5645 117.904 64.0148 118.906 62.2847C119.907 60.5546 121 58.0049 121 58.0049C121 58.0049 116.538 54.5446 114.717 53.9983Z" fill="#3844E5"/>
<path d="M76.563 76.3079L76.3808 75.0331C76.3808 75.8526 76.563 76.3079 76.563 76.3079Z" fill="#E897A3"/>
<path d="M104.245 23.6756C103.152 25.2236 104.7 25.861 103.608 27.5001C102.879 28.5928 101.695 29.0481 99.9652 28.5928C98.235 28.1375 96.3228 28.6839 95.5943 30.5961C94.8658 32.5084 96.0496 32.9637 94.1373 34.6027C92.9536 35.6044 94.5926 36.8792 93.682 37.8809C92.7715 38.8825 92.134 38.2451 90.7681 39.7021C89.6754 40.8859 89.6754 42.616 90.7681 44.5282C91.4056 45.5299 91.6787 47.169 90.7681 47.7153C89.2201 48.717 90.7681 49.8097 90.7681 49.8097C90.7681 49.8097 91.0413 48.808 92.4072 48.2617C93.2267 47.9885 92.5893 46.6226 93.3178 46.4405C94.9569 46.1673 95.9585 47.6243 96.5049 45.8941C97.1423 44.164 95.3211 42.9802 97.4155 42.9802C99.5099 42.9802 100.056 43.7998 101.24 42.1607C102.424 40.5216 99.4188 38.2451 100.785 36.9703C102.06 35.6955 103.243 36.8792 105.064 37.1524C106.886 37.4256 107.705 36.8792 107.705 35.2402C107.705 33.6011 107.523 32.9637 108.798 32.6905C110.255 32.3263 111.53 30.6872 111.53 28.866C111.53 27.0448 111.53 25.6789 110.164 24.4951C108.707 23.2203 106.066 20.9438 104.245 23.6756Z" fill="#98A2F4"/>
<path d="M54.3444 145.24C53.6159 142.144 55.8013 138.684 55.8013 138.684C55.8013 138.684 59.3527 136.499 60.9007 134.677C60.9007 134.677 55.6192 135.497 54.7086 136.954C53.798 138.411 52.0679 141.507 50.9752 143.419C49.8825 145.331 46.5133 150.249 46.2401 151.706C45.9669 153.162 45.7848 153.891 47.5149 154.255C49.2451 154.619 51.5215 152.798 53.6159 151.068C55.7103 149.338 55.7103 149.338 55.7103 149.338L57.2583 147.972C56.8941 148.063 56.6209 148.154 56.4388 148.245C55.1639 148.427 55.0729 148.245 54.3444 145.24Z" fill="white"/>
<path d="M70.6441 101.622C69.7335 103.353 67.2749 108.179 67.2749 110.82C67.2749 114.098 68.7318 116.192 70.462 116.829C70.8262 117.012 72.101 117.376 73.9222 118.013C76.0166 116.374 78.0199 115.099 78.8394 114.007C79.8411 112.55 83.5745 107.632 84.7583 105.902C83.6656 105.72 82.8461 105.538 82.2087 105.447C78.9305 104.81 73.2848 102.624 70.6441 101.622Z" fill="#E897A3"/>
<path d="M108.798 107.086C99.2367 107.723 89.7665 106.722 84.7582 105.902C83.4834 107.541 79.841 112.55 78.8394 114.007C78.1109 115.099 76.0165 116.374 73.9221 118.013C72.6473 119.015 71.2814 120.199 70.2798 121.382C68.9139 123.021 67.0016 125.844 65.2715 128.485C67.639 132.947 68.9139 136.863 71.9188 140.414C76.4718 137.955 81.8443 135.041 84.2119 133.311C88.0364 130.488 91.1324 127.483 93.7731 124.843C93.9553 124.661 94.1374 124.478 94.3195 124.296C96.5049 122.202 100.967 117.831 103.608 114.735C104.427 113.824 105.065 113.005 105.429 112.459C107.068 109.909 108.798 107.086 108.798 107.086Z" fill="#E897A3"/>
<path d="M60.9918 134.586C59.3527 136.407 55.8924 138.593 55.8924 138.593C55.8924 138.593 53.707 142.144 54.4355 145.149C55.1639 148.154 55.255 148.336 56.4388 148.063C56.6209 148.063 56.8941 147.972 57.2583 147.79C58.9884 147.152 62.0845 145.422 64.2699 144.329C64.8163 144.056 65.909 143.51 67.1838 142.781C65.1805 139.503 64.1788 135.952 62.5398 132.401C61.9023 133.402 61.356 134.222 60.9918 134.586Z" fill="#9ECBE3"/>
<path d="M65.1804 128.485C64.1788 129.942 63.2682 131.308 62.5397 132.492C64.1788 136.043 65.1804 139.594 67.1837 142.872C68.5496 142.144 70.0976 141.324 71.8278 140.414C68.8228 136.954 67.639 132.947 65.1804 128.485Z" fill="white"/>
<path d="M104.882 115.373C104.609 115.282 104.154 115.099 103.608 114.917C100.876 118.013 96.505 122.384 94.3196 124.479C94.1375 124.661 93.9553 124.843 93.7732 125.025C94.2285 125.207 94.4106 125.48 94.5017 125.571C95.5033 126.391 95.9586 127.757 95.9586 127.757C96.0497 127.575 99.1457 124.205 100.238 122.475C102.151 119.379 104.882 115.373 104.882 115.373Z" fill="#9ECBE3"/>
<path d="M104.882 115.373C104.882 115.373 102.151 119.379 100.238 122.384C99.1456 124.114 96.0496 127.484 95.9586 127.666C95.9586 127.666 96.1407 128.394 95.3211 129.942C94.5016 131.49 93.7731 133.858 95.4122 133.676C98.3261 133.311 100.876 128.394 102.242 126.027C103.608 123.659 108.161 118.195 108.161 116.83C108.161 115.373 104.882 115.373 104.882 115.373Z" fill="white"/>
<path d="M86.7615 118.651C84.5761 119.926 81.2979 123.386 79.6589 125.844C78.0198 128.303 77.3824 131.126 78.4751 132.128C79.7499 133.311 82.4817 133.311 87.2168 128.485C91.6787 123.932 92.2251 121.565 91.4966 119.926C90.7681 118.286 89.1291 117.285 86.7615 118.651Z" fill="#FFA39C"/>
<path d="M80.9338 125.025C80.9338 125.025 81.207 127.757 83.8477 128.485C87.1258 129.305 89.0381 126.117 89.0381 126.117" stroke="white" stroke-width="0.227649" stroke-miterlimit="10"/>
<path d="M97.4156 57.8229C97.1424 57.4587 96.3228 57.5497 96.3228 57.5497C96.2318 57.3676 95.4122 56.3659 95.1391 56.0017C94.8659 55.7285 94.2285 54.7269 94.2285 54.7269C94.2285 54.7269 94.3195 53.9984 94.3195 53.1789C94.3195 52.8146 94.3195 52.3593 94.2285 51.904C94.0464 51.813 93.5911 51.7219 93.3179 51.6308C92.8626 51.4487 91.4967 51.1755 90.5861 51.3577C89.8576 51.4487 89.0381 52.1772 88.947 52.1772C88.856 52.6325 88.947 53.0878 89.0381 53.6342C89.2202 54.3626 89.7666 55.2732 90.1308 55.5464C91.0414 56.2749 91.6788 56.0017 91.6788 56.0017C91.6788 56.0017 92.043 57.0034 91.952 58.1871C91.952 58.5514 91.7699 58.8246 91.4967 59.0977C91.1324 59.462 90.5861 59.8262 90.3129 60.5547C90.2218 60.9189 90.0397 62.2848 91.1324 63.4686C91.4056 63.8328 91.7699 64.106 92.2252 64.3792C92.2252 64.3792 92.3162 64.3792 92.3162 64.4702C93.9553 65.2898 95.4122 64.9255 96.505 64.2881C96.7781 64.1971 96.9603 64.0149 97.1424 63.8328C98.053 62.8312 98.7815 59.2799 97.4156 57.8229Z" fill="#E897A3"/>
<path d="M93.591 50.0828C93.1357 49.4454 91.952 48.8991 90.6771 49.3544C90.6771 49.3544 90.0397 49.6275 89.4934 50.356C88.947 51.0845 88.8559 52.1772 88.8559 52.1772C88.947 52.0861 89.6755 51.4487 90.495 51.3577C91.4056 51.1755 92.7715 51.5398 93.2268 51.6308C93.5911 51.7219 93.9553 51.813 94.0463 51.904C94.1374 51.904 94.1374 51.904 94.1374 51.904C94.1374 51.904 94.0463 50.6292 93.591 50.0828Z" fill="#98A2F4"/>
<path d="M131.836 39.611L122.73 27.5001C124.824 25.2236 124.551 20.9438 121.911 17.5746C119.998 15.1159 117.358 13.5679 114.808 13.5679C113.624 13.5679 112.622 13.9322 111.712 14.5696C110.346 15.5712 109.618 17.3014 109.709 19.3957C109.8 21.308 110.528 23.4024 111.894 25.1325C113.806 27.5911 116.447 29.1391 118.997 29.1391C119.816 29.1391 120.545 28.957 121.273 28.5928L130.379 40.7037L131.836 39.611ZM113.351 23.9487C112.258 22.4918 111.621 20.7616 111.53 19.2136C111.439 17.7567 111.985 16.5729 112.896 15.9355C113.442 15.5712 114.079 15.2981 114.899 15.2981C116.811 15.2981 118.997 16.5729 120.545 18.5762C122.73 21.4901 122.912 25.1325 121 26.5895C120.454 26.9537 119.816 27.2269 118.997 27.2269C117.084 27.3179 114.899 26.0431 113.351 23.9487Z" fill="white"/>
<path d="M127.499 33.1138L125.314 34.7537L129.961 40.9442L132.146 39.3043L127.499 33.1138Z" fill="white"/>
<path d="M87.2169 11.2003L85.9421 18.1208L99.1457 21.3079L100.694 15.6622L87.2169 11.2003Z" fill="#F39684"/>
<path d="M129.651 99.1638L127.465 98.3443C127.465 98.3443 123.459 96.341 120.089 94.9751C117.54 93.9734 116.174 92.6075 116.174 92.6075C114.262 91.4238 113.351 90.5132 113.351 90.5132C113.351 90.5132 110.164 93.336 99.5099 92.1522C95.8676 91.788 79.2037 88.8741 79.2037 88.8741C79.2037 88.8741 77.3825 90.9685 76.0166 92.4254C74.9239 93.7002 68.2765 100.53 68.2765 100.53C68.2765 100.53 69.8245 101.167 70.7351 101.531C73.3758 102.533 79.0215 104.718 82.2086 105.356C82.846 105.447 83.6656 105.629 84.7583 105.811C89.7666 106.631 99.2368 107.632 108.798 106.995C111.348 106.813 113.897 106.54 116.356 106.084C122.73 104.901 132.2 100.165 132.2 100.165C132.2 100.165 131.108 99.8012 129.651 99.1638Z" fill="#E2603D"/>
<path d="M125.553 34.2386L124.187 32.3263C124.187 32.3263 124.551 31.2336 124.642 31.0515C124.733 30.8694 125.462 31.4157 125.826 30.9604C126.008 30.7783 126.281 30.4141 125.462 30.0498C124.733 29.6856 124.733 29.5945 124.46 29.4124C123.914 29.1392 123.459 29.5945 122.73 30.232C122.002 30.8694 122.184 33.2369 121.82 34.0565C121.82 34.1475 121.728 34.2386 121.637 34.3296C122.912 35.1492 124.46 35.3313 125.553 34.2386Z" fill="#E897A3"/>
<path d="M125.462 34.3296C124.46 35.1491 122.912 35.0581 121.728 34.2385C120.727 35.8776 115.992 43.1624 115.172 44.4372C114.262 45.8031 109.162 50.0829 109.162 50.0829C109.162 50.0829 110.346 51.1756 111.621 52.1773C111.894 52.4504 112.531 52.9057 113.351 53.361C113.806 53.6342 114.262 53.8163 114.626 53.9985C116.447 54.5448 120.818 58.1872 120.818 58.1872C120.818 58.1872 123.55 51.9041 124.46 49.8097C125.371 47.7153 128.558 38.5183 128.558 38.5183L125.462 34.3296Z" fill="#E897A3"/>
<path d="M126.464 30.6871C125.644 30.9602 125.644 30.9602 125.553 31.1424C125.462 31.3245 125.644 32.2351 125.098 32.6904C124.551 33.1457 124.096 33.9652 124.46 34.3294C124.916 34.8758 125.371 34.6026 125.371 34.6026C125.371 34.6026 125.098 35.24 125.189 35.7864C125.28 36.3328 126.008 36.5149 126.373 36.4238C126.737 36.3328 126.828 36.3328 126.828 36.3328C126.828 36.3328 126.099 37.4255 126.555 37.9718C127.01 38.5182 127.738 38.245 127.738 38.245C127.738 38.245 126.919 38.9735 127.556 39.4288C128.285 39.8841 129.377 39.4288 129.833 38.7003C130.288 38.0629 130.743 36.7881 130.47 36.4238C130.288 36.1506 129.924 36.0596 129.924 36.0596C129.924 36.0596 130.015 34.9669 129.651 34.6026C129.286 34.2384 128.831 34.1473 128.831 34.1473C128.831 34.1473 128.922 33.3278 128.558 32.8725C128.194 32.4172 127.647 32.2351 127.647 32.2351C127.647 32.2351 127.738 31.4155 127.465 31.0513C127.101 30.596 126.919 30.5049 126.464 30.6871Z" fill="#E897A3"/>
<path d="M124.642 33.1457C124.278 33.692 124.187 34.1473 124.369 34.3295C124.824 34.8758 125.28 34.6026 125.28 34.6026C125.28 34.6026 125.007 35.2401 125.098 35.7864C125.189 36.3328 125.917 36.5149 126.281 36.4238C126.646 36.3328 126.737 36.3328 126.737 36.3328C126.737 36.3328 126.008 37.4255 126.464 37.9718C126.919 38.5182 127.647 38.245 127.647 38.245C127.647 38.245 126.828 38.9735 127.465 39.4288C127.647 39.5199 127.829 39.6109 128.012 39.6109" stroke="#660000" stroke-width="0.227649" stroke-miterlimit="10" stroke-linejoin="round"/>
<path d="M122.548 36.697C122.548 36.697 123.641 36.7881 124.278 37.3344C124.916 37.8808 124.551 39.0646 125.462 39.793C126.099 40.2483 126.281 40.0662 126.281 40.0662" stroke="white" stroke-width="0.227649" stroke-miterlimit="10"/>
<mask id="mask0" mask-type="alpha" maskUnits="userSpaceOnUse" x="75" y="49" width="46" height="44">
<path d="M114.717 53.9983C114.353 53.9072 113.897 53.634 113.442 53.3608C111.53 52.1771 109.253 49.9916 109.253 49.9916C109.253 49.9916 105.065 53.0877 103.061 53.9072C101.513 54.5446 97.6887 56.639 96.3228 57.4585C96.3228 57.4585 97.0513 57.3675 97.4155 57.7317C98.7814 59.2797 98.0529 62.74 97.0513 63.6506C96.8692 63.8327 96.6871 64.0148 96.4139 64.1059C95.4122 64.7433 93.8642 65.1075 92.2251 64.288C92.2251 64.288 92.1341 64.288 92.1341 64.1969C91.6788 64.0148 91.3145 63.6506 91.0414 63.2863C90.0397 62.1026 90.1308 60.7367 90.2218 60.3724C90.495 59.644 90.9503 59.2797 91.4056 58.9155C89.6755 59.4618 84.4851 61.4651 80.4785 62.4668C78.5662 62.9221 75.1059 63.5595 75.1059 63.5595C75.1059 63.5595 75.1059 63.7416 75.1059 64.0148C75.197 65.3807 75.3791 69.3873 75.5612 70.6622C75.7434 71.7549 76.1076 72.8476 76.2897 73.7582C76.3808 74.1224 76.3808 74.4867 76.3808 74.7598C76.3808 74.8509 76.3808 74.8509 76.3808 74.942L76.5629 76.2168C76.5629 76.2168 81.298 76.3079 82.2086 77.7648C83.0281 79.2218 82.6639 83.0463 81.5712 84.9585C80.4784 86.9618 79.2036 88.8741 79.2036 88.8741C79.2036 88.8741 95.8675 91.788 99.5099 92.1522C110.164 93.2449 113.351 90.5132 113.351 90.5132C113.351 90.5132 115.354 84.23 115.719 79.9502C116.083 75.6704 116.356 66.5645 116.356 66.5645C116.356 66.5645 117.904 64.0148 118.906 62.2847C119.907 60.5546 121 58.0049 121 58.0049C121 58.0049 116.538 54.5446 114.717 53.9983Z" fill="#3844E5"/>
</mask>
<g mask="url(#mask0)">
<path d="M86.7622 30.3229L48.7903 90.058" stroke="#45A0D4" stroke-width="0.227649" stroke-miterlimit="10"/>
<path d="M93.1357 34.4205L55.1639 94.0646" stroke="#45A0D4" stroke-width="0.227649" stroke-miterlimit="10"/>
<path d="M99.5099 38.4272L61.538 98.1623" stroke="#45A0D4" stroke-width="0.227649" stroke-miterlimit="10"/>
<path d="M105.884 42.5249L67.9122 102.169" stroke="#45A0D4" stroke-width="0.227649" stroke-miterlimit="10"/>
<path d="M112.258 46.5316L74.2864 106.267" stroke="#45A0D4" stroke-width="0.227649" stroke-miterlimit="10"/>
<path d="M118.632 50.538L80.6605 110.273" stroke="#45A0D4" stroke-width="0.227649" stroke-miterlimit="10"/>
<path d="M125.007 54.6359L87.0347 114.28" stroke="#45A0D4" stroke-width="0.227649" stroke-miterlimit="10"/>
<path d="M131.381 58.6425L93.4089 118.378" stroke="#45A0D4" stroke-width="0.227649" stroke-miterlimit="10"/>
<path d="M137.755 62.7401L99.783 122.384" stroke="#45A0D4" stroke-width="0.227649" stroke-miterlimit="10"/>
<path d="M144.129 66.7468L106.157 126.482" stroke="#45A0D4" stroke-width="0.227649" stroke-miterlimit="10"/>
<path d="M48.7897 88.328L108.434 126.3" stroke="#45A0D4" stroke-width="0.227649" stroke-miterlimit="10"/>
<path d="M52.7963 81.9538L112.531 119.926" stroke="#45A0D4" stroke-width="0.227649" stroke-miterlimit="10"/>
<path d="M56.894 75.5796L116.538 113.551" stroke="#45A0D4" stroke-width="0.227649" stroke-miterlimit="10"/>
<path d="M60.9007 69.2054L120.636 107.177" stroke="#45A0D4" stroke-width="0.227649" stroke-miterlimit="10"/>
<path d="M64.9072 62.8313L124.642 100.803" stroke="#45A0D4" stroke-width="0.227649" stroke-miterlimit="10"/>
<path d="M69.0049 56.4571L128.649 94.4289" stroke="#45A0D4" stroke-width="0.227649" stroke-miterlimit="10"/>
<path d="M73.0115 50.0829L132.747 88.0547" stroke="#45A0D4" stroke-width="0.227649" stroke-miterlimit="10"/>
<path d="M77.1092 43.7088L136.753 81.6806" stroke="#45A0D4" stroke-width="0.227649" stroke-miterlimit="10"/>
<path d="M81.1159 37.3345L140.851 75.3064" stroke="#45A0D4" stroke-width="0.227649" stroke-miterlimit="10"/>
<path d="M85.2136 30.9604L144.858 68.9322" stroke="#45A0D4" stroke-width="0.227649" stroke-miterlimit="10"/>
</g>
<path d="M87.2168 11.2003L93.3178 17.6655L100.694 15.6622" stroke="#660000" stroke-width="0.227649" stroke-miterlimit="10" stroke-linejoin="round"/>
<path d="M85.9421 18.1209L91.8609 16.1176" stroke="#660000" stroke-width="0.227649" stroke-miterlimit="10" stroke-linejoin="round"/>
<path d="M95.4122 17.1194L99.1456 21.3081" stroke="#660000" stroke-width="0.227649" stroke-miterlimit="10" stroke-linejoin="round"/>
<path d="M87.8543 68.1127C87.8543 68.1127 85.76 67.4753 85.3047 68.568C84.8494 69.6607 85.3957 70.6623 86.5795 71.2087C87.7633 71.755 89.1292 71.7551 89.1292 71.7551" stroke="white" stroke-width="0.227649" stroke-miterlimit="10"/>
<path d="M108.98 62.558C108.98 62.558 110.892 62.3759 111.621 63.0133C112.349 63.6507 112.531 64.4703 111.894 65.3809C111.257 66.2915 110.164 66.7468 110.164 66.7468" stroke="white" stroke-width="0.227649" stroke-miterlimit="10"/>
<path d="M92.8625 55C92.8625 55 92.6804 55.4553 92.3162 55.7285C91.9519 56.0017 91.5877 56.0927 91.5877 56.0927" stroke="white" stroke-width="0.227649" stroke-miterlimit="10"/>
<path d="M49.245 66.3824C49.245 66.3824 49.7914 68.0215 50.793 68.5679C51.7947 69.1142 52.25 69.0232 52.25 69.0232" stroke="#660000" stroke-width="0.227649" stroke-miterlimit="10" stroke-linejoin="round"/>
<path d="M66.091 127.575L58.8063 133.129" stroke="#45A0D4" stroke-width="0.227649" stroke-miterlimit="10"/>
<path d="M67.0016 128.758L59.7169 134.313" stroke="#45A0D4" stroke-width="0.227649" stroke-miterlimit="10"/>
<path d="M67.9123 129.942L60.6275 135.497" stroke="#45A0D4" stroke-width="0.227649" stroke-miterlimit="10"/>
<path d="M68.8228 131.126L61.538 136.681" stroke="#45A0D4" stroke-width="0.227649" stroke-miterlimit="10"/>
<path d="M69.7334 132.31L62.4486 137.864" stroke="#45A0D4" stroke-width="0.227649" stroke-miterlimit="10"/>
<path d="M70.644 133.494L63.3593 139.048" stroke="#45A0D4" stroke-width="0.227649" stroke-miterlimit="10"/>
<path d="M71.5546 134.677L64.2699 140.232" stroke="#45A0D4" stroke-width="0.227649" stroke-miterlimit="10"/>
<path d="M72.4652 135.861L65.1805 141.415" stroke="#45A0D4" stroke-width="0.227649" stroke-miterlimit="10"/>
<path d="M73.3758 137.045L66.091 142.599" stroke="#45A0D4" stroke-width="0.227649" stroke-miterlimit="10"/>
<path d="M74.2864 138.228L67.0017 143.783" stroke="#45A0D4" stroke-width="0.227649" stroke-miterlimit="10"/>
<mask id="mask1" mask-type="alpha" maskUnits="userSpaceOnUse" x="109" y="13" width="23" height="28">
<path d="M131.836 39.611L122.73 27.5001C124.824 25.2236 124.551 20.9438 121.911 17.5746C119.998 15.1159 117.358 13.5679 114.808 13.5679C113.624 13.5679 112.622 13.9322 111.712 14.5696C110.346 15.5712 109.618 17.3014 109.709 19.3957C109.8 21.308 110.528 23.4024 111.894 25.1325C113.806 27.5911 116.447 29.1391 118.997 29.1391C119.816 29.1391 120.545 28.957 121.273 28.5928L130.379 40.7037L131.836 39.611ZM113.351 23.9487C112.258 22.4918 111.621 20.7616 111.53 19.2136C111.439 17.7567 111.985 16.5729 112.896 15.9355C113.442 15.5712 114.079 15.2981 114.899 15.2981C116.811 15.2981 118.997 16.5729 120.545 18.5762C122.73 21.4901 122.912 25.1325 121 26.5895C120.454 26.9537 119.816 27.2269 118.997 27.2269C117.084 27.3179 114.899 26.0431 113.351 23.9487Z" fill="white"/>
</mask>
<g mask="url(#mask1)">
<path d="M101.058 15.4804H132.656" stroke="white" stroke-width="0.227649" stroke-miterlimit="10"/>
<path d="M101.058 17.7567H132.656" stroke="white" stroke-width="0.227649" stroke-miterlimit="10"/>
<path d="M101.058 19.9421H132.656" stroke="white" stroke-width="0.227649" stroke-miterlimit="10"/>
<path d="M101.058 22.2186H132.656" stroke="white" stroke-width="0.227649" stroke-miterlimit="10"/>
<path d="M101.058 24.4951H132.656" stroke="white" stroke-width="0.227649" stroke-miterlimit="10"/>
<path d="M101.058 26.7716H132.656" stroke="white" stroke-width="0.227649" stroke-miterlimit="10"/>
<path d="M101.058 28.9571H132.656" stroke="white" stroke-width="0.227649" stroke-miterlimit="10"/>
<path d="M101.058 31.2334H132.656" stroke="white" stroke-width="0.227649" stroke-miterlimit="10"/>
<path d="M110.801 36.8793V5.28162" stroke="white" stroke-width="0.227649" stroke-miterlimit="10"/>
<path d="M113.078 36.8793V5.28162" stroke="white" stroke-width="0.227649" stroke-miterlimit="10"/>
<path d="M115.354 36.8793V5.28162" stroke="white" stroke-width="0.227649" stroke-miterlimit="10"/>
<path d="M117.54 36.8793V5.28162" stroke="white" stroke-width="0.227649" stroke-miterlimit="10"/>
<path d="M119.816 36.8793V5.28162" stroke="white" stroke-width="0.227649" stroke-miterlimit="10"/>
<path d="M122.093 36.8793V5.28162" stroke="white" stroke-width="0.227649" stroke-miterlimit="10"/>
<path d="M124.369 36.8793V5.28162" stroke="white" stroke-width="0.227649" stroke-miterlimit="10"/>
<path d="M126.555 36.8793V5.28162" stroke="white" stroke-width="0.227649" stroke-miterlimit="10"/>
</g>
<path d="M52.6142 147.517L55.8013 151.25" stroke="#45A0D4" stroke-width="0.227649" stroke-miterlimit="10"/>
<path d="M51.6125 148.609L54.7996 152.161" stroke="#45A0D4" stroke-width="0.227649" stroke-miterlimit="10"/>
<path d="M50.9752 149.611L53.8891 152.98" stroke="#45A0D4" stroke-width="0.227649" stroke-miterlimit="10"/>
<path d="M95.3212 128.394H98.4172" stroke="#45A0D4" stroke-width="0.227649" stroke-miterlimit="10"/>
<path d="M94.9569 129.305H97.8708" stroke="#45A0D4" stroke-width="0.227649" stroke-miterlimit="10"/>
<path d="M94.4106 130.215H97.4155" stroke="#45A0D4" stroke-width="0.227649" stroke-miterlimit="10"/>
<path d="M139.914 102.016C140.834 101.087 141.058 99.8173 140.414 99.1805C139.771 98.5438 138.504 98.781 137.584 99.7105C136.664 100.64 136.44 101.909 137.084 102.546C137.727 103.183 138.994 102.946 139.914 102.016Z" stroke="#660000" stroke-width="0.227649" stroke-miterlimit="10" stroke-linejoin="round"/>
<path d="M113.26 106.722C114.171 106.54 115.081 106.358 116.356 106.176C122.73 104.992 132.2 100.257 132.2 100.257C132.2 100.257 131.108 99.8014 129.742 99.164" stroke="#660000" stroke-width="0.227649" stroke-miterlimit="10" stroke-linejoin="round"/>
<path d="M117.813 93.9735C118.086 94.0646 122.093 95.9768 127.556 98.3444" stroke="#660000" stroke-width="0.227649" stroke-miterlimit="10" stroke-linejoin="round"/>
<path d="M109.253 107.632C109.253 107.632 105.247 115.463 94.6838 124.934C94.5017 125.116 94.3195 125.298 94.1374 125.48C91.4056 128.121 88.4007 131.217 84.5762 133.948C82.2086 135.679 76.9272 138.592 72.2831 141.051C72.2831 141.051 64.7252 145.513 63.0861 146.241" stroke="#660000" stroke-width="0.227649" stroke-miterlimit="10" stroke-linejoin="round"/>
<path d="M84.6672 107.268C83.1192 109.363 80.2053 113.278 79.2947 114.553C78.5662 115.646 76.4718 116.92 74.3774 118.56C73.1026 119.561 71.7367 120.745 70.7351 121.929C70.0066 122.839 69.096 124.114 68.0943 125.48" stroke="#660000" stroke-width="0.227649" stroke-miterlimit="10" stroke-linejoin="round"/>
<path d="M105.884 114.826C105.884 114.826 108.98 115.099 108.98 116.465C108.98 117.831 104.427 123.295 103.061 125.662C101.695 128.03 99.1457 132.947 96.2318 133.311C94.5927 133.493 95.3212 131.217 96.1407 129.578C96.9603 127.939 96.7781 127.301 96.7781 127.301" stroke="#660000" stroke-width="0.227649" stroke-miterlimit="10" stroke-linejoin="round"/>
<path d="M59.3526 135.406C59.3526 135.406 56.4387 135.952 55.6192 136.954C54.5265 138.32 52.7053 142.053 51.6126 143.965C50.5199 145.878 47.3328 150.431 46.8775 151.887C46.5132 152.889 46.5132 154.346 48.2434 154.71C49.9735 155.075 52.25 153.344 54.3444 151.705C56.4387 150.066 57.8046 148.518 57.8046 148.518" stroke="#660000" stroke-width="0.227649" stroke-miterlimit="10" stroke-linejoin="round"/>
<path d="M81.2069 0.0911255C91.3145 4.09775 100.785 8.46861 109.253 13.2037" stroke="#660000" stroke-width="0.227649" stroke-miterlimit="10" stroke-linejoin="round"/>
<path d="M123.459 109.545C122.639 109.909 121.728 110.182 120.818 110.546" stroke="#660000" stroke-width="0.227649" stroke-miterlimit="10" stroke-linejoin="round"/>
<path d="M134.932 104.172C132.018 105.811 128.74 107.359 125.371 108.816" stroke="#660000" stroke-width="0.227649" stroke-miterlimit="10" stroke-linejoin="round"/>
<path d="M144.676 101.622C137.391 107.177 128.012 111.821 116.993 115.464" stroke="#660000" stroke-width="0.227649" stroke-miterlimit="10" stroke-linejoin="round"/>
<path d="M116.811 88.9652C117.084 87.8724 117.358 86.6887 117.631 85.4138M118.359 81.4983C118.723 77.2185 118.997 68.1125 118.997 68.1125C118.997 68.1125 120.454 65.5628 121.546 63.8327C124.187 59.2797 128.922 46.8956 129.742 44.437L118.359 81.4983Z" stroke="#660000" stroke-width="0.227649" stroke-miterlimit="10" stroke-linejoin="round"/>
<path d="M124.642 65.1076C126.19 62.3758 128.558 56.7301 130.379 52.1771" stroke="#660000" stroke-width="0.227649" stroke-miterlimit="10" stroke-linejoin="round"/>
<path d="M69.9155 102.26C69.005 103.99 66.5463 108.816 66.5463 111.457C66.5463 114.735 68.0033 116.829 69.7334 117.467C70.0977 117.649 71.3725 118.013 73.1937 118.651" stroke="#660000" stroke-width="0.227649" stroke-miterlimit="10" stroke-linejoin="round"/>
<path d="M82.9371 4.7351L87.308 8.83278L89.4934 4.64404L82.9371 4.7351Z" fill="#D63C30"/>
<path d="M90.3128 8.10441L86.2152 6.5564" stroke="#660000" stroke-width="0.227649" stroke-miterlimit="10" stroke-linejoin="round"/>
<path d="M92.4073 7.28476L87.49 5.64569" stroke="#660000" stroke-width="0.227649" stroke-miterlimit="10" stroke-linejoin="round"/>
<path d="M143.765 98.8909L146.588 101.623L149.684 96.4323L143.765 98.8909Z" fill="#45A0D4"/>
<path d="M74.1042 77.8561C74.1042 77.8561 78.8393 78.0382 79.6589 79.4952" stroke="#660000" stroke-width="0.227649" stroke-miterlimit="10" stroke-linejoin="round"/>
<path d="M61.7201 76.8543C65.8178 77.5828 74.1042 77.856 74.1042 77.856" stroke="#660000" stroke-width="0.227649" stroke-miterlimit="10" stroke-linejoin="round"/>
<path d="M102.97 17.6655C106.795 18.394 116.902 22.1275 116.902 22.1275C111.894 19.0314 106.522 16.0265 100.694 13.2036" stroke="#660000" stroke-width="0.227649" stroke-miterlimit="10" stroke-linejoin="round"/>
<path d="M114.262 91.1507L117.904 94.0646" stroke="#660000" stroke-width="0.227649" stroke-miterlimit="10" stroke-linejoin="round"/>
<path d="M84.2119 81.7715C84.2119 81.7715 83.3924 86.7798 80.3874 90.3311C77.3824 93.8824 75.197 96.25 75.197 96.25" stroke="#660000" stroke-width="0.227649" stroke-miterlimit="10" stroke-linejoin="round"/>
</g>
<defs>
<clipPath id="clip0">
<rect width="139.139" height="161.084" fill="white" transform="translate(11)"/>
</clipPath>
</defs>
</svg>
