<svg width="175" height="167" viewBox="0 0 175 167" fill="none" xmlns="http://www.w3.org/2000/svg">
<path d="M53.3651 31.4264C38.2232 38.8471 27.953 47.964 30.1914 71.8162C32.4298 95.6684 -3.64754 99.5907 0.302524 118.46C4.25259 137.33 70.8771 171.571 129.075 137.542C187.272 103.513 145.533 53.6885 129.075 40.9673C112.616 28.2462 62.977 26.762 53.3651 31.4264Z" fill="#FBD0D9"/>
<g clip-path="url(#clip0)">
<path d="M143.027 143.568C142.41 142.704 141.423 143.568 141.423 143.568C141.423 143.568 123.029 135.297 128.831 98.7572L113.894 94.4366L106.611 92.4614L105.87 92.2145L102.537 91.3504L102.413 91.4738C102.413 91.4738 95.377 103.078 87.2295 113.324C77.971 124.804 77.8475 140.235 77.8475 140.235C77.8475 140.235 75.3786 139.124 74.391 140.482C73.4035 141.963 74.391 143.321 74.391 143.321L95.0066 153.691C95.0066 153.691 96.7349 151.839 96.488 150.975C96.2411 150.111 96.1176 148.876 96.1176 148.876C96.1176 148.876 100.315 137.149 102.537 134.927C102.907 134.557 103.648 133.693 104.635 132.335C108.833 141.963 121.301 152.456 121.301 152.456C121.301 152.456 120.19 152.703 119.943 154.308C119.696 155.913 121.424 156.036 121.424 156.036L143.398 144.803C143.274 144.803 143.645 144.556 143.027 143.568Z" fill="#9AF4DC"/>
<path d="M131.053 53.2057C130.559 50.3664 123.523 51.1071 123.523 51.1071C123.523 51.1071 110.931 58.8842 104.759 83.2032C104.265 85.3018 103.278 88.7583 102.784 90.4865C102.66 90.9803 102.537 91.3507 102.537 91.3507L105.87 92.2148L129.448 98.7575C129.448 98.7575 133.645 68.0193 131.053 53.2057Z" fill="#9AF4DC"/>
<path d="M117.597 159.863C117.721 159.987 117.968 160.11 118.215 160.11C118.585 160.11 118.955 160.11 119.943 159.616C122.288 158.505 143.892 147.642 144.385 147.395C144.385 147.272 144.385 147.025 144.262 146.531C143.892 145.667 142.781 144.926 142.781 144.926L122.288 155.543C122.288 155.543 121.918 155.666 120.56 155.789C119.202 155.913 117.227 157.518 117.227 159.246C117.227 159.493 117.351 159.74 117.597 159.863Z" fill="#E2603D"/>
<path d="M144.879 147.889C144.756 147.766 144.385 147.519 144.385 147.519C143.892 147.766 122.412 158.629 119.943 159.74C118.955 160.234 118.462 160.234 118.215 160.234C117.721 160.234 117.597 159.987 117.597 159.987C117.597 159.987 117.844 160.357 118.091 160.975C118.585 161.962 119.326 162.086 119.696 161.839C126.732 158.629 142.163 151.346 145.373 149.741C145.867 149.371 145.126 148.26 144.879 147.889Z" fill="#F49684"/>
<path d="M95.0067 153.691L93.6487 155.913L68.2187 143.815C68.2187 143.815 66.8608 142.334 70.1939 142.334C73.5269 142.334 75.6255 144.062 75.6255 144.062L95.0067 153.691Z" fill="#E2603D"/>
<mask id="mask0" mask-type="alpha" maskUnits="userSpaceOnUse" x="74" y="91" width="70" height="66">
<path d="M143.219 143.568C142.602 142.704 141.615 143.568 141.615 143.568C141.615 143.568 123.221 135.297 129.023 98.7571L114.086 94.4365L106.803 92.4614L106.062 92.2145L102.729 91.3503L102.605 91.4738C102.605 91.4738 95.569 103.078 87.4215 113.324C78.163 124.804 78.0396 140.235 78.0396 140.235C78.0396 140.235 75.5707 139.124 74.5831 140.482C73.5955 141.963 74.5831 143.321 74.5831 143.321L95.1987 153.691C95.1987 153.691 96.9269 151.839 96.68 150.975C96.4331 150.111 96.3097 148.876 96.3097 148.876C96.3097 148.876 100.507 137.149 102.729 134.927C103.099 134.557 103.84 133.693 104.828 132.335C109.025 141.963 121.493 152.456 121.493 152.456C121.493 152.456 120.382 152.703 120.135 154.308C119.888 155.913 121.616 156.036 121.616 156.036L143.59 144.803C143.466 144.803 143.837 144.556 143.219 143.568Z" fill="#9AF4DC"/>
</mask>
<g mask="url(#mask0)">
<path d="M72.6628 135.297L73.7738 138.877" stroke="white" stroke-width="1.1662" stroke-miterlimit="10"/>
<path d="M75.3787 143.691L76.6132 147.271" stroke="white" stroke-width="1.1662" stroke-miterlimit="10"/>
<path d="M78.218 152.209L79.4524 155.789" stroke="white" stroke-width="1.1662" stroke-miterlimit="10"/>
<path d="M73.8973 130.236L75.1318 133.816" stroke="white" stroke-width="1.1662" stroke-miterlimit="10"/>
<path d="M76.7366 138.754L77.9711 142.334" stroke="white" stroke-width="1.1662" stroke-miterlimit="10"/>
<path d="M79.5759 147.272L80.6869 150.851" stroke="white" stroke-width="1.1662" stroke-miterlimit="10"/>
<path d="M82.4151 155.666L83.5262 159.246" stroke="white" stroke-width="1.1662" stroke-miterlimit="10"/>
<path d="M73.4036 116.163L74.638 119.743" stroke="white" stroke-width="1.1662" stroke-miterlimit="10"/>
<path d="M76.2428 124.681L77.3538 128.261" stroke="white" stroke-width="1.1662" stroke-miterlimit="10"/>
<path d="M78.9586 133.075L80.1931 136.655" stroke="white" stroke-width="1.1662" stroke-miterlimit="10"/>
<path d="M81.7979 141.593L83.0324 145.173" stroke="white" stroke-width="1.1662" stroke-miterlimit="10"/>
<path d="M84.6372 150.111L85.8716 153.691" stroke="white" stroke-width="1.1662" stroke-miterlimit="10"/>
<path d="M74.7614 111.225L75.8724 114.805" stroke="white" stroke-width="1.1662" stroke-miterlimit="10"/>
<path d="M77.4773 119.619L78.7117 123.199" stroke="white" stroke-width="1.1662" stroke-miterlimit="10"/>
<path d="M80.3165 128.138L81.551 131.718" stroke="white" stroke-width="1.1662" stroke-miterlimit="10"/>
<path d="M83.1558 136.655L84.2668 140.235" stroke="white" stroke-width="1.1662" stroke-miterlimit="10"/>
<path d="M85.9951 145.173L87.1061 148.753" stroke="white" stroke-width="1.1662" stroke-miterlimit="10"/>
<path d="M88.7109 153.567L89.9453 157.147" stroke="white" stroke-width="1.1662" stroke-miterlimit="10"/>
<path d="M74.1442 97.0289L75.3787 100.609" stroke="white" stroke-width="1.1662" stroke-miterlimit="10"/>
<path d="M76.9835 105.547L78.2179 109.127" stroke="white" stroke-width="1.1662" stroke-miterlimit="10"/>
<path d="M79.8228 114.065L80.9338 117.644" stroke="white" stroke-width="1.1662" stroke-miterlimit="10"/>
<path d="M82.5386 122.582L83.7731 126.162" stroke="white" stroke-width="1.1662" stroke-miterlimit="10"/>
<path d="M85.3779 130.977L86.6124 134.557" stroke="white" stroke-width="1.1662" stroke-miterlimit="10"/>
<path d="M88.2172 139.495L89.4516 143.075" stroke="white" stroke-width="1.1662" stroke-miterlimit="10"/>
<path d="M91.0564 148.012L92.1674 151.592" stroke="white" stroke-width="1.1662" stroke-miterlimit="10"/>
<path d="M75.5021 92.0908L76.6132 95.6707" stroke="white" stroke-width="1.1662" stroke-miterlimit="10"/>
<path d="M78.3414 100.609L79.4524 104.189" stroke="white" stroke-width="1.1662" stroke-miterlimit="10"/>
<path d="M81.0573 109.003L82.2917 112.583" stroke="white" stroke-width="1.1662" stroke-miterlimit="10"/>
<path d="M83.8965 117.521L85.131 121.101" stroke="white" stroke-width="1.1662" stroke-miterlimit="10"/>
<path d="M86.7358 126.039L87.8468 129.619" stroke="white" stroke-width="1.1662" stroke-miterlimit="10"/>
<path d="M89.575 134.556L90.6861 138.136" stroke="white" stroke-width="1.1662" stroke-miterlimit="10"/>
<path d="M92.2908 142.951L93.5253 146.531" stroke="white" stroke-width="1.1662" stroke-miterlimit="10"/>
<path d="M95.1301 151.469L96.3646 155.049" stroke="white" stroke-width="1.1662" stroke-miterlimit="10"/>
<path d="M80.5634 94.9301L81.6744 98.51" stroke="white" stroke-width="1.1662" stroke-miterlimit="10"/>
<path d="M83.4026 103.448L84.5137 107.028" stroke="white" stroke-width="1.1662" stroke-miterlimit="10"/>
<path d="M86.1185 111.966L87.353 115.546" stroke="white" stroke-width="1.1662" stroke-miterlimit="10"/>
<path d="M88.9578 120.36L90.1922 123.94" stroke="white" stroke-width="1.1662" stroke-miterlimit="10"/>
<path d="M91.797 128.878L93.0315 132.458" stroke="white" stroke-width="1.1662" stroke-miterlimit="10"/>
<path d="M94.6364 137.396L95.7474 140.976" stroke="white" stroke-width="1.1662" stroke-miterlimit="10"/>
<path d="M97.3521 145.914L98.5866 149.493" stroke="white" stroke-width="1.1662" stroke-miterlimit="10"/>
<path d="M100.191 154.308L101.426 157.888" stroke="white" stroke-width="1.1662" stroke-miterlimit="10"/>
<path d="M81.9213 89.9924L83.0323 93.5724" stroke="white" stroke-width="1.1662" stroke-miterlimit="10"/>
<path d="M84.6372 98.5101L85.8716 102.09" stroke="white" stroke-width="1.1662" stroke-miterlimit="10"/>
<path d="M87.4764 106.905L88.7109 110.485" stroke="white" stroke-width="1.1662" stroke-miterlimit="10"/>
<path d="M90.3157 115.423L91.4268 119.003" stroke="white" stroke-width="1.1662" stroke-miterlimit="10"/>
<path d="M93.155 123.94L94.266 127.52" stroke="white" stroke-width="1.1662" stroke-miterlimit="10"/>
<path d="M95.8708 132.458L97.1053 136.038" stroke="white" stroke-width="1.1662" stroke-miterlimit="10"/>
<path d="M98.7101 140.852L99.9446 144.432" stroke="white" stroke-width="1.1662" stroke-miterlimit="10"/>
<path d="M101.549 149.37L102.66 152.95" stroke="white" stroke-width="1.1662" stroke-miterlimit="10"/>
<path d="M86.9827 92.8317L88.0937 96.4116" stroke="white" stroke-width="1.1662" stroke-miterlimit="10"/>
<path d="M89.6985 101.349L90.933 104.929" stroke="white" stroke-width="1.1662" stroke-miterlimit="10"/>
<path d="M92.5378 109.867L93.7722 113.447" stroke="white" stroke-width="1.1662" stroke-miterlimit="10"/>
<path d="M95.3771 118.262L96.4881 121.842" stroke="white" stroke-width="1.1662" stroke-miterlimit="10"/>
<path d="M98.2163 126.78L99.3273 130.36" stroke="white" stroke-width="1.1662" stroke-miterlimit="10"/>
<path d="M100.932 135.297L102.167 138.877" stroke="white" stroke-width="1.1662" stroke-miterlimit="10"/>
<path d="M103.771 143.815L105.006 147.395" stroke="white" stroke-width="1.1662" stroke-miterlimit="10"/>
<path d="M106.611 152.209L107.845 155.789" stroke="white" stroke-width="1.1662" stroke-miterlimit="10"/>
<path d="M88.2172 87.8935L89.4516 91.4735" stroke="white" stroke-width="1.1662" stroke-miterlimit="10"/>
<path d="M91.0564 96.288L92.2909 99.868" stroke="white" stroke-width="1.1662" stroke-miterlimit="10"/>
<path d="M93.8957 104.806L95.0067 108.386" stroke="white" stroke-width="1.1662" stroke-miterlimit="10"/>
<path d="M96.735 113.324L97.846 116.904" stroke="white" stroke-width="1.1662" stroke-miterlimit="10"/>
<path d="M99.4507 121.841L100.685 125.421" stroke="white" stroke-width="1.1662" stroke-miterlimit="10"/>
<path d="M102.29 130.236L103.524 133.816" stroke="white" stroke-width="1.1662" stroke-miterlimit="10"/>
<path d="M105.129 138.754L106.24 142.334" stroke="white" stroke-width="1.1662" stroke-miterlimit="10"/>
<path d="M107.969 147.272L109.08 150.851" stroke="white" stroke-width="1.1662" stroke-miterlimit="10"/>
<path d="M110.684 155.789L111.919 159.369" stroke="white" stroke-width="1.1662" stroke-miterlimit="10"/>
<path d="M93.2784 90.7327L94.5129 94.3127" stroke="white" stroke-width="1.1662" stroke-miterlimit="10"/>
<path d="M96.1177 99.251L97.3521 102.831" stroke="white" stroke-width="1.1662" stroke-miterlimit="10"/>
<path d="M98.957 107.645L100.068 111.225" stroke="white" stroke-width="1.1662" stroke-miterlimit="10"/>
<path d="M101.796 116.163L102.907 119.743" stroke="white" stroke-width="1.1662" stroke-miterlimit="10"/>
<path d="M104.512 124.681L105.747 128.261" stroke="white" stroke-width="1.1662" stroke-miterlimit="10"/>
<path d="M107.351 133.198L108.586 136.778" stroke="white" stroke-width="1.1662" stroke-miterlimit="10"/>
<path d="M110.191 141.593L111.302 145.173" stroke="white" stroke-width="1.1662" stroke-miterlimit="10"/>
<path d="M113.03 150.111L114.141 153.691" stroke="white" stroke-width="1.1662" stroke-miterlimit="10"/>
<path d="M97.4756 94.1897L98.5866 97.7696" stroke="white" stroke-width="1.1662" stroke-miterlimit="10"/>
<path d="M100.191 102.708L101.426 106.287" stroke="white" stroke-width="1.1662" stroke-miterlimit="10"/>
<path d="M103.031 111.225L104.265 114.805" stroke="white" stroke-width="1.1662" stroke-miterlimit="10"/>
<path d="M105.87 119.743L107.104 123.323" stroke="white" stroke-width="1.1662" stroke-miterlimit="10"/>
<path d="M108.709 128.138L109.82 131.718" stroke="white" stroke-width="1.1662" stroke-miterlimit="10"/>
<path d="M111.549 136.655L112.66 140.235" stroke="white" stroke-width="1.1662" stroke-miterlimit="10"/>
<path d="M114.264 145.173L115.499 148.753" stroke="white" stroke-width="1.1662" stroke-miterlimit="10"/>
<path d="M117.104 153.691L118.338 157.271" stroke="white" stroke-width="1.1662" stroke-miterlimit="10"/>
<path d="M99.6977 88.6344L100.932 92.2143" stroke="white" stroke-width="1.1662" stroke-miterlimit="10"/>
<path d="M102.537 97.1521L103.648 100.732" stroke="white" stroke-width="1.1662" stroke-miterlimit="10"/>
<path d="M105.376 105.547L106.487 109.127" stroke="white" stroke-width="1.1662" stroke-miterlimit="10"/>
<path d="M108.092 114.065L109.326 117.644" stroke="white" stroke-width="1.1662" stroke-miterlimit="10"/>
<path d="M110.931 122.582L112.166 126.162" stroke="white" stroke-width="1.1662" stroke-miterlimit="10"/>
<path d="M113.771 131.1L114.882 134.68" stroke="white" stroke-width="1.1662" stroke-miterlimit="10"/>
<path d="M116.61 139.495L117.721 143.075" stroke="white" stroke-width="1.1662" stroke-miterlimit="10"/>
<path d="M119.326 148.012L120.56 151.592" stroke="white" stroke-width="1.1662" stroke-miterlimit="10"/>
<path d="M103.771 92.0908L105.006 95.6707" stroke="white" stroke-width="1.1662" stroke-miterlimit="10"/>
<path d="M106.611 100.609L107.845 104.189" stroke="white" stroke-width="1.1662" stroke-miterlimit="10"/>
<path d="M109.45 109.126L110.684 112.706" stroke="white" stroke-width="1.1662" stroke-miterlimit="10"/>
<path d="M112.289 117.521L113.4 121.101" stroke="white" stroke-width="1.1662" stroke-miterlimit="10"/>
<path d="M115.005 126.039L116.24 129.619" stroke="white" stroke-width="1.1662" stroke-miterlimit="10"/>
<path d="M117.844 134.556L119.079 138.136" stroke="white" stroke-width="1.1662" stroke-miterlimit="10"/>
<path d="M120.684 143.074L121.918 146.654" stroke="white" stroke-width="1.1662" stroke-miterlimit="10"/>
<path d="M123.523 151.469L124.634 155.049" stroke="white" stroke-width="1.1662" stroke-miterlimit="10"/>
<path d="M108.956 94.9301L110.067 98.51" stroke="white" stroke-width="1.1662" stroke-miterlimit="10"/>
<path d="M111.672 103.448L112.906 107.028" stroke="white" stroke-width="1.1662" stroke-miterlimit="10"/>
<path d="M114.511 111.966L115.746 115.546" stroke="white" stroke-width="1.1662" stroke-miterlimit="10"/>
<path d="M117.351 120.483L118.462 124.063" stroke="white" stroke-width="1.1662" stroke-miterlimit="10"/>
<path d="M120.19 128.878L121.301 132.458" stroke="white" stroke-width="1.1662" stroke-miterlimit="10"/>
<path d="M122.906 137.396L124.14 140.976" stroke="white" stroke-width="1.1662" stroke-miterlimit="10"/>
<path d="M125.745 145.914L126.979 149.493" stroke="white" stroke-width="1.1662" stroke-miterlimit="10"/>
<path d="M128.584 154.431L129.695 158.011" stroke="white" stroke-width="1.1662" stroke-miterlimit="10"/>
<path d="M110.191 89.9924L111.425 93.5724" stroke="white" stroke-width="1.1662" stroke-miterlimit="10"/>
<path d="M113.03 98.5101L114.264 102.09" stroke="white" stroke-width="1.1662" stroke-miterlimit="10"/>
<path d="M115.869 107.028L116.98 110.608" stroke="white" stroke-width="1.1662" stroke-miterlimit="10"/>
<path d="M118.585 115.423L119.819 119.003" stroke="white" stroke-width="1.1662" stroke-miterlimit="10"/>
<path d="M121.424 123.94L122.659 127.52" stroke="white" stroke-width="1.1662" stroke-miterlimit="10"/>
<path d="M124.264 132.458L125.498 136.038" stroke="white" stroke-width="1.1662" stroke-miterlimit="10"/>
<path d="M127.103 140.976L128.214 144.556" stroke="white" stroke-width="1.1662" stroke-miterlimit="10"/>
<path d="M129.819 149.37L131.053 152.95" stroke="white" stroke-width="1.1662" stroke-miterlimit="10"/>
<path d="M115.252 92.8317L116.486 96.4116" stroke="white" stroke-width="1.1662" stroke-miterlimit="10"/>
<path d="M118.091 101.349L119.326 104.929" stroke="white" stroke-width="1.1662" stroke-miterlimit="10"/>
<path d="M120.93 109.867L122.041 113.447" stroke="white" stroke-width="1.1662" stroke-miterlimit="10"/>
<path d="M123.77 118.385L124.881 121.965" stroke="white" stroke-width="1.1662" stroke-miterlimit="10"/>
<path d="M126.486 126.78L127.72 130.36" stroke="white" stroke-width="1.1662" stroke-miterlimit="10"/>
<path d="M129.325 135.297L130.559 138.877" stroke="white" stroke-width="1.1662" stroke-miterlimit="10"/>
<path d="M132.164 143.815L133.275 147.395" stroke="white" stroke-width="1.1662" stroke-miterlimit="10"/>
<path d="M135.003 152.333L136.114 155.913" stroke="white" stroke-width="1.1662" stroke-miterlimit="10"/>
<path d="M116.61 87.8935L117.844 91.4735" stroke="white" stroke-width="1.1662" stroke-miterlimit="10"/>
<path d="M119.449 96.4118L120.56 99.9918" stroke="white" stroke-width="1.1662" stroke-miterlimit="10"/>
<path d="M122.165 104.806L123.399 108.386" stroke="white" stroke-width="1.1662" stroke-miterlimit="10"/>
<path d="M125.004 113.324L126.239 116.904" stroke="white" stroke-width="1.1662" stroke-miterlimit="10"/>
<path d="M127.843 121.841L129.078 125.421" stroke="white" stroke-width="1.1662" stroke-miterlimit="10"/>
<path d="M130.683 130.359L131.794 133.939" stroke="white" stroke-width="1.1662" stroke-miterlimit="10"/>
<path d="M133.399 138.754L134.633 142.334" stroke="white" stroke-width="1.1662" stroke-miterlimit="10"/>
<path d="M136.238 147.272L137.472 150.851" stroke="white" stroke-width="1.1662" stroke-miterlimit="10"/>
<path d="M139.077 155.789L140.312 159.369" stroke="white" stroke-width="1.1662" stroke-miterlimit="10"/>
<path d="M121.671 90.7327L122.906 94.3127" stroke="white" stroke-width="1.1662" stroke-miterlimit="10"/>
<path d="M124.51 99.251L125.621 102.831" stroke="white" stroke-width="1.1662" stroke-miterlimit="10"/>
<path d="M127.35 107.769L128.461 111.349" stroke="white" stroke-width="1.1662" stroke-miterlimit="10"/>
<path d="M130.065 116.163L131.3 119.743" stroke="white" stroke-width="1.1662" stroke-miterlimit="10"/>
<path d="M132.905 124.681L134.139 128.261" stroke="white" stroke-width="1.1662" stroke-miterlimit="10"/>
<path d="M135.744 133.198L136.855 136.778" stroke="white" stroke-width="1.1662" stroke-miterlimit="10"/>
<path d="M138.583 141.716L139.694 145.296" stroke="white" stroke-width="1.1662" stroke-miterlimit="10"/>
<path d="M141.299 150.111L142.534 153.691" stroke="white" stroke-width="1.1662" stroke-miterlimit="10"/>
<path d="M125.745 94.3129L126.979 97.8928" stroke="white" stroke-width="1.1662" stroke-miterlimit="10"/>
<path d="M128.584 102.708L129.819 106.287" stroke="white" stroke-width="1.1662" stroke-miterlimit="10"/>
<path d="M131.423 111.225L132.658 114.805" stroke="white" stroke-width="1.1662" stroke-miterlimit="10"/>
<path d="M134.263 119.743L135.374 123.323" stroke="white" stroke-width="1.1662" stroke-miterlimit="10"/>
<path d="M136.979 128.261L138.213 131.841" stroke="white" stroke-width="1.1662" stroke-miterlimit="10"/>
<path d="M139.818 136.655L141.052 140.235" stroke="white" stroke-width="1.1662" stroke-miterlimit="10"/>
<path d="M142.657 145.173L143.892 148.753" stroke="white" stroke-width="1.1662" stroke-miterlimit="10"/>
</g>
<path d="M127.103 39.6263C126.856 39.1325 126.486 38.6387 125.992 38.3918C126.486 38.7621 126.856 39.1325 127.103 39.6263Z" fill="#E897A3"/>
<path d="M128.461 49.2551C128.214 48.5144 127.967 47.5268 127.72 46.5392C127.72 46.2923 127.843 46.0454 127.843 45.6751C127.843 44.811 127.843 43.8234 127.843 42.9593C127.72 43.9468 127.473 44.4406 127.103 44.6875C126.979 44.4406 126.979 44.1937 126.979 44.1937L126.485 44.6875C125.745 44.4406 125.128 42.342 124.263 42.5889C123.399 42.7124 123.523 42.9593 123.152 43.3296C122.782 43.8234 122.412 44.9344 121.794 44.6875C121.301 44.5641 121.671 43.7 121.794 43.3296C122.041 42.5889 121.918 41.7248 121.548 42.342C120.807 43.4531 119.819 42.7124 120.313 41.9717C121.054 40.9841 121.301 39.5028 119.819 40.8607C119.326 41.231 118.832 41.9717 118.338 42.5889C118.338 43.3296 118.461 44.0703 119.079 45.1813C120.683 48.0206 122.041 48.7613 123.646 48.7613C123.77 48.7613 124.017 48.7613 124.14 48.7613C124.14 49.2551 124.017 49.7488 124.017 50.1192C123.893 51.1067 123.029 50.613 123.523 51.8474C124.017 53.0819 129.078 51.1068 129.078 51.1068C129.078 51.1068 128.831 51.1068 128.461 49.2551Z" fill="#E897A3"/>
<path d="M127.72 42.5892C127.72 41.4782 127.597 40.4907 127.103 39.6265C127.473 40.4907 127.72 41.7251 127.72 42.9596C127.72 42.8361 127.72 42.7127 127.72 42.5892Z" fill="#D63C30"/>
<path d="M127.103 39.6265C126.856 39.2562 126.485 38.7624 125.992 38.392C125.745 38.1451 125.374 37.8982 125.004 37.7748C122.659 36.5403 120.066 37.7748 119.079 38.0217C118.091 38.2686 114.264 40.3672 114.141 41.4782C114.017 42.5892 116.363 40.6141 115.993 41.4782C115.622 42.3423 113.153 43.3299 114.511 44.8112C115.499 45.7988 116.857 44.194 118.091 42.5892C118.585 41.8485 119.079 41.2313 119.572 40.861C121.054 39.503 120.807 40.9844 120.066 41.972C119.572 42.7127 120.437 43.4533 121.301 42.3423C121.671 41.8485 121.795 42.5892 121.548 43.3299C121.424 43.8237 120.93 44.5644 121.548 44.6878C122.165 44.8113 122.535 43.7002 122.906 43.3299C123.276 42.8361 123.276 42.7127 124.017 42.5892C124.881 42.4658 125.498 44.5644 126.239 44.6878C126.856 44.8113 127.473 44.4409 127.596 42.9596C127.72 41.7251 127.473 40.4906 127.103 39.6265Z" fill="#E2603D"/>
<path d="M142.904 94.9306C143.027 94.9306 154.261 91.1038 157.964 84.808C158.952 83.2032 159.446 80.9811 157.964 79.1294C156.483 77.2777 152.903 81.4749 142.41 82.4625C137.472 82.9563 133.028 80.117 133.028 80.117L132.411 79.7467C130.312 70.4882 133.892 64.3159 132.164 54.3167C131.67 51.354 129.572 51.1071 128.337 51.1071C127.103 51.1071 124.881 50.9836 123.523 51.354C123.523 51.2305 123.523 51.2305 123.523 51.2305C123.523 51.2305 118.585 52.8353 113.4 52.3415C108.215 51.8478 98.9569 41.6017 98.9569 41.6017L95.1301 48.6381C95.1301 48.6381 94.8832 51.9712 95.7473 55.6746C93.8956 54.4401 92.908 53.3291 92.908 53.3291L85.5013 60.3656C85.5013 60.3656 85.7481 60.2421 88.7109 66.0441C94.3894 76.9074 105.129 77.1543 105.129 77.1543C105.129 77.1543 106.734 86.4128 112.536 95.054C117.597 102.584 124.757 108.263 140.188 108.633C155.125 108.88 161.051 103.695 161.544 99.745C162.038 95.3009 151.422 98.5106 142.904 94.9306Z" fill="#3844E5"/>
<path d="M61.1823 115.422C61.1823 115.422 62.6636 113.324 60.565 111.472C58.4665 109.62 56.7382 107.152 62.5402 104.065C68.3422 100.979 70.9346 99.2509 70.6877 94.6834C70.5642 90.1159 68.0953 87.6469 69.5766 85.5484C71.058 83.4498 77.1069 83.2029 78.8351 81.1043C80.5634 79.0057 79.5758 71.5989 78.0945 68.0189C76.7365 64.6859 78.0945 61.8466 79.5758 60.4887C82.1682 57.8963 84.884 58.7605 84.884 58.7605L85.6247 60.2418C85.6247 60.2418 83.2792 60.859 82.0447 63.5749C80.8103 66.2907 84.2668 75.4257 84.0199 78.0181C83.773 80.6105 82.662 83.9436 79.3289 85.6718C75.9959 87.4001 74.3911 86.289 74.1442 88.8814C73.8973 91.4738 76.3662 96.0413 73.6504 99.4978C70.9346 102.954 65.0091 106.04 64.6388 108.263C64.2684 110.485 66.1201 109.62 66.367 111.842C66.7374 114.065 65.5029 115.052 65.5029 115.052L61.1823 115.422Z" fill="#98A1F4"/>
<path d="M98.8334 40.1201C98.8334 40.1201 103.031 33.7008 100.685 29.5037C98.3397 25.3065 93.4018 25.8003 92.1673 24.5658C90.9329 23.3313 92.0439 18.7638 96.3645 20.3686C100.685 21.9734 100.809 23.0844 103.895 22.0969C106.981 21.1093 106.364 18.3935 107.968 19.1341C109.573 19.9983 105.993 24.1954 106.981 27.652C107.968 30.985 108.956 33.207 112.906 32.4664C121.794 30.8616 117.104 27.4051 120.56 25.8003C124.017 24.1954 125.374 25.4299 126.609 23.4548C128.214 20.7389 126.115 18.27 124.51 19.2576C122.906 20.2452 125.868 21.2327 122.906 22.0969C119.943 22.961 118.091 23.0844 117.104 26.0471C115.993 29.5037 111.425 30.4912 110.314 28.0223C109.203 25.5534 109.697 24.5658 110.437 21.85C111.178 19.1341 111.919 17.0355 107.968 16.6652C104.635 16.2949 105.129 18.6404 103.895 19.7514C102.537 20.7389 100.932 18.27 95.5004 17.4059C90.0687 16.5418 88.5874 19.8748 88.3405 21.9734C88.0936 24.072 89.0812 26.9113 91.797 27.7754C94.5128 28.6395 98.4631 29.1333 98.4631 31.9726C98.4631 34.8119 97.1052 38.0215 97.1052 38.0215L98.8334 40.1201Z" fill="#98A1F4"/>
<path d="M57.8492 115.546C57.8492 115.546 52.6644 109.497 54.6396 106.411C56.6147 103.325 58.5898 103.202 64.7622 102.831C70.9345 102.337 73.4034 97.0293 76.1193 95.7948C78.8351 94.5603 84.1433 96.9058 87.7232 91.7211C89.6984 88.7583 88.0936 83.9439 89.6984 82.8329C91.3032 81.7219 92.6611 82.8329 95.0066 79.2529C96.7348 76.6606 97.1052 70.982 93.0314 69.1303C83.7729 64.9332 86.3653 61.4766 86.3653 61.4766L85.1309 59.1312C85.1309 59.1312 81.5509 61.847 83.7729 65.9207C85.2543 68.5131 93.2783 72.4634 92.5377 76.0433C91.797 79.6233 89.0811 77.895 87.7232 79.7467C85.2543 82.9563 86.9826 88.388 84.1433 90.3631C81.304 92.3383 78.7116 90.7335 76.1193 91.7211C73.5269 92.7086 71.0579 97.6465 66.4904 98.7575C61.9229 99.8685 59.7009 98.0168 55.1333 100.239C51.183 102.214 49.0845 104.806 50.3189 109.497C51.5534 114.188 54.763 115.67 54.763 115.67L57.8492 115.546Z" fill="#98A1F4"/>
<path d="M118.585 2.09891C117.597 0.494103 114.141 -1.1107 112.166 0.987889C110.191 3.08648 110.561 8.14779 107.969 9.13536C105.376 10.1229 101.796 8.39468 99.6976 8.76502C97.5991 9.13536 96.1177 10.9871 96.2411 13.0857C96.3646 15.1842 100.562 19.9987 99.6976 23.2083C98.8335 26.4179 95.8708 28.5165 93.0315 29.6275C90.1923 30.7385 89.6985 32.0964 90.0688 33.9481C90.686 36.9108 92.9081 37.4046 93.7722 37.2812C94.0191 37.2812 94.266 37.2812 94.3894 37.4046C94.3894 37.4046 94.3894 37.4046 94.5129 37.4046C94.7598 37.2812 95.2536 37.2812 95.7474 37.4046L96.7349 37.775C96.7349 37.775 97.1053 36.6639 95.9943 35.5529C95.6239 35.1826 94.3894 35.5529 93.6488 34.8123C92.044 33.084 93.7722 31.973 95.5005 31.2323C97.2287 30.4916 101.056 28.393 101.796 25.6772C102.537 22.9614 102.537 21.2331 101.796 18.2704C101.056 15.1842 98.957 12.4684 102.537 12.0981C105.993 11.7277 111.302 13.2091 113.153 9.38226C114.758 5.80231 114.882 4.1975 116.733 4.07405C118.585 3.95061 119.696 4.07405 118.585 2.09891Z" fill="#98A1F4"/>
<path d="M97.9694 38.6389C97.2287 38.0217 96.8583 37.7748 96.1177 37.6513C95.6239 37.5279 94.8832 37.4044 94.6363 37.4044C93.7722 37.7748 94.1425 38.5154 94.1425 38.5154C93.0315 39.2561 93.1549 39.9968 93.1549 39.9968C93.1549 39.9968 92.6612 39.9968 92.1674 40.7375C91.5501 41.8485 92.0439 42.2188 92.0439 42.2188C92.0439 42.2188 91.1798 42.7126 91.1798 43.8236C91.1798 44.9347 91.5501 46.2926 92.4143 46.9098C93.0315 47.4036 93.6487 47.7739 93.6487 47.7739L95.1301 48.7615L99.0804 41.4782C98.9569 41.4782 99.2038 39.6265 97.9694 38.6389Z" fill="#E897A3"/>
<path d="M113.03 42.3423C112.413 42.5892 111.425 42.8361 111.425 43.3299C111.548 43.9471 112.289 43.9471 112.783 43.4534C113.277 42.9596 113.647 42.0954 113.03 42.3423Z" fill="#D63C30"/>
<path d="M92.0439 46.2924C92.0439 46.2924 91.0563 46.4158 91.1797 47.8972C91.3032 49.7489 93.1549 48.8847 93.1549 49.8723C93.0315 50.9833 92.1673 50.4895 92.1673 50.4895C92.1673 50.4895 91.797 51.9709 93.5252 52.2178C95.5004 52.4647 97.9693 48.8847 96.1176 48.6378C92.6611 48.1441 93.6487 47.1565 93.6487 47.1565L92.0439 46.2924Z" fill="#98A1F4"/>
<path d="M46.1218 122.953L42.0481 151.222H70.8111L68.2187 122.953V122.706H46.1218V122.953Z" fill="#E2603D"/>
<path d="M38.8385 116.534C37.8509 116.657 37.1102 117.028 37.8509 117.521C38.0978 117.645 39.3322 117.768 41.3074 117.768V116.41C39.7026 116.534 38.8385 116.534 38.8385 116.534Z" fill="#D63C30"/>
<path d="M75.0082 114.805C74.8848 114.805 73.7738 114.805 72.0455 114.929V116.904C74.2675 116.781 75.6255 116.657 75.7489 116.534C76.4896 116.163 75.7489 114.929 75.0082 114.805Z" fill="#E2603D"/>
<path d="M46.739 117.768L46.1218 122.706H68.0953L67.6015 117.027C61.5526 117.398 53.0348 117.768 46.739 117.768Z" fill="#4550D8"/>
<path d="M41.3074 116.41V117.768C42.7887 117.768 44.6404 117.768 46.739 117.768C53.0348 117.645 61.5526 117.398 67.7249 117.027C69.3297 116.904 70.9346 116.904 72.169 116.781V114.805C65.1326 115.176 47.85 116.04 41.3074 116.41Z" fill="#E2603D"/>
<path d="M91.4267 44.5641C91.5502 43.0827 89.4516 41.4779 85.6247 43.0827C81.6744 44.811 81.6744 47.5268 84.1434 48.5144C86.6123 49.5019 89.575 49.7488 90.686 49.9957C91.797 50.1192 91.3033 50.9833 91.3033 50.9833L92.5377 51.724C92.5377 51.724 93.155 48.0206 90.0688 47.6502C82.7854 46.6627 88.2171 43.3296 88.8343 44.811C89.8219 47.6502 91.6736 47.4034 91.6736 47.4034L92.2908 46.1689C92.0439 46.2923 91.3033 45.7985 91.4267 44.5641Z" fill="#98A1F4"/>
<path d="M93.155 53.5759C93.155 53.5759 93.1549 51.6007 92.6612 50.9835C92.1674 50.3663 91.1798 49.749 90.686 49.9959C89.9453 50.4897 90.3157 50.9835 90.3157 50.9835C90.3157 50.9835 89.4516 50.4897 88.7109 50.9835C87.9702 51.4773 87.8467 52.218 87.8467 52.218C87.8467 52.218 87.4764 52.0945 86.9826 52.5883C86.4888 53.0821 86.6123 54.1931 86.6123 54.1931C86.6123 54.1931 85.5013 54.44 85.2544 55.0572C85.0075 55.6745 84.7606 57.6496 85.2544 58.6372C85.7482 59.6248 86.1185 60.3654 86.1185 60.3654L93.155 53.5759Z" fill="#E897A3"/>
<path d="M93.5253 156.407L92.6611 157.641L67.1077 144.679C67.1077 144.679 66.6139 143.815 67.2311 143.198C67.8484 142.457 68.2187 142.581 68.2187 142.581C68.2187 142.581 67.2311 142.951 68.7125 143.692C70.0704 144.556 93.6487 155.79 93.6487 155.79L93.5253 156.407Z" fill="#F49684"/>
<path d="M124.263 106.781C124.263 106.781 125.992 113.201 109.45 125.916C96.6114 135.668 95.5004 147.519 95.5004 147.519" stroke="#660000" stroke-width="0.291549" stroke-miterlimit="10" stroke-linejoin="round"/>
<path d="M121.795 152.21C121.795 152.21 122.782 152.58 128.214 149.124C132.658 146.284 135.374 145.05 135.374 145.05" stroke="#660000" stroke-width="0.291549" stroke-miterlimit="10" stroke-linejoin="round"/>
<path d="M79.4524 141.47C79.4524 141.47 81.9213 143.568 86.1185 145.914C90.0688 148.136 90.4391 147.766 90.4391 147.766" stroke="#660000" stroke-width="0.291549" stroke-miterlimit="10" stroke-linejoin="round"/>
<path d="M62.5402 85.7955C62.5402 85.7955 60.9354 79.9935 67.7249 78.5121C79.2055 75.9198 73.0331 70.6116 72.6628 63.3282C72.4159 56.0449 78.4648 54.687 78.4648 54.687" stroke="#660000" stroke-width="0.291549" stroke-miterlimit="10" stroke-linejoin="round"/>
<path d="M139.077 79.6233C139.077 79.6233 142.657 80.9812 147.595 79.6233C152.533 78.2654 154.878 76.4137 154.878 76.4137" stroke="#660000" stroke-width="0.291549" stroke-miterlimit="10" stroke-linejoin="round"/>
<path d="M150.558 76.0433C153.027 74.9323 153.644 74.1916 153.644 74.1916" stroke="#660000" stroke-width="0.291549" stroke-miterlimit="10" stroke-linejoin="round"/>
<path d="M141.793 77.648C141.793 77.648 145.249 78.1418 148.953 76.7839" stroke="#660000" stroke-width="0.291549" stroke-miterlimit="10" stroke-linejoin="round"/>
<path d="M96.4879 71.1053C96.4879 71.1053 99.9444 75.9198 112.413 74.9322C118.585 74.4384 121.671 72.4633 121.671 72.4633" stroke="white" stroke-width="0.291549" stroke-miterlimit="10" stroke-linejoin="round"/>
<path d="M134.016 82.9563C134.016 82.9563 136.238 89.7459 142.287 93.3258C146.854 96.0416 150.434 95.6713 150.434 95.6713" stroke="white" stroke-width="0.291549" stroke-miterlimit="10" stroke-linejoin="round"/>
<path d="M102.537 58.6373C104.265 59.0076 106.117 59.1311 108.215 59.0076C113.03 58.6373 119.326 52.5884 123.276 51.3539C124.51 50.9836 126.239 50.6133 128.214 50.9836" stroke="white" stroke-width="0.291549" stroke-miterlimit="10" stroke-linejoin="round"/>
<path d="M96.3645 56.045C97.3521 56.6622 98.5865 57.2795 99.9445 57.8967" stroke="white" stroke-width="0.291549" stroke-miterlimit="10" stroke-linejoin="round"/>
<path d="M69.8235 81.1044C69.8235 81.1044 66.6138 81.1044 65.5028 84.1906C64.3918 87.1533 68.7124 91.1036 66.8607 94.1898C65.6263 96.2884 61.9229 95.6711 61.9229 95.6711" stroke="#660000" stroke-width="0.291549" stroke-miterlimit="10" stroke-linejoin="round"/>
<path d="M90.439 92.9553C90.439 92.9553 90.1922 97.276 84.7605 98.5104C76.9834 100.239 78.3413 100.609 76.1192 103.942C74.2675 106.534 70.5641 106.905 70.5641 106.905" stroke="#660000" stroke-width="0.291549" stroke-miterlimit="10" stroke-linejoin="round"/>
<path d="M71.1814 109.497C71.1814 109.497 73.4035 109.497 75.5021 108.016C77.6007 106.535 78.9586 104.436 78.9586 104.436" stroke="#660000" stroke-width="0.291549" stroke-miterlimit="10" stroke-linejoin="round"/>
<path d="M94.3894 10.2464C94.3894 10.2464 94.7598 6.17263 98.5866 5.92574C101.426 5.80229 104.018 7.77744 106.24 6.41952C108.215 5.18506 107.845 2.71613 107.845 2.71613" stroke="#660000" stroke-width="0.291549" stroke-miterlimit="10" stroke-linejoin="round"/>
<path d="M79.329 47.7741L72.1691 49.9961L75.5021 55.0574L79.329 47.7741Z" fill="#E2603D"/>
<path d="M71.058 69.3772C71.058 69.3772 68.3422 60.9829 71.058 56.4153C72.169 54.6871 73.6504 53.0823 74.8848 52.3416" stroke="#660000" stroke-width="0.291549" stroke-miterlimit="10" stroke-linejoin="round"/>
<path d="M74.1442 51.2305C74.1442 51.2305 72.7863 51.6009 70.8111 53.8229C69.2063 55.5512 68.836 57.0325 68.836 57.0325" stroke="#660000" stroke-width="0.291549" stroke-miterlimit="10" stroke-linejoin="round"/>
<path d="M89.575 90.8567L92.1674 92.3381L92.7846 86.1658L89.575 90.8567Z" fill="#45A0D4"/>
<path d="M94.3894 13.4561C94.3894 13.4561 95.6239 15.1843 94.3894 15.6781C93.155 16.1719 91.3033 14.814 89.4516 16.9126" stroke="#660000" stroke-width="0.291549" stroke-miterlimit="10" stroke-linejoin="round"/>
<path d="M152.286 95.5476C152.286 95.5476 155.742 95.671 157.224 95.7945C159.94 96.0414 160.186 96.4117 160.186 96.4117" stroke="#660000" stroke-width="0.291549" stroke-miterlimit="10" stroke-linejoin="round"/>
</g>
<defs>
<clipPath id="clip0">
<rect width="149" height="166.77" fill="white" transform="translate(26)"/>
</clipPath>
</defs>
</svg>
