<svg width="378" height="431" viewBox="0 0 378 431" fill="none" xmlns="http://www.w3.org/2000/svg">
<g clip-path="url(#clip0)">
<path d="M211.808 21.6389C192.97 40.2231 197.552 79.1734 120.161 104.631C66.4446 122.197 46.0784 122.452 22.9119 151.219C-17.8206 202.134 -6.61915 319.749 74.8457 336.042C156.311 352.335 168.53 350.299 229.12 387.212C289.709 424.126 355.645 392.049 370.41 345.716C387.976 290.728 362.519 285.381 373.211 167.257C383.903 48.8787 334.515 18.3294 295.31 4.83675C256.869 -8.65587 224.537 9.16457 211.808 21.6389Z" fill="#FEF1E6"/>
<path d="M221.482 82.7383C221.482 82.7383 214.609 81.9745 211.045 85.284C207.481 88.5936 207.226 92.1576 211.045 93.176C211.808 93.4305 212.827 93.4305 213.845 93.4305C216.9 93.4305 220.209 92.4122 221.482 91.1393C223.264 89.6119 224.283 86.5569 223.774 85.5386C223.264 84.5203 221.482 82.7383 221.482 82.7383Z" fill="#E897A3"/>
<path d="M214.609 92.1582C214.609 92.1582 210.536 100.305 209.772 104.633C209.008 108.96 206.717 111.506 208.499 112.524C210.281 113.543 212.318 114.052 216.137 112.015C219.955 109.979 221.737 109.979 221.228 108.96C220.719 107.942 217.155 107.178 217.155 101.832C217.155 96.486 220.21 92.1582 220.21 92.1582H214.609Z" fill="#E897A3"/>
<path d="M152.746 62.1169C146.382 65.1718 136.454 74.0821 131.871 81.4648C126.78 89.3567 124.488 103.358 128.816 112.014C133.144 120.67 134.926 119.906 134.926 119.906L150.964 105.65C150.964 105.65 144.6 101.576 146.637 91.9025C148.673 82.2285 152.237 76.3733 154.783 73.8275C158.093 70.7725 162.93 68.9905 165.475 67.9722C168.021 66.9539 167.003 65.681 165.221 65.681C163.439 65.681 161.402 66.1901 162.42 64.9173C163.439 63.6444 165.985 63.6444 165.221 62.8806C164.457 62.1169 160.129 63.6444 158.856 63.3898C157.329 62.8806 160.384 62.1169 160.893 61.0986C161.657 59.062 155.547 60.844 152.746 62.1169Z" fill="#E897A3"/>
<path d="M169.549 188.643C169.549 188.643 123.47 198.826 107.432 205.954C90.6297 213.082 84.0106 218.938 86.811 228.612C89.6114 238.286 105.141 260.943 105.141 260.943L128.053 249.996C128.053 249.996 115.069 232.685 117.106 230.648C121.179 226.32 150.71 221.483 161.911 220.211C173.113 218.938 191.697 220.211 191.697 220.211L169.549 188.643Z" fill="#E897A3"/>
<path d="M198.061 224.538C198.061 224.538 209.263 255.087 222.501 268.325C235.739 281.563 243.376 290.728 248.468 298.62C253.305 306.257 256.105 312.112 256.105 312.112L279.526 303.711C279.526 303.711 275.453 295.056 268.07 286.4C256.869 273.417 251.523 271.889 244.649 257.887C238.03 243.886 232.429 229.12 232.429 229.12L198.061 224.538Z" fill="#E897A3"/>
<path d="M95.7211 265.526L138.745 243.123C138.745 243.123 150.964 277.745 156.311 288.947C161.911 299.894 168.021 307.531 172.094 310.077C178.713 314.405 182.023 325.861 182.023 325.861L179.477 332.989C179.477 332.989 176.168 330.443 176.168 332.989C176.168 335.534 179.223 351.827 176.931 359.465C174.895 367.357 172.349 369.139 171.076 364.302C169.803 359.465 171.076 358.956 164.203 352.082C157.329 344.954 150.201 330.188 143.836 323.06C137.472 315.932 126.78 307.276 119.142 297.093C111.505 286.91 95.7211 265.526 95.7211 265.526Z" fill="#9AF4DC"/>
<path d="M242.103 316.95L286.145 301.166C286.145 301.166 294.292 315.168 299.383 338.589C304.475 362.01 305.493 380.339 302.438 394.341C299.383 408.343 298.11 416.744 297.601 418.781C297.092 420.817 297.092 421.836 297.092 421.836L289.455 424.127L288.182 418.781C288.182 418.781 285.127 420.308 279.272 424.127C273.416 427.945 264.506 432.273 261.451 430.491C258.396 428.709 267.307 425.145 268.579 409.361C273.416 357.682 242.103 316.95 242.103 316.95Z" fill="#9AF4DC"/>
<path d="M151.728 104.631C151.728 104.631 160.638 112.014 169.803 112.269C190.424 113.287 208.499 107.686 208.499 107.686L191.442 132.38C191.442 132.38 175.149 136.454 160.384 133.908C141.291 130.598 133.399 119.906 133.399 119.906L151.728 104.631Z" fill="#E2603D"/>
<path d="M222.501 83.2467C224.538 84.5196 224.792 84.7742 227.338 91.9023C229.884 99.0305 230.393 103.613 237.266 107.432C244.14 111.25 252.287 112.014 252.287 112.014L245.668 119.651C245.668 119.651 226.829 110.741 220.464 109.468C216.646 108.704 214.864 104.377 216.137 100.303C217.409 96.2302 218.173 91.3932 218.682 90.3749C219.191 89.3566 218.937 87.3199 218.937 87.3199L221.483 82.7375C221.483 82.7375 222.246 83.2467 222.501 83.2467Z" fill="#3844E5"/>
<path d="M224.537 139.256C224.537 139.256 227.592 164.968 243.376 177.697C267.816 197.045 294.292 190.935 294.292 190.935" stroke="#9ECBE3" stroke-width="5.60837" stroke-miterlimit="10"/>
<path d="M298.874 185.842C298.874 185.842 320.513 185.842 329.423 196.28C338.334 206.463 338.079 215.882 329.423 222.247C320.768 228.611 304.729 231.921 278.253 229.375C265.524 228.102 253.814 221.483 253.814 221.483C253.814 221.483 281.563 224.538 295.31 213.337C312.621 199.08 298.874 185.842 298.874 185.842Z" fill="#9ECBE3"/>
<path d="M274.18 177.695L285.381 218.682C285.381 218.682 295.31 216.899 301.929 205.698C309.312 192.969 304.984 184.568 304.984 184.568L303.966 169.293L274.18 177.695Z" fill="#98A2F4"/>
<path d="M223.01 85.7936C223.01 85.7936 228.611 95.4675 238.794 98.0133C247.449 100.304 253.559 95.9767 253.559 95.9767" stroke="#0012BF" stroke-width="5.60837" stroke-miterlimit="10"/>
<path d="M227.338 94.4482C227.338 94.4482 233.448 104.886 241.34 106.413C248.213 107.686 252.287 106.413 252.287 106.413" stroke="#0012BF" stroke-width="5.60837" stroke-miterlimit="10"/>
<path d="M293.019 62.8807L300.147 60.0803L307.784 72.8092L301.165 76.1187L293.019 62.8807Z" fill="#45A0D4"/>
<path d="M94.1937 319.749C93.6846 321.786 93.9392 321.276 97.2487 321.276C101.067 321.276 156.82 322.295 157.838 321.531C158.856 320.767 150.965 319.749 149.183 318.222C147.4 316.694 145.109 310.584 141.291 310.839C137.472 311.093 135.181 314.657 135.181 314.657C135.181 314.657 135.435 305.747 129.325 304.983C123.216 304.22 122.197 310.839 122.197 310.839C122.197 310.839 118.888 307.529 115.833 309.82C112.778 312.112 113.542 314.657 113.542 314.657C113.542 314.657 105.65 311.348 103.104 314.148C101.576 315.93 102.595 317.458 102.595 317.458C102.595 317.458 94.9575 316.439 94.1937 319.749Z" fill="white"/>
<path d="M285.636 345.718H346.48C346.48 345.718 334.26 344.445 329.933 342.154C325.605 339.862 316.694 340.626 313.13 340.626C309.566 340.626 306.257 335.28 302.693 336.044C299.129 337.062 297.092 340.117 297.092 340.117C297.092 340.117 296.837 334.007 293.528 337.062C290.218 340.117 285.636 345.718 285.636 345.718Z" fill="white"/>
<path d="M241.085 167.769C240.83 167.26 240.576 167.005 240.321 166.751C238.284 163.95 236.757 161.659 235.739 160.386C233.957 161.15 228.865 163.186 222.246 164.205C222.246 168.533 222.755 173.115 223.773 177.952C224.028 179.225 224.283 180.498 224.792 182.025C228.865 182.025 233.702 181.771 236.757 181.007C241.594 179.734 248.213 177.697 250.759 176.934C248.977 175.406 245.413 173.115 241.085 167.769Z" fill="#E897A3"/>
<path d="M274.435 143.328C263.997 130.854 250.25 122.198 241.34 117.107C231.92 111.761 220.464 109.215 220.464 109.215C220.464 109.215 216.136 111.761 211.299 112.27C206.462 112.779 208.754 107.687 208.754 107.687C208.754 107.687 204.171 112.524 199.334 116.343C194.752 120.162 183.55 143.837 179.986 156.566C176.422 169.295 177.95 177.696 176.422 185.334C176.422 185.588 174.131 185.843 171.84 185.843C169.549 185.843 167.003 185.334 167.003 185.334C167.003 185.334 184.314 215.628 198.825 227.848C213.336 240.322 239.048 229.885 239.048 229.885C239.048 229.885 229.884 204.427 224.537 181.515C220.973 181.515 217.918 181.515 216.136 181.26C213.336 181.006 212.063 178.46 212.572 177.696C213.845 176.169 212.318 174.896 211.554 173.114C210.79 170.823 213.591 170.059 212.827 168.786C211.808 167.259 210.79 164.204 214.863 164.458C217.409 164.458 219.7 164.458 221.992 163.949C221.992 146.129 228.611 132.381 228.611 132.381C228.611 132.381 244.649 134.673 251.777 148.42C253.814 152.238 234.466 159.112 234.466 159.112C234.466 159.112 234.72 159.621 235.23 160.385C235.993 161.658 237.521 163.949 239.812 166.749C240.067 167.004 240.321 167.259 240.576 167.768C240.576 167.768 240.576 167.768 240.576 168.022C244.649 173.368 248.468 175.66 250.25 176.678C251.013 177.187 251.523 177.187 251.523 177.187C251.523 177.187 268.579 171.077 274.944 164.204C280.29 158.857 280.29 150.456 274.435 143.328Z" fill="#E2603D"/>
<path d="M222.246 163.95C219.955 164.205 217.664 164.459 215.118 164.459C211.045 164.459 212.063 167.26 213.081 168.787C213.845 170.06 211.045 170.824 211.808 173.115C212.318 174.897 213.845 176.17 212.827 177.697C212.063 178.461 213.59 181.007 216.391 181.261C217.918 181.516 221.228 181.516 224.792 181.516C224.537 180.243 224.283 178.716 223.774 177.443C222.755 173.115 222.246 168.532 222.246 163.95Z" fill="#E897A3"/>
<path d="M229.374 273.161C229.374 273.161 235.23 268.833 240.576 277.234C245.922 285.635 246.686 292 243.376 290.217C238.794 287.672 235.23 282.835 231.666 278.507C228.102 274.179 229.374 273.161 229.374 273.161Z" fill="#FDA48E"/>
<path d="M91.6478 219.7C91.9024 218.682 92.9207 215.372 90.6295 215.372C86.5563 219.191 85.2834 223.264 86.8108 228.356C87.32 230.392 88.5929 232.938 89.8658 235.738C90.6295 235.738 91.1387 233.702 91.1387 232.938C90.1204 225.81 89.6112 225.81 91.6478 219.7Z" fill="#FDA48E"/>
<path d="M235.23 283.6C235.23 283.6 237.266 285.891 239.303 284.618C241.34 283.091 240.321 280.545 240.321 280.545" stroke="white" stroke-width="1.40209" stroke-miterlimit="10"/>
<path d="M84.2652 223.519C84.2652 223.519 82.9923 226.828 86.3018 226.574C89.6113 226.319 91.1388 224.537 91.1388 224.537" stroke="white" stroke-width="1.40209" stroke-miterlimit="10"/>
<path d="M186.86 175.15C186.86 175.15 189.151 182.024 183.55 183.806C178.713 185.333 175.658 185.079 175.658 185.079" stroke="white" stroke-width="1.40209" stroke-miterlimit="10"/>
<path d="M195.007 122.199C195.007 122.199 191.188 121.69 190.933 124.744C190.933 127.799 193.734 128.309 193.734 128.309" stroke="white" stroke-width="1.40209" stroke-miterlimit="10"/>
<path d="M208.753 125.254C208.753 125.254 204.935 124.49 204.426 127.545C203.917 131.364 209.517 131.109 209.517 131.109" stroke="white" stroke-width="1.40209" stroke-miterlimit="10"/>
<mask id="mask0" mask-type="alpha" maskUnits="userSpaceOnUse" x="167" y="107" width="112" height="127">
<path d="M274.435 143.328C263.997 130.854 250.25 122.198 241.34 117.107C231.92 111.761 220.464 109.215 220.464 109.215C220.464 109.215 216.136 111.761 211.299 112.27C206.462 112.779 208.754 107.687 208.754 107.687C208.754 107.687 204.171 112.524 199.334 116.343C194.752 120.162 183.55 143.837 179.986 156.566C176.422 169.295 177.95 177.696 176.422 185.334C176.422 185.588 174.131 185.843 171.84 185.843C169.549 185.843 167.003 185.334 167.003 185.334C167.003 185.334 184.314 215.628 198.825 227.848C213.336 240.322 239.048 229.885 239.048 229.885C239.048 229.885 229.884 204.427 224.537 181.515C220.973 181.515 217.918 181.515 216.136 181.26C213.336 181.006 212.063 178.46 212.572 177.696C213.845 176.169 212.318 174.896 211.554 173.114C210.79 170.823 213.591 170.059 212.827 168.786C211.808 167.259 210.79 164.204 214.863 164.458C217.409 164.458 219.7 164.458 221.992 163.949C221.992 146.129 228.611 132.381 228.611 132.381C228.611 132.381 244.649 134.673 251.777 148.42C253.814 152.238 234.466 159.112 234.466 159.112C234.466 159.112 234.72 159.621 235.23 160.385C235.993 161.658 237.521 163.949 239.812 166.749C240.067 167.004 240.321 167.259 240.576 167.768C240.576 167.768 240.576 167.768 240.576 168.022C244.649 173.368 248.468 175.66 250.25 176.678C251.013 177.187 251.523 177.187 251.523 177.187C251.523 177.187 268.579 171.077 274.944 164.204C280.29 158.857 280.29 150.456 274.435 143.328Z" fill="#E2603D"/>
</mask>
<g mask="url(#mask0)">
<path d="M166.748 181.007L161.402 179.988L162.42 174.642L166.748 181.007Z" stroke="white" stroke-width="1.40209" stroke-miterlimit="10"/>
<path d="M169.803 164.967L164.457 163.948L165.475 158.857L169.803 164.967Z" stroke="white" stroke-width="1.40209" stroke-miterlimit="10"/>
<path d="M172.858 149.184L167.512 148.166L168.53 143.074L172.858 149.184Z" stroke="white" stroke-width="1.40209" stroke-miterlimit="10"/>
<path d="M175.913 133.399L170.567 132.38L171.585 127.034L175.913 133.399Z" stroke="white" stroke-width="1.40209" stroke-miterlimit="10"/>
<path d="M178.968 117.361L173.622 116.343L174.64 111.251L178.968 117.361Z" stroke="white" stroke-width="1.40209" stroke-miterlimit="10"/>
<path d="M171.84 231.413L166.748 230.394L167.766 225.048L171.84 231.413Z" stroke="white" stroke-width="1.40209" stroke-miterlimit="10"/>
<path d="M174.894 215.373L169.803 214.354L170.821 209.263L174.894 215.373Z" stroke="white" stroke-width="1.40209" stroke-miterlimit="10"/>
<path d="M177.95 199.59L172.858 198.572L173.876 193.226L177.95 199.59Z" stroke="white" stroke-width="1.40209" stroke-miterlimit="10"/>
<path d="M181.004 183.805L175.913 182.786L176.931 177.44L181.004 183.805Z" stroke="white" stroke-width="1.40209" stroke-miterlimit="10"/>
<path d="M184.06 167.767L178.968 166.749L179.986 161.657L184.06 167.767Z" stroke="white" stroke-width="1.40209" stroke-miterlimit="10"/>
<path d="M187.114 151.984L182.023 150.966L183.041 145.619L187.114 151.984Z" stroke="white" stroke-width="1.40209" stroke-miterlimit="10"/>
<path d="M190.169 136.199L185.078 135.181L186.096 129.835L190.169 136.199Z" stroke="white" stroke-width="1.40209" stroke-miterlimit="10"/>
<path d="M193.224 120.162L188.133 119.144L189.151 114.052L193.224 120.162Z" stroke="white" stroke-width="1.40209" stroke-miterlimit="10"/>
<path d="M186.351 233.959L181.004 233.195L182.023 227.849L186.351 233.959Z" stroke="white" stroke-width="1.40209" stroke-miterlimit="10"/>
<path d="M189.406 218.173L184.06 217.155L185.078 212.063L189.406 218.173Z" stroke="white" stroke-width="1.40209" stroke-miterlimit="10"/>
<path d="M192.46 202.391L187.114 201.372L188.133 196.026L192.46 202.391Z" stroke="white" stroke-width="1.40209" stroke-miterlimit="10"/>
<path d="M195.515 186.351L190.169 185.332L191.188 180.241L195.515 186.351Z" stroke="white" stroke-width="1.40209" stroke-miterlimit="10"/>
<path d="M198.57 170.568L193.224 169.55L194.243 164.458L198.57 170.568Z" stroke="white" stroke-width="1.40209" stroke-miterlimit="10"/>
<path d="M201.625 154.784L196.279 153.766L197.297 148.42L201.625 154.784Z" stroke="white" stroke-width="1.40209" stroke-miterlimit="10"/>
<path d="M204.68 138.745L199.334 137.727L200.352 132.635L204.68 138.745Z" stroke="white" stroke-width="1.40209" stroke-miterlimit="10"/>
<path d="M207.735 122.963L202.389 121.944L203.407 116.853L207.735 122.963Z" stroke="white" stroke-width="1.40209" stroke-miterlimit="10"/>
<path d="M210.79 107.177L205.444 106.159L206.462 100.813L210.79 107.177Z" stroke="white" stroke-width="1.40209" stroke-miterlimit="10"/>
<path d="M200.607 236.757L195.516 235.738L196.534 230.647L200.607 236.757Z" stroke="white" stroke-width="1.40209" stroke-miterlimit="10"/>
<path d="M203.662 220.974L198.57 219.956L199.589 214.864L203.662 220.974Z" stroke="white" stroke-width="1.40209" stroke-miterlimit="10"/>
<path d="M206.717 205.191L201.625 204.172L202.643 198.826L206.717 205.191Z" stroke="white" stroke-width="1.40209" stroke-miterlimit="10"/>
<path d="M209.772 189.151L204.68 188.133L205.699 183.042L209.772 189.151Z" stroke="white" stroke-width="1.40209" stroke-miterlimit="10"/>
<path d="M212.827 173.369L207.735 172.35L208.753 167.259L212.827 173.369Z" stroke="white" stroke-width="1.40209" stroke-miterlimit="10"/>
<path d="M215.882 157.585L210.79 156.567L211.809 151.221L215.882 157.585Z" stroke="white" stroke-width="1.40209" stroke-miterlimit="10"/>
<path d="M218.937 141.546L213.845 140.528L214.863 135.436L218.937 141.546Z" stroke="white" stroke-width="1.40209" stroke-miterlimit="10"/>
<path d="M221.991 125.763L216.9 124.744L217.918 119.398L221.991 125.763Z" stroke="white" stroke-width="1.40209" stroke-miterlimit="10"/>
<path d="M225.046 109.978L219.955 108.96L220.973 103.614L225.046 109.978Z" stroke="white" stroke-width="1.40209" stroke-miterlimit="10"/>
<path d="M215.118 239.557L209.772 238.539L210.79 233.448L215.118 239.557Z" stroke="white" stroke-width="1.40209" stroke-miterlimit="10"/>
<path d="M218.173 223.774L212.827 222.756L213.845 217.409L218.173 223.774Z" stroke="white" stroke-width="1.40209" stroke-miterlimit="10"/>
<path d="M221.228 207.737L215.882 206.973L216.9 201.627L221.228 207.737Z" stroke="white" stroke-width="1.40209" stroke-miterlimit="10"/>
<path d="M224.283 191.952L218.937 190.934L219.955 185.842L224.283 191.952Z" stroke="white" stroke-width="1.40209" stroke-miterlimit="10"/>
<path d="M227.338 176.169L221.991 175.15L223.01 169.804L227.338 176.169Z" stroke="white" stroke-width="1.40209" stroke-miterlimit="10"/>
<path d="M230.393 160.129L225.047 159.111L226.065 154.02L230.393 160.129Z" stroke="white" stroke-width="1.40209" stroke-miterlimit="10"/>
<path d="M233.447 144.347L228.101 143.328L229.12 138.237L233.447 144.347Z" stroke="white" stroke-width="1.40209" stroke-miterlimit="10"/>
<path d="M236.502 128.563L231.156 127.545L232.175 122.199L236.502 128.563Z" stroke="white" stroke-width="1.40209" stroke-miterlimit="10"/>
<path d="M239.557 112.523L234.211 111.505L235.23 106.413L239.557 112.523Z" stroke="white" stroke-width="1.40209" stroke-miterlimit="10"/>
<path d="M232.429 226.575L227.338 225.556L228.356 220.21L232.429 226.575Z" stroke="white" stroke-width="1.40209" stroke-miterlimit="10"/>
<path d="M235.484 210.537L230.393 209.519L231.411 204.427L235.484 210.537Z" stroke="white" stroke-width="1.40209" stroke-miterlimit="10"/>
<path d="M238.539 194.753L233.447 193.734L234.466 188.643L238.539 194.753Z" stroke="white" stroke-width="1.40209" stroke-miterlimit="10"/>
<path d="M241.594 178.969L236.503 177.951L237.521 172.605L241.594 178.969Z" stroke="white" stroke-width="1.40209" stroke-miterlimit="10"/>
<path d="M244.649 162.93L239.557 161.912L240.576 156.82L244.649 162.93Z" stroke="white" stroke-width="1.40209" stroke-miterlimit="10"/>
<path d="M247.704 147.147L242.612 146.129L243.631 141.037L247.704 147.147Z" stroke="white" stroke-width="1.40209" stroke-miterlimit="10"/>
<path d="M250.759 131.364L245.667 130.346L246.431 124.999L250.759 131.364Z" stroke="white" stroke-width="1.40209" stroke-miterlimit="10"/>
<path d="M253.814 115.324L248.722 114.306L249.486 109.214L253.814 115.324Z" stroke="white" stroke-width="1.40209" stroke-miterlimit="10"/>
<path d="M246.94 229.121L241.594 228.357L242.612 223.011L246.94 229.121Z" stroke="white" stroke-width="1.40209" stroke-miterlimit="10"/>
<path d="M249.995 213.336L244.649 212.318L245.667 207.226L249.995 213.336Z" stroke="white" stroke-width="1.40209" stroke-miterlimit="10"/>
<path d="M253.05 197.553L247.704 196.534L248.722 191.188L253.05 197.553Z" stroke="white" stroke-width="1.40209" stroke-miterlimit="10"/>
<path d="M256.105 181.515L250.759 180.752L251.777 175.406L256.105 181.515Z" stroke="white" stroke-width="1.40209" stroke-miterlimit="10"/>
<path d="M259.16 165.73L253.814 164.712L254.832 159.62L259.16 165.73Z" stroke="white" stroke-width="1.40209" stroke-miterlimit="10"/>
<path d="M262.215 149.947L256.869 148.929L257.887 143.583L262.215 149.947Z" stroke="white" stroke-width="1.40209" stroke-miterlimit="10"/>
<path d="M265.015 133.907L259.923 133.144L260.942 127.797L265.015 133.907Z" stroke="white" stroke-width="1.40209" stroke-miterlimit="10"/>
<path d="M268.07 118.125L262.979 117.106L263.997 112.015L268.07 118.125Z" stroke="white" stroke-width="1.40209" stroke-miterlimit="10"/>
<path d="M261.196 231.921L256.105 230.903L257.123 225.812L261.196 231.921Z" stroke="white" stroke-width="1.40209" stroke-miterlimit="10"/>
<path d="M264.251 216.137L259.16 215.119L260.178 210.027L264.251 216.137Z" stroke="white" stroke-width="1.40209" stroke-miterlimit="10"/>
<path d="M267.306 200.353L262.215 199.335L263.233 193.989L267.306 200.353Z" stroke="white" stroke-width="1.40209" stroke-miterlimit="10"/>
<path d="M270.361 184.316L265.27 183.298L266.033 178.206L270.361 184.316Z" stroke="white" stroke-width="1.40209" stroke-miterlimit="10"/>
<path d="M273.416 168.531L268.325 167.512L269.088 162.421L273.416 168.531Z" stroke="white" stroke-width="1.40209" stroke-miterlimit="10"/>
<path d="M276.471 152.747L271.379 151.729L272.143 146.383L276.471 152.747Z" stroke="white" stroke-width="1.40209" stroke-miterlimit="10"/>
<path d="M279.526 136.708L274.18 135.69L275.198 130.598L279.526 136.708Z" stroke="white" stroke-width="1.40209" stroke-miterlimit="10"/>
<path d="M282.581 120.925L277.235 119.907L278.253 114.815L282.581 120.925Z" stroke="white" stroke-width="1.40209" stroke-miterlimit="10"/>
</g>
<mask id="mask1" mask-type="alpha" maskUnits="userSpaceOnUse" x="133" y="104" width="76" height="31">
<path d="M151.728 104.631C151.728 104.631 160.638 112.014 169.803 112.269C190.424 113.287 208.499 107.686 208.499 107.686L191.442 132.38C191.442 132.38 175.149 136.454 160.384 133.908C141.291 130.598 133.399 119.906 133.399 119.906L151.728 104.631Z" fill="#E2603D"/>
</mask>
<g mask="url(#mask1)">
<path d="M147.146 127.798L141.8 126.78L142.818 121.688L147.146 127.798Z" stroke="white" stroke-width="1.40209" stroke-miterlimit="10"/>
<path d="M150.201 112.014L144.855 110.996L145.873 105.65L150.201 112.014Z" stroke="white" stroke-width="1.40209" stroke-miterlimit="10"/>
<path d="M161.402 130.598L156.311 129.58L157.329 124.233L161.402 130.598Z" stroke="white" stroke-width="1.40209" stroke-miterlimit="10"/>
<path d="M164.457 114.815L159.366 113.797L160.384 108.451L164.457 114.815Z" stroke="white" stroke-width="1.40209" stroke-miterlimit="10"/>
<path d="M175.913 133.399L170.567 132.38L171.585 127.034L175.913 133.399Z" stroke="white" stroke-width="1.40209" stroke-miterlimit="10"/>
<path d="M178.968 117.361L173.622 116.343L174.64 111.251L178.968 117.361Z" stroke="white" stroke-width="1.40209" stroke-miterlimit="10"/>
<path d="M190.169 136.199L185.078 135.181L186.096 129.835L190.169 136.199Z" stroke="white" stroke-width="1.40209" stroke-miterlimit="10"/>
<path d="M193.225 120.162L188.133 119.144L189.151 114.052L193.225 120.162Z" stroke="white" stroke-width="1.40209" stroke-miterlimit="10"/>
<path d="M196.279 104.377L191.188 103.358L192.206 98.0122L196.279 104.377Z" stroke="white" stroke-width="1.40209" stroke-miterlimit="10"/>
<path d="M204.68 138.745L199.334 137.727L200.353 132.635L204.68 138.745Z" stroke="white" stroke-width="1.40209" stroke-miterlimit="10"/>
<path d="M207.735 122.963L202.389 121.944L203.407 116.853L207.735 122.963Z" stroke="white" stroke-width="1.40209" stroke-miterlimit="10"/>
<path d="M210.79 107.177L205.444 106.159L206.462 100.813L210.79 107.177Z" stroke="white" stroke-width="1.40209" stroke-miterlimit="10"/>
</g>
<path d="M209.008 106.669C204.68 105.142 185.332 129.072 204.426 167.768C231.411 221.993 267.816 224.539 267.816 224.539" stroke="#9ECBE3" stroke-width="5.60837" stroke-miterlimit="10"/>
<path d="M274.18 177.696L296.583 195.007L294.037 214.355" stroke="#660000" stroke-width="1.40209" stroke-miterlimit="10" stroke-linejoin="round"/>
<path d="M303.966 169.293L291.237 190.678" stroke="#660000" stroke-width="1.40209" stroke-miterlimit="10" stroke-linejoin="round"/>
<path d="M295.31 206.718L298.619 210.027" stroke="#660000" stroke-width="1.40209" stroke-miterlimit="10" stroke-linejoin="round"/>
<path d="M308.293 181.515L293.273 182.788L295.565 207.736L300.147 207.991C300.147 207.991 305.239 200.354 306.002 193.48C306.511 191.698 308.293 181.515 308.293 181.515Z" fill="white"/>
<path d="M293.528 182.786L301.165 192.715L302.948 195.006L295.819 207.735" stroke="#45A0D4" stroke-width="1.40209" stroke-miterlimit="10"/>
<path d="M308.294 181.515L301.165 192.716" stroke="#45A0D4" stroke-width="1.40209" stroke-miterlimit="10"/>
<path d="M300.911 198.571L303.202 203.153" stroke="#45A0D4" stroke-width="1.40209" stroke-miterlimit="10"/>
<path d="M275.962 223.519C275.962 223.519 313.131 229.884 332.733 218.937C344.953 212.063 339.861 205.444 339.861 205.444" stroke="#45A0D4" stroke-width="1.40209" stroke-miterlimit="10"/>
<path d="M185.078 262.725H238.539C238.539 262.725 234.466 261.706 232.175 260.179C229.884 258.651 227.338 254.578 222.755 255.087C218.173 255.596 214.609 258.651 213.082 257.888C211.554 257.124 200.607 254.833 197.043 256.869C193.479 258.906 188.387 259.415 186.605 260.433C184.823 261.452 185.078 262.725 185.078 262.725Z" fill="white"/>
<path d="M313.64 165.475L320.004 149.946L306.766 148.418L313.64 165.475Z" fill="#D63C30"/>
<path d="M303.202 99.0309L314.658 97.5034L315.931 111.505L307.784 113.796L303.202 99.0309Z" fill="#45A0D4"/>
<path d="M293.019 62.8801L301.929 67.4625L301.165 76.1182" stroke="#660000" stroke-width="1.40209" stroke-miterlimit="10" stroke-linejoin="round"/>
<path d="M303.202 99.0309L311.348 104.632L308.039 113.542" stroke="#660000" stroke-width="1.40209" stroke-miterlimit="10" stroke-linejoin="round"/>
<path d="M300.147 60.0803L298.874 65.681" stroke="#660000" stroke-width="1.40209" stroke-miterlimit="10" stroke-linejoin="round"/>
<path d="M301.674 69.5001L307.784 72.8096" stroke="#660000" stroke-width="1.40209" stroke-miterlimit="10" stroke-linejoin="round"/>
<path d="M309.821 103.104L314.658 97.5034" stroke="#660000" stroke-width="1.40209" stroke-miterlimit="10" stroke-linejoin="round"/>
<path d="M310.33 107.687L316.185 111.251" stroke="#660000" stroke-width="1.40209" stroke-miterlimit="10" stroke-linejoin="round"/>
<path d="M151.474 65.4274C151.983 65.682 154.529 64.1545 155.547 65.9366C156.311 67.7186 153.256 67.7186 151.474 68.7369C149.692 69.7552 147.4 70.0098 147.4 70.0098" stroke="#660000" stroke-width="1.40209" stroke-miterlimit="10" stroke-linejoin="round"/>
<path d="M240.576 181.004C252.286 190.424 264.506 193.733 274.18 194.751" stroke="#45A0D4" stroke-width="1.40209" stroke-miterlimit="10"/>
<path d="M132.635 124.744C136.454 128.308 144.6 134.418 158.347 136.709" stroke="#660000" stroke-width="1.40209" stroke-miterlimit="10" stroke-linejoin="round"/>
<path d="M127.798 80.9556C122.452 89.3566 120.161 104.122 124.488 113.287C125.507 115.324 126.27 116.851 127.034 118.124" stroke="#660000" stroke-width="1.40209" stroke-miterlimit="10" stroke-linejoin="round"/>
<path d="M313.64 163.186C316.44 145.874 316.185 129.327 313.13 114.052" stroke="#660000" stroke-width="1.40209" stroke-miterlimit="10" stroke-linejoin="round"/>
<path d="M303.202 86.5569C303.711 87.5752 304.22 88.5935 304.729 89.6118C305.748 91.903 306.766 94.1942 307.53 96.4854" stroke="#660000" stroke-width="1.40209" stroke-miterlimit="10" stroke-linejoin="round"/>
<path d="M221.228 33.3502C249.232 37.678 273.162 49.134 290.219 67.9728C293.274 71.2823 296.074 74.8464 298.62 78.665" stroke="#660000" stroke-width="1.40209" stroke-miterlimit="10" stroke-linejoin="round"/>
<path d="M91.1389 248.213C86.3019 239.558 82.7378 232.939 80.7012 226.065C77.6463 216.137 84.5199 210.281 101.831 202.898C109.723 199.589 124.743 195.261 138.236 191.952" stroke="#660000" stroke-width="1.40209" stroke-miterlimit="10" stroke-linejoin="round"/>
<path d="M142.054 218.174C142.054 218.174 185.078 212.064 201.88 218.174C215.373 223.265 221.228 217.155 221.228 217.155" stroke="#660000" stroke-width="1.40209" stroke-miterlimit="10" stroke-linejoin="round"/>
<path d="M192.206 225.301C192.206 225.301 203.407 255.85 216.646 269.088C229.884 282.326 237.521 291.491 242.612 299.383C243.631 301.165 244.649 302.947 245.667 304.475" stroke="#660000" stroke-width="1.40209" stroke-miterlimit="10" stroke-linejoin="round"/>
<path d="M311.349 136.455L311.858 150.966" stroke="#660000" stroke-width="1.40209" stroke-miterlimit="10" stroke-linejoin="round"/>
<path d="M256.614 32.8422C270.362 38.6975 282.327 46.8439 292.51 57.027C293.019 57.5362 293.528 58.0454 293.783 58.5545" stroke="#660000" stroke-width="1.40209" stroke-miterlimit="10" stroke-linejoin="round"/>
<path d="M251.09 30.8709C251.369 29.6367 249.371 28.1339 246.628 27.5144C243.886 26.895 241.436 27.3933 241.157 28.6276C240.879 29.8619 242.876 31.3646 245.619 31.9841C248.362 32.6036 250.811 32.1052 251.09 30.8709Z" stroke="#660000" stroke-width="1.40209" stroke-miterlimit="10" stroke-linejoin="round"/>
<path d="M263.997 410.125C268.579 358.445 237.266 317.458 237.266 317.458" stroke="#660000" stroke-width="1.40209" stroke-miterlimit="10" stroke-linejoin="round"/>
<path d="M173.367 306.512C179.986 310.84 183.296 321.532 183.296 321.532" stroke="#660000" stroke-width="1.40209" stroke-miterlimit="10" stroke-linejoin="round"/>
<path d="M175.658 303.711C178.968 306.002 181.514 310.075 183.296 313.385" stroke="#660000" stroke-width="1.40209" stroke-miterlimit="10" stroke-linejoin="round"/>
</g>
<defs>
<clipPath id="clip0">
<rect width="377.03" height="431" fill="white"/>
</clipPath>
</defs>
</svg>
