<svg width="155" height="169" viewBox="0 0 155 169" fill="none" xmlns="http://www.w3.org/2000/svg">
<path d="M57.8626 47.5153C38.3657 51.1673 36.7544 65.7751 16.7742 73.3599C-3.20604 80.9447 0.177708 90.4023 8.23425 111.752C16.2908 133.102 -9.97354 141.155 4.36711 152.766C24.6696 169.153 97.5008 164.659 114.903 147.803C132.305 130.948 123.765 77.9482 114.903 61.5613C106.041 45.1743 75.9092 44.2379 57.8626 47.5153Z" fill="#D2E9F9"/>
<path d="M117.219 81.1795C117.219 82.1246 117.219 83.1879 117.219 83.1879L77.9973 95.1198C77.9973 95.1198 75.2801 93.1114 77.9973 91.8119C80.7145 90.5124 93.0008 87.559 94.4184 87.2046C95.8361 86.8501 97.8444 86.3776 96.8993 85.6688C94.7729 84.133 97.6082 81.8884 97.6082 81.8884L117.219 76.454C117.219 76.5722 117.337 77.3991 117.219 81.1795Z" fill="#3844E5"/>
<path d="M108.004 67.2395C108.359 66.1762 112.966 65.4674 114.029 65.2311C114.266 65.113 115.211 64.8767 116.038 64.5223C115.683 59.9149 114.266 57.1977 114.856 55.5438C115.447 53.8899 122.653 56.2526 122.653 56.2526L126.906 37.4687C126.906 37.4687 115.211 34.5153 101.27 35.8148C94.7729 36.4055 80.7145 38.7683 73.0355 43.2575C62.285 49.6369 56.6144 50.8183 56.6144 50.8183L60.8673 67.3576C60.8673 67.3576 68.6644 66.6488 71.2635 67.9483C73.0355 68.8934 71.6179 72.9101 73.6262 73.2645C75.8708 73.6189 75.7527 73.5008 75.8708 74.0914C76.1071 74.8003 74.5713 75.0365 74.6894 75.7454C75.0439 77.8719 97.3719 71.3743 108.359 68.3027C108.477 68.1846 108.004 67.3576 108.004 67.2395Z" fill="#3844E5"/>
<mask id="mask0" mask-type="alpha" maskUnits="userSpaceOnUse" x="56" y="35" width="71" height="42">
<path d="M108.004 67.2395C108.359 66.1762 112.966 65.4674 114.029 65.2311C114.266 65.113 115.211 64.8767 116.038 64.5223C115.683 59.9149 114.266 57.1977 114.856 55.5438C115.447 53.8899 122.653 56.2526 122.653 56.2526L126.906 37.4687C126.906 37.4687 115.211 34.5153 101.27 35.8148C94.7729 36.4055 80.7145 38.7683 73.0355 43.2575C62.285 49.6369 56.6144 50.8183 56.6144 50.8183L60.8673 67.3576C60.8673 67.3576 68.6644 66.6488 71.2635 67.9483C73.0355 68.8934 71.6179 72.9101 73.6262 73.2645C75.8708 73.6189 75.7527 73.5008 75.8708 74.0914C76.1071 74.8003 74.5713 75.0365 74.6894 75.7454C75.0439 77.8719 97.3719 71.3743 108.359 68.3027C108.477 68.1846 108.004 67.3576 108.004 67.2395Z" fill="#3844E5"/>
</mask>
<g mask="url(#mask0)">
<path d="M108.713 -12.8573L65.8291 150.173" stroke="white" stroke-width="1.04833" stroke-miterlimit="10"/>
<path d="M104.106 -10.9678L61.2217 152.18" stroke="white" stroke-width="1.04833" stroke-miterlimit="10"/>
<path d="M99.6165 -8.95978L56.7325 154.07" stroke="white" stroke-width="1.04833" stroke-miterlimit="10"/>
<path d="M95.0091 -6.95154L52.1251 156.079" stroke="white" stroke-width="1.04833" stroke-miterlimit="10"/>
<path d="M90.4017 -4.94257L47.5178 158.087" stroke="white" stroke-width="1.04833" stroke-miterlimit="10"/>
<path d="M85.7944 -3.05255L43.0285 160.096" stroke="white" stroke-width="1.04833" stroke-miterlimit="10"/>
<path d="M81.3051 -1.04456L38.4211 161.985" stroke="white" stroke-width="1.04833" stroke-miterlimit="10"/>
<path d="M76.6978 0.964722L33.8138 163.995" stroke="white" stroke-width="1.04833" stroke-miterlimit="10"/>
<path d="M72.0904 2.85431L29.3246 166.003" stroke="white" stroke-width="1.04833" stroke-miterlimit="10"/>
<path d="M67.6012 4.86267L24.7172 168.011" stroke="white" stroke-width="1.04833" stroke-miterlimit="10"/>
<path d="M154.432 -32.705L111.548 130.443" stroke="white" stroke-width="1.04833" stroke-miterlimit="10"/>
<path d="M149.825 -30.6971L106.941 132.333" stroke="white" stroke-width="1.04833" stroke-miterlimit="10"/>
<path d="M145.218 -28.6888L102.334 134.341" stroke="white" stroke-width="1.04833" stroke-miterlimit="10"/>
<path d="M140.61 -26.7982L97.8444 136.35" stroke="white" stroke-width="1.04833" stroke-miterlimit="10"/>
<path d="M136.121 -24.7899L93.237 138.358" stroke="white" stroke-width="1.04833" stroke-miterlimit="10"/>
<path d="M131.514 -22.7819L88.6297 140.248" stroke="white" stroke-width="1.04833" stroke-miterlimit="10"/>
<path d="M126.906 -20.7726L84.1405 142.257" stroke="white" stroke-width="1.04833" stroke-miterlimit="10"/>
<path d="M122.417 -18.883L79.5331 144.265" stroke="white" stroke-width="1.04833" stroke-miterlimit="10"/>
<path d="M117.81 -16.8746L74.9257 146.155" stroke="white" stroke-width="1.04833" stroke-miterlimit="10"/>
<path d="M113.202 -14.8667L70.3183 148.163" stroke="white" stroke-width="1.04833" stroke-miterlimit="10"/>
<path d="M108.713 -12.8573L65.8291 150.173" stroke="white" stroke-width="1.04833" stroke-miterlimit="10"/>
<path d="M104.106 -10.9678L61.2217 152.18" stroke="white" stroke-width="1.04833" stroke-miterlimit="10"/>
<path d="M99.6165 -8.95978L56.7325 154.07" stroke="white" stroke-width="1.04833" stroke-miterlimit="10"/>
<path d="M95.0091 -6.95154L52.1251 156.079" stroke="white" stroke-width="1.04833" stroke-miterlimit="10"/>
<path d="M90.4017 -4.94257L47.5178 158.087" stroke="white" stroke-width="1.04833" stroke-miterlimit="10"/>
<path d="M85.7944 -3.05255L43.0285 160.096" stroke="white" stroke-width="1.04833" stroke-miterlimit="10"/>
<path d="M81.3051 -1.04456L38.4211 161.985" stroke="white" stroke-width="1.04833" stroke-miterlimit="10"/>
<path d="M76.6978 0.964722L33.8138 163.995" stroke="white" stroke-width="1.04833" stroke-miterlimit="10"/>
<path d="M72.0904 2.85431L29.3246 166.003" stroke="white" stroke-width="1.04833" stroke-miterlimit="10"/>
<path d="M67.6012 4.86267L24.7172 168.011" stroke="white" stroke-width="1.04833" stroke-miterlimit="10"/>
<path d="M154.432 -32.705L111.548 130.443" stroke="white" stroke-width="1.04833" stroke-miterlimit="10"/>
<path d="M149.825 -30.6971L106.941 132.333" stroke="white" stroke-width="1.04833" stroke-miterlimit="10"/>
<path d="M145.218 -28.6888L102.334 134.341" stroke="white" stroke-width="1.04833" stroke-miterlimit="10"/>
<path d="M140.61 -26.7982L97.8444 136.35" stroke="white" stroke-width="1.04833" stroke-miterlimit="10"/>
<path d="M136.121 -24.7899L93.237 138.358" stroke="white" stroke-width="1.04833" stroke-miterlimit="10"/>
<path d="M131.514 -22.7819L88.6297 140.248" stroke="white" stroke-width="1.04833" stroke-miterlimit="10"/>
<path d="M126.906 -20.7726L84.1405 142.257" stroke="white" stroke-width="1.04833" stroke-miterlimit="10"/>
<path d="M122.417 -18.883L79.5331 144.265" stroke="white" stroke-width="1.04833" stroke-miterlimit="10"/>
<path d="M117.81 -16.8746L74.9257 146.155" stroke="white" stroke-width="1.04833" stroke-miterlimit="10"/>
<path d="M113.202 -14.8667L70.3183 148.163" stroke="white" stroke-width="1.04833" stroke-miterlimit="10"/>
</g>
<path d="M120.527 161.395C120.291 161.749 119.936 162.104 119.464 161.986C115.683 161.867 93.5915 162.104 93.237 161.631C93.1189 161.513 93.1189 161.277 93.0008 160.804C93.0008 161.749 93.0008 162.576 93.237 162.813C93.7096 163.285 115.683 163.049 119.464 163.167C119.818 163.167 120.291 162.813 120.527 162.576C120.763 162.222 120.881 161.277 120.763 160.568C120.645 161.04 120.645 161.277 120.527 161.395Z" fill="#9ECBE3"/>
<path d="M84.7312 40.5405C84.7312 40.5405 85.7944 43.7302 87.5665 46.6836C88.9841 49.2827 88.3934 52.7087 85.2037 52.9449C81.8958 53.1812 79.8875 50.7003 79.7694 48.2194C79.6512 45.7385 79.7694 42.4307 79.7694 42.4307L84.7312 40.5405Z" fill="#E897A3"/>
<path d="M118.755 102.09C118.519 102.327 117.337 103.272 116.865 103.862C114.62 106.225 99.6165 109.887 98.7895 109.06C98.0807 108.352 97.8444 105.989 97.3718 105.989L97.1356 106.225C96.4267 107.288 98.1988 109.297 96.8993 110.124C95.8361 110.951 81.7777 115.558 77.8791 115.912C78.7061 119.575 80.1237 123.828 79.8875 133.515C79.7693 137.886 78.8242 142.375 78.4698 143.084L97.8444 143.793C97.8444 143.793 98.1988 142.375 98.5532 139.894C98.5532 140.013 98.5532 140.013 98.5532 140.013L114.502 138.949C114.502 138.949 116.51 134.224 118.046 123.237C119.227 114.377 119.582 105.162 118.755 102.09Z" fill="#E897A3"/>
<path d="M120.645 97.4824C119.7 94.6471 119.109 94.1745 118.755 90.7485C118.4 87.3225 117.219 83.0696 117.219 83.0696L77.9973 95.0015C77.9973 95.0015 79.8875 95.9466 80.9507 97.2461C82.014 98.5456 79.0605 98.9 76.1071 100.318C73.1536 101.853 76.6978 105.87 75.6345 110.359C74.4531 115.203 75.6345 115.203 77.0522 115.794C77.1703 115.912 77.5247 115.912 77.9973 115.794C81.8958 115.439 95.8361 110.714 97.0174 110.005C98.1988 109.178 96.4268 107.17 97.2537 106.106C97.3719 105.988 97.49 105.87 97.49 105.87C98.0807 105.87 98.317 108.115 98.9077 108.942C99.6165 109.769 113.911 107.17 118.873 102.444C121.472 100.081 119.582 100.2 119.7 99.4907C119.582 98.9 121.118 99.0182 120.645 97.4824Z" fill="#9AF4DC"/>
<path d="M56.7325 50.8182C56.7325 50.8182 56.0237 51.0545 55.433 51.1727C53.8972 51.4089 50.7075 51.8815 47.5178 50.9364C41.3746 49.2825 40.1932 46.4471 39.3662 44.2025C38.8937 42.7849 38.7756 40.5403 39.3662 39.0045C40.1932 36.9961 41.3746 36.051 41.4927 34.8696C41.6109 33.5701 41.3746 32.7432 40.1932 33.2157C39.8388 33.3339 39.0118 34.0427 38.7756 33.5701C38.1849 31.9162 37.3579 30.4985 36.6491 30.2623C35.3496 29.9079 36.1765 31.6799 34.9952 31.7981C34.1682 31.9162 33.3412 29.6716 31.2147 29.7897C28.9701 29.9079 30.9785 31.7981 30.0334 32.625C29.0883 33.452 26.8436 30.853 24.9534 31.2074C23.0632 31.5618 24.9534 33.9245 24.9534 34.279C24.9534 34.6334 23.6539 33.9245 22.827 34.279C20.4642 35.2241 24.2446 39.1226 24.7172 41.0128C25.0716 43.0211 24.3628 52.1178 32.3961 61.2144C39.3662 69.0114 55.0786 68.0663 59.6859 67.5938C60.3948 67.4757 61.2217 67.3575 61.2217 67.3575L56.7325 50.8182Z" fill="#E897A3"/>
<path d="M105.641 79.9979L92.1738 83.4238C90.9924 83.7783 89.811 83.0694 89.5748 81.8881L88.1571 76.4537C87.8027 75.2723 88.5115 74.091 89.6929 73.8547L103.161 70.4287C104.342 70.0743 105.523 70.7831 105.76 71.9645L107.177 77.2807C107.414 78.4621 106.705 79.6434 105.641 79.9979Z" fill="#D63C30"/>
<path d="M109.186 68.7746L103.988 70.0741L106.468 79.6433L111.666 78.3438C112.493 78.1075 113.084 77.0442 112.73 76.0991L111.194 70.3104C110.958 69.2471 110.013 68.5383 109.186 68.7746Z" fill="#44A1DB"/>
<mask id="mask1" mask-type="alpha" maskUnits="userSpaceOnUse" x="103" y="68" width="10" height="12">
<path d="M109.186 68.7746L103.988 70.0741L106.468 79.6433L111.666 78.3438C112.493 78.1075 113.084 77.0442 112.73 76.0991L111.194 70.3104C110.958 69.2471 110.013 68.5383 109.186 68.7746Z" fill="#44A1DB"/>
</mask>
<g mask="url(#mask1)">
<path d="M98.5534 90.04L110.485 53.4173" stroke="#45A0D4" stroke-width="1.04833" stroke-miterlimit="10"/>
<path d="M99.7347 90.9846L111.548 54.3619" stroke="#45A0D4" stroke-width="1.04833" stroke-miterlimit="10"/>
<path d="M100.798 91.9299L112.73 55.3072" stroke="#45A0D4" stroke-width="1.04833" stroke-miterlimit="10"/>
<path d="M101.979 92.8751L113.911 56.2524" stroke="white" stroke-width="1.04833" stroke-miterlimit="10"/>
<path d="M103.161 93.8205L115.093 57.1978" stroke="white" stroke-width="1.04833" stroke-miterlimit="10"/>
<path d="M104.342 94.7648L116.156 58.1421" stroke="white" stroke-width="1.04833" stroke-miterlimit="10"/>
<path d="M105.405 95.7098L117.337 58.969" stroke="white" stroke-width="1.04833" stroke-miterlimit="10"/>
<path d="M106.587 96.6551L118.519 59.9143" stroke="white" stroke-width="1.04833" stroke-miterlimit="10"/>
<path d="M107.768 97.6007L119.7 60.8599" stroke="#45A0D4" stroke-width="1.04833" stroke-miterlimit="10"/>
<path d="M108.949 98.5461L120.763 61.8053" stroke="#45A0D4" stroke-width="1.04833" stroke-miterlimit="10"/>
<path d="M91.7014 84.4869L103.515 47.7461" stroke="#45A0D4" stroke-width="1.04833" stroke-miterlimit="10"/>
<path d="M92.7646 85.4322L104.696 48.6914" stroke="#45A0D4" stroke-width="1.04833" stroke-miterlimit="10"/>
<path d="M93.9459 86.3779L105.878 49.6371" stroke="#45A0D4" stroke-width="1.04833" stroke-miterlimit="10"/>
<path d="M95.1273 87.3222L107.059 50.5814" stroke="#45A0D4" stroke-width="1.04833" stroke-miterlimit="10"/>
<path d="M96.3087 88.2674L108.122 51.5266" stroke="#45A0D4" stroke-width="1.04833" stroke-miterlimit="10"/>
<path d="M97.3719 89.2128L109.304 52.4719" stroke="#45A0D4" stroke-width="1.04833" stroke-miterlimit="10"/>
</g>
<path d="M106.114 78.8169L92.6464 82.2429C91.4651 82.5973 90.2837 81.8885 90.0474 80.7071L88.6298 75.3909C88.2753 74.2095 88.9842 73.0282 90.1655 72.7919L103.633 69.3659C104.815 69.0115 105.996 69.7203 106.232 70.9017L107.65 76.2179C107.886 77.3993 107.177 78.5806 106.114 78.8169Z" fill="#E2603D"/>
<path d="M109.658 67.7118L103.988 69.2476L106.469 78.8167L112.139 77.2809C112.966 77.0447 113.557 75.9814 113.202 75.0363L111.667 69.2476C111.43 68.1843 110.485 67.4755 109.658 67.7118Z" fill="#44A1DB"/>
<path d="M112.021 76.9266L106.823 78.2261C106.705 78.2261 106.705 78.3442 106.586 78.3442L92.0556 82.1246C91.2286 82.3609 90.4016 81.7702 90.0472 80.707L90.1654 81.2976C90.4016 82.2427 91.3467 82.8334 92.1737 82.7153L106.705 78.9349C106.823 78.9349 106.823 78.9349 106.941 78.8168L112.139 77.5172C112.966 77.281 113.557 76.2177 113.202 75.2726L113.084 74.6819C113.438 75.627 112.966 76.6903 112.021 76.9266Z" fill="white"/>
<path d="M79.415 31.798C79.415 31.798 76.1071 31.9162 75.6346 35.1059C75.0439 38.2956 75.162 41.2491 78.1155 42.5486C81.0689 43.8481 82.9591 43.2574 84.7312 41.4854C86.5032 39.8314 85.9126 34.5152 84.7312 33.3338C83.6679 32.1525 80.4782 31.5618 79.415 31.798Z" fill="#E897A3"/>
<path d="M75.5164 35.5783C75.5164 35.5783 77.9973 34.8695 79.2968 33.6881C80.5963 32.5067 81.187 31.916 81.187 31.916C81.187 31.916 79.0605 31.3254 76.934 32.8611C75.3982 33.9244 75.5164 35.5783 75.5164 35.5783Z" fill="#D63C30"/>
<path d="M81.187 31.9162C81.187 31.9162 82.3684 33.9245 83.786 35.1059C85.2037 36.4054 85.7943 36.6417 85.7943 36.6417C85.7943 36.6417 85.7944 34.0427 84.4948 32.8613C83.3135 31.6799 81.187 31.9162 81.187 31.9162Z" fill="#D63C30"/>
<path d="M82.4865 33.5705C82.4865 33.5705 80.8326 26.8366 77.761 26.9547C74.6894 27.0729 73.5081 29.6719 70.7909 28.7268C68.0737 27.7817 68.0737 24.7101 64.6477 24.2376C61.2217 23.765 60.8673 25.419 60.0404 25.1827C59.2134 24.9464 58.5046 21.8748 53.8972 22.1111C49.2898 22.2292 48.6991 25.0645 47.8722 25.1827C47.0452 25.3008 46.2182 24.4739 44.5643 25.419C42.9104 26.3641 40.902 36.1695 45.982 36.5239C51.0619 36.8783 49.1717 35.8151 50.8256 36.5239C52.4795 37.2327 52.834 41.0131 55.433 41.0131C58.032 41.0131 59.2134 37.469 60.631 38.0597C62.0487 38.6504 61.9306 41.4857 64.057 41.0131C66.1835 40.5406 67.1286 34.2793 69.7276 34.1611C72.3267 34.043 73.0355 34.9881 74.335 33.216C75.6345 31.5621 75.7527 29.79 77.9973 29.6719C79.8875 29.6719 82.4865 33.5705 82.4865 33.5705Z" fill="#E2603D"/>
<path d="M98.0807 143.203C98.0807 143.203 97.0174 149.818 95.4817 153.126C93.8277 156.434 93.7096 157.497 93.7096 157.497L75.6345 156.316L78.588 143.321L98.0807 143.203Z" fill="#9ECBE3"/>
<path d="M109.776 156.552C110.249 154.898 111.194 151.59 112.021 148.637C113.202 144.266 114.62 139.068 114.62 139.068L98.6714 140.131C98.6714 140.131 98.1988 142.021 97.2537 145.329C96.5449 147.692 94.5365 154.898 94.3003 155.843C94.3003 155.725 94.4184 155.725 94.4184 155.725L109.776 156.552Z" fill="#9ECBE3"/>
<path d="M120.527 159.27C119.464 158.088 118.991 158.561 116.156 158.325C111.903 157.97 109.658 156.552 109.658 156.552L94.1822 155.489C94.1822 155.489 94.1822 155.489 94.0641 155.607C93.9459 155.844 93.5915 156.671 93.5915 157.261C93.4734 157.734 92.7645 159.27 92.8827 160.687C92.8827 161.042 93.0008 161.396 93.119 161.514C93.5915 161.987 115.565 161.751 119.345 161.869C119.7 161.869 120.172 161.514 120.409 161.278C120.527 161.16 120.645 160.805 120.645 160.569C120.763 160.215 120.881 159.624 120.527 159.27Z" fill="#E2603D"/>
<path d="M93.237 161.632C91.7012 162.577 65.3565 162.341 64.6476 161.987C64.5295 161.987 64.4114 161.869 64.4114 161.75C64.1751 162.459 64.2932 163.05 64.6476 163.168C65.3565 163.404 91.7012 163.641 93.237 162.814C94.4184 162.105 94.4184 160.451 94.3002 159.624C94.1821 160.451 93.9458 161.278 93.237 161.632Z" fill="#9ECBE3"/>
<path d="M94.1822 157.97L93.7096 157.379L75.6345 156.198C75.6345 156.198 75.0438 156.434 73.8625 157.379C72.6811 158.324 66.6561 158.442 65.3565 159.269C64.2933 159.978 63.9389 161.278 64.2933 161.75C64.4114 161.868 64.4114 161.986 64.5296 161.986C65.2384 162.223 91.5831 162.459 93.1189 161.632C93.8277 161.159 94.064 160.332 94.1822 159.624C94.4184 158.797 94.1822 157.97 94.1822 157.97Z" fill="#E2603D"/>
<path d="M68.31 90.8669L73.5081 89.4493" stroke="#660000" stroke-width="1.04833" stroke-miterlimit="10" stroke-linejoin="round"/>
<path d="M76.4614 58.2613C76.4614 58.2613 74.4531 59.7971 75.0438 61.5692C75.7526 63.8138 79.4149 62.1598 79.4149 62.1598" stroke="#660000" stroke-width="1.04833" stroke-miterlimit="10" stroke-linejoin="round"/>
<path d="M105.878 51.2907C105.878 51.2907 108.831 51.8814 108.713 53.7716C108.477 56.3706 105.051 55.5437 105.051 55.5437" stroke="#660000" stroke-width="1.04833" stroke-miterlimit="10" stroke-linejoin="round"/>
<path d="M83.4316 128.79C83.0772 130.444 84.1405 131.034 83.0772 136.114C82.4865 138.949 86.9758 139.895 88.3934 134.106C90.1655 126.427 84.2586 124.655 83.4316 128.79Z" fill="#F9A48E"/>
<path d="M112.966 120.993C111.312 122.056 112.139 125.482 111.312 129.026C110.013 134.224 114.856 134.106 115.801 130.089C116.746 126.072 117.337 118.157 112.966 120.993Z" fill="#F9A48E"/>
<path d="M113.202 126.663C113.202 126.663 114.974 129.735 116.865 126.427" stroke="white" stroke-width="1.04833" stroke-miterlimit="10"/>
<path d="M82.9591 132.452C82.9591 132.452 84.1405 136.35 87.3302 132.452" stroke="white" stroke-width="1.04833" stroke-miterlimit="10"/>
<path d="M127.024 37.4688L122.771 56.2527C122.771 56.2527 126.788 57.6703 124.425 59.7968C121.708 62.1595 118.282 63.8135 116.038 64.6404C115.211 64.9948 114.266 65.2311 114.029 65.3493C112.966 65.5855 108.359 66.2944 108.004 67.3576C107.886 67.5939 108.004 67.712 108.004 67.8301C108.24 68.539 109.304 68.8934 109.54 69.2478C109.776 69.7204 108.122 70.311 107.886 71.0199C107.65 71.8468 108.949 72.4375 109.067 72.4375C109.186 72.5557 108.949 72.7919 108.595 73.6189C108.359 74.2096 109.186 74.9184 110.249 74.9184C111.076 74.9184 110.603 75.6272 110.249 76.0998C109.658 77.0449 110.603 77.3993 111.785 77.7537C112.966 77.99 118.164 76.4542 119.818 76.0998C121.472 75.7454 137.539 73.5008 147.108 61.0963C158.922 45.9747 127.024 37.4688 127.024 37.4688Z" fill="#E897A3"/>
<path d="M80.2419 43.2575C80.2419 43.2575 82.3683 43.7301 84.0223 42.1943" stroke="white" stroke-width="1.04833" stroke-miterlimit="10"/>
<path d="M27.6706 43.2577C27.6706 43.2577 30.624 40.3043 32.6324 41.6038C34.6407 42.9033 37.0035 41.0131 37.0035 41.0131" stroke="white" stroke-width="1.04833" stroke-miterlimit="10"/>
<mask id="mask2" mask-type="alpha" maskUnits="userSpaceOnUse" x="64" y="159" width="31" height="5">
<path d="M93.237 161.632C91.7012 162.577 65.3565 162.341 64.6476 161.987C64.5295 161.987 64.4114 161.869 64.4114 161.75C64.1751 162.459 64.2932 163.05 64.6476 163.168C65.3565 163.404 91.7012 163.641 93.237 162.814C94.4184 162.105 94.4184 160.451 94.3002 159.624C94.1821 160.451 93.9458 161.278 93.237 161.632Z" fill="#9ECBE3"/>
</mask>
<g mask="url(#mask2)">
<path d="M80.1238 120.048L81.7777 174.155" stroke="#45A0D4" stroke-width="1.04833" stroke-miterlimit="10"/>
<path d="M78.1154 120.875L79.6512 174.982" stroke="#45A0D4" stroke-width="1.04833" stroke-miterlimit="10"/>
<path d="M75.989 121.819L77.5247 175.926" stroke="#45A0D4" stroke-width="1.04833" stroke-miterlimit="10"/>
<path d="M73.8625 122.765L75.3983 176.872" stroke="#45A0D4" stroke-width="1.04833" stroke-miterlimit="10"/>
<path d="M71.8541 123.71L73.3899 177.817" stroke="#45A0D4" stroke-width="1.04833" stroke-miterlimit="10"/>
<path d="M69.7277 124.656L71.2634 178.763" stroke="#45A0D4" stroke-width="1.04833" stroke-miterlimit="10"/>
<path d="M67.6013 125.6L69.137 179.707" stroke="#45A0D4" stroke-width="1.04833" stroke-miterlimit="10"/>
<path d="M65.4747 126.545L67.1286 180.652" stroke="#45A0D4" stroke-width="1.04833" stroke-miterlimit="10"/>
<path d="M63.4663 127.372L65.0021 181.597" stroke="#45A0D4" stroke-width="1.04833" stroke-miterlimit="10"/>
<path d="M94.7729 113.431L96.3087 167.656" stroke="#45A0D4" stroke-width="1.04833" stroke-miterlimit="10"/>
<path d="M92.7645 114.377L94.3003 168.484" stroke="#45A0D4" stroke-width="1.04833" stroke-miterlimit="10"/>
<path d="M90.6381 115.322L92.1739 169.429" stroke="#45A0D4" stroke-width="1.04833" stroke-miterlimit="10"/>
<path d="M88.5115 116.268L90.0473 170.375" stroke="#45A0D4" stroke-width="1.04833" stroke-miterlimit="10"/>
<path d="M86.385 117.212L88.0389 171.319" stroke="#45A0D4" stroke-width="1.04833" stroke-miterlimit="10"/>
<path d="M84.3767 118.157L85.9125 172.264" stroke="#45A0D4" stroke-width="1.04833" stroke-miterlimit="10"/>
<path d="M82.2502 119.102L83.786 173.21" stroke="#45A0D4" stroke-width="1.04833" stroke-miterlimit="10"/>
</g>
<mask id="mask3" mask-type="alpha" maskUnits="userSpaceOnUse" x="93" y="160" width="28" height="4">
<path d="M120.527 161.395C120.291 161.749 119.936 162.104 119.464 161.986C115.683 161.867 93.5915 162.104 93.237 161.631C93.1189 161.513 93.1189 161.277 93.0008 160.804C93.0008 161.749 93.0008 162.576 93.237 162.813C93.7096 163.285 115.683 163.049 119.464 163.167C119.818 163.167 120.291 162.813 120.527 162.576C120.763 162.222 120.881 161.277 120.763 160.568C120.645 161.04 120.645 161.277 120.527 161.395Z" fill="#9ECBE3"/>
</mask>
<g mask="url(#mask3)">
<path d="M103.279 147.691L104.815 201.798" stroke="#45A0D4" stroke-width="1.04833" stroke-miterlimit="10"/>
<path d="M101.152 148.637L102.688 202.744" stroke="#45A0D4" stroke-width="1.04833" stroke-miterlimit="10"/>
<path d="M99.0258 149.581L100.68 203.688" stroke="#45A0D4" stroke-width="1.04833" stroke-miterlimit="10"/>
<path d="M97.0175 150.526L98.5533 204.634" stroke="#45A0D4" stroke-width="1.04833" stroke-miterlimit="10"/>
<path d="M94.891 151.472L96.4268 205.579" stroke="#45A0D4" stroke-width="1.04833" stroke-miterlimit="10"/>
<path d="M92.7646 152.417L94.4185 206.524" stroke="#45A0D4" stroke-width="1.04833" stroke-miterlimit="10"/>
<path d="M120.054 140.249L121.59 194.474" stroke="#45A0D4" stroke-width="1.04833" stroke-miterlimit="10"/>
<path d="M117.928 141.194L119.464 195.301" stroke="#45A0D4" stroke-width="1.04833" stroke-miterlimit="10"/>
<path d="M115.801 142.139L117.337 196.246" stroke="#45A0D4" stroke-width="1.04833" stroke-miterlimit="10"/>
<path d="M113.675 143.084L115.329 197.191" stroke="#45A0D4" stroke-width="1.04833" stroke-miterlimit="10"/>
<path d="M111.667 144.029L113.202 198.137" stroke="#45A0D4" stroke-width="1.04833" stroke-miterlimit="10"/>
<path d="M109.54 144.974L111.076 199.081" stroke="#45A0D4" stroke-width="1.04833" stroke-miterlimit="10"/>
<path d="M107.414 145.919L108.949 200.026" stroke="#45A0D4" stroke-width="1.04833" stroke-miterlimit="10"/>
<path d="M105.287 146.746L106.941 200.971" stroke="#45A0D4" stroke-width="1.04833" stroke-miterlimit="10"/>
</g>
<path d="M111.312 156.433L108.359 158.087" stroke="white" stroke-width="1.04833" stroke-miterlimit="10"/>
<path d="M112.257 157.26L109.54 158.796" stroke="white" stroke-width="1.04833" stroke-miterlimit="10"/>
<path d="M70.909 157.497L72.4448 160.096" stroke="white" stroke-width="1.04833" stroke-miterlimit="10"/>
<path d="M72.5629 157.024L74.2169 159.387" stroke="white" stroke-width="1.04833" stroke-miterlimit="10"/>
<mask id="mask4" mask-type="alpha" maskUnits="userSpaceOnUse" x="75" y="143" width="24" height="15">
<path d="M98.0807 143.203C98.0807 143.203 97.0174 149.818 95.4817 153.126C93.8277 156.434 93.7096 157.497 93.7096 157.497L75.6345 156.316L78.588 143.321L98.0807 143.203Z" fill="#9ECBE3"/>
</mask>
<g mask="url(#mask4)">
<path d="M90.9924 132.806L78.8242 185.496" stroke="white" stroke-width="1.04833" stroke-miterlimit="10"/>
<path d="M89.6929 133.397L77.5247 186.204" stroke="white" stroke-width="1.04833" stroke-miterlimit="10"/>
<path d="M88.3934 134.106L76.2252 186.796" stroke="white" stroke-width="1.04833" stroke-miterlimit="10"/>
<path d="M87.0939 134.696L74.9257 187.504" stroke="white" stroke-width="1.04833" stroke-miterlimit="10"/>
<path d="M85.7944 135.406L73.6262 188.095" stroke="white" stroke-width="1.04833" stroke-miterlimit="10"/>
<path d="M84.4948 135.996L72.3267 188.685" stroke="white" stroke-width="1.04833" stroke-miterlimit="10"/>
<path d="M83.1953 136.587L71.0272 189.395" stroke="white" stroke-width="1.04833" stroke-miterlimit="10"/>
<path d="M81.8959 137.295L69.7277 189.985" stroke="white" stroke-width="1.04833" stroke-miterlimit="10"/>
<path d="M80.5963 137.886L68.4281 190.694" stroke="white" stroke-width="1.04833" stroke-miterlimit="10"/>
<path d="M79.2968 138.595L67.1286 191.284" stroke="white" stroke-width="1.04833" stroke-miterlimit="10"/>
<path d="M103.869 126.427L91.7013 179.116" stroke="white" stroke-width="1.04833" stroke-miterlimit="10"/>
<path d="M102.57 127.018L90.4018 179.826" stroke="white" stroke-width="1.04833" stroke-miterlimit="10"/>
<path d="M101.27 127.727L89.1023 180.416" stroke="white" stroke-width="1.04833" stroke-miterlimit="10"/>
<path d="M99.9709 128.317L87.9208 181.007" stroke="white" stroke-width="1.04833" stroke-miterlimit="10"/>
<path d="M98.6714 128.907L86.6213 181.715" stroke="white" stroke-width="1.04833" stroke-miterlimit="10"/>
<path d="M97.3719 129.616L85.3218 182.306" stroke="white" stroke-width="1.04833" stroke-miterlimit="10"/>
<path d="M96.0724 130.207L84.0223 183.015" stroke="white" stroke-width="1.04833" stroke-miterlimit="10"/>
<path d="M94.7728 130.916L82.7228 183.605" stroke="white" stroke-width="1.04833" stroke-miterlimit="10"/>
<path d="M93.4734 131.507L81.4233 184.314" stroke="white" stroke-width="1.04833" stroke-miterlimit="10"/>
<path d="M92.1738 132.097L80.1237 184.904" stroke="white" stroke-width="1.04833" stroke-miterlimit="10"/>
</g>
<mask id="mask5" mask-type="alpha" maskUnits="userSpaceOnUse" x="94" y="139" width="21" height="18">
<path d="M109.776 156.552C110.249 154.898 111.194 151.59 112.021 148.637C113.202 144.266 114.62 139.068 114.62 139.068L98.6714 140.131C98.6714 140.131 98.1988 142.021 97.2537 145.329C96.5449 147.692 94.5365 154.898 94.3003 155.843C94.3003 155.725 94.4184 155.725 94.4184 155.725L109.776 156.552Z" fill="#9ECBE3"/>
</mask>
<g mask="url(#mask5)">
<path d="M105.642 125.955L93.5915 178.644" stroke="white" stroke-width="1.04833" stroke-miterlimit="10"/>
<path d="M104.342 126.545L92.2919 179.353" stroke="white" stroke-width="1.04833" stroke-miterlimit="10"/>
<path d="M103.161 127.255L90.9925 179.944" stroke="white" stroke-width="1.04833" stroke-miterlimit="10"/>
<path d="M101.861 127.845L89.6929 180.652" stroke="white" stroke-width="1.04833" stroke-miterlimit="10"/>
<path d="M100.562 128.554L88.3934 181.244" stroke="white" stroke-width="1.04833" stroke-miterlimit="10"/>
<path d="M99.2621 129.144L87.0939 181.834" stroke="white" stroke-width="1.04833" stroke-miterlimit="10"/>
<path d="M97.9625 129.736L85.7943 182.543" stroke="white" stroke-width="1.04833" stroke-miterlimit="10"/>
<path d="M96.6631 130.444L84.4949 183.133" stroke="white" stroke-width="1.04833" stroke-miterlimit="10"/>
<path d="M95.3635 131.035L83.1953 183.842" stroke="white" stroke-width="1.04833" stroke-miterlimit="10"/>
<path d="M94.064 131.743L81.8958 184.433" stroke="white" stroke-width="1.04833" stroke-miterlimit="10"/>
<path d="M118.637 119.575L106.469 172.265" stroke="white" stroke-width="1.04833" stroke-miterlimit="10"/>
<path d="M117.337 120.167L105.169 172.974" stroke="white" stroke-width="1.04833" stroke-miterlimit="10"/>
<path d="M116.038 120.875L103.87 173.565" stroke="white" stroke-width="1.04833" stroke-miterlimit="10"/>
<path d="M114.738 121.465L102.57 174.273" stroke="white" stroke-width="1.04833" stroke-miterlimit="10"/>
<path d="M113.439 122.056L101.27 174.864" stroke="white" stroke-width="1.04833" stroke-miterlimit="10"/>
<path d="M112.139 122.765L99.9709 175.454" stroke="white" stroke-width="1.04833" stroke-miterlimit="10"/>
<path d="M110.84 123.356L98.6714 176.163" stroke="white" stroke-width="1.04833" stroke-miterlimit="10"/>
<path d="M109.54 124.064L97.49 176.754" stroke="white" stroke-width="1.04833" stroke-miterlimit="10"/>
<path d="M108.241 124.655L96.1905 177.463" stroke="white" stroke-width="1.04833" stroke-miterlimit="10"/>
<path d="M106.941 125.245L94.891 178.053" stroke="white" stroke-width="1.04833" stroke-miterlimit="10"/>
</g>
<path d="M96.8993 106.579C96.8993 106.579 104.933 123.945 94.6547 154.779" stroke="#660000" stroke-width="1.04833" stroke-miterlimit="10" stroke-linejoin="round"/>
<path d="M76.3433 113.313C76.3433 113.313 75.9889 114.495 77.8791 114.495C79.7693 114.613 93.9458 110.123 94.7728 109.769C96.4267 109.06 96.0723 107.879 96.0723 107.879" stroke="white" stroke-width="1.04833" stroke-miterlimit="10"/>
<path d="M99.262 106.934C99.262 106.934 99.4983 108.234 101.034 108.116C103.633 107.761 111.666 105.517 114.147 104.217C118.873 101.736 118.637 100.555 118.637 100.555" stroke="white" stroke-width="1.04833" stroke-miterlimit="10"/>
<path d="M110.603 88.7407C110.603 88.7407 112.021 92.8755 117.81 90.8672" stroke="white" stroke-width="1.04833" stroke-miterlimit="10"/>
<path d="M82.959 96.5375C82.959 96.5375 84.3767 98.9002 82.0139 100.909C79.7693 102.799 77.0521 102.208 77.0521 102.208" stroke="white" stroke-width="1.04833" stroke-miterlimit="10"/>
<path d="M35.2314 35.1064C35.2314 35.1064 31.3328 36.6422 31.3328 38.6505" stroke="#660000" stroke-width="1.04833" stroke-miterlimit="10" stroke-linejoin="round"/>
<path d="M27.6706 36.6419C28.025 36.4057 30.5059 36.1694 32.1598 37.1145" stroke="#660000" stroke-width="1.04833" stroke-miterlimit="10" stroke-linejoin="round"/>
<path d="M71.4997 78.935L82.4865 76.0997" stroke="#660000" stroke-width="1.04833" stroke-miterlimit="10" stroke-linejoin="round"/>
<path d="M75.7526 88.9769L89.5747 84.9602" stroke="#660000" stroke-width="1.04833" stroke-miterlimit="10" stroke-linejoin="round"/>
<path d="M94.4184 86.9686L105.878 83.6608" stroke="#660000" stroke-width="1.04833" stroke-miterlimit="10" stroke-linejoin="round"/>
<path d="M81.187 89.4495L86.1488 87.9137" stroke="#660000" stroke-width="1.04833" stroke-miterlimit="10" stroke-linejoin="round"/>
<path d="M69.3733 81.653L78.2336 79.2902" stroke="#660000" stroke-width="1.04833" stroke-miterlimit="10" stroke-linejoin="round"/>
<path d="M134.94 74.2098C134.94 74.2098 149.116 68.0666 152.306 58.1431" stroke="#660000" stroke-width="1.04833" stroke-miterlimit="10" stroke-linejoin="round"/>
<path d="M145.218 70.6654C145.218 70.6654 149.116 68.3027 151.125 64.7585" stroke="#660000" stroke-width="1.04833" stroke-miterlimit="10" stroke-linejoin="round"/>
<path d="M65.3369 81.6237C66.5519 81.3773 67.4422 80.7109 67.3254 80.1354C67.2087 79.5599 66.1291 79.2931 64.9141 79.5396C63.6991 79.786 62.8088 80.4523 62.9255 81.0279C63.0423 81.6034 64.1219 81.8701 65.3369 81.6237Z" stroke="#660000" stroke-width="1.04833" stroke-miterlimit="10" stroke-linejoin="round"/>
<path d="M74.335 89.3316L65.2383 87.9139L66.1834 95.2385L74.335 89.3316Z" fill="#E2603D"/>
<path d="M62.0486 91.5759L68.6644 89.9219" stroke="#660000" stroke-width="1.04833" stroke-miterlimit="10" stroke-linejoin="round"/>
<path d="M60.0403 94.4116L67.8374 92.167" stroke="#660000" stroke-width="1.04833" stroke-miterlimit="10" stroke-linejoin="round"/>
<path d="M148.525 61.5693L153.369 62.6326L153.251 54.9536L148.525 61.5693Z" fill="#98A2F4"/>
</svg>
